<?xml version="1.0" encoding="UTF-8"?>
<svg height="100%" width="100%" xmlns="http://www.w3.org/2000/svg">
	<defs>
		<font horiz-adv-x="2050" id="web">
			<font-face alphabetic="0" ascent="2028" descent="-507" font-family="" panose-1="2 11 5 4 2 2 1 1 1 4" units-per-em="2000"/>
			<missing-glyph d="M175 1400H1026V0H175ZM311 1264V136H890V1264Z" horiz-adv-x="1201"/>
			<glyph d="" horiz-adv-x="534" unicode=" "/>
			<glyph d="M170 1400H353L329 445H194ZM262 233Q287 233 309 223T349 195T377 155T387 108Q387 83 377 60T349 20T309 -7T262 -18Q237 -18 214 -7T174 20T147 60T137 108Q137 133 147 155T174 195T214 223T262 233Z" horiz-adv-x="524" unicode="!"/>
			<glyph d="M283 1440H432V933H283ZM617 1440H766V933H617Z" horiz-adv-x="1049" unicode="&quot;"/>
			<glyph d="M570 1400H709L631 1032H977L1055 1400H1194L1116 1032H1344L1315 899H1087L1004 508H1231L1203 375H976L896 0H757L837 375H491L411 0H272L352 375H121L150 508H380L463 899H233L261 1032H492ZM602 899L519 508H865L948 899Z" horiz-adv-x="1465" unicode="#"/>
			<glyph d="M644 1580H782V1390Q916 1381 1023 1341T1217 1243L1138 1118Q1067 1166 976 1200T782 1243V769L814 765Q903 754 980 728T1114 658T1203 553T1234 407Q1233 317 1197 247T1101 127T958 49T782 11V-187H644V9Q578 13 511 27T381 63T264 114T166 177L249 300Q281 274 325 250T420 206T529 173T644 155V634L607 639Q518 651 443 678T316 749T233 855T205 999Q206 1085 240 1153T333 1271T471 1350T644 1389ZM782 618V157Q846 164 900 182T993 231T1055 304T1079 400Q1080 488 1003 541T782 618ZM644 1242Q581 1235 529 1215T441 1165T383 1094T362 1003Q361 917 429 862T644 785Z" horiz-adv-x="1400" unicode="$"/>
			<glyph d="M463 1419Q542 1419 610 1391T727 1315T805 1200T833 1057Q833 979 805 912T727 797T610 720T463 693Q385 693 318 720T202 797T125 912T97 1057Q97 1134 125 1200T202 1315T318 1391T463 1419ZM463 1287Q415 1287 373 1270T302 1222T254 1149T237 1057Q237 1006 254 963T302 890T373 842T463 825Q512 825 554 842T627 890T675 963T692 1057Q692 1107 675 1149T627 1222T554 1270T463 1287ZM1332 1400H1488L605 0H449ZM1471 707Q1550 707 1618 679T1735 602T1813 487T1841 344Q1841 266 1813 199T1735 84T1618 8T1471 -19Q1393 -19 1326 8T1210 84T1133 199T1105 344Q1105 421 1133 487T1210 602T1326 679T1471 707ZM1471 575Q1423 575 1381 558T1310 510T1262 437T1245 344Q1245 293 1262 251T1310 178T1381 130T1471 113Q1520 113 1562 130T1635 178T1683 251T1701 344Q1701 395 1683 437T1635 510T1562 558T1471 575Z" horiz-adv-x="1938" unicode="%"/>
			<glyph d="M534 1419Q611 1419 675 1396T786 1332T858 1235T884 1112Q884 1052 861 1000T801 903T714 817T612 737L926 432L1143 756L1263 680L1031 330L1370 0H1154L941 207Q902 160 858 118T761 46T646 -1T510 -19Q418 -19 344 5T219 74T139 185T111 331Q111 399 134 457T195 565T283 659T386 743Q334 794 295 837T231 923T193 1009T181 1104Q181 1170 207 1227T279 1327T391 1394T534 1419ZM487 645Q443 612 403 577T334 504T288 425T271 336Q271 288 289 249T340 181T418 137T519 122Q571 122 614 134T695 170T768 228T837 307ZM534 1278Q490 1278 454 1264T394 1226T355 1168T342 1095Q342 1063 350 1036T379 980T431 916T511 834Q555 866 594 898T662 963T708 1031T725 1105Q725 1143 711 1175T673 1230T612 1265T534 1278Z" horiz-adv-x="1406" unicode="&amp;"/>
			<glyph d="M283 1440H432V933H283Z" horiz-adv-x="715" unicode="'"/>
			<glyph d="M684 1430L736 1293Q637 1252 557 1179T421 1012T335 803T305 568Q305 446 335 332T421 124T557 -43T736 -156L684 -294Q564 -248 464 -164T294 32T184 281T145 568Q145 719 184 855T294 1103T464 1300T684 1430Z" horiz-adv-x="817" unicode="("/>
			<glyph d="M133 1432Q253 1386 352 1302T523 1105T633 856T672 570Q672 419 633 283T523 34T352 -162T133 -292L81 -155Q180 -115 259 -42T395 125T482 334T512 570Q512 692 482 805T395 1014T259 1181T81 1294Z" horiz-adv-x="817" unicode=")"/>
			<glyph d="M392 1440H506V1171L761 1255L796 1145L541 1062L699 845L606 778L448 995L291 778L198 845L356 1062L101 1145L136 1255L392 1171Z" horiz-adv-x="897" unicode="*"/>
			<glyph d="M529 965H668V597H1035V461H668V96H529V461H165V597H529Z" horiz-adv-x="1200" unicode="+"/>
			<glyph d="M187 248H361L256 -259H127Z" horiz-adv-x="494" unicode=","/>
			<glyph d="M141 597H697V461H141Z" horiz-adv-x="838" unicode="-"/>
			<glyph d="M262 232Q287 232 309 222T349 194T377 154T387 107Q387 82 377 59T349 19T309 -8T262 -19Q237 -19 214 -8T174 19T147 59T137 107Q137 132 147 154T174 194T214 222T262 232Z" horiz-adv-x="523" unicode="."/>
			<glyph d="M840 1540H1005L156 -200H-9Z" horiz-adv-x="992" unicode="/"/>
			<glyph d="M709 1418Q829 1418 934 1369T1118 1227T1242 1001T1288 700Q1288 532 1242 399T1118 173T934 31T709 -18Q590 -18 484 31T300 173T176 399T131 700Q131 868 176 1001T300 1227T484 1369T709 1418ZM709 1270Q623 1270 547 1232T415 1122T326 944T293 700Q293 562 326 456T415 277T547 167T709 130Q796 130 872 167T1004 277T1094 456T1127 700Q1127 838 1094 944T1004 1122T872 1232T709 1270Z" horiz-adv-x="1419" unicode="0"/>
			<glyph d="M634 1417V0H480V1193L66 1014V1175Z" horiz-adv-x="844" unicode="1"/>
			<glyph d="M514 1418Q620 1418 703 1385T844 1294T931 1157T961 985Q961 920 944 863T901 758T840 667T773 589L355 147H1007V0H126V121L655 679Q719 746 759 820T799 985Q799 1045 780 1097T724 1188T633 1249T509 1271Q449 1271 402 1256T318 1218T251 1162T197 1096L85 1186Q110 1223 146 1263T234 1338T355 1395T514 1418Z" horiz-adv-x="1099" unicode="2"/>
			<glyph d="M507 1418Q610 1418 695 1390T842 1311T936 1190T970 1035Q970 911 910 830T751 707Q806 687 852 655T931 582T982 489T1001 375Q1001 275 960 201T853 78T699 6T520 -18Q373 -18 258 30T66 166L165 269Q231 201 322 163T517 126Q582 126 640 141T743 188T814 268T840 382Q840 443 813 490T741 569T633 619T502 636H318V777H501Q565 777 621 792T719 839T785 918T809 1027Q809 1084 785 1129T719 1207T621 1256T498 1274Q445 1274 399 1261T314 1226T243 1176T189 1115L78 1210Q108 1255 150 1293T247 1358T366 1402T507 1418Z" horiz-adv-x="1113" unicode="3"/>
			<glyph d="M575 1399H750L237 440H706V830H860V440H1099V294H860V0H706V294H52V413Z" horiz-adv-x="1152" unicode="4"/>
			<glyph d="M215 1400H974V1254H356L343 840H549Q673 840 764 807T917 718T1008 587T1038 428Q1038 321 1000 237T898 97T745 10T559 -19Q264 -19 85 199L188 299Q257 217 354 172T559 128Q636 128 695 150T795 212T857 303T878 415Q878 472 858 523T793 612T676 672T502 694H197Z" horiz-adv-x="1156" unicode="5"/>
			<glyph d="M600 1400H788L425 853Q458 870 501 881T602 893Q700 893 785 858T935 763T1035 618T1072 437Q1072 339 1034 256T931 112T774 16T576 -18Q469 -18 378 16T220 112T116 256T79 437Q79 519 105 593T183 747ZM576 750Q503 750 441 727T335 662T264 563T238 437Q238 369 263 311T334 212T441 148T576 125Q649 125 710 148T817 212T887 311T913 437Q913 506 887 563T817 662T710 727T576 750Z" horiz-adv-x="1157" unicode="6"/>
			<glyph d="M79 1400H1029V1279L396 0H216L843 1254H79Z" horiz-adv-x="1095" unicode="7"/>
			<glyph d="M630 1418Q730 1418 818 1392T973 1318T1077 1197T1116 1035Q1116 970 1097 918T1045 825T967 755T872 707Q929 688 979 658T1067 588T1127 493T1149 373Q1149 279 1108 206T996 83T831 7T630 -19Q523 -19 428 7T263 83T152 206T111 373Q111 440 133 493T192 588T280 658T388 707Q337 726 292 755T215 825T163 918T144 1035Q144 1126 182 1197T287 1318T441 1392T630 1418ZM630 638Q556 638 491 621T378 572T302 492T274 382Q274 319 302 270T378 190T492 141T630 125Q703 125 767 141T880 190T957 270T985 382Q985 445 957 492T880 572T767 621T630 638ZM630 1274Q564 1274 505 1258T402 1211T332 1133T307 1027Q307 964 332 916T402 837T505 789T630 773Q696 773 755 789T858 837T927 916T953 1027Q953 1087 927 1133T858 1211T755 1258T630 1274Z" horiz-adv-x="1261" unicode="8"/>
			<glyph d="M581 1418Q688 1418 779 1383T936 1288T1040 1143T1078 963Q1078 881 1051 806T974 653L557 0H369L711 529Q677 518 641 512T567 507Q463 507 375 541T222 637T121 781T85 963Q85 1060 122 1143T226 1288T383 1383T581 1418ZM581 1275Q508 1275 446 1251T340 1186T269 1088T244 963Q244 895 269 837T340 738T446 673T581 650Q654 650 715 673T822 737T892 836T918 963Q918 1031 892 1088T822 1187T715 1252T581 1275Z" horiz-adv-x="1157" unicode="9"/>
			<glyph d="M262 966Q287 966 309 956T349 929T377 889T387 841Q387 816 377 793T349 753T309 725T262 715Q237 715 214 725T174 753T147 793T137 841Q137 866 147 889T174 929T214 956T262 966ZM262 233Q287 233 309 223T349 195T377 155T387 108Q387 83 377 60T349 20T309 -7T262 -18Q237 -18 214 -7T174 20T147 60T137 108Q137 133 147 155T174 195T214 223T262 233Z" horiz-adv-x="523" unicode=":"/>
			<glyph d="M257 966Q282 966 304 956T344 929T372 889T382 841Q382 816 372 793T344 753T304 725T257 715Q232 715 209 725T169 753T142 793T132 841Q132 866 142 889T169 929T209 956T257 966ZM187 248H361L256 -259H127Z" horiz-adv-x="494" unicode=";"/>
			<glyph d="M994 975V816L358 530L994 243V84L207 456V603Z" horiz-adv-x="1200" unicode="&lt;"/>
			<glyph d="M165 412H1035V276H165ZM165 782H1035V646H165Z" horiz-adv-x="1200" unicode="="/>
			<glyph d="M207 975L994 603V456L207 84V243L843 529L207 816Z" horiz-adv-x="1200" unicode="&gt;"/>
			<glyph d="M288 1424Q407 1424 502 1395T665 1315T768 1190T804 1027Q804 940 774 870T686 748T544 663T353 620L345 445H210V759H274Q359 759 427 776T541 828T613 910T638 1020Q638 1078 613 1123T541 1201T428 1250T280 1267Q243 1267 207 1264T143 1260L130 1413Q163 1418 206 1421T288 1424ZM278 232Q303 232 325 222T365 194T392 154T402 107Q402 82 392 59T365 19T325 -8T278 -19Q253 -19 230 -8T190 19T162 59T152 107Q152 132 162 154T190 194T230 222T278 232Z" horiz-adv-x="864" unicode="?"/>
			<glyph d="M987 1306Q1105 1306 1211 1279T1409 1204T1573 1086T1698 931T1778 745T1806 534Q1806 441 1783 361T1719 222T1616 130T1477 97Q1383 97 1328 139T1252 246Q1206 181 1133 141T957 101Q876 101 806 131T684 214T602 340T573 500Q573 586 602 659T684 785T806 869T957 899Q1054 899 1123 862T1238 765V884H1365V422Q1365 313 1394 264T1484 215Q1524 215 1558 235T1617 294T1656 394T1670 534Q1670 679 1618 799T1474 1005T1258 1138T987 1186Q841 1186 716 1134T500 991T357 774T305 500Q305 349 357 222T500 2T716 -141T987 -193Q1108 -193 1216 -157T1419 -57L1489 -153Q1380 -233 1253 -273T987 -313Q810 -313 660 -251T401 -80T230 178T169 500Q169 614 197 718T276 912T401 1074T565 1198T762 1278T987 1306ZM974 778Q914 778 864 756T779 697T724 609T705 500Q705 441 724 390T779 302T864 243T974 222Q1033 222 1082 243T1168 301T1224 389T1244 500Q1244 560 1224 610T1168 698T1082 757T974 778Z" horiz-adv-x="1976" unicode="@"/>
			<glyph d="M611 1400H810L1385 0H1213L1054 390H361L203 0H36ZM708 1241L423 542H993Z" horiz-adv-x="1421" unicode="A"/>
			<glyph d="M202 1400H744Q854 1400 947 1379T1107 1315T1212 1201T1250 1031Q1250 972 1234 922T1191 833T1125 765T1039 721Q1091 704 1135 674T1212 603T1262 507T1280 389Q1280 287 1244 213T1141 92T980 22T770 0H202ZM363 635V151H763Q842 151 906 162T1015 202T1086 276T1111 394Q1111 464 1086 510T1015 584T906 623T763 635ZM363 1249V785H739Q811 785 873 795T982 831T1054 903T1081 1019Q1081 1088 1054 1132T982 1203T873 1239T738 1249Z" horiz-adv-x="1402" unicode="B"/>
			<glyph d="M844 1420Q935 1420 1020 1400T1180 1342T1314 1251T1415 1130L1281 1040Q1246 1092 1199 1133T1097 1204T977 1249T844 1265Q726 1265 625 1224T449 1109T332 930T290 700Q290 574 332 469T449 291T625 176T844 135Q984 135 1097 194T1281 359L1411 263Q1367 197 1307 145T1174 56T1018 0T844 -20Q688 -20 555 33T326 182T175 410T121 700Q121 857 175 989T326 1217T555 1366T844 1420Z" horiz-adv-x="1530" unicode="C"/>
			<glyph d="M202 1400H729Q900 1400 1038 1350T1274 1210T1423 989T1476 700Q1476 540 1423 410T1274 190T1038 49T729 0H202ZM363 1248V152H729Q871 152 979 191T1160 303T1270 476T1307 700Q1307 824 1270 925T1160 1098T979 1209T729 1248Z" horiz-adv-x="1598" unicode="D"/>
			<glyph d="M202 1400H1178V1249H363V780H1153V630H363V151H1187V0H202Z" horiz-adv-x="1348" unicode="E"/>
			<glyph d="M202 1400H1171V1248H363V781H1133V629H363V0H202Z" horiz-adv-x="1292" unicode="F"/>
			<glyph d="M844 1420Q1012 1420 1151 1358T1387 1185L1268 1071Q1193 1162 1084 1213T844 1265Q726 1265 625 1224T449 1109T332 930T290 700Q290 574 332 469T448 291T622 176T837 135Q948 135 1037 167T1190 259T1293 404T1341 598H905V748H1515Q1516 737 1516 727T1517 707Q1517 554 1470 421T1335 191T1121 37T837 -19Q699 -19 570 29T341 170T181 396T121 700Q121 805 146 899T217 1074T328 1218T473 1327T647 1396T844 1420Z" horiz-adv-x="1639" unicode="G"/>
			<glyph d="M202 1400H363V781H1210V1400H1371V0H1210V629H363V0H202Z" horiz-adv-x="1573" unicode="H"/>
			<glyph d="M202 1400H363V0H202Z" horiz-adv-x="565" unicode="I"/>
			<glyph d="M798 1400H958V499Q958 374 921 277T819 115T665 15T472 -19Q388 -19 321 -1T201 44T108 108T40 178L148 288Q173 257 205 229T277 180T365 147T471 135Q544 135 604 159T708 231T774 350T798 515Z" horiz-adv-x="1150" unicode="J"/>
			<glyph d="M202 1400H363V780H532L1113 1400H1321L663 713L1364 0H1145L529 628H363V0H202Z" horiz-adv-x="1388" unicode="K"/>
			<glyph d="M202 1400H363V152H1173V0H202Z" horiz-adv-x="1213" unicode="L"/>
			<glyph d="M202 1400H446L935 342L1423 1400H1668V0H1507V1220L1019 155H850L363 1212V0H202Z" horiz-adv-x="1870" unicode="M"/>
			<glyph d="M202 1400H347L1214 276V1400H1375V0H1230L363 1124V0H202Z" horiz-adv-x="1577" unicode="N"/>
			<glyph d="M844 1420Q1000 1420 1132 1366T1361 1217T1512 989T1567 700Q1567 542 1512 410T1361 182T1132 33T844 -20Q688 -20 555 33T326 182T175 410T121 700Q121 857 175 989T326 1217T555 1366T844 1420ZM844 1265Q726 1265 625 1224T449 1109T332 930T290 700Q290 574 332 469T449 291T625 176T844 135Q962 135 1063 176T1239 291T1356 469T1399 700Q1399 826 1356 930T1239 1109T1063 1224T844 1265Z" horiz-adv-x="1689" unicode="O"/>
			<glyph d="M202 1400H731Q849 1400 941 1371T1096 1289T1193 1157T1226 981Q1226 883 1193 805T1096 674T941 591T731 563H363V0H202ZM363 1248V714H726Q889 714 974 780T1059 981Q1059 1115 974 1181T726 1248Z" horiz-adv-x="1328" unicode="P"/>
			<glyph d="M844 1420Q1000 1420 1132 1366T1361 1217T1512 989T1567 700Q1567 563 1526 446T1411 239L1596 0H1407L1302 131Q1210 59 1094 19T844 -20Q688 -20 555 33T326 182T175 410T121 700Q121 857 175 989T326 1217T555 1366T844 1420ZM844 1265Q726 1265 625 1224T449 1109T332 930T290 700Q290 574 332 469T449 291T625 176T844 135Q949 135 1040 166T1203 258L879 673H1071L1306 373Q1351 440 1375 522T1399 700Q1399 826 1356 930T1239 1109T1063 1224T844 1265Z" horiz-adv-x="1689" unicode="Q"/>
			<glyph d="M202 1400H751Q869 1400 960 1374T1113 1297T1208 1173T1240 1005Q1240 914 1206 841T1108 716T955 637T753 609H730L1233 0H1033L540 609H363V0H202ZM363 1249V755H749Q910 755 991 818T1073 1005Q1073 1127 990 1188T749 1249Z" horiz-adv-x="1353" unicode="R"/>
			<glyph d="M695 1418Q775 1418 845 1406T978 1375T1095 1327T1198 1265L1116 1135Q1031 1193 926 1229T694 1266Q615 1266 548 1248T434 1198T359 1119T332 1013Q332 915 411 860T655 786L788 770Q875 759 954 734T1093 666T1189 558T1225 402Q1225 298 1181 219T1061 88T885 8T671 -19Q595 -19 518 -6T369 30T234 87T121 161L209 289Q245 258 296 230T407 180T535 146T670 133Q751 133 822 149T945 198T1028 277T1058 388Q1058 490 971 544T719 617L578 633Q488 643 412 669T282 741T196 851T165 1003Q165 1103 206 1180T320 1310T488 1390T695 1418Z" horiz-adv-x="1346" unicode="S"/>
			<glyph d="M40 1400H1172V1248H686V0H526V1248H40Z" horiz-adv-x="1212" unicode="T"/>
			<glyph d="M182 1400H342V560Q342 450 373 370T460 237T592 160T758 135Q848 135 924 160T1055 237T1142 370T1174 560V1400H1335V548Q1335 405 1290 299T1166 122T983 16T758 -19Q638 -19 533 16T350 122T227 299T182 548Z" horiz-adv-x="1517" unicode="U"/>
			<glyph d="M36 1400H207L699 160L1192 1400H1358L797 0H598Z" horiz-adv-x="1394" unicode="V"/>
			<glyph d="M58 1400H226L613 182L1009 1400H1191L1586 181L1974 1400H2139L1684 0H1486L1098 1186L710 0H513Z" horiz-adv-x="2197" unicode="W"/>
			<glyph d="M84 1400H278L685 839L1093 1400H1284L782 716L1307 0H1113L682 593L250 0H60L585 716Z" horiz-adv-x="1367" unicode="X"/>
			<glyph d="M11 1400H203L646 736L1089 1400H1276L725 587V0H565V589Z" horiz-adv-x="1287" unicode="Y"/>
			<glyph d="M131 1400H1190V1276L335 152H1193V0H121V124L977 1248H131Z" horiz-adv-x="1314" unicode="Z"/>
			<glyph d="M202 1400H671V1262H356V-125H671V-263H202Z" horiz-adv-x="752" unicode="["/>
			<glyph d="M-13 1540H152L1001 -200H836Z" horiz-adv-x="992" unicode="\"/>
			<glyph d="M81 1400H550V-263H81V-125H396V1262H81Z" horiz-adv-x="752" unicode="]"/>
			<glyph d="M527 1400H673L1029 648H867L598 1244L329 648H171Z" horiz-adv-x="1200" unicode="^"/>
			<glyph d="M-5 -136H942V-272H-5Z" horiz-adv-x="937" unicode="_"/>
			<glyph d="M271 1392H460L669 1092H522Z" horiz-adv-x="939" unicode="`"/>
			<glyph d="M576 966Q694 966 779 922T922 806V947H1071V0H922V141Q865 68 779 24T576 -19Q476 -19 389 18T239 120T139 276T103 474Q103 580 139 670T239 826T389 929T576 966ZM594 826Q518 826 455 798T348 723T279 611T255 474Q255 400 279 336T349 224T456 148T594 121Q668 121 730 148T836 222T906 334T931 474Q931 549 906 613T836 725T730 799T594 826Z" horiz-adv-x="1246" unicode="a"/>
			<glyph d="M175 1440H325V807Q382 879 467 922T670 966Q770 966 856 929T1006 826T1106 670T1143 474Q1143 367 1106 276T1006 120T856 18T670 -19Q552 -19 467 24T325 140V0H175ZM652 826Q578 826 516 799T409 725T340 613T315 474Q315 399 340 334T409 222T516 148T652 121Q728 121 790 148T897 224T965 336T990 474Q990 547 965 611T896 723T789 798T652 826Z" horiz-adv-x="1246" unicode="b"/>
			<glyph d="M593 966Q699 966 789 928T944 817L848 716Q794 768 730 797T589 826Q518 826 457 799T351 726T280 615T255 474Q255 397 280 332T351 221T457 147T589 121Q667 121 733 152T851 232L944 130Q879 57 789 19T593 -19Q484 -19 393 18T238 122T138 278T103 474Q103 579 138 669T238 825T393 928T593 966Z" horiz-adv-x="1024" unicode="c"/>
			<glyph d="M922 1440H1071V0H922V141Q865 68 779 24T576 -19Q476 -19 389 18T239 120T139 276T103 474Q103 580 139 670T239 826T389 929T576 966Q694 966 779 922T922 806ZM594 826Q518 826 455 798T348 723T279 611T255 474Q255 400 279 336T349 224T456 148T594 121Q668 121 730 148T836 222T906 334T931 474Q931 549 906 613T836 725T730 799T594 826Z" horiz-adv-x="1246" unicode="d"/>
			<glyph d="M573 966Q669 966 750 930T891 829T983 675T1018 477Q1018 446 1015 421H256Q264 344 293 286T367 190T469 131T591 112Q679 112 754 143T891 231L971 129Q927 87 880 58T784 12T685 -12T582 -19Q477 -19 389 16T237 117T138 272T103 473Q103 582 138 672T237 828T386 929T573 966ZM570 833Q504 833 450 811T357 751T292 659T258 542H866Q859 608 834 662T771 754T681 812T570 833Z" horiz-adv-x="1121" unicode="e"/>
			<glyph d="M584 1459Q665 1459 728 1439T843 1388L789 1263Q751 1286 699 1302T594 1319Q502 1319 460 1264T419 1109V947H796V812H419V0H269V812H53V947H269V1109Q269 1185 286 1249T342 1359T440 1432T584 1459Z" horiz-adv-x="863" unicode="f"/>
			<glyph d="M572 966Q687 966 771 922T910 805V947H1060V65Q1060 -51 1023 -140T919 -291T761 -383T559 -415Q502 -415 446 -406T339 -381T241 -341T160 -288L226 -168Q294 -219 378 -249T559 -279Q636 -279 700 -257T811 -193T884 -87T910 59V156Q856 81 771 38T572 -5Q472 -5 386 30T238 130T139 284T103 481Q103 588 139 677T238 831T386 930T572 966ZM589 826Q514 826 452 799T346 725T279 615T255 481Q255 409 279 346T346 236T452 162T589 135Q662 135 723 161T829 234T898 344T923 481Q923 554 898 617T829 726T723 799T589 826Z" horiz-adv-x="1235" unicode="g"/>
			<glyph d="M175 1440H325V815Q354 856 391 885T469 932T555 958T642 966Q730 966 802 939T927 862T1008 743T1037 587V0H888V538Q888 674 817 749T615 824Q555 824 502 804T410 746T348 655T325 534V0H175Z" horiz-adv-x="1201" unicode="h"/>
			<glyph d="M175 947H325V0H175ZM250 1389Q272 1389 291 1381T325 1358T347 1324T356 1283Q356 1260 347 1241T325 1208T291 1186T250 1178Q205 1178 175 1208T145 1283Q145 1328 175 1358T250 1389Z" horiz-adv-x="500" unicode="i"/>
			<glyph d="M179 947H329V-156Q329 -219 312 -267T264 -348T190 -398T93 -415Q56 -415 19 -406T-43 -383L-7 -254Q11 -263 33 -268T80 -274Q126 -274 152 -244T179 -149ZM253 1389Q275 1389 294 1381T328 1358T350 1324T359 1283Q359 1260 350 1241T328 1208T294 1186T253 1178Q208 1178 178 1208T148 1283Q148 1328 178 1358T253 1389Z" horiz-adv-x="504" unicode="j"/>
			<glyph d="M175 1440H325V563H462L827 947H1014L584 501L1021 0H832L461 427H325V0H175Z" horiz-adv-x="1058" unicode="k"/>
			<glyph d="M175 1440H325V0H175Z" horiz-adv-x="500" unicode="l"/>
			<glyph d="M642 966Q767 966 859 913T997 767Q1025 822 1066 860T1154 921T1252 955T1354 966Q1442 966 1515 939T1640 862T1721 743T1750 587V0H1601V538Q1601 674 1529 749T1327 824Q1267 824 1214 804T1122 746T1060 655T1037 534V0H888V538Q888 674 817 749T615 824Q555 824 502 804T410 746T348 655T325 534V0H175V947H323V812Q352 854 389 883T468 931T554 958T642 966Z" horiz-adv-x="1914" unicode="m"/>
			<glyph d="M642 966Q730 966 802 939T927 862T1008 743T1037 587V0H888V538Q888 674 817 749T615 824Q555 824 502 804T410 746T348 655T325 534V0H175V947H323V812Q352 854 389 883T468 931T554 958T642 966Z" horiz-adv-x="1201" unicode="n"/>
			<glyph d="M601 966Q708 966 799 928T957 825T1062 669T1100 474Q1100 369 1062 278T957 122T799 18T601 -19Q494 -19 403 18T245 122T140 278T103 474Q103 579 140 669T245 825T403 928T601 966ZM601 826Q527 826 464 799T354 726T281 615T255 474Q255 397 281 332T354 221T464 147T601 121Q674 121 737 147T847 221T920 332T947 474Q947 550 920 615T847 726T737 799T601 826Z" horiz-adv-x="1203" unicode="o"/>
			<glyph d="M670 966Q770 966 856 929T1006 826T1106 670T1143 474Q1143 367 1106 276T1006 120T856 18T670 -19Q552 -19 467 24T325 140V-400H175V947H325V807Q382 879 467 922T670 966ZM652 826Q578 826 516 799T409 725T340 613T315 474Q315 399 340 334T409 222T516 148T652 121Q728 121 790 148T897 224T965 336T990 474Q990 547 965 611T896 723T789 798T652 826Z" horiz-adv-x="1246" unicode="p"/>
			<glyph d="M576 966Q694 966 779 922T922 806V947H1071V-400H922V141Q865 68 779 24T576 -19Q476 -19 389 18T239 120T139 276T103 474Q103 580 139 670T239 826T389 929T576 966ZM594 826Q518 826 455 798T348 723T279 611T255 474Q255 400 279 336T349 224T456 148T594 121Q668 121 730 148T836 222T906 334T931 474Q931 549 906 613T836 725T730 799T594 826Z" horiz-adv-x="1246" unicode="q"/>
			<glyph d="M604 966Q655 966 697 958T778 934L742 787Q707 806 663 815T578 825Q522 825 475 804T395 744T343 651T324 530V0H175V947H323V814Q372 887 444 926T604 966Z" horiz-adv-x="830" unicode="r"/>
			<glyph d="M500 965Q612 965 709 936T876 862L811 746Q788 762 755 777T681 806T595 827T501 835Q450 835 409 824T338 795T293 748T277 686Q277 626 326 595T470 553L582 539Q733 519 816 455T900 275Q900 207 870 153T787 61T656 2T483 -18Q437 -18 386 -12T284 8T183 46T88 103L157 215Q184 194 216 175T288 142T376 120T485 112Q605 112 675 151T746 265Q746 322 697 356T548 403L435 416Q274 436 198 504T122 678Q122 745 149 798T225 889T345 945T500 965Z" horiz-adv-x="987" unicode="s"/>
			<glyph d="M260 1248H409V947H818V812H409V334Q409 278 423 238T462 172T521 133T597 121Q652 121 703 139T796 188L866 75Q812 34 742 7T585 -19Q508 -19 448 2T346 66T282 176T260 331V812H53V947H260Z" horiz-adv-x="906" unicode="t"/>
			<glyph d="M164 947H313V409Q313 335 334 281T392 191T481 138T594 121Q655 121 706 138T794 191T853 281T874 409V947H1024V395Q1024 290 989 212T894 82T757 6T594 -19Q508 -19 430 6T293 82T199 212T164 395Z" horiz-adv-x="1188" unicode="u"/>
			<glyph d="M30 947H192L523 150L854 947H1012L609 -2H434Z" horiz-adv-x="1042" unicode="v"/>
			<glyph d="M45 947H204L487 156L769 947H937L1221 155L1506 947H1661L1311 0H1134L851 787L569 0H395Z" horiz-adv-x="1706" unicode="w"/>
			<glyph d="M45 947H228L514 588L801 947H977L607 485L988 0H805L506 374L210 0H35L415 484Z" horiz-adv-x="1023" unicode="x"/>
			<glyph d="M21 947H188L541 353L875 947H1039L268 -404H103L456 205Z" horiz-adv-x="1054" unicode="y"/>
			<glyph d="M140 947H924V838L320 135H933V0H122V108L732 812H140Z" horiz-adv-x="1055" unicode="z"/>
			<glyph d="M714 1400H773V1262H714Q663 1262 621 1247T550 1203T506 1129T495 1025L503 891Q510 764 456 683T299 569Q403 535 456 454T503 247L495 113Q492 53 506 8T550 -65T621 -109T714 -124H773V-262H714Q622 -262 550 -236T431 -160T360 -37T342 129L349 263Q352 323 337 367T292 441T218 485T121 500V638Q175 638 218 652T292 696T337 770T349 875L342 1009Q337 1102 360 1175T431 1298T550 1374T714 1400Z" horiz-adv-x="854" unicode="{"/>
			<glyph d="M283 1400H432V-265H283Z" horiz-adv-x="715" unicode="|"/>
			<glyph d="M81 1400H140Q232 1400 303 1374T423 1298T494 1175T512 1009L505 875Q502 815 517 770T562 696T635 652T733 638V500Q679 500 635 485T562 441T517 367T505 263L512 129Q517 36 494 -37T423 -160T303 -236T140 -262H81V-124H140Q191 -124 232 -109T303 -65T347 8T359 113L351 247Q344 374 397 454T555 569Q451 603 397 683T351 891L359 1025Q362 1085 347 1129T303 1203T232 1247T140 1262H81Z" horiz-adv-x="854" unicode="}"/>
			<glyph d="M415 636Q462 636 497 629T562 613T618 593T670 572T726 556T794 550Q843 550 882 570T966 633L1048 539Q993 479 931 450T784 421Q737 421 701 427T636 443T581 464T529 484T472 500T405 507Q356 507 316 486T233 424L152 518Q206 578 267 607T415 636Z" horiz-adv-x="1200" unicode="~"/>
			<glyph d="" horiz-adv-x="534" unicode=" "/>
			<glyph d="M195 502H330L354 -453H171ZM262 965Q287 965 309 954T349 927T377 887T387 839Q387 814 377 791T349 751T309 724T262 714Q237 714 214 724T174 751T147 791T137 839Q137 864 147 887T174 927T214 954T262 965Z" horiz-adv-x="524" unicode="¡"/>
			<glyph d="M679 1400H817V1189Q913 1182 995 1145T1137 1043L1049 946Q999 991 942 1018T817 1053V346Q886 354 946 383T1053 455L1137 357Q1076 291 994 254T817 210V0H679V216Q585 231 508 273T378 379T294 525T265 700Q265 793 294 874T378 1019T508 1125T679 1183ZM679 1045Q620 1031 571 999T486 923T431 822T412 700Q412 635 431 578T486 476T571 400T679 355Z" horiz-adv-x="1400" unicode="¢"/>
			<glyph d="M833 1418Q945 1418 1039 1377T1200 1256L1087 1156Q1041 1214 976 1242T833 1271Q765 1271 707 1248T607 1180T541 1062T517 894V768H1045V632H517V147H1216V0H184V147H363V632H184V768H363V905Q363 1033 400 1129T502 1290T651 1386T833 1418Z" horiz-adv-x="1400" unicode="£"/>
			<glyph d="M292 1196L438 1051Q493 1092 560 1115T702 1138Q776 1138 843 1115T965 1051L1108 1196L1196 1108L1052 964Q1094 908 1117 841T1141 700Q1141 625 1118 558T1053 435L1197 292L1109 204L965 348Q910 306 843 283T702 261Q627 261 559 284T437 349L293 204L206 292L350 436Q308 491 285 558T262 700Q262 775 284 841T349 963L205 1108ZM702 1016Q636 1016 578 991T477 924T410 823T386 700Q386 634 410 576T477 475T578 407T702 383Q768 383 825 407T925 475T992 576T1017 700Q1017 766 992 823T925 924T825 991T702 1016Z" horiz-adv-x="1400" unicode="¤"/>
			<glyph d="M107 1400H291L705 807L1113 1400H1294L846 760H1179V637H782V440H1179V317H782V0H628V317H231V440H628V637H231V760H561Z" horiz-adv-x="1400" unicode="¥"/>
			<glyph d="M283 1400H432V706H283ZM283 429H432V-265H283Z" horiz-adv-x="715" unicode="¦"/>
			<glyph d="M678 1418Q748 1418 811 1407T931 1379T1037 1336T1130 1282L1057 1160Q983 1210 887 1244T679 1279Q608 1279 547 1265T443 1224T375 1159T351 1073Q351 990 429 946T653 886L769 873Q848 864 919 842T1045 782T1132 690T1164 561Q1164 475 1121 411T1005 304Q1068 266 1105 208T1143 70Q1143 -21 1103 -88T994 -201T835 -268T643 -291Q571 -291 501 -279T366 -247T246 -197T145 -134L225 -13Q259 -40 304 -64T402 -108T516 -139T643 -151Q716 -151 779 -138T890 -99T964 -34T991 58Q991 100 968 131T905 185T807 222T681 244L555 258Q475 267 406 289T287 350T207 443T178 572Q178 655 219 718T332 825Q270 863 234 921T198 1063Q198 1147 235 1213T338 1324T490 1394T678 1418ZM470 768Q404 742 367 694T330 582Q330 499 408 455T632 395L750 382Q781 378 810 373T869 360Q935 386 973 433T1012 549Q1012 591 989 622T926 675T828 712T702 735L577 749Q549 752 522 757T470 768Z" horiz-adv-x="1309" unicode="§"/>
			<glyph d="M273 1343Q295 1343 314 1334T348 1312T370 1278T379 1236Q379 1213 370 1194T348 1161T314 1139T273 1131Q228 1131 197 1161T167 1236Q167 1258 175 1278T197 1312T231 1334T273 1343ZM679 1343Q701 1343 720 1334T754 1312T776 1278T785 1236Q785 1213 776 1194T754 1161T720 1139T679 1131Q634 1131 604 1161T574 1236Q574 1258 582 1278T604 1312T637 1334T679 1343Z" horiz-adv-x="953" unicode="¨"/>
			<glyph d="M951 1508Q1062 1508 1165 1479T1357 1398T1520 1273T1646 1111T1728 920T1757 708Q1757 598 1728 495T1646 304T1520 141T1357 15T1165 -65T951 -94Q840 -94 736 -65T543 15T380 141T254 304T173 495T145 708Q145 818 173 920T254 1111T380 1273T543 1398T736 1479T951 1508ZM951 1376Q812 1376 690 1323T477 1180T333 968T281 708Q281 569 333 447T477 234T690 90T951 38Q1043 38 1129 62T1289 129T1425 234T1529 369T1597 529T1621 708Q1621 800 1597 885T1529 1045T1425 1181T1289 1285T1129 1352T951 1376ZM972 1137Q1081 1137 1170 1090T1314 959L1203 884Q1165 941 1105 973T971 1006Q911 1006 859 984T769 922T709 828T687 708Q687 638 709 582T771 488T861 429T971 409Q1045 409 1105 441T1205 531L1310 449Q1255 370 1168 324T972 279Q881 279 803 310T668 399T578 535T546 708Q546 802 578 881T668 1017T803 1105T972 1137Z" horiz-adv-x="1903" unicode="©"/>
			<glyph d="M373 1292Q440 1292 494 1275T586 1223T646 1135T667 1013V617H546V706Q507 662 449 632T313 603Q259 603 215 618T141 660T95 725T79 808Q79 899 150 952T352 1005H543Q541 1096 494 1139T359 1182Q296 1182 247 1161T162 1111L113 1206Q165 1246 230 1269T373 1292ZM370 918Q326 918 295 909T245 886T217 852T208 811Q208 768 241 736T341 705Q402 705 454 733T545 805V918Z" horiz-adv-x="785" unicode="ª"/>
			<glyph d="M714 899H874L683 529L874 159H714L522 529ZM318 899H478L287 529L478 159H318L126 529Z" horiz-adv-x="1021" unicode="«"/>
			<glyph d="M165 597H1035V147H897V461H165Z" horiz-adv-x="1200" unicode="¬"/>
			<glyph d="M141 597H697V461H141Z" horiz-adv-x="838" unicode="­"/>
			<glyph d="M466 1435Q552 1435 627 1403T759 1315T848 1185T881 1027Q881 943 848 869T759 739T627 651T466 619Q378 619 301 651T169 739T80 869T48 1027Q48 1111 80 1185T169 1315T301 1403T466 1435ZM466 1344Q399 1344 340 1319T239 1252T171 1151T147 1027Q147 961 171 903T239 802T340 734T466 709Q532 709 589 734T689 802T756 903T781 1027Q781 1093 756 1151T689 1252T589 1319T466 1344ZM315 1218H490Q563 1218 602 1185T642 1097Q642 1050 610 1019T521 982L645 839H548L433 981H396V839H315ZM396 1147V1046H489Q521 1046 540 1058T559 1097Q559 1122 540 1134T489 1147Z" horiz-adv-x="930" unicode="®"/>
			<glyph d="M171 1296H769V1175H171Z" horiz-adv-x="939" unicode="¯"/>
			<glyph d="M397 1419Q469 1419 532 1392T643 1318T718 1208T746 1074Q746 1002 718 939T643 829T532 755T397 728Q325 728 261 755T150 829T75 939T48 1074Q48 1146 75 1208T150 1318T261 1392T397 1419ZM397 1297Q352 1297 311 1279T241 1232T193 1161T176 1074Q176 1027 193 986T241 915T311 867T397 850Q442 850 482 867T552 915T599 986T617 1074Q617 1120 599 1161T552 1232T482 1279T397 1297Z" horiz-adv-x="795" unicode="°"/>
			<glyph d="M529 1079H668V731H1035V596H668V293H529V596H165V731H529ZM165 181H1035V45H165Z" horiz-adv-x="1200" unicode="±"/>
			<glyph d="M327 1410Q388 1410 436 1392T518 1341T569 1264T587 1166Q587 1095 555 1041T472 935L271 732H611V617H94V714L385 1005Q419 1039 439 1075T459 1156Q459 1215 421 1253T316 1292Q285 1292 260 1284T214 1264T177 1234T145 1200L65 1277Q81 1299 104 1322T159 1365T232 1397T327 1410Z" horiz-adv-x="681" unicode="²"/>
			<glyph d="M308 1410Q369 1410 419 1394T506 1350T562 1282T582 1194Q582 1127 547 1080T454 1011Q520 988 559 941T599 829Q599 772 575 730T511 661T420 619T314 606Q228 606 161 633T50 712L122 794Q157 757 204 737T308 717Q341 717 370 724T422 747T458 785T471 839Q471 867 457 889T420 926T366 949T300 957H200V1067H300Q333 1067 361 1074T409 1096T442 1133T454 1184Q454 1238 411 1268T302 1299Q243 1299 199 1274T128 1216L54 1295Q94 1346 156 1378T308 1410Z" horiz-adv-x="685" unicode="³"/>
			<glyph d="M480 1392H669L418 1092H271Z" horiz-adv-x="939" unicode="´"/>
			<glyph d="M164 947H313V409Q313 273 384 198T586 123Q646 123 698 143T790 200T853 291T876 413V947H1026V0H878V135Q849 93 812 63T733 15T646 -11T559 -19Q486 -19 420 5T312 74V-400H164Z" horiz-adv-x="1201" unicode="µ"/>
			<glyph d="M547 1400H666V0H547V705Q450 705 375 729T248 798T170 907T143 1052Q143 1133 170 1197T248 1307T375 1376T547 1400ZM770 1400H889V0H770Z" horiz-adv-x="1172" unicode="¶"/>
			<glyph d="M359 654Q384 654 406 644T446 617T473 577T483 530Q483 504 473 481T446 441T406 414T359 404Q334 404 311 414T271 441T243 481T233 530Q233 555 243 577T271 617T311 644T359 654Z" horiz-adv-x="715" unicode="·"/>
			<glyph d="M473 6L623 5L520 -323H364Z" horiz-adv-x="988" unicode="¸"/>
			<glyph d="M391 1409V617H267V1237L50 1150V1272Z" horiz-adv-x="550" unicode="¹"/>
			<glyph d="M428 1292Q503 1292 567 1266T677 1194T750 1085T777 948Q777 874 750 811T677 701T567 629T428 603Q353 603 289 629T178 701T105 811T79 948Q79 1022 105 1085T178 1194T289 1266T428 1292ZM428 1177Q380 1177 339 1160T269 1112T222 1040T205 948Q205 898 222 856T269 783T339 736T428 719Q476 719 517 736T588 783T635 856T652 948Q652 998 635 1040T588 1112T517 1160T428 1177Z" horiz-adv-x="856" unicode="º"/>
			<glyph d="M147 899H307L499 529L307 159H147L338 529ZM543 899H703L895 529L703 159H543L734 529Z" horiz-adv-x="1021" unicode="»"/>
			<glyph d="M1159 1400H1308L425 0H276ZM1252 782H1389L1122 265H1341V482H1465V265H1586V152H1465V0H1341V152H976V241ZM391 1409V617H267V1237L50 1150V1272Z" horiz-adv-x="1626" unicode="¼"/>
			<glyph d="M1159 1400H1308L425 0H276ZM1337 793Q1398 793 1446 775T1528 724T1579 647T1597 549Q1597 478 1565 424T1482 318L1281 115H1621V0H1104V97L1395 388Q1429 422 1449 458T1469 539Q1469 598 1431 636T1326 675Q1295 675 1270 667T1224 647T1187 617T1155 583L1075 660Q1091 682 1114 705T1169 748T1242 780T1337 793ZM391 1409V617H267V1237L50 1150V1272Z" horiz-adv-x="1691" unicode="½"/>
			<glyph d="M1270 1400H1419L536 0H387ZM1362 782H1499L1232 265H1451V482H1575V265H1696V152H1575V0H1451V152H1086V241ZM308 1410Q369 1410 419 1394T506 1350T562 1282T582 1194Q582 1127 547 1080T454 1011Q520 988 559 941T599 829Q599 772 575 730T511 661T420 619T314 606Q228 606 161 633T50 712L122 794Q157 757 204 737T308 717Q341 717 370 724T422 747T458 785T471 839Q471 867 457 889T420 926T366 949T300 957H200V1067H300Q333 1067 361 1074T409 1096T442 1133T454 1184Q454 1238 411 1268T302 1299Q243 1299 199 1274T128 1216L54 1295Q94 1346 156 1378T308 1410Z" horiz-adv-x="1736" unicode="¾"/>
			<glyph d="M519 502H654V188H590Q504 188 436 170T322 119T251 36T226 -73Q226 -131 251 -176T322 -254T435 -303T584 -320Q621 -320 656 -317T721 -313L734 -466Q701 -471 657 -474T576 -477Q457 -477 361 -448T199 -368T96 -243T60 -80Q60 7 90 77T177 198T318 282T510 326ZM586 966Q611 966 634 955T674 928T701 888T712 840Q712 815 701 792T674 752T634 725T586 715Q561 715 538 725T499 752T472 792T462 840Q462 865 472 888T499 928T538 955T586 966Z" horiz-adv-x="864" unicode="¿"/>
			<glyph d="M611 1400H810L1385 0H1213L1054 390H361L203 0H36ZM708 1241L423 542H993ZM443 1807H632L842 1507H694Z" horiz-adv-x="1421" unicode="À"/>
			<glyph d="M611 1400H810L1385 0H1213L1054 390H361L203 0H36ZM708 1241L423 542H993ZM779 1807H969L718 1507H570Z" horiz-adv-x="1421" unicode="Á"/>
			<glyph d="M611 1400H810L1385 0H1213L1054 390H361L203 0H36ZM708 1241L423 542H993ZM611 1796H811L1045 1508H885L711 1697L536 1508H376Z" horiz-adv-x="1421" unicode="Â"/>
			<glyph d="M611 1400H810L1385 0H1213L1054 390H361L203 0H36ZM708 1241L423 542H993ZM578 1760Q629 1760 664 1747T729 1720T785 1693T844 1681Q882 1681 912 1697T974 1748L1063 1663Q1018 1607 966 1579T844 1552Q794 1552 758 1564T693 1592T637 1619T578 1632Q540 1632 509 1615T447 1564L359 1649Q404 1705 455 1732T578 1760Z" horiz-adv-x="1421" unicode="Ã"/>
			<glyph d="M611 1400H810L1385 0H1213L1054 390H361L203 0H36ZM708 1241L423 542H993ZM508 1758Q530 1758 549 1749T583 1727T605 1693T614 1651Q614 1628 605 1609T583 1576T549 1554T508 1546Q463 1546 432 1576T402 1651Q402 1673 410 1693T432 1727T466 1749T508 1758ZM914 1758Q936 1758 955 1749T989 1727T1011 1693T1020 1651Q1020 1628 1011 1609T989 1576T955 1554T914 1546Q869 1546 839 1576T809 1651Q809 1673 817 1693T839 1727T872 1749T914 1758Z" horiz-adv-x="1421" unicode="Ä"/>
			<glyph d="M611 1400H810L1385 0H1213L1054 390H361L203 0H36ZM708 1241L423 542H993ZM711 1936Q758 1936 799 1918T872 1870T921 1799T939 1712Q939 1665 921 1624T872 1553T799 1504T711 1487Q664 1487 623 1504T551 1553T502 1624T484 1712Q484 1758 502 1799T551 1870T623 1918T711 1936ZM711 1841Q685 1841 661 1831T621 1803T594 1762T584 1712Q584 1685 594 1661T621 1619T661 1592T711 1582Q737 1582 760 1592T801 1619T829 1661T839 1712Q839 1739 829 1762T801 1803T760 1831T711 1841Z" horiz-adv-x="1421" unicode="Å"/>
			<glyph d="M1093 1400H2113V1249H1298V780H2088V630H1298V151H2122V0H1137V365H499L223 0H29ZM1137 1207L614 517H1137Z" horiz-adv-x="2283" unicode="Æ"/>
			<glyph d="M844 1420Q935 1420 1020 1400T1180 1342T1314 1251T1415 1130L1281 1040Q1246 1092 1199 1133T1097 1204T977 1249T844 1265Q726 1265 625 1224T449 1109T332 930T290 700Q290 574 332 469T449 291T625 176T844 135Q984 135 1097 194T1281 359L1411 263Q1367 197 1307 145T1174 56T1018 0T844 -20Q688 -20 555 33T326 182T175 410T121 700Q121 857 175 989T326 1217T555 1366T844 1420ZM777 6L932 5L829 -323H666Z" horiz-adv-x="1530" unicode="Ç"/>
			<glyph d="M202 1400H1178V1249H363V780H1153V630H363V151H1187V0H202ZM417 1807H606L816 1507H668Z" horiz-adv-x="1348" unicode="È"/>
			<glyph d="M202 1400H1178V1249H363V780H1153V630H363V151H1187V0H202ZM753 1807H943L692 1507H544Z" horiz-adv-x="1348" unicode="É"/>
			<glyph d="M202 1400H1178V1249H363V780H1153V630H363V151H1187V0H202ZM585 1796H785L1019 1508H859L685 1697L510 1508H350Z" horiz-adv-x="1348" unicode="Ê"/>
			<glyph d="M202 1400H1178V1249H363V780H1153V630H363V151H1187V0H202ZM482 1758Q504 1758 523 1749T557 1727T579 1693T588 1651Q588 1628 579 1609T557 1576T523 1554T482 1546Q437 1546 406 1576T376 1651Q376 1673 384 1693T406 1727T440 1749T482 1758ZM888 1758Q910 1758 929 1749T963 1727T985 1693T994 1651Q994 1628 985 1609T963 1576T929 1554T888 1546Q843 1546 813 1576T783 1651Q783 1673 791 1693T813 1727T846 1749T888 1758Z" horiz-adv-x="1348" unicode="Ë"/>
			<glyph d="M202 1400H363V0H202ZM14 1807H203L413 1507H265Z" horiz-adv-x="565" unicode="Ì"/>
			<glyph d="M202 1400H363V0H202ZM350 1807H540L289 1507H141Z" horiz-adv-x="565" unicode="Í"/>
			<glyph d="M202 1400H363V0H202ZM182 1796H382L616 1508H456L282 1697L107 1508H-53Z" horiz-adv-x="565" unicode="Î"/>
			<glyph d="M202 1400H363V0H202ZM79 1758Q101 1758 120 1749T154 1727T176 1693T185 1651Q185 1628 176 1609T154 1576T120 1554T79 1546Q34 1546 3 1576T-27 1651Q-27 1673 -19 1693T3 1727T37 1749T79 1758ZM485 1758Q507 1758 526 1749T560 1727T582 1693T591 1651Q591 1628 582 1609T560 1576T526 1554T485 1546Q440 1546 410 1576T380 1651Q380 1673 388 1693T410 1727T443 1749T485 1758Z" horiz-adv-x="565" unicode="Ï"/>
			<glyph d="M353 1400H880Q1051 1400 1189 1350T1425 1210T1574 989T1627 700Q1627 540 1574 410T1425 190T1189 49T880 0H353V629H121V781H353ZM514 1248V781H917V629H514V152H880Q1022 152 1130 191T1311 303T1421 476T1458 700Q1458 824 1421 925T1311 1098T1130 1209T880 1248Z" horiz-adv-x="1749" unicode="Ð"/>
			<glyph d="M202 1400H347L1214 276V1400H1375V0H1230L363 1124V0H202ZM655 1760Q706 1760 741 1747T806 1720T862 1693T921 1681Q959 1681 989 1697T1051 1748L1140 1663Q1095 1607 1043 1579T921 1552Q871 1552 835 1564T770 1592T714 1619T655 1632Q617 1632 586 1615T524 1564L436 1649Q481 1705 532 1732T655 1760Z" horiz-adv-x="1577" unicode="Ñ"/>
			<glyph d="M844 1420Q1000 1420 1132 1366T1361 1217T1512 989T1567 700Q1567 542 1512 410T1361 182T1132 33T844 -20Q688 -20 555 33T326 182T175 410T121 700Q121 857 175 989T326 1217T555 1366T844 1420ZM844 1265Q726 1265 625 1224T449 1109T332 930T290 700Q290 574 332 469T449 291T625 176T844 135Q962 135 1063 176T1239 291T1356 469T1399 700Q1399 826 1356 930T1239 1109T1063 1224T844 1265ZM576 1807H765L975 1507H827Z" horiz-adv-x="1689" unicode="Ò"/>
			<glyph d="M844 1420Q1000 1420 1132 1366T1361 1217T1512 989T1567 700Q1567 542 1512 410T1361 182T1132 33T844 -20Q688 -20 555 33T326 182T175 410T121 700Q121 857 175 989T326 1217T555 1366T844 1420ZM844 1265Q726 1265 625 1224T449 1109T332 930T290 700Q290 574 332 469T449 291T625 176T844 135Q962 135 1063 176T1239 291T1356 469T1399 700Q1399 826 1356 930T1239 1109T1063 1224T844 1265ZM912 1807H1102L851 1507H703Z" horiz-adv-x="1689" unicode="Ó"/>
			<glyph d="M844 1420Q1000 1420 1132 1366T1361 1217T1512 989T1567 700Q1567 542 1512 410T1361 182T1132 33T844 -20Q688 -20 555 33T326 182T175 410T121 700Q121 857 175 989T326 1217T555 1366T844 1420ZM844 1265Q726 1265 625 1224T449 1109T332 930T290 700Q290 574 332 469T449 291T625 176T844 135Q962 135 1063 176T1239 291T1356 469T1399 700Q1399 826 1356 930T1239 1109T1063 1224T844 1265ZM744 1796H944L1178 1508H1018L844 1697L669 1508H509Z" horiz-adv-x="1689" unicode="Ô"/>
			<glyph d="M844 1420Q1000 1420 1132 1366T1361 1217T1512 989T1567 700Q1567 542 1512 410T1361 182T1132 33T844 -20Q688 -20 555 33T326 182T175 410T121 700Q121 857 175 989T326 1217T555 1366T844 1420ZM844 1265Q726 1265 625 1224T449 1109T332 930T290 700Q290 574 332 469T449 291T625 176T844 135Q962 135 1063 176T1239 291T1356 469T1399 700Q1399 826 1356 930T1239 1109T1063 1224T844 1265ZM711 1760Q762 1760 797 1747T862 1720T918 1693T977 1681Q1015 1681 1045 1697T1107 1748L1196 1663Q1151 1607 1099 1579T977 1552Q927 1552 891 1564T826 1592T770 1619T711 1632Q673 1632 642 1615T580 1564L492 1649Q537 1705 588 1732T711 1760Z" horiz-adv-x="1689" unicode="Õ"/>
			<glyph d="M844 1420Q1000 1420 1132 1366T1361 1217T1512 989T1567 700Q1567 542 1512 410T1361 182T1132 33T844 -20Q688 -20 555 33T326 182T175 410T121 700Q121 857 175 989T326 1217T555 1366T844 1420ZM844 1265Q726 1265 625 1224T449 1109T332 930T290 700Q290 574 332 469T449 291T625 176T844 135Q962 135 1063 176T1239 291T1356 469T1399 700Q1399 826 1356 930T1239 1109T1063 1224T844 1265ZM641 1758Q663 1758 682 1749T716 1727T738 1693T747 1651Q747 1628 738 1609T716 1576T682 1554T641 1546Q596 1546 565 1576T535 1651Q535 1673 543 1693T565 1727T599 1749T641 1758ZM1047 1758Q1069 1758 1088 1749T1122 1727T1144 1693T1153 1651Q1153 1628 1144 1609T1122 1576T1088 1554T1047 1546Q1002 1546 972 1576T942 1651Q942 1673 950 1693T972 1727T1005 1749T1047 1758Z" horiz-adv-x="1689" unicode="Ö"/>
			<glyph d="M895 921L991 825L696 530L992 235L893 136L597 431L306 139L209 235L501 527L208 821L307 920L600 626Z" horiz-adv-x="1200" unicode="×"/>
			<glyph d="M844 1420Q979 1420 1095 1380T1305 1267L1457 1419L1563 1313L1411 1161Q1485 1069 1526 953T1567 700Q1567 542 1512 410T1361 182T1132 33T844 -20Q708 -20 592 20T383 133L232 -18L125 87L276 238Q202 330 161 446T121 700Q121 857 175 989T326 1217T555 1366T844 1420ZM1294 1044L498 248Q568 193 656 164T844 135Q962 135 1063 176T1239 291T1356 469T1399 700Q1399 802 1371 888T1294 1044ZM844 1265Q726 1265 625 1224T449 1109T332 930T290 700Q290 598 317 511T394 356L1190 1152Q1119 1206 1031 1235T844 1265Z" horiz-adv-x="1689" unicode="Ø"/>
			<glyph d="M182 1400H342V560Q342 450 373 370T460 237T592 160T758 135Q848 135 924 160T1055 237T1142 370T1174 560V1400H1335V548Q1335 405 1290 299T1166 122T983 16T758 -19Q638 -19 533 16T350 122T227 299T182 548ZM490 1807H679L889 1507H741Z" horiz-adv-x="1517" unicode="Ù"/>
			<glyph d="M182 1400H342V560Q342 450 373 370T460 237T592 160T758 135Q848 135 924 160T1055 237T1142 370T1174 560V1400H1335V548Q1335 405 1290 299T1166 122T983 16T758 -19Q638 -19 533 16T350 122T227 299T182 548ZM826 1807H1016L765 1507H617Z" horiz-adv-x="1517" unicode="Ú"/>
			<glyph d="M182 1400H342V560Q342 450 373 370T460 237T592 160T758 135Q848 135 924 160T1055 237T1142 370T1174 560V1400H1335V548Q1335 405 1290 299T1166 122T983 16T758 -19Q638 -19 533 16T350 122T227 299T182 548ZM658 1796H858L1092 1508H932L758 1697L583 1508H423Z" horiz-adv-x="1517" unicode="Û"/>
			<glyph d="M182 1400H342V560Q342 450 373 370T460 237T592 160T758 135Q848 135 924 160T1055 237T1142 370T1174 560V1400H1335V548Q1335 405 1290 299T1166 122T983 16T758 -19Q638 -19 533 16T350 122T227 299T182 548ZM555 1758Q577 1758 596 1749T630 1727T652 1693T661 1651Q661 1628 652 1609T630 1576T596 1554T555 1546Q510 1546 479 1576T449 1651Q449 1673 457 1693T479 1727T513 1749T555 1758ZM961 1758Q983 1758 1002 1749T1036 1727T1058 1693T1067 1651Q1067 1628 1058 1609T1036 1576T1002 1554T961 1546Q916 1546 886 1576T856 1651Q856 1673 864 1693T886 1727T919 1749T961 1758Z" horiz-adv-x="1517" unicode="Ü"/>
			<glyph d="M11 1400H203L646 736L1089 1400H1276L725 587V0H565V589ZM714 1807H904L653 1507H505Z" horiz-adv-x="1287" unicode="Ý"/>
			<glyph d="M202 1400H363V1134H731Q849 1134 941 1105T1096 1023T1193 891T1226 715Q1226 617 1193 539T1096 407T941 324T731 296H363V0H202ZM363 982V448H726Q889 448 974 514T1059 715Q1059 849 974 915T726 982Z" horiz-adv-x="1328" unicode="Þ"/>
			<glyph d="M626 1459Q720 1459 803 1431T948 1353T1045 1232T1081 1075Q1081 1010 1064 955T1018 858T950 785T866 736Q918 719 965 687T1046 611T1101 510T1122 389Q1122 293 1088 217T998 89T864 9T700 -19Q622 -19 566 -8T464 23L500 158Q538 141 581 130T677 120Q743 120 796 137T888 189T948 275T969 394Q969 462 944 512T875 594T767 643T628 659H572V795H603Q666 795 725 807T829 849T901 928T928 1053Q928 1119 904 1169T838 1252T741 1302T623 1319Q552 1319 495 1297T398 1236T336 1139T315 1012V0H166V1021Q166 1112 194 1192T280 1331T424 1424T626 1459Z" horiz-adv-x="1225" unicode="ß"/>
			<glyph d="M576 966Q694 966 779 922T922 806V947H1071V0H922V141Q865 68 779 24T576 -19Q476 -19 389 18T239 120T139 276T103 474Q103 580 139 670T239 826T389 929T576 966ZM594 826Q518 826 455 798T348 723T279 611T255 474Q255 400 279 336T349 224T456 148T594 121Q668 121 730 148T836 222T906 334T931 474Q931 549 906 613T836 725T730 799T594 826ZM330 1392H519L729 1092H581Z" horiz-adv-x="1246" unicode="à"/>
			<glyph d="M576 966Q694 966 779 922T922 806V947H1071V0H922V141Q865 68 779 24T576 -19Q476 -19 389 18T239 120T139 276T103 474Q103 580 139 670T239 826T389 929T576 966ZM594 826Q518 826 455 798T348 723T279 611T255 474Q255 400 279 336T349 224T456 148T594 121Q668 121 730 148T836 222T906 334T931 474Q931 549 906 613T836 725T730 799T594 826ZM690 1392H880L629 1092H481Z" horiz-adv-x="1246" unicode="á"/>
			<glyph d="M576 966Q694 966 779 922T922 806V947H1071V0H922V141Q865 68 779 24T576 -19Q476 -19 389 18T239 120T139 276T103 474Q103 580 139 670T239 826T389 929T576 966ZM594 826Q518 826 455 798T348 723T279 611T255 474Q255 400 279 336T349 224T456 148T594 121Q668 121 730 148T836 222T906 334T931 474Q931 549 906 613T836 725T730 799T594 826ZM511 1381H711L945 1093H785L611 1282L436 1093H276Z" horiz-adv-x="1246" unicode="â"/>
			<glyph d="M576 966Q694 966 779 922T922 806V947H1071V0H922V141Q865 68 779 24T576 -19Q476 -19 389 18T239 120T139 276T103 474Q103 580 139 670T239 826T389 929T576 966ZM594 826Q518 826 455 798T348 723T279 611T255 474Q255 400 279 336T349 224T456 148T594 121Q668 121 730 148T836 222T906 334T931 474Q931 549 906 613T836 725T730 799T594 826ZM486 1345Q537 1345 572 1332T637 1305T693 1278T752 1266Q790 1266 820 1282T882 1333L971 1248Q926 1192 874 1164T752 1137Q702 1137 666 1149T601 1177T545 1204T486 1217Q448 1217 417 1200T355 1149L267 1234Q312 1290 363 1317T486 1345Z" horiz-adv-x="1246" unicode="ã"/>
			<glyph d="M576 966Q694 966 779 922T922 806V947H1071V0H922V141Q865 68 779 24T576 -19Q476 -19 389 18T239 120T139 276T103 474Q103 580 139 670T239 826T389 929T576 966ZM594 826Q518 826 455 798T348 723T279 611T255 474Q255 400 279 336T349 224T456 148T594 121Q668 121 730 148T836 222T906 334T931 474Q931 549 906 613T836 725T730 799T594 826ZM408 1343Q430 1343 449 1334T483 1312T505 1278T514 1236Q514 1213 505 1194T483 1161T449 1139T408 1131Q363 1131 332 1161T302 1236Q302 1258 310 1278T332 1312T366 1334T408 1343ZM814 1343Q836 1343 855 1334T889 1312T911 1278T920 1236Q920 1213 911 1194T889 1161T855 1139T814 1131Q769 1131 739 1161T709 1236Q709 1258 717 1278T739 1312T772 1334T814 1343Z" horiz-adv-x="1246" unicode="ä"/>
			<glyph d="M576 966Q694 966 779 922T922 806V947H1071V0H922V141Q865 68 779 24T576 -19Q476 -19 389 18T239 120T139 276T103 474Q103 580 139 670T239 826T389 929T576 966ZM594 826Q518 826 455 798T348 723T279 611T255 474Q255 400 279 336T349 224T456 148T594 121Q668 121 730 148T836 222T906 334T931 474Q931 549 906 613T836 725T730 799T594 826ZM610 1521Q657 1521 698 1503T771 1455T820 1384T838 1297Q838 1250 820 1209T771 1138T698 1089T610 1072Q563 1072 522 1089T450 1138T401 1209T383 1297Q383 1343 401 1384T450 1455T522 1503T610 1521ZM610 1426Q584 1426 560 1416T520 1388T493 1347T483 1297Q483 1270 493 1246T520 1204T560 1177T610 1167Q636 1167 659 1177T700 1204T728 1246T738 1297Q738 1324 728 1347T700 1388T659 1416T610 1426Z" horiz-adv-x="1246" unicode="å"/>
			<glyph d="M520 966Q648 966 741 919T880 767Q908 812 948 849T1036 911T1138 951T1252 965Q1348 965 1429 929T1570 828T1662 674T1697 477Q1697 462 1696 448T1694 421H935Q943 344 972 286T1046 190T1148 131T1270 112Q1358 112 1434 144T1570 231L1649 129Q1605 87 1558 58T1463 12T1363 -12T1261 -19Q1136 -19 1036 30T873 167Q841 128 799 94T708 35T598 -4T470 -19Q384 -19 315 2T200 61T128 151T103 266Q103 327 128 378T203 467T325 524T493 545H783V552Q783 695 710 763T501 831Q458 831 419 823T346 802T282 772T227 736L157 847Q237 907 328 936T520 966ZM509 421Q441 421 394 408T317 375T275 326T262 266Q262 234 276 206T320 158T393 125T493 113Q537 113 582 124T669 156T748 207T815 276Q802 310 794 346T783 421ZM1249 833Q1183 833 1129 811T1036 751T971 659T937 542H1544Q1537 608 1512 661T1449 753T1360 812T1249 833Z" horiz-adv-x="1800" unicode="æ"/>
			<glyph d="M593 966Q699 966 789 928T944 817L848 716Q794 768 730 797T589 826Q518 826 457 799T351 726T280 615T255 474Q255 397 280 332T351 221T457 147T589 121Q667 121 733 152T851 232L944 130Q879 57 789 19T593 -19Q484 -19 393 18T238 122T138 278T103 474Q103 579 138 669T238 825T393 928T593 966ZM511 6L661 5L558 -323H402Z" horiz-adv-x="1024" unicode="ç"/>
			<glyph d="M573 966Q669 966 750 930T891 829T983 675T1018 477Q1018 446 1015 421H256Q264 344 293 286T367 190T469 131T591 112Q679 112 754 143T891 231L971 129Q927 87 880 58T784 12T685 -12T582 -19Q477 -19 389 16T237 117T138 272T103 473Q103 582 138 672T237 828T386 929T573 966ZM570 833Q504 833 450 811T357 751T292 659T258 542H866Q859 608 834 662T771 754T681 812T570 833ZM288 1392H477L687 1092H539Z" horiz-adv-x="1121" unicode="è"/>
			<glyph d="M573 966Q669 966 750 930T891 829T983 675T1018 477Q1018 446 1015 421H256Q264 344 293 286T367 190T469 131T591 112Q679 112 754 143T891 231L971 129Q927 87 880 58T784 12T685 -12T582 -19Q477 -19 389 16T237 117T138 272T103 473Q103 582 138 672T237 828T386 929T573 966ZM570 833Q504 833 450 811T357 751T292 659T258 542H866Q859 608 834 662T771 754T681 812T570 833ZM648 1392H838L587 1092H439Z" horiz-adv-x="1121" unicode="é"/>
			<glyph d="M573 966Q669 966 750 930T891 829T983 675T1018 477Q1018 446 1015 421H256Q264 344 293 286T367 190T469 131T591 112Q679 112 754 143T891 231L971 129Q927 87 880 58T784 12T685 -12T582 -19Q477 -19 389 16T237 117T138 272T103 473Q103 582 138 672T237 828T386 929T573 966ZM570 833Q504 833 450 811T357 751T292 659T258 542H866Q859 608 834 662T771 754T681 812T570 833ZM469 1381H669L903 1093H743L569 1282L394 1093H234Z" horiz-adv-x="1121" unicode="ê"/>
			<glyph d="M573 966Q669 966 750 930T891 829T983 675T1018 477Q1018 446 1015 421H256Q264 344 293 286T367 190T469 131T591 112Q679 112 754 143T891 231L971 129Q927 87 880 58T784 12T685 -12T582 -19Q477 -19 389 16T237 117T138 272T103 473Q103 582 138 672T237 828T386 929T573 966ZM570 833Q504 833 450 811T357 751T292 659T258 542H866Q859 608 834 662T771 754T681 812T570 833ZM366 1343Q388 1343 407 1334T441 1312T463 1278T472 1236Q472 1213 463 1194T441 1161T407 1139T366 1131Q321 1131 290 1161T260 1236Q260 1258 268 1278T290 1312T324 1334T366 1343ZM772 1343Q794 1343 813 1334T847 1312T869 1278T878 1236Q878 1213 869 1194T847 1161T813 1139T772 1131Q727 1131 697 1161T667 1236Q667 1258 675 1278T697 1312T730 1334T772 1343Z" horiz-adv-x="1121" unicode="ë"/>
			<glyph d="M175 947H325V0H175ZM-31 1392H158L368 1092H220Z" horiz-adv-x="500" unicode="ì"/>
			<glyph d="M175 947H325V0H175ZM329 1392H519L268 1092H120Z" horiz-adv-x="500" unicode="í"/>
			<glyph d="M175 947H325V0H175ZM150 1381H350L584 1093H424L250 1282L75 1093H-85Z" horiz-adv-x="500" unicode="î"/>
			<glyph d="M175 947H325V0H175ZM47 1343Q69 1343 88 1334T122 1312T144 1278T153 1236Q153 1213 144 1194T122 1161T88 1139T47 1131Q2 1131 -28 1161T-59 1236Q-59 1258 -51 1278T-28 1312T5 1334T47 1343ZM453 1343Q475 1343 494 1334T528 1312T550 1278T559 1236Q559 1213 550 1194T528 1161T494 1139T453 1131Q408 1131 378 1161T348 1236Q348 1258 356 1278T378 1312T411 1334T453 1343Z" horiz-adv-x="500" unicode="ï"/>
			<glyph d="M362 1450Q441 1418 510 1379T641 1297L872 1434L928 1343L731 1226Q810 1158 876 1074T992 896T1068 697T1096 483Q1096 376 1058 284T953 124T796 19T601 -19Q494 -19 403 18T245 119T140 272T103 463Q103 567 139 656T238 810T388 912T573 949Q666 949 744 916T879 824Q837 910 769 993T605 1151L354 1002L298 1093L509 1218Q461 1248 408 1276T295 1330ZM601 808Q527 808 464 782T354 711T281 603T255 464Q255 389 281 326T354 217T464 146T601 121Q674 121 737 146T847 217T920 326T947 464Q947 540 920 603T847 711T737 782T601 808Z" horiz-adv-x="1199" unicode="ð"/>
			<glyph d="M642 966Q730 966 802 939T927 862T1008 743T1037 587V0H888V538Q888 674 817 749T615 824Q555 824 502 804T410 746T348 655T325 534V0H175V947H323V812Q352 854 389 883T468 931T554 958T642 966ZM492 1345Q543 1345 578 1332T643 1305T699 1278T758 1266Q796 1266 826 1282T888 1333L977 1248Q932 1192 880 1164T758 1137Q708 1137 672 1149T607 1177T551 1204T492 1217Q454 1217 423 1200T361 1149L273 1234Q318 1290 369 1317T492 1345Z" horiz-adv-x="1201" unicode="ñ"/>
			<glyph d="M601 966Q708 966 799 928T957 825T1062 669T1100 474Q1100 369 1062 278T957 122T799 18T601 -19Q494 -19 403 18T245 122T140 278T103 474Q103 579 140 669T245 825T403 928T601 966ZM601 826Q527 826 464 799T354 726T281 615T255 474Q255 397 281 332T354 221T464 147T601 121Q674 121 737 147T847 221T920 332T947 474Q947 550 920 615T847 726T737 799T601 826ZM320 1392H509L719 1092H571Z" horiz-adv-x="1203" unicode="ò"/>
			<glyph d="M601 966Q708 966 799 928T957 825T1062 669T1100 474Q1100 369 1062 278T957 122T799 18T601 -19Q494 -19 403 18T245 122T140 278T103 474Q103 579 140 669T245 825T403 928T601 966ZM601 826Q527 826 464 799T354 726T281 615T255 474Q255 397 281 332T354 221T464 147T601 121Q674 121 737 147T847 221T920 332T947 474Q947 550 920 615T847 726T737 799T601 826ZM680 1392H870L619 1092H471Z" horiz-adv-x="1203" unicode="ó"/>
			<glyph d="M601 966Q708 966 799 928T957 825T1062 669T1100 474Q1100 369 1062 278T957 122T799 18T601 -19Q494 -19 403 18T245 122T140 278T103 474Q103 579 140 669T245 825T403 928T601 966ZM601 826Q527 826 464 799T354 726T281 615T255 474Q255 397 281 332T354 221T464 147T601 121Q674 121 737 147T847 221T920 332T947 474Q947 550 920 615T847 726T737 799T601 826ZM501 1381H701L935 1093H775L601 1282L426 1093H266Z" horiz-adv-x="1203" unicode="ô"/>
			<glyph d="M601 966Q708 966 799 928T957 825T1062 669T1100 474Q1100 369 1062 278T957 122T799 18T601 -19Q494 -19 403 18T245 122T140 278T103 474Q103 579 140 669T245 825T403 928T601 966ZM601 826Q527 826 464 799T354 726T281 615T255 474Q255 397 281 332T354 221T464 147T601 121Q674 121 737 147T847 221T920 332T947 474Q947 550 920 615T847 726T737 799T601 826ZM476 1345Q527 1345 562 1332T627 1305T683 1278T742 1266Q780 1266 810 1282T872 1333L961 1248Q916 1192 864 1164T742 1137Q692 1137 656 1149T591 1177T535 1204T476 1217Q438 1217 407 1200T345 1149L257 1234Q302 1290 353 1317T476 1345Z" horiz-adv-x="1203" unicode="õ"/>
			<glyph d="M601 966Q708 966 799 928T957 825T1062 669T1100 474Q1100 369 1062 278T957 122T799 18T601 -19Q494 -19 403 18T245 122T140 278T103 474Q103 579 140 669T245 825T403 928T601 966ZM601 826Q527 826 464 799T354 726T281 615T255 474Q255 397 281 332T354 221T464 147T601 121Q674 121 737 147T847 221T920 332T947 474Q947 550 920 615T847 726T737 799T601 826ZM398 1343Q420 1343 439 1334T473 1312T495 1278T504 1236Q504 1213 495 1194T473 1161T439 1139T398 1131Q353 1131 322 1161T292 1236Q292 1258 300 1278T322 1312T356 1334T398 1343ZM804 1343Q826 1343 845 1334T879 1312T901 1278T910 1236Q910 1213 901 1194T879 1161T845 1139T804 1131Q759 1131 729 1161T699 1236Q699 1258 707 1278T729 1312T762 1334T804 1343Z" horiz-adv-x="1203" unicode="ö"/>
			<glyph d="M165 597H1035V461H165ZM601 953Q622 953 640 945T673 922T695 889T704 849Q704 828 695 809T673 776T640 753T601 745Q580 745 561 753T527 776T504 809T496 849Q496 870 504 889T527 922T561 945T601 953ZM601 313Q622 313 640 305T673 282T695 249T704 210Q704 189 695 170T673 136T640 113T601 105Q580 105 561 113T527 136T504 170T496 210Q496 231 504 249T527 282T561 305T601 313Z" horiz-adv-x="1200" unicode="÷"/>
			<glyph d="M1018 979L1108 889L998 779Q1046 716 1073 639T1100 474Q1100 369 1062 278T957 122T799 18T601 -19Q513 -19 436 6T297 78L186 -33L95 56L205 166Q156 229 129 307T103 474Q103 579 140 669T245 825T403 928T601 966Q689 966 766 940T907 868ZM601 826Q527 826 464 799T354 726T281 615T255 474Q255 416 270 365T312 273L803 764Q760 793 709 809T601 826ZM891 672L400 181Q442 152 493 136T601 121Q674 121 737 147T847 221T920 332T947 474Q947 531 932 580T891 672Z" horiz-adv-x="1203" unicode="ø"/>
			<glyph d="M164 947H313V409Q313 335 334 281T392 191T481 138T594 121Q655 121 706 138T794 191T853 281T874 409V947H1024V395Q1024 290 989 212T894 82T757 6T594 -19Q508 -19 430 6T293 82T199 212T164 395ZM313 1392H502L712 1092H564Z" horiz-adv-x="1188" unicode="ù"/>
			<glyph d="M164 947H313V409Q313 335 334 281T392 191T481 138T594 121Q655 121 706 138T794 191T853 281T874 409V947H1024V395Q1024 290 989 212T894 82T757 6T594 -19Q508 -19 430 6T293 82T199 212T164 395ZM673 1392H863L612 1092H464Z" horiz-adv-x="1188" unicode="ú"/>
			<glyph d="M164 947H313V409Q313 335 334 281T392 191T481 138T594 121Q655 121 706 138T794 191T853 281T874 409V947H1024V395Q1024 290 989 212T894 82T757 6T594 -19Q508 -19 430 6T293 82T199 212T164 395ZM494 1381H694L928 1093H768L594 1282L419 1093H259Z" horiz-adv-x="1188" unicode="û"/>
			<glyph d="M164 947H313V409Q313 335 334 281T392 191T481 138T594 121Q655 121 706 138T794 191T853 281T874 409V947H1024V395Q1024 290 989 212T894 82T757 6T594 -19Q508 -19 430 6T293 82T199 212T164 395ZM391 1343Q413 1343 432 1334T466 1312T488 1278T497 1236Q497 1213 488 1194T466 1161T432 1139T391 1131Q346 1131 315 1161T285 1236Q285 1258 293 1278T315 1312T349 1334T391 1343ZM797 1343Q819 1343 838 1334T872 1312T894 1278T903 1236Q903 1213 894 1194T872 1161T838 1139T797 1131Q752 1131 722 1161T692 1236Q692 1258 700 1278T722 1312T755 1334T797 1343Z" horiz-adv-x="1188" unicode="ü"/>
			<glyph d="M21 947H188L541 353L875 947H1039L268 -404H103L456 205ZM611 1392H801L550 1092H402Z" horiz-adv-x="1054" unicode="ý"/>
			<glyph d="M175 1440H325V807Q382 879 467 922T670 966Q770 966 856 929T1006 826T1106 670T1143 474Q1143 367 1106 276T1006 120T856 18T670 -19Q552 -19 467 24T325 140V-400H175ZM652 826Q578 826 516 799T409 725T340 613T315 474Q315 399 340 334T409 222T516 148T652 121Q728 121 790 148T897 224T965 336T990 474Q990 547 965 611T896 723T789 798T652 826Z" horiz-adv-x="1246" unicode="þ"/>
			<glyph d="M21 947H188L541 353L875 947H1039L268 -404H103L456 205ZM329 1343Q351 1343 370 1334T404 1312T426 1278T435 1236Q435 1213 426 1194T404 1161T370 1139T329 1131Q284 1131 253 1161T223 1236Q223 1258 231 1278T253 1312T287 1334T329 1343ZM735 1343Q757 1343 776 1334T810 1312T832 1278T841 1236Q841 1213 832 1194T810 1161T776 1139T735 1131Q690 1131 660 1161T630 1236Q630 1258 638 1278T660 1312T693 1334T735 1343Z" horiz-adv-x="1054" unicode="ÿ"/>
			<glyph d="M611 1400H810L1385 0H1213L1054 390H361L203 0H36ZM708 1241L423 542H993ZM412 1711H1010V1590H412Z" horiz-adv-x="1421" unicode="Ā"/>
			<glyph d="M576 966Q694 966 779 922T922 806V947H1071V0H922V141Q865 68 779 24T576 -19Q476 -19 389 18T239 120T139 276T103 474Q103 580 139 670T239 826T389 929T576 966ZM594 826Q518 826 455 798T348 723T279 611T255 474Q255 400 279 336T349 224T456 148T594 121Q668 121 730 148T836 222T906 334T931 474Q931 549 906 613T836 725T730 799T594 826ZM312 1296H910V1175H312Z" horiz-adv-x="1246" unicode="ā"/>
			<glyph d="M611 1400H810L1385 0H1213L1054 390H361L203 0H36ZM708 1241L423 542H993ZM490 1818Q519 1721 574 1674T711 1627Q792 1627 848 1674T933 1818L1053 1781Q1015 1642 926 1571T711 1501Q586 1501 497 1571T370 1781Z" horiz-adv-x="1421" unicode="Ă"/>
			<glyph d="M576 966Q694 966 779 922T922 806V947H1071V0H922V141Q865 68 779 24T576 -19Q476 -19 389 18T239 120T139 276T103 474Q103 580 139 670T239 826T389 929T576 966ZM594 826Q518 826 455 798T348 723T279 611T255 474Q255 400 279 336T349 224T456 148T594 121Q668 121 730 148T836 222T906 334T931 474Q931 549 906 613T836 725T730 799T594 826ZM390 1403Q419 1306 474 1259T611 1212Q692 1212 748 1259T833 1403L953 1366Q915 1227 826 1156T611 1086Q486 1086 397 1156T270 1366Z" horiz-adv-x="1246" unicode="ă"/>
			<glyph d="M611 1400H810L1385 0H1213L1054 390H361L203 0H36ZM708 1241L423 542H993ZM1306 58L1341 0Q1228 -55 1175 -105T1122 -209Q1122 -244 1145 -265T1207 -286Q1236 -286 1261 -273T1309 -236L1388 -332Q1345 -375 1297 -395T1194 -415Q1147 -415 1108 -402T1041 -367T997 -312T981 -239Q981 -192 1002 -152T1065 -77T1167 -9T1306 58Z" horiz-adv-x="1421" unicode="Ą"/>
			<glyph d="M576 966Q694 966 779 922T922 806V947H1071V0H922V141Q865 68 779 24T576 -19Q476 -19 389 18T239 120T139 276T103 474Q103 580 139 670T239 826T389 929T576 966ZM594 826Q518 826 455 798T348 723T279 611T255 474Q255 400 279 336T349 224T456 148T594 121Q668 121 730 148T836 222T906 334T931 474Q931 549 906 613T836 725T730 799T594 826ZM1036 58L1071 0Q958 -55 905 -105T852 -209Q852 -244 875 -265T937 -286Q966 -286 991 -273T1039 -236L1118 -332Q1075 -375 1027 -395T924 -415Q877 -415 838 -402T771 -367T727 -312T711 -239Q711 -192 732 -152T795 -77T897 -9T1036 58Z" horiz-adv-x="1246" unicode="ą"/>
			<glyph d="M844 1420Q935 1420 1020 1400T1180 1342T1314 1251T1415 1130L1281 1040Q1246 1092 1199 1133T1097 1204T977 1249T844 1265Q726 1265 625 1224T449 1109T332 930T290 700Q290 574 332 469T449 291T625 176T844 135Q984 135 1097 194T1281 359L1411 263Q1367 197 1307 145T1174 56T1018 0T844 -20Q688 -20 555 33T326 182T175 410T121 700Q121 857 175 989T326 1217T555 1366T844 1420ZM906 1807H1096L845 1507H697Z" horiz-adv-x="1530" unicode="Ć"/>
			<glyph d="M593 966Q699 966 789 928T944 817L848 716Q794 768 730 797T589 826Q518 826 457 799T351 726T280 615T255 474Q255 397 280 332T351 221T457 147T589 121Q667 121 733 152T851 232L944 130Q879 57 789 19T593 -19Q484 -19 393 18T238 122T138 278T103 474Q103 579 138 669T238 825T393 928T593 966ZM662 1392H852L601 1092H453Z" horiz-adv-x="1024" unicode="ć"/>
			<glyph d="M844 1420Q935 1420 1020 1400T1180 1342T1314 1251T1415 1130L1281 1040Q1246 1092 1199 1133T1097 1204T977 1249T844 1265Q726 1265 625 1224T449 1109T332 930T290 700Q290 574 332 469T449 291T625 176T844 135Q984 135 1097 194T1281 359L1411 263Q1367 197 1307 145T1174 56T1018 0T844 -20Q688 -20 555 33T326 182T175 410T121 700Q121 857 175 989T326 1217T555 1366T844 1420ZM738 1796H938L1172 1508H1012L838 1697L663 1508H503Z" horiz-adv-x="1530" unicode="Ĉ"/>
			<glyph d="M593 966Q699 966 789 928T944 817L848 716Q794 768 730 797T589 826Q518 826 457 799T351 726T280 615T255 474Q255 397 280 332T351 221T457 147T589 121Q667 121 733 152T851 232L944 130Q879 57 789 19T593 -19Q484 -19 393 18T238 122T138 278T103 474Q103 579 138 669T238 825T393 928T593 966ZM483 1381H683L917 1093H757L583 1282L408 1093H248Z" horiz-adv-x="1024" unicode="ĉ"/>
			<glyph d="M844 1420Q935 1420 1020 1400T1180 1342T1314 1251T1415 1130L1281 1040Q1246 1092 1199 1133T1097 1204T977 1249T844 1265Q726 1265 625 1224T449 1109T332 930T290 700Q290 574 332 469T449 291T625 176T844 135Q984 135 1097 194T1281 359L1411 263Q1367 197 1307 145T1174 56T1018 0T844 -20Q688 -20 555 33T326 182T175 410T121 700Q121 857 175 989T326 1217T555 1366T844 1420ZM824 1764Q847 1764 867 1756T901 1733T925 1697T934 1655Q934 1631 925 1611T901 1577T867 1554T824 1546Q777 1546 746 1577T715 1655Q715 1701 746 1732T824 1764Z" horiz-adv-x="1530" unicode="Ċ"/>
			<glyph d="M593 966Q699 966 789 928T944 817L848 716Q794 768 730 797T589 826Q518 826 457 799T351 726T280 615T255 474Q255 397 280 332T351 221T457 147T589 121Q667 121 733 152T851 232L944 130Q879 57 789 19T593 -19Q484 -19 393 18T238 122T138 278T103 474Q103 579 138 669T238 825T393 928T593 966ZM583 1389Q605 1389 624 1381T658 1358T680 1324T689 1283Q689 1260 680 1241T658 1208T624 1186T583 1178Q538 1178 508 1208T478 1283Q478 1328 508 1358T583 1389Z" horiz-adv-x="1024" unicode="ċ"/>
			<glyph d="M844 1420Q935 1420 1020 1400T1180 1342T1314 1251T1415 1130L1281 1040Q1246 1092 1199 1133T1097 1204T977 1249T844 1265Q726 1265 625 1224T449 1109T332 930T290 700Q290 574 332 469T449 291T625 176T844 135Q984 135 1097 194T1281 359L1411 263Q1367 197 1307 145T1174 56T1018 0T844 -20Q688 -20 555 33T326 182T175 410T121 700Q121 857 175 989T326 1217T555 1366T844 1420ZM503 1794H663L838 1605L1012 1794H1172L938 1506H738Z" horiz-adv-x="1530" unicode="Č"/>
			<glyph d="M593 966Q699 966 789 928T944 817L848 716Q794 768 730 797T589 826Q518 826 457 799T351 726T280 615T255 474Q255 397 280 332T351 221T457 147T589 121Q667 121 733 152T851 232L944 130Q879 57 789 19T593 -19Q484 -19 393 18T238 122T138 278T103 474Q103 579 138 669T238 825T393 928T593 966ZM248 1379H408L583 1190L757 1379H917L683 1091H483Z" horiz-adv-x="1024" unicode="č"/>
			<glyph d="M202 1400H729Q900 1400 1038 1350T1274 1210T1423 989T1476 700Q1476 540 1423 410T1274 190T1038 49T729 0H202ZM363 1248V152H729Q871 152 979 191T1160 303T1270 476T1307 700Q1307 824 1270 925T1160 1098T979 1209T729 1248ZM403 1794H563L738 1605L912 1794H1072L838 1506H638Z" horiz-adv-x="1598" unicode="Ď"/>
			<glyph d="M922 1440H1071V0H922V141Q865 68 779 24T576 -19Q476 -19 389 18T239 120T139 276T103 474Q103 580 139 670T239 826T389 929T576 966Q694 966 779 922T922 806ZM594 826Q518 826 455 798T348 723T279 611T255 474Q255 400 279 336T349 224T456 148T594 121Q668 121 730 148T836 222T906 334T931 474Q931 549 906 613T836 725T730 799T594 826ZM1196 1440H1349L1315 1051H1189Z" horiz-adv-x="1296" unicode="ď"/>
			<glyph d="M353 1400H880Q1051 1400 1189 1350T1425 1210T1574 989T1627 700Q1627 540 1574 410T1425 190T1189 49T880 0H353V629H121V781H353ZM514 1248V781H917V629H514V152H880Q1022 152 1130 191T1311 303T1421 476T1458 700Q1458 824 1421 925T1311 1098T1130 1209T880 1248Z" horiz-adv-x="1749" unicode="Đ"/>
			<glyph d="M922 1440H1071V1251H1221V1115H1071V0H922V141Q865 68 779 24T576 -19Q476 -19 389 18T239 120T139 276T103 474Q103 580 139 670T239 826T389 929T576 966Q694 966 779 922T922 806V1115H503V1251H922ZM594 826Q518 826 455 798T348 723T279 611T255 474Q255 400 279 336T349 224T456 148T594 121Q668 121 730 148T836 222T906 334T931 474Q931 549 906 613T836 725T730 799T594 826Z" horiz-adv-x="1246" unicode="đ"/>
			<glyph d="M202 1400H1178V1249H363V780H1153V630H363V151H1187V0H202ZM386 1711H984V1590H386Z" horiz-adv-x="1348" unicode="Ē"/>
			<glyph d="M573 966Q669 966 750 930T891 829T983 675T1018 477Q1018 446 1015 421H256Q264 344 293 286T367 190T469 131T591 112Q679 112 754 143T891 231L971 129Q927 87 880 58T784 12T685 -12T582 -19Q477 -19 389 16T237 117T138 272T103 473Q103 582 138 672T237 828T386 929T573 966ZM570 833Q504 833 450 811T357 751T292 659T258 542H866Q859 608 834 662T771 754T681 812T570 833ZM270 1296H868V1175H270Z" horiz-adv-x="1121" unicode="ē"/>
			<glyph d="M202 1400H1178V1249H363V780H1153V630H363V151H1187V0H202ZM464 1818Q493 1721 548 1674T685 1627Q766 1627 822 1674T907 1818L1027 1781Q989 1642 900 1571T685 1501Q560 1501 471 1571T344 1781Z" horiz-adv-x="1348" unicode="Ĕ"/>
			<glyph d="M573 966Q669 966 750 930T891 829T983 675T1018 477Q1018 446 1015 421H256Q264 344 293 286T367 190T469 131T591 112Q679 112 754 143T891 231L971 129Q927 87 880 58T784 12T685 -12T582 -19Q477 -19 389 16T237 117T138 272T103 473Q103 582 138 672T237 828T386 929T573 966ZM570 833Q504 833 450 811T357 751T292 659T258 542H866Q859 608 834 662T771 754T681 812T570 833ZM348 1403Q377 1306 432 1259T569 1212Q650 1212 706 1259T791 1403L911 1366Q873 1227 784 1156T569 1086Q444 1086 355 1156T228 1366Z" horiz-adv-x="1121" unicode="ĕ"/>
			<glyph d="M202 1400H1178V1249H363V780H1153V630H363V151H1187V0H202ZM671 1764Q694 1764 714 1756T748 1733T772 1697T781 1655Q781 1631 772 1611T748 1577T714 1554T671 1546Q624 1546 593 1577T562 1655Q562 1701 593 1732T671 1764Z" horiz-adv-x="1348" unicode="Ė"/>
			<glyph d="M573 966Q669 966 750 930T891 829T983 675T1018 477Q1018 446 1015 421H256Q264 344 293 286T367 190T469 131T591 112Q679 112 754 143T891 231L971 129Q927 87 880 58T784 12T685 -12T582 -19Q477 -19 389 16T237 117T138 272T103 473Q103 582 138 672T237 828T386 929T573 966ZM570 833Q504 833 450 811T357 751T292 659T258 542H866Q859 608 834 662T771 754T681 812T570 833ZM569 1389Q591 1389 610 1381T644 1358T666 1324T675 1283Q675 1260 666 1241T644 1208T610 1186T569 1178Q524 1178 494 1208T464 1283Q464 1328 494 1358T569 1389Z" horiz-adv-x="1121" unicode="ė"/>
			<glyph d="M202 1400H1178V1249H363V780H1153V630H363V151H1187V0H202ZM1012 72L1035 16Q941 -30 898 -77T855 -182Q855 -228 888 -257T979 -286Q1059 -286 1122 -228L1202 -325Q1155 -370 1095 -392T970 -415Q911 -415 863 -399T780 -356T727 -291T709 -209Q709 -159 729 -118T787 -44T881 17T1012 72Z" horiz-adv-x="1348" unicode="Ę"/>
			<glyph d="M573 966Q669 966 750 930T891 829T983 675T1018 477Q1018 446 1015 421H256Q264 344 293 286T367 190T469 131T591 112Q679 112 754 143T891 231L971 129Q927 87 880 58T784 12T685 -12T582 -19Q477 -19 389 16T237 117T138 272T103 473Q103 582 138 672T237 828T386 929T573 966ZM570 833Q504 833 450 811T357 751T292 659T258 542H866Q859 608 834 662T771 754T681 812T570 833ZM809 91L827 32Q724 -19 672 -68T620 -182Q620 -228 653 -257T744 -286Q824 -286 887 -228L967 -325Q920 -370 860 -392T735 -415Q676 -415 628 -399T545 -356T492 -291T474 -209Q474 -155 497 -112T563 -33T668 32T809 91Z" horiz-adv-x="1121" unicode="ę"/>
			<glyph d="M202 1400H1178V1249H363V780H1153V630H363V151H1187V0H202ZM350 1794H510L685 1605L859 1794H1019L785 1506H585Z" horiz-adv-x="1348" unicode="Ě"/>
			<glyph d="M573 966Q669 966 750 930T891 829T983 675T1018 477Q1018 446 1015 421H256Q264 344 293 286T367 190T469 131T591 112Q679 112 754 143T891 231L971 129Q927 87 880 58T784 12T685 -12T582 -19Q477 -19 389 16T237 117T138 272T103 473Q103 582 138 672T237 828T386 929T573 966ZM570 833Q504 833 450 811T357 751T292 659T258 542H866Q859 608 834 662T771 754T681 812T570 833ZM234 1379H394L569 1190L743 1379H903L669 1091H469Z" horiz-adv-x="1121" unicode="ě"/>
			<glyph d="M844 1420Q1012 1420 1151 1358T1387 1185L1268 1071Q1193 1162 1084 1213T844 1265Q726 1265 625 1224T449 1109T332 930T290 700Q290 574 332 469T448 291T622 176T837 135Q948 135 1037 167T1190 259T1293 404T1341 598H905V748H1515Q1516 737 1516 727T1517 707Q1517 554 1470 421T1335 191T1121 37T837 -19Q699 -19 570 29T341 170T181 396T121 700Q121 805 146 899T217 1074T328 1218T473 1327T647 1396T844 1420ZM722 1796H922L1156 1508H996L822 1697L647 1508H487Z" horiz-adv-x="1639" unicode="Ĝ"/>
			<glyph d="M572 966Q687 966 771 922T910 805V947H1060V65Q1060 -51 1023 -140T919 -291T761 -383T559 -415Q502 -415 446 -406T339 -381T241 -341T160 -288L226 -168Q294 -219 378 -249T559 -279Q636 -279 700 -257T811 -193T884 -87T910 59V156Q856 81 771 38T572 -5Q472 -5 386 30T238 130T139 284T103 481Q103 588 139 677T238 831T386 930T572 966ZM589 826Q514 826 452 799T346 725T279 615T255 481Q255 409 279 346T346 236T452 162T589 135Q662 135 723 161T829 234T898 344T923 481Q923 554 898 617T829 726T723 799T589 826ZM504 1381H704L938 1093H778L604 1282L429 1093H269Z" horiz-adv-x="1235" unicode="ĝ"/>
			<glyph d="M844 1420Q1012 1420 1151 1358T1387 1185L1268 1071Q1193 1162 1084 1213T844 1265Q726 1265 625 1224T449 1109T332 930T290 700Q290 574 332 469T448 291T622 176T837 135Q948 135 1037 167T1190 259T1293 404T1341 598H905V748H1515Q1516 737 1516 727T1517 707Q1517 554 1470 421T1335 191T1121 37T837 -19Q699 -19 570 29T341 170T181 396T121 700Q121 805 146 899T217 1074T328 1218T473 1327T647 1396T844 1420ZM601 1818Q630 1721 685 1674T822 1627Q903 1627 959 1674T1044 1818L1164 1781Q1126 1642 1037 1571T822 1501Q697 1501 608 1571T481 1781Z" horiz-adv-x="1639" unicode="Ğ"/>
			<glyph d="M572 966Q687 966 771 922T910 805V947H1060V65Q1060 -51 1023 -140T919 -291T761 -383T559 -415Q502 -415 446 -406T339 -381T241 -341T160 -288L226 -168Q294 -219 378 -249T559 -279Q636 -279 700 -257T811 -193T884 -87T910 59V156Q856 81 771 38T572 -5Q472 -5 386 30T238 130T139 284T103 481Q103 588 139 677T238 831T386 930T572 966ZM589 826Q514 826 452 799T346 725T279 615T255 481Q255 409 279 346T346 236T452 162T589 135Q662 135 723 161T829 234T898 344T923 481Q923 554 898 617T829 726T723 799T589 826ZM383 1403Q412 1306 467 1259T604 1212Q685 1212 741 1259T826 1403L946 1366Q908 1227 819 1156T604 1086Q479 1086 390 1156T263 1366Z" horiz-adv-x="1235" unicode="ğ"/>
			<glyph d="M844 1420Q1012 1420 1151 1358T1387 1185L1268 1071Q1193 1162 1084 1213T844 1265Q726 1265 625 1224T449 1109T332 930T290 700Q290 574 332 469T448 291T622 176T837 135Q948 135 1037 167T1190 259T1293 404T1341 598H905V748H1515Q1516 737 1516 727T1517 707Q1517 554 1470 421T1335 191T1121 37T837 -19Q699 -19 570 29T341 170T181 396T121 700Q121 805 146 899T217 1074T328 1218T473 1327T647 1396T844 1420ZM808 1764Q831 1764 851 1756T885 1733T909 1697T918 1655Q918 1631 909 1611T885 1577T851 1554T808 1546Q761 1546 730 1577T699 1655Q699 1701 730 1732T808 1764Z" horiz-adv-x="1639" unicode="Ġ"/>
			<glyph d="M572 966Q687 966 771 922T910 805V947H1060V65Q1060 -51 1023 -140T919 -291T761 -383T559 -415Q502 -415 446 -406T339 -381T241 -341T160 -288L226 -168Q294 -219 378 -249T559 -279Q636 -279 700 -257T811 -193T884 -87T910 59V156Q856 81 771 38T572 -5Q472 -5 386 30T238 130T139 284T103 481Q103 588 139 677T238 831T386 930T572 966ZM589 826Q514 826 452 799T346 725T279 615T255 481Q255 409 279 346T346 236T452 162T589 135Q662 135 723 161T829 234T898 344T923 481Q923 554 898 617T829 726T723 799T589 826ZM604 1389Q626 1389 645 1381T679 1358T701 1324T710 1283Q710 1260 701 1241T679 1208T645 1186T604 1178Q559 1178 529 1208T499 1283Q499 1328 529 1358T604 1389Z" horiz-adv-x="1235" unicode="ġ"/>
			<glyph d="M844 1420Q1012 1420 1151 1358T1387 1185L1268 1071Q1193 1162 1084 1213T844 1265Q726 1265 625 1224T449 1109T332 930T290 700Q290 574 332 469T448 291T622 176T837 135Q948 135 1037 167T1190 259T1293 404T1341 598H905V748H1515Q1516 737 1516 727T1517 707Q1517 554 1470 421T1335 191T1121 37T837 -19Q699 -19 570 29T341 170T181 396T121 700Q121 805 146 899T217 1074T328 1218T473 1327T647 1396T844 1420ZM758 -88H922L848 -438H716Z" horiz-adv-x="1639" unicode="Ģ"/>
			<glyph d="M572 966Q687 966 771 922T910 805V947H1060V65Q1060 -51 1023 -140T919 -291T761 -383T559 -415Q502 -415 446 -406T339 -381T241 -341T160 -288L226 -168Q294 -219 378 -249T559 -279Q636 -279 700 -257T811 -193T884 -87T910 59V156Q856 81 771 38T572 -5Q472 -5 386 30T238 130T139 284T103 481Q103 588 139 677T238 831T386 930T572 966ZM589 826Q514 826 452 799T346 725T279 615T255 481Q255 409 279 346T346 236T452 162T589 135Q662 135 723 161T829 234T898 344T923 481Q923 554 898 617T829 726T723 799T589 826ZM587 1443H719L677 1092H513Z" horiz-adv-x="1235" unicode="ģ"/>
			<glyph d="M202 1400H363V781H1210V1400H1371V0H1210V629H363V0H202ZM686 1796H886L1120 1508H960L786 1697L611 1508H451Z" horiz-adv-x="1573" unicode="Ĥ"/>
			<glyph d="M175 1440H325V815Q354 856 391 885T469 932T555 958T642 966Q730 966 802 939T927 862T1008 743T1037 587V0H888V538Q888 674 817 749T615 824Q555 824 502 804T410 746T348 655T325 534V0H175ZM509 1834H709L943 1546H783L609 1735L434 1546H274Z" horiz-adv-x="1201" unicode="ĥ"/>
			<glyph d="M226 1400H387V1146H1234V1400H1395V1146H1558V1010H1395V0H1234V629H387V0H226V1010H61V1146H226ZM387 1010V781H1234V1010Z" horiz-adv-x="1619" unicode="Ħ"/>
			<glyph d="M175 1440H325V1251H717V1115H325V815Q354 856 391 885T469 932T555 958T642 966Q730 966 802 939T927 862T1008 743T1037 587V0H888V538Q888 674 817 749T615 824Q555 824 502 804T410 746T348 655T325 534V0H175V1115H-1V1251H175Z" horiz-adv-x="1201" unicode="ħ"/>
			<glyph d="M202 1400H363V0H202ZM149 1760Q200 1760 235 1747T300 1720T356 1693T415 1681Q453 1681 483 1697T545 1748L634 1663Q589 1607 537 1579T415 1552Q365 1552 329 1564T264 1592T208 1619T149 1632Q111 1632 80 1615T18 1564L-70 1649Q-25 1705 26 1732T149 1760Z" horiz-adv-x="565" unicode="Ĩ"/>
			<glyph d="M175 947H325V0H175ZM125 1345Q176 1345 211 1332T276 1305T332 1278T391 1266Q429 1266 459 1282T521 1333L610 1248Q565 1192 513 1164T391 1137Q341 1137 305 1149T240 1177T184 1204T125 1217Q87 1217 56 1200T-6 1149L-94 1234Q-49 1290 2 1317T125 1345Z" horiz-adv-x="500" unicode="ĩ"/>
			<glyph d="M202 1400H363V0H202ZM-17 1711H581V1590H-17Z" horiz-adv-x="565" unicode="Ī"/>
			<glyph d="M175 947H325V0H175ZM-49 1296H549V1175H-49Z" horiz-adv-x="500" unicode="ī"/>
			<glyph d="M202 1400H363V0H202ZM61 1818Q90 1721 145 1674T282 1627Q363 1627 419 1674T504 1818L624 1781Q586 1642 497 1571T282 1501Q157 1501 68 1571T-59 1781Z" horiz-adv-x="565" unicode="Ĭ"/>
			<glyph d="M175 947H325V0H175ZM29 1403Q58 1306 113 1259T250 1212Q331 1212 387 1259T472 1403L592 1366Q554 1227 465 1156T250 1086Q125 1086 36 1156T-91 1366Z" horiz-adv-x="500" unicode="ĭ"/>
			<glyph d="M202 1400H363V0H202ZM326 58L363 0Q222 -115 222 -209Q222 -244 245 -265T307 -286Q337 -286 362 -273T409 -236L489 -332Q446 -375 397 -395T294 -415Q247 -415 208 -402T141 -367T97 -312T81 -239Q81 -195 98 -156T146 -82T223 -11T326 58Z" horiz-adv-x="565" unicode="Į"/>
			<glyph d="M288 58L325 0Q184 -115 184 -209Q184 -244 207 -265T269 -286Q299 -286 324 -273T371 -236L451 -332Q408 -375 359 -395T256 -415Q209 -415 170 -402T103 -367T59 -312T43 -239Q43 -195 60 -156T108 -82T185 -11T288 58ZM175 947H325V0H175ZM250 1389Q272 1389 291 1381T325 1358T347 1324T356 1283Q356 1260 347 1241T325 1208T291 1186T250 1178Q205 1178 175 1208T145 1283Q145 1328 175 1358T250 1389Z" horiz-adv-x="500" unicode="į"/>
			<glyph d="M202 1400H363V0H202ZM268 1764Q291 1764 311 1756T345 1733T369 1697T378 1655Q378 1631 369 1611T345 1577T311 1554T268 1546Q221 1546 190 1577T159 1655Q159 1701 190 1732T268 1764Z" horiz-adv-x="565" unicode="İ"/>
			<glyph d="M175 947H325V0H175Z" horiz-adv-x="500" unicode="ı"/>
			<glyph d="M202 1400H363V0H202ZM1363 1400H1523V499Q1523 374 1486 277T1384 115T1230 15T1037 -19Q953 -19 886 -1T766 44T673 108T605 178L713 288Q738 257 770 229T842 180T930 147T1036 135Q1109 135 1169 159T1273 231T1339 350T1363 515Z" horiz-adv-x="1715" unicode="Ĳ"/>
			<glyph d="M679 947H829V-156Q829 -219 812 -267T764 -348T690 -398T593 -415Q556 -415 519 -406T457 -383L493 -254Q511 -263 533 -268T580 -274Q626 -274 652 -244T679 -149ZM753 1389Q775 1389 794 1381T828 1358T850 1324T859 1283Q859 1260 850 1241T828 1208T794 1186T753 1178Q708 1178 678 1208T648 1283Q648 1328 678 1358T753 1389ZM175 947H325V0H175ZM250 1389Q272 1389 291 1381T325 1358T347 1324T356 1283Q356 1260 347 1241T325 1208T291 1186T250 1178Q205 1178 175 1208T145 1283Q145 1328 175 1358T250 1389Z" horiz-adv-x="1004" unicode="ĳ"/>
			<glyph d="M798 1400H958V499Q958 374 921 277T819 115T665 15T472 -19Q388 -19 321 -1T201 44T108 108T40 178L148 288Q173 257 205 229T277 180T365 147T471 135Q544 135 604 159T708 231T774 350T798 515ZM778 1796H978L1212 1508H1052L878 1697L703 1508H543Z" horiz-adv-x="1150" unicode="Ĵ"/>
			<glyph d="M179 947H329V-156Q329 -219 312 -267T264 -348T190 -398T93 -415Q56 -415 19 -406T-43 -383L-7 -254Q11 -263 33 -268T80 -274Q126 -274 152 -244T179 -149ZM153 1381H353L587 1093H427L253 1282L78 1093H-82Z" horiz-adv-x="504" unicode="ĵ"/>
			<glyph d="M202 1400H363V780H532L1113 1400H1321L663 713L1364 0H1145L529 628H363V0H202ZM633 -88H797L723 -438H591Z" horiz-adv-x="1388" unicode="Ķ"/>
			<glyph d="M175 1440H325V563H462L827 947H1014L584 501L1021 0H832L461 427H325V0H175ZM490 -88H654L580 -438H448Z" horiz-adv-x="1058" unicode="ķ"/>
			<glyph d="M175 947H325V563H458L817 947H1005L580 501L1012 0H823L457 427H325V0H175Z" horiz-adv-x="1049" unicode="ĸ"/>
			<glyph d="M202 1400H363V152H1173V0H202ZM350 1807H540L289 1507H141Z" horiz-adv-x="1213" unicode="Ĺ"/>
			<glyph d="M175 1440H325V0H175ZM293 1845H483L232 1545H84Z" horiz-adv-x="500" unicode="ĺ"/>
			<glyph d="M202 1400H363V152H1173V0H202ZM617 -88H781L707 -438H575Z" horiz-adv-x="1213" unicode="Ļ"/>
			<glyph d="M175 1440H325V0H175ZM181 -88H345L271 -438H139Z" horiz-adv-x="500" unicode="ļ"/>
			<glyph d="M202 1400H363V152H1173V0H202ZM608 1401H761L727 1012H601Z" horiz-adv-x="1213" unicode="Ľ"/>
			<glyph d="M175 1440H325V0H175ZM439 1440H592L558 1051H432Z" horiz-adv-x="543" unicode="ľ"/>
			<glyph d="M202 1400H363V152H1173V0H202ZM857 815Q880 815 900 807T934 784T958 748T967 706Q967 682 958 662T934 628T900 605T857 597Q810 597 779 628T748 706Q748 752 779 783T857 815Z" horiz-adv-x="1213" unicode="Ŀ"/>
			<glyph d="M175 1440H325V0H175ZM552 837Q574 837 593 829T627 806T649 772T658 731Q658 708 649 689T627 656T593 634T552 626Q507 626 477 656T447 731Q447 776 477 806T552 837Z" horiz-adv-x="613" unicode="ŀ"/>
			<glyph d="M335 1400H496V765L1013 1055V883L496 593V152H1306V0H335V503L121 383V555L335 675Z" horiz-adv-x="1346" unicode="Ł"/>
			<glyph d="M259 1440H409V877L617 1025V870L409 722V0H259V616L53 470V625L259 771Z" horiz-adv-x="670" unicode="ł"/>
			<glyph d="M202 1400H347L1214 276V1400H1375V0H1230L363 1124V0H202ZM856 1807H1046L795 1507H647Z" horiz-adv-x="1577" unicode="Ń"/>
			<glyph d="M642 966Q730 966 802 939T927 862T1008 743T1037 587V0H888V538Q888 674 817 749T615 824Q555 824 502 804T410 746T348 655T325 534V0H175V947H323V812Q352 854 389 883T468 931T554 958T642 966ZM696 1392H886L635 1092H487Z" horiz-adv-x="1201" unicode="ń"/>
			<glyph d="M202 1400H347L1214 276V1400H1375V0H1230L363 1124V0H202ZM722 -88H886L812 -438H680Z" horiz-adv-x="1577" unicode="Ņ"/>
			<glyph d="M642 966Q730 966 802 939T927 862T1008 743T1037 587V0H888V538Q888 674 817 749T615 824Q555 824 502 804T410 746T348 655T325 534V0H175V947H323V812Q352 854 389 883T468 931T554 958T642 966ZM536 -88H700L626 -438H494Z" horiz-adv-x="1201" unicode="ņ"/>
			<glyph d="M202 1400H347L1214 276V1400H1375V0H1230L363 1124V0H202ZM453 1794H613L788 1605L962 1794H1122L888 1506H688Z" horiz-adv-x="1577" unicode="Ň"/>
			<glyph d="M642 966Q730 966 802 939T927 862T1008 743T1037 587V0H888V538Q888 674 817 749T615 824Q555 824 502 804T410 746T348 655T325 534V0H175V947H323V812Q352 854 389 883T468 931T554 958T642 966ZM282 1379H442L617 1190L791 1379H951L717 1091H517Z" horiz-adv-x="1201" unicode="ň"/>
			<glyph d="M187 1440H361L256 933H127ZM917 966Q1005 966 1077 939T1202 862T1283 743T1312 587V0H1163V538Q1163 674 1092 749T890 824Q830 824 777 804T685 746T623 655T600 534V0H450V947H598V812Q627 854 664 883T743 931T829 958T917 966Z" horiz-adv-x="1476" unicode="ŉ"/>
			<glyph d="M202 1400H347L1214 276V1400H1375V-37Q1375 -117 1356 -186T1295 -306T1189 -386T1035 -415Q954 -415 889 -397T773 -351L832 -211Q870 -231 918 -245T1018 -260Q1070 -260 1107 -243T1168 -197T1203 -124T1214 -30V20L363 1124V0H202Z" horiz-adv-x="1577" unicode="Ŋ"/>
			<glyph d="M642 966Q730 966 802 939T927 862T1008 743T1037 587V-77Q1037 -140 1020 -188T973 -269T899 -319T802 -336Q765 -336 728 -327T666 -304L702 -175Q720 -184 742 -189T788 -195Q835 -195 861 -165T888 -70V538Q888 674 817 749T615 824Q555 824 502 804T410 746T348 655T325 534V0H175V947H323V812Q352 854 389 883T468 931T554 958T642 966Z" horiz-adv-x="1201" unicode="ŋ"/>
			<glyph d="M844 1420Q1000 1420 1132 1366T1361 1217T1512 989T1567 700Q1567 542 1512 410T1361 182T1132 33T844 -20Q688 -20 555 33T326 182T175 410T121 700Q121 857 175 989T326 1217T555 1366T844 1420ZM844 1265Q726 1265 625 1224T449 1109T332 930T290 700Q290 574 332 469T449 291T625 176T844 135Q962 135 1063 176T1239 291T1356 469T1399 700Q1399 826 1356 930T1239 1109T1063 1224T844 1265ZM545 1711H1143V1590H545Z" horiz-adv-x="1689" unicode="Ō"/>
			<glyph d="M601 966Q708 966 799 928T957 825T1062 669T1100 474Q1100 369 1062 278T957 122T799 18T601 -19Q494 -19 403 18T245 122T140 278T103 474Q103 579 140 669T245 825T403 928T601 966ZM601 826Q527 826 464 799T354 726T281 615T255 474Q255 397 281 332T354 221T464 147T601 121Q674 121 737 147T847 221T920 332T947 474Q947 550 920 615T847 726T737 799T601 826ZM302 1296H900V1175H302Z" horiz-adv-x="1203" unicode="ō"/>
			<glyph d="M844 1420Q1000 1420 1132 1366T1361 1217T1512 989T1567 700Q1567 542 1512 410T1361 182T1132 33T844 -20Q688 -20 555 33T326 182T175 410T121 700Q121 857 175 989T326 1217T555 1366T844 1420ZM844 1265Q726 1265 625 1224T449 1109T332 930T290 700Q290 574 332 469T449 291T625 176T844 135Q962 135 1063 176T1239 291T1356 469T1399 700Q1399 826 1356 930T1239 1109T1063 1224T844 1265ZM623 1818Q652 1721 707 1674T844 1627Q925 1627 981 1674T1066 1818L1186 1781Q1148 1642 1059 1571T844 1501Q719 1501 630 1571T503 1781Z" horiz-adv-x="1689" unicode="Ŏ"/>
			<glyph d="M601 966Q708 966 799 928T957 825T1062 669T1100 474Q1100 369 1062 278T957 122T799 18T601 -19Q494 -19 403 18T245 122T140 278T103 474Q103 579 140 669T245 825T403 928T601 966ZM601 826Q527 826 464 799T354 726T281 615T255 474Q255 397 281 332T354 221T464 147T601 121Q674 121 737 147T847 221T920 332T947 474Q947 550 920 615T847 726T737 799T601 826ZM380 1403Q409 1306 464 1259T601 1212Q682 1212 738 1259T823 1403L943 1366Q905 1227 816 1156T601 1086Q476 1086 387 1156T260 1366Z" horiz-adv-x="1203" unicode="ŏ"/>
			<glyph d="M844 1420Q1000 1420 1132 1366T1361 1217T1512 989T1567 700Q1567 542 1512 410T1361 182T1132 33T844 -20Q688 -20 555 33T326 182T175 410T121 700Q121 857 175 989T326 1217T555 1366T844 1420ZM844 1265Q726 1265 625 1224T449 1109T332 930T290 700Q290 574 332 469T449 291T625 176T844 135Q962 135 1063 176T1239 291T1356 469T1399 700Q1399 826 1356 930T1239 1109T1063 1224T844 1265ZM1127 1807H1302L1062 1507H912ZM768 1807H937L721 1507H568Z" horiz-adv-x="1689" unicode="Ő"/>
			<glyph d="M601 966Q708 966 799 928T957 825T1062 669T1100 474Q1100 369 1062 278T957 122T799 18T601 -19Q494 -19 403 18T245 122T140 278T103 474Q103 579 140 669T245 825T403 928T601 966ZM601 826Q527 826 464 799T354 726T281 615T255 474Q255 397 281 332T354 221T464 147T601 121Q674 121 737 147T847 221T920 332T947 474Q947 550 920 615T847 726T737 799T601 826ZM899 1392H1074L834 1092H684ZM540 1392H709L493 1092H340Z" horiz-adv-x="1203" unicode="ő"/>
			<glyph d="M868 1400H2087V1249H1272V780H2062V630H1272V151H2096V0H868Q697 0 558 49T323 190T173 410T121 700Q121 860 173 989T323 1210T558 1350T868 1400ZM868 1248Q726 1248 618 1208T437 1097T327 924T290 700Q290 576 327 475T437 302T618 191T868 152H1111V1248Z" horiz-adv-x="2257" unicode="Œ"/>
			<glyph d="M601 966Q669 966 730 949T845 901T942 827T1016 730Q1075 840 1179 903T1417 966Q1513 966 1594 930T1735 829T1827 675T1862 477Q1862 462 1861 448T1859 421H1100Q1108 344 1137 286T1211 190T1313 131T1435 112Q1523 112 1599 144T1735 231L1815 129Q1771 87 1724 58T1628 12T1529 -12T1426 -19Q1286 -19 1179 42T1015 214Q984 161 940 118T844 44T729 -2T601 -19Q494 -19 403 18T245 122T140 278T103 474Q103 579 140 669T245 825T403 928T601 966ZM601 826Q527 826 464 799T354 726T281 615T255 474Q255 397 281 332T354 221T464 147T601 121Q674 121 737 147T847 221T920 332T947 474Q947 550 920 615T847 726T737 799T601 826ZM1414 833Q1348 833 1294 811T1201 751T1136 659T1102 542H1710Q1703 608 1678 661T1615 753T1525 812T1414 833Z" horiz-adv-x="1965" unicode="œ"/>
			<glyph d="M202 1400H751Q869 1400 960 1374T1113 1297T1208 1173T1240 1005Q1240 914 1206 841T1108 716T955 637T753 609H730L1233 0H1033L540 609H363V0H202ZM363 1249V755H749Q910 755 991 818T1073 1005Q1073 1127 990 1188T749 1249ZM731 1807H921L670 1507H522Z" horiz-adv-x="1353" unicode="Ŕ"/>
			<glyph d="M604 966Q655 966 697 958T778 934L742 787Q707 806 663 815T578 825Q522 825 475 804T395 744T343 651T324 530V0H175V947H323V814Q372 887 444 926T604 966ZM554 1392H744L493 1092H345Z" horiz-adv-x="830" unicode="ŕ"/>
			<glyph d="M202 1400H751Q869 1400 960 1374T1113 1297T1208 1173T1240 1005Q1240 914 1206 841T1108 716T955 637T753 609H730L1233 0H1033L540 609H363V0H202ZM363 1249V755H749Q910 755 991 818T1073 1005Q1073 1127 990 1188T749 1249ZM605 -88H769L695 -438H563Z" horiz-adv-x="1353" unicode="Ŗ"/>
			<glyph d="M604 966Q655 966 697 958T778 934L742 787Q707 806 663 815T578 825Q522 825 475 804T395 744T343 651T324 530V0H175V947H323V814Q372 887 444 926T604 966ZM182 -88H346L272 -438H140Z" horiz-adv-x="830" unicode="ŗ"/>
			<glyph d="M202 1400H751Q869 1400 960 1374T1113 1297T1208 1173T1240 1005Q1240 914 1206 841T1108 716T955 637T753 609H730L1233 0H1033L540 609H363V0H202ZM363 1249V755H749Q910 755 991 818T1073 1005Q1073 1127 990 1188T749 1249ZM328 1794H488L663 1605L837 1794H997L763 1506H563Z" horiz-adv-x="1353" unicode="Ř"/>
			<glyph d="M604 966Q655 966 697 958T778 934L742 787Q707 806 663 815T578 825Q522 825 475 804T395 744T343 651T324 530V0H175V947H323V814Q372 887 444 926T604 966ZM140 1379H300L475 1190L649 1379H809L575 1091H375Z" horiz-adv-x="830" unicode="ř"/>
			<glyph d="M695 1418Q775 1418 845 1406T978 1375T1095 1327T1198 1265L1116 1135Q1031 1193 926 1229T694 1266Q615 1266 548 1248T434 1198T359 1119T332 1013Q332 915 411 860T655 786L788 770Q875 759 954 734T1093 666T1189 558T1225 402Q1225 298 1181 219T1061 88T885 8T671 -19Q595 -19 518 -6T369 30T234 87T121 161L209 289Q245 258 296 230T407 180T535 146T670 133Q751 133 822 149T945 198T1028 277T1058 388Q1058 490 971 544T719 617L578 633Q488 643 412 669T282 741T196 851T165 1003Q165 1103 206 1180T320 1310T488 1390T695 1418ZM781 1807H971L720 1507H572Z" horiz-adv-x="1346" unicode="Ś"/>
			<glyph d="M500 965Q612 965 709 936T876 862L811 746Q788 762 755 777T681 806T595 827T501 835Q450 835 409 824T338 795T293 748T277 686Q277 626 326 595T470 553L582 539Q733 519 816 455T900 275Q900 207 870 153T787 61T656 2T483 -18Q437 -18 386 -12T284 8T183 46T88 103L157 215Q184 194 216 175T288 142T376 120T485 112Q605 112 675 151T746 265Q746 322 697 356T548 403L435 416Q274 436 198 504T122 678Q122 745 149 798T225 889T345 945T500 965ZM593 1392H783L532 1092H384Z" horiz-adv-x="987" unicode="ś"/>
			<glyph d="M695 1418Q775 1418 845 1406T978 1375T1095 1327T1198 1265L1116 1135Q1031 1193 926 1229T694 1266Q615 1266 548 1248T434 1198T359 1119T332 1013Q332 915 411 860T655 786L788 770Q875 759 954 734T1093 666T1189 558T1225 402Q1225 298 1181 219T1061 88T885 8T671 -19Q595 -19 518 -6T369 30T234 87T121 161L209 289Q245 258 296 230T407 180T535 146T670 133Q751 133 822 149T945 198T1028 277T1058 388Q1058 490 971 544T719 617L578 633Q488 643 412 669T282 741T196 851T165 1003Q165 1103 206 1180T320 1310T488 1390T695 1418ZM613 1796H813L1047 1508H887L713 1697L538 1508H378Z" horiz-adv-x="1346" unicode="Ŝ"/>
			<glyph d="M500 965Q612 965 709 936T876 862L811 746Q788 762 755 777T681 806T595 827T501 835Q450 835 409 824T338 795T293 748T277 686Q277 626 326 595T470 553L582 539Q733 519 816 455T900 275Q900 207 870 153T787 61T656 2T483 -18Q437 -18 386 -12T284 8T183 46T88 103L157 215Q184 194 216 175T288 142T376 120T485 112Q605 112 675 151T746 265Q746 322 697 356T548 403L435 416Q274 436 198 504T122 678Q122 745 149 798T225 889T345 945T500 965ZM414 1381H614L848 1093H688L514 1282L339 1093H179Z" horiz-adv-x="987" unicode="ŝ"/>
			<glyph d="M695 1418Q775 1418 845 1406T978 1375T1095 1327T1198 1265L1116 1135Q1031 1193 926 1229T694 1266Q615 1266 548 1248T434 1198T359 1119T332 1013Q332 915 411 860T655 786L788 770Q875 759 954 734T1093 666T1189 558T1225 402Q1225 298 1181 219T1061 88T885 8T671 -19Q595 -19 518 -6T369 30T234 87T121 161L209 289Q245 258 296 230T407 180T535 146T670 133Q751 133 822 149T945 198T1028 277T1058 388Q1058 490 971 544T719 617L578 633Q488 643 412 669T282 741T196 851T165 1003Q165 1103 206 1180T320 1310T488 1390T695 1418ZM621 6L776 5L673 -323H510Z" horiz-adv-x="1346" unicode="Ş"/>
			<glyph d="M500 965Q612 965 709 936T876 862L811 746Q788 762 755 777T681 806T595 827T501 835Q450 835 409 824T338 795T293 748T277 686Q277 626 326 595T470 553L582 539Q733 519 816 455T900 275Q900 207 870 153T787 61T656 2T483 -18Q437 -18 386 -12T284 8T183 46T88 103L157 215Q184 194 216 175T288 142T376 120T485 112Q605 112 675 151T746 265Q746 322 697 356T548 403L435 416Q274 436 198 504T122 678Q122 745 149 798T225 889T345 945T500 965ZM446 6L596 5L493 -323H337Z" horiz-adv-x="987" unicode="ş"/>
			<glyph d="M695 1418Q775 1418 845 1406T978 1375T1095 1327T1198 1265L1116 1135Q1031 1193 926 1229T694 1266Q615 1266 548 1248T434 1198T359 1119T332 1013Q332 915 411 860T655 786L788 770Q875 759 954 734T1093 666T1189 558T1225 402Q1225 298 1181 219T1061 88T885 8T671 -19Q595 -19 518 -6T369 30T234 87T121 161L209 289Q245 258 296 230T407 180T535 146T670 133Q751 133 822 149T945 198T1028 277T1058 388Q1058 490 971 544T719 617L578 633Q488 643 412 669T282 741T196 851T165 1003Q165 1103 206 1180T320 1310T488 1390T695 1418ZM378 1794H538L713 1605L887 1794H1047L813 1506H613Z" horiz-adv-x="1346" unicode="Š"/>
			<glyph d="M500 965Q612 965 709 936T876 862L811 746Q788 762 755 777T681 806T595 827T501 835Q450 835 409 824T338 795T293 748T277 686Q277 626 326 595T470 553L582 539Q733 519 816 455T900 275Q900 207 870 153T787 61T656 2T483 -18Q437 -18 386 -12T284 8T183 46T88 103L157 215Q184 194 216 175T288 142T376 120T485 112Q605 112 675 151T746 265Q746 322 697 356T548 403L435 416Q274 436 198 504T122 678Q122 745 149 798T225 889T345 945T500 965ZM179 1379H339L514 1190L688 1379H848L614 1091H414Z" horiz-adv-x="987" unicode="š"/>
			<glyph d="M40 1400H1172V1248H686V0H526V1248H40ZM530 6L685 5L582 -323H419Z" horiz-adv-x="1212" unicode="Ţ"/>
			<glyph d="M260 1248H409V947H818V812H409V334Q409 278 423 238T462 172T521 133T597 121Q652 121 703 139T796 188L866 75Q812 34 742 7T585 -19Q508 -19 448 2T346 66T282 176T260 331V812H53V947H260ZM490 6L640 5L537 -323H381Z" horiz-adv-x="906" unicode="ţ"/>
			<glyph d="M40 1400H1172V1248H686V0H526V1248H40ZM271 1794H431L606 1605L780 1794H940L706 1506H506Z" horiz-adv-x="1212" unicode="Ť"/>
			<glyph d="M260 1248H409V947H818V812H409V334Q409 278 423 238T462 172T521 133T597 121Q652 121 703 139T796 188L866 75Q812 34 742 7T585 -19Q508 -19 448 2T346 66T282 176T260 331V812H53V947H260ZM542 1440H695L661 1051H535Z" horiz-adv-x="906" unicode="ť"/>
			<glyph d="M40 1400H1172V1248H686V781H1004V629H686V0H526V629H208V781H526V1248H40Z" horiz-adv-x="1212" unicode="Ŧ"/>
			<glyph d="M260 1248H409V947H818V812H409V590H716V454H409V334Q409 278 423 238T462 172T521 133T597 121Q652 121 703 139T796 188L866 75Q812 34 742 7T585 -19Q508 -19 448 2T346 66T282 176T260 331V454H61V590H260V812H53V947H260Z" horiz-adv-x="906" unicode="ŧ"/>
			<glyph d="M182 1400H342V560Q342 450 373 370T460 237T592 160T758 135Q848 135 924 160T1055 237T1142 370T1174 560V1400H1335V548Q1335 405 1290 299T1166 122T983 16T758 -19Q638 -19 533 16T350 122T227 299T182 548ZM625 1760Q676 1760 711 1747T776 1720T832 1693T891 1681Q929 1681 959 1697T1021 1748L1110 1663Q1065 1607 1013 1579T891 1552Q841 1552 805 1564T740 1592T684 1619T625 1632Q587 1632 556 1615T494 1564L406 1649Q451 1705 502 1732T625 1760Z" horiz-adv-x="1517" unicode="Ũ"/>
			<glyph d="M164 947H313V409Q313 335 334 281T392 191T481 138T594 121Q655 121 706 138T794 191T853 281T874 409V947H1024V395Q1024 290 989 212T894 82T757 6T594 -19Q508 -19 430 6T293 82T199 212T164 395ZM469 1345Q520 1345 555 1332T620 1305T676 1278T735 1266Q773 1266 803 1282T865 1333L954 1248Q909 1192 857 1164T735 1137Q685 1137 649 1149T584 1177T528 1204T469 1217Q431 1217 400 1200T338 1149L250 1234Q295 1290 346 1317T469 1345Z" horiz-adv-x="1188" unicode="ũ"/>
			<glyph d="M182 1400H342V560Q342 450 373 370T460 237T592 160T758 135Q848 135 924 160T1055 237T1142 370T1174 560V1400H1335V548Q1335 405 1290 299T1166 122T983 16T758 -19Q638 -19 533 16T350 122T227 299T182 548ZM459 1711H1057V1590H459Z" horiz-adv-x="1517" unicode="Ū"/>
			<glyph d="M164 947H313V409Q313 335 334 281T392 191T481 138T594 121Q655 121 706 138T794 191T853 281T874 409V947H1024V395Q1024 290 989 212T894 82T757 6T594 -19Q508 -19 430 6T293 82T199 212T164 395ZM295 1296H893V1175H295Z" horiz-adv-x="1188" unicode="ū"/>
			<glyph d="M182 1400H342V560Q342 450 373 370T460 237T592 160T758 135Q848 135 924 160T1055 237T1142 370T1174 560V1400H1335V548Q1335 405 1290 299T1166 122T983 16T758 -19Q638 -19 533 16T350 122T227 299T182 548ZM537 1818Q566 1721 621 1674T758 1627Q839 1627 895 1674T980 1818L1100 1781Q1062 1642 973 1571T758 1501Q633 1501 544 1571T417 1781Z" horiz-adv-x="1517" unicode="Ŭ"/>
			<glyph d="M164 947H313V409Q313 335 334 281T392 191T481 138T594 121Q655 121 706 138T794 191T853 281T874 409V947H1024V395Q1024 290 989 212T894 82T757 6T594 -19Q508 -19 430 6T293 82T199 212T164 395ZM373 1403Q402 1306 457 1259T594 1212Q675 1212 731 1259T816 1403L936 1366Q898 1227 809 1156T594 1086Q469 1086 380 1156T253 1366Z" horiz-adv-x="1188" unicode="ŭ"/>
			<glyph d="M182 1400H342V560Q342 450 373 370T460 237T592 160T758 135Q848 135 924 160T1055 237T1142 370T1174 560V1400H1335V548Q1335 405 1290 299T1166 122T983 16T758 -19Q638 -19 533 16T350 122T227 299T182 548ZM758 1936Q805 1936 846 1918T919 1870T968 1799T986 1712Q986 1665 968 1624T919 1553T846 1504T758 1487Q711 1487 670 1504T598 1553T549 1624T531 1712Q531 1758 549 1799T598 1870T670 1918T758 1936ZM758 1841Q732 1841 708 1831T668 1803T641 1762T631 1712Q631 1685 641 1661T668 1619T708 1592T758 1582Q784 1582 807 1592T848 1619T876 1661T886 1712Q886 1739 876 1762T848 1803T807 1831T758 1841Z" horiz-adv-x="1517" unicode="Ů"/>
			<glyph d="M164 947H313V409Q313 335 334 281T392 191T481 138T594 121Q655 121 706 138T794 191T853 281T874 409V947H1024V395Q1024 290 989 212T894 82T757 6T594 -19Q508 -19 430 6T293 82T199 212T164 395ZM593 1521Q640 1521 681 1503T754 1455T803 1384T821 1297Q821 1250 803 1209T754 1138T681 1089T593 1072Q546 1072 505 1089T433 1138T384 1209T366 1297Q366 1343 384 1384T433 1455T505 1503T593 1521ZM593 1426Q567 1426 543 1416T503 1388T476 1347T466 1297Q466 1270 476 1246T503 1204T543 1177T593 1167Q619 1167 642 1177T683 1204T711 1246T721 1297Q721 1324 711 1347T683 1388T642 1416T593 1426Z" horiz-adv-x="1188" unicode="ů"/>
			<glyph d="M182 1400H342V560Q342 450 373 370T460 237T592 160T758 135Q848 135 924 160T1055 237T1142 370T1174 560V1400H1335V548Q1335 405 1290 299T1166 122T983 16T758 -19Q638 -19 533 16T350 122T227 299T182 548ZM1041 1807H1216L976 1507H826ZM682 1807H851L635 1507H482Z" horiz-adv-x="1517" unicode="Ű"/>
			<glyph d="M164 947H313V409Q313 335 334 281T392 191T481 138T594 121Q655 121 706 138T794 191T853 281T874 409V947H1024V395Q1024 290 989 212T894 82T757 6T594 -19Q508 -19 430 6T293 82T199 212T164 395ZM892 1392H1067L827 1092H677ZM533 1392H702L486 1092H333Z" horiz-adv-x="1188" unicode="ű"/>
			<glyph d="M182 1400H342V560Q342 450 373 370T460 237T592 160T758 135Q848 135 924 160T1055 237T1142 370T1174 560V1400H1335V548Q1335 405 1290 299T1166 122T983 16T758 -19Q638 -19 533 16T350 122T227 299T182 548ZM1041 91L1055 46Q954 -9 903 -61T852 -182Q852 -228 885 -257T976 -286Q1056 -286 1119 -228L1199 -325Q1152 -370 1092 -392T967 -415Q908 -415 860 -399T777 -356T724 -291T706 -209Q706 -155 729 -112T795 -33T900 32T1041 91Z" horiz-adv-x="1517" unicode="Ų"/>
			<glyph d="M164 947H313V409Q313 335 334 281T392 191T481 138T594 121Q655 121 706 138T794 191T853 281T874 409V947H1024V395Q1024 290 989 212T894 82T757 6T594 -19Q508 -19 430 6T293 82T199 212T164 395ZM829 91L843 46Q742 -9 691 -61T640 -182Q640 -228 673 -257T764 -286Q844 -286 907 -228L987 -325Q940 -370 880 -392T755 -415Q696 -415 648 -399T565 -356T512 -291T494 -209Q494 -155 517 -112T583 -33T688 32T829 91Z" horiz-adv-x="1188" unicode="ų"/>
			<glyph d="M58 1400H226L613 182L1009 1400H1191L1586 181L1974 1400H2139L1684 0H1486L1098 1186L710 0H513ZM998 1796H1198L1432 1508H1272L1098 1697L923 1508H763Z" horiz-adv-x="2197" unicode="Ŵ"/>
			<glyph d="M45 947H204L487 156L769 947H937L1221 155L1506 947H1661L1311 0H1134L851 787L569 0H395ZM753 1381H953L1187 1093H1027L853 1282L678 1093H518Z" horiz-adv-x="1706" unicode="ŵ"/>
			<glyph d="M11 1400H203L646 736L1089 1400H1276L725 587V0H565V589ZM546 1796H746L980 1508H820L646 1697L471 1508H311Z" horiz-adv-x="1287" unicode="Ŷ"/>
			<glyph d="M21 947H188L541 353L875 947H1039L268 -404H103L456 205ZM432 1381H632L866 1093H706L532 1282L357 1093H197Z" horiz-adv-x="1054" unicode="ŷ"/>
			<glyph d="M11 1400H203L646 736L1089 1400H1276L725 587V0H565V589ZM443 1758Q465 1758 484 1749T518 1727T540 1693T549 1651Q549 1628 540 1609T518 1576T484 1554T443 1546Q398 1546 367 1576T337 1651Q337 1673 345 1693T367 1727T401 1749T443 1758ZM849 1758Q871 1758 890 1749T924 1727T946 1693T955 1651Q955 1628 946 1609T924 1576T890 1554T849 1546Q804 1546 774 1576T744 1651Q744 1673 752 1693T774 1727T807 1749T849 1758Z" horiz-adv-x="1287" unicode="Ÿ"/>
			<glyph d="M131 1400H1190V1276L335 152H1193V0H121V124L977 1248H131ZM729 1807H919L668 1507H520Z" horiz-adv-x="1314" unicode="Ź"/>
			<glyph d="M140 947H924V838L320 135H933V0H122V108L732 812H140ZM611 1392H801L550 1092H402Z" horiz-adv-x="1055" unicode="ź"/>
			<glyph d="M131 1400H1190V1276L335 152H1193V0H121V124L977 1248H131ZM647 1764Q670 1764 690 1756T724 1733T748 1697T757 1655Q757 1631 748 1611T724 1577T690 1554T647 1546Q600 1546 569 1577T538 1655Q538 1701 569 1732T647 1764Z" horiz-adv-x="1314" unicode="Ż"/>
			<glyph d="M140 947H924V838L320 135H933V0H122V108L732 812H140ZM532 1389Q554 1389 573 1381T607 1358T629 1324T638 1283Q638 1260 629 1241T607 1208T573 1186T532 1178Q487 1178 457 1208T427 1283Q427 1328 457 1358T532 1389Z" horiz-adv-x="1055" unicode="ż"/>
			<glyph d="M131 1400H1190V1276L335 152H1193V0H121V124L977 1248H131ZM326 1794H486L661 1605L835 1794H995L761 1506H561Z" horiz-adv-x="1314" unicode="Ž"/>
			<glyph d="M140 947H924V838L320 135H933V0H122V108L732 812H140ZM197 1379H357L532 1190L706 1379H866L632 1091H432Z" horiz-adv-x="1055" unicode="ž"/>
			<glyph d="M481 1459Q562 1459 625 1439T740 1388L687 1263Q648 1286 596 1302T491 1319Q399 1319 357 1264T316 1109V0H166V1109Q166 1185 183 1249T239 1359T337 1432T481 1459Z" horiz-adv-x="645" unicode="ſ"/>
			<glyph d="M794 1419Q944 1419 1073 1365T1297 1216T1446 988T1500 700Q1500 544 1447 412T1301 184T1081 34T809 -19Q658 -19 531 34T314 181T172 405T121 690Q121 711 122 731T124 773H1331Q1319 881 1273 971T1155 1127T992 1229T795 1265Q722 1265 657 1250T536 1206T429 1137T337 1047L225 1157Q332 1278 473 1348T794 1419ZM297 623Q303 517 344 427T453 273T612 171T810 135Q911 135 1000 170T1159 270T1273 425T1330 623Z" horiz-adv-x="1622" unicode="Ə"/>
			<glyph d="M959 1418Q1031 1418 1089 1400T1193 1353L1141 1233Q1107 1254 1061 1268T968 1283Q893 1283 857 1232T813 1091L783 793H1080V657H769L735 309Q727 235 707 174T653 71T566 5T443 -18Q371 -18 313 0T210 47L261 167Q295 146 340 131T434 117Q509 117 544 168T589 309L624 657H363V793H638L668 1091Q675 1165 695 1225T750 1328T836 1394T959 1418Z" horiz-adv-x="1400" unicode="ƒ"/>
			<glyph d="M131 1400H1190V1276L807 773H1057V625H694L335 152H1193V0H121V124L506 630H257V778H619L977 1248H131Z" horiz-adv-x="1314" unicode="Ƶ"/>
			<glyph d="M140 947H924V838L666 537H853V422H566L320 135H933V0H122V108L399 427H208V542H497L733 812H140Z" horiz-adv-x="1055" unicode="ƶ"/>
			<glyph d="M611 1400H810L1385 0H1213L1054 390H361L203 0H36ZM708 1241L423 542H993ZM376 1794H536L711 1605L885 1794H1045L811 1506H611Z" horiz-adv-x="1421" unicode="Ǎ"/>
			<glyph d="M576 966Q694 966 779 922T922 806V947H1071V0H922V141Q865 68 779 24T576 -19Q476 -19 389 18T239 120T139 276T103 474Q103 580 139 670T239 826T389 929T576 966ZM594 826Q518 826 455 798T348 723T279 611T255 474Q255 400 279 336T349 224T456 148T594 121Q668 121 730 148T836 222T906 334T931 474Q931 549 906 613T836 725T730 799T594 826ZM276 1379H436L611 1190L785 1379H945L711 1091H511Z" horiz-adv-x="1246" unicode="ǎ"/>
			<glyph d="M202 1400H363V0H202ZM-53 1794H107L282 1605L456 1794H616L382 1506H182Z" horiz-adv-x="565" unicode="Ǐ"/>
			<glyph d="M175 947H325V0H175ZM-85 1379H75L250 1190L424 1379H584L350 1091H150Z" horiz-adv-x="500" unicode="ǐ"/>
			<glyph d="M844 1420Q1000 1420 1132 1366T1361 1217T1512 989T1567 700Q1567 542 1512 410T1361 182T1132 33T844 -20Q688 -20 555 33T326 182T175 410T121 700Q121 857 175 989T326 1217T555 1366T844 1420ZM844 1265Q726 1265 625 1224T449 1109T332 930T290 700Q290 574 332 469T449 291T625 176T844 135Q962 135 1063 176T1239 291T1356 469T1399 700Q1399 826 1356 930T1239 1109T1063 1224T844 1265ZM509 1794H669L844 1605L1018 1794H1178L944 1506H744Z" horiz-adv-x="1689" unicode="Ǒ"/>
			<glyph d="M601 966Q708 966 799 928T957 825T1062 669T1100 474Q1100 369 1062 278T957 122T799 18T601 -19Q494 -19 403 18T245 122T140 278T103 474Q103 579 140 669T245 825T403 928T601 966ZM601 826Q527 826 464 799T354 726T281 615T255 474Q255 397 281 332T354 221T464 147T601 121Q674 121 737 147T847 221T920 332T947 474Q947 550 920 615T847 726T737 799T601 826ZM266 1379H426L601 1190L775 1379H935L701 1091H501Z" horiz-adv-x="1203" unicode="ǒ"/>
			<glyph d="M182 1400H342V560Q342 450 373 370T460 237T592 160T758 135Q848 135 924 160T1055 237T1142 370T1174 560V1400H1335V548Q1335 405 1290 299T1166 122T983 16T758 -19Q638 -19 533 16T350 122T227 299T182 548ZM423 1794H583L758 1605L932 1794H1092L858 1506H658Z" horiz-adv-x="1517" unicode="Ǔ"/>
			<glyph d="M164 947H313V409Q313 335 334 281T392 191T481 138T594 121Q655 121 706 138T794 191T853 281T874 409V947H1024V395Q1024 290 989 212T894 82T757 6T594 -19Q508 -19 430 6T293 82T199 212T164 395ZM259 1379H419L594 1190L768 1379H928L694 1091H494Z" horiz-adv-x="1188" unicode="ǔ"/>
			<glyph d="M182 1400H342V560Q342 450 373 370T460 237T592 160T758 135Q848 135 924 160T1055 237T1142 370T1174 560V1400H1335V548Q1335 405 1290 299T1166 122T983 16T758 -19Q638 -19 533 16T350 122T227 299T182 548ZM459 2045H1057V1924H459ZM555 1758Q577 1758 596 1749T630 1727T652 1693T661 1651Q661 1628 652 1609T630 1576T596 1554T555 1546Q510 1546 479 1576T449 1651Q449 1673 457 1693T479 1727T513 1749T555 1758ZM961 1758Q983 1758 1002 1749T1036 1727T1058 1693T1067 1651Q1067 1628 1058 1609T1036 1576T1002 1554T961 1546Q916 1546 886 1576T856 1651Q856 1673 864 1693T886 1727T919 1749T961 1758Z" horiz-adv-x="1517" unicode="Ǖ"/>
			<glyph d="M164 947H313V409Q313 335 334 281T392 191T481 138T594 121Q655 121 706 138T794 191T853 281T874 409V947H1024V395Q1024 290 989 212T894 82T757 6T594 -19Q508 -19 430 6T293 82T199 212T164 395ZM391 1343Q413 1343 432 1334T466 1312T488 1278T497 1236Q497 1213 488 1194T466 1161T432 1139T391 1131Q346 1131 315 1161T285 1236Q285 1258 293 1278T315 1312T349 1334T391 1343ZM797 1343Q819 1343 838 1334T872 1312T894 1278T903 1236Q903 1213 894 1194T872 1161T838 1139T797 1131Q752 1131 722 1161T692 1236Q692 1258 700 1278T722 1312T755 1334T797 1343ZM295 1631H893V1510H295Z" horiz-adv-x="1188" unicode="ǖ"/>
			<glyph d="M182 1400H342V560Q342 450 373 370T460 237T592 160T758 135Q848 135 924 160T1055 237T1142 370T1174 560V1400H1335V548Q1335 405 1290 299T1166 122T983 16T758 -19Q638 -19 533 16T350 122T227 299T182 548ZM826 2206H1016L765 1906H617ZM555 1758Q577 1758 596 1749T630 1727T652 1693T661 1651Q661 1628 652 1609T630 1576T596 1554T555 1546Q510 1546 479 1576T449 1651Q449 1673 457 1693T479 1727T513 1749T555 1758ZM961 1758Q983 1758 1002 1749T1036 1727T1058 1693T1067 1651Q1067 1628 1058 1609T1036 1576T1002 1554T961 1546Q916 1546 886 1576T856 1651Q856 1673 864 1693T886 1727T919 1749T961 1758Z" horiz-adv-x="1517" unicode="Ǘ"/>
			<glyph d="M164 947H313V409Q313 335 334 281T392 191T481 138T594 121Q655 121 706 138T794 191T853 281T874 409V947H1024V395Q1024 290 989 212T894 82T757 6T594 -19Q508 -19 430 6T293 82T199 212T164 395ZM391 1343Q413 1343 432 1334T466 1312T488 1278T497 1236Q497 1213 488 1194T466 1161T432 1139T391 1131Q346 1131 315 1161T285 1236Q285 1258 293 1278T315 1312T349 1334T391 1343ZM797 1343Q819 1343 838 1334T872 1312T894 1278T903 1236Q903 1213 894 1194T872 1161T838 1139T797 1131Q752 1131 722 1161T692 1236Q692 1258 700 1278T722 1312T755 1334T797 1343ZM662 1792H852L601 1492H453Z" horiz-adv-x="1188" unicode="ǘ"/>
			<glyph d="M182 1400H342V560Q342 450 373 370T460 237T592 160T758 135Q848 135 924 160T1055 237T1142 370T1174 560V1400H1335V548Q1335 405 1290 299T1166 122T983 16T758 -19Q638 -19 533 16T350 122T227 299T182 548ZM423 2193H583L758 2004L932 2193H1092L858 1905H658ZM555 1758Q577 1758 596 1749T630 1727T652 1693T661 1651Q661 1628 652 1609T630 1576T596 1554T555 1546Q510 1546 479 1576T449 1651Q449 1673 457 1693T479 1727T513 1749T555 1758ZM961 1758Q983 1758 1002 1749T1036 1727T1058 1693T1067 1651Q1067 1628 1058 1609T1036 1576T1002 1554T961 1546Q916 1546 886 1576T856 1651Q856 1673 864 1693T886 1727T919 1749T961 1758Z" horiz-adv-x="1517" unicode="Ǚ"/>
			<glyph d="M164 947H313V409Q313 335 334 281T392 191T481 138T594 121Q655 121 706 138T794 191T853 281T874 409V947H1024V395Q1024 290 989 212T894 82T757 6T594 -19Q508 -19 430 6T293 82T199 212T164 395ZM391 1343Q413 1343 432 1334T466 1312T488 1278T497 1236Q497 1213 488 1194T466 1161T432 1139T391 1131Q346 1131 315 1161T285 1236Q285 1258 293 1278T315 1312T349 1334T391 1343ZM797 1343Q819 1343 838 1334T872 1312T894 1278T903 1236Q903 1213 894 1194T872 1161T838 1139T797 1131Q752 1131 722 1161T692 1236Q692 1258 700 1278T722 1312T755 1334T797 1343ZM259 1779H419L594 1590L768 1779H928L694 1491H494Z" horiz-adv-x="1188" unicode="ǚ"/>
			<glyph d="M182 1400H342V560Q342 450 373 370T460 237T592 160T758 135Q848 135 924 160T1055 237T1142 370T1174 560V1400H1335V548Q1335 405 1290 299T1166 122T983 16T758 -19Q638 -19 533 16T350 122T227 299T182 548ZM490 2206H679L889 1906H741ZM555 1758Q577 1758 596 1749T630 1727T652 1693T661 1651Q661 1628 652 1609T630 1576T596 1554T555 1546Q510 1546 479 1576T449 1651Q449 1673 457 1693T479 1727T513 1749T555 1758ZM961 1758Q983 1758 1002 1749T1036 1727T1058 1693T1067 1651Q1067 1628 1058 1609T1036 1576T1002 1554T961 1546Q916 1546 886 1576T856 1651Q856 1673 864 1693T886 1727T919 1749T961 1758Z" horiz-adv-x="1517" unicode="Ǜ"/>
			<glyph d="M164 947H313V409Q313 335 334 281T392 191T481 138T594 121Q655 121 706 138T794 191T853 281T874 409V947H1024V395Q1024 290 989 212T894 82T757 6T594 -19Q508 -19 430 6T293 82T199 212T164 395ZM391 1343Q413 1343 432 1334T466 1312T488 1278T497 1236Q497 1213 488 1194T466 1161T432 1139T391 1131Q346 1131 315 1161T285 1236Q285 1258 293 1278T315 1312T349 1334T391 1343ZM797 1343Q819 1343 838 1334T872 1312T894 1278T903 1236Q903 1213 894 1194T872 1161T838 1139T797 1131Q752 1131 722 1161T692 1236Q692 1258 700 1278T722 1312T755 1334T797 1343ZM326 1792H515L725 1492H577Z" horiz-adv-x="1188" unicode="ǜ"/>
			<glyph d="M1093 1400H2113V1249H1298V780H2088V630H1298V151H2122V0H1137V365H499L223 0H29ZM1137 1207L614 517H1137ZM1226 1711H1824V1590H1226Z" horiz-adv-x="2283" unicode="Ǣ"/>
			<glyph d="M520 966Q648 966 741 919T880 767Q908 812 948 849T1036 911T1138 951T1252 965Q1348 965 1429 929T1570 828T1662 674T1697 477Q1697 462 1696 448T1694 421H935Q943 344 972 286T1046 190T1148 131T1270 112Q1358 112 1434 144T1570 231L1649 129Q1605 87 1558 58T1463 12T1363 -12T1261 -19Q1136 -19 1036 30T873 167Q841 128 799 94T708 35T598 -4T470 -19Q384 -19 315 2T200 61T128 151T103 266Q103 327 128 378T203 467T325 524T493 545H783V552Q783 695 710 763T501 831Q458 831 419 823T346 802T282 772T227 736L157 847Q237 907 328 936T520 966ZM509 421Q441 421 394 408T317 375T275 326T262 266Q262 234 276 206T320 158T393 125T493 113Q537 113 582 124T669 156T748 207T815 276Q802 310 794 346T783 421ZM1249 833Q1183 833 1129 811T1036 751T971 659T937 542H1544Q1537 608 1512 661T1449 753T1360 812T1249 833ZM596 1296H1194V1175H596Z" horiz-adv-x="1800" unicode="ǣ"/>
			<glyph d="M844 1420Q1012 1420 1151 1358T1387 1185L1268 1071Q1193 1162 1084 1213T844 1265Q726 1265 625 1224T449 1109T332 930T290 700Q290 574 332 469T448 291T622 176T837 135Q948 135 1037 167T1190 259T1293 404T1341 598H905V748H1515Q1516 737 1516 727T1517 707Q1517 554 1470 421T1335 191T1121 37T837 -19Q699 -19 570 29T341 170T181 396T121 700Q121 805 146 899T217 1074T328 1218T473 1327T647 1396T844 1420ZM487 1794H647L822 1605L996 1794H1156L922 1506H722Z" horiz-adv-x="1639" unicode="Ǧ"/>
			<glyph d="M572 966Q687 966 771 922T910 805V947H1060V65Q1060 -51 1023 -140T919 -291T761 -383T559 -415Q502 -415 446 -406T339 -381T241 -341T160 -288L226 -168Q294 -219 378 -249T559 -279Q636 -279 700 -257T811 -193T884 -87T910 59V156Q856 81 771 38T572 -5Q472 -5 386 30T238 130T139 284T103 481Q103 588 139 677T238 831T386 930T572 966ZM589 826Q514 826 452 799T346 725T279 615T255 481Q255 409 279 346T346 236T452 162T589 135Q662 135 723 161T829 234T898 344T923 481Q923 554 898 617T829 726T723 799T589 826ZM269 1379H429L604 1190L778 1379H938L704 1091H504Z" horiz-adv-x="1235" unicode="ǧ"/>
			<glyph d="M611 1400H810L1385 0H1213L1054 390H361L203 0H36ZM708 1241L423 542H993ZM776 2123H966L715 1823H567ZM708 1763Q755 1763 796 1745T869 1697T918 1626T936 1539Q936 1492 918 1451T869 1380T796 1331T708 1314Q661 1314 620 1331T548 1380T499 1451T481 1539Q481 1585 499 1626T548 1697T620 1745T708 1763ZM708 1668Q682 1668 658 1658T618 1630T591 1589T581 1539Q581 1512 591 1488T618 1446T658 1419T708 1409Q734 1409 757 1419T798 1446T826 1488T836 1539Q836 1566 826 1589T798 1630T757 1658T708 1668Z" horiz-adv-x="1421" unicode="Ǻ"/>
			<glyph d="M576 966Q694 966 779 922T922 806V947H1071V0H922V141Q865 68 779 24T576 -19Q476 -19 389 18T239 120T139 276T103 474Q103 580 139 670T239 826T389 929T576 966ZM594 826Q518 826 455 798T348 723T279 611T255 474Q255 400 279 336T349 224T456 148T594 121Q668 121 730 148T836 222T906 334T931 474Q931 549 906 613T836 725T730 799T594 826ZM595 1488Q642 1488 683 1470T756 1422T805 1351T823 1264Q823 1217 805 1176T756 1105T683 1056T595 1039Q548 1039 507 1056T435 1105T386 1176T368 1264Q368 1310 386 1351T435 1422T507 1470T595 1488ZM595 1393Q569 1393 545 1383T505 1355T478 1314T468 1264Q468 1237 478 1213T505 1171T545 1144T595 1134Q621 1134 644 1144T685 1171T713 1213T723 1264Q723 1291 713 1314T685 1355T644 1383T595 1393ZM664 1845H854L603 1545H455Z" horiz-adv-x="1246" unicode="ǻ"/>
			<glyph d="M1093 1400H2113V1249H1298V780H2088V630H1298V151H2122V0H1137V365H499L223 0H29ZM1137 1207L614 517H1137ZM1593 1807H1783L1532 1507H1384Z" horiz-adv-x="2283" unicode="Ǽ"/>
			<glyph d="M520 966Q648 966 741 919T880 767Q908 812 948 849T1036 911T1138 951T1252 965Q1348 965 1429 929T1570 828T1662 674T1697 477Q1697 462 1696 448T1694 421H935Q943 344 972 286T1046 190T1148 131T1270 112Q1358 112 1434 144T1570 231L1649 129Q1605 87 1558 58T1463 12T1363 -12T1261 -19Q1136 -19 1036 30T873 167Q841 128 799 94T708 35T598 -4T470 -19Q384 -19 315 2T200 61T128 151T103 266Q103 327 128 378T203 467T325 524T493 545H783V552Q783 695 710 763T501 831Q458 831 419 823T346 802T282 772T227 736L157 847Q237 907 328 936T520 966ZM509 421Q441 421 394 408T317 375T275 326T262 266Q262 234 276 206T320 158T393 125T493 113Q537 113 582 124T669 156T748 207T815 276Q802 310 794 346T783 421ZM1249 833Q1183 833 1129 811T1036 751T971 659T937 542H1544Q1537 608 1512 661T1449 753T1360 812T1249 833ZM974 1392H1164L913 1092H765Z" horiz-adv-x="1800" unicode="ǽ"/>
			<glyph d="M844 1420Q979 1420 1095 1380T1305 1267L1457 1419L1563 1313L1411 1161Q1485 1069 1526 953T1567 700Q1567 542 1512 410T1361 182T1132 33T844 -20Q708 -20 592 20T383 133L232 -18L125 87L276 238Q202 330 161 446T121 700Q121 857 175 989T326 1217T555 1366T844 1420ZM1294 1044L498 248Q568 193 656 164T844 135Q962 135 1063 176T1239 291T1356 469T1399 700Q1399 802 1371 888T1294 1044ZM844 1265Q726 1265 625 1224T449 1109T332 930T290 700Q290 598 317 511T394 356L1190 1152Q1119 1206 1031 1235T844 1265ZM912 1807H1102L851 1507H703Z" horiz-adv-x="1689" unicode="Ǿ"/>
			<glyph d="M1018 979L1108 889L998 779Q1046 716 1073 639T1100 474Q1100 369 1062 278T957 122T799 18T601 -19Q513 -19 436 6T297 78L186 -33L95 56L205 166Q156 229 129 307T103 474Q103 579 140 669T245 825T403 928T601 966Q689 966 766 940T907 868ZM601 826Q527 826 464 799T354 726T281 615T255 474Q255 416 270 365T312 273L803 764Q760 793 709 809T601 826ZM891 672L400 181Q442 152 493 136T601 121Q674 121 737 147T847 221T920 332T947 474Q947 531 932 580T891 672ZM680 1392H870L619 1092H471Z" horiz-adv-x="1203" unicode="ǿ"/>
			<glyph d="M695 1418Q775 1418 845 1406T978 1375T1095 1327T1198 1265L1116 1135Q1031 1193 926 1229T694 1266Q615 1266 548 1248T434 1198T359 1119T332 1013Q332 915 411 860T655 786L788 770Q875 759 954 734T1093 666T1189 558T1225 402Q1225 298 1181 219T1061 88T885 8T671 -19Q595 -19 518 -6T369 30T234 87T121 161L209 289Q245 258 296 230T407 180T535 146T670 133Q751 133 822 149T945 198T1028 277T1058 388Q1058 490 971 544T719 617L578 633Q488 643 412 669T282 741T196 851T165 1003Q165 1103 206 1180T320 1310T488 1390T695 1418ZM636 -88H800L726 -438H594Z" horiz-adv-x="1346" unicode="Ș"/>
			<glyph d="M500 965Q612 965 709 936T876 862L811 746Q788 762 755 777T681 806T595 827T501 835Q450 835 409 824T338 795T293 748T277 686Q277 626 326 595T470 553L582 539Q733 519 816 455T900 275Q900 207 870 153T787 61T656 2T483 -18Q437 -18 386 -12T284 8T183 46T88 103L157 215Q184 194 216 175T288 142T376 120T485 112Q605 112 675 151T746 265Q746 322 697 356T548 403L435 416Q274 436 198 504T122 678Q122 745 149 798T225 889T345 945T500 965ZM438 -88H602L528 -438H396Z" horiz-adv-x="987" unicode="ș"/>
			<glyph d="M40 1400H1172V1248H686V0H526V1248H40ZM545 -88H709L635 -438H503Z" horiz-adv-x="1212" unicode="Ț"/>
			<glyph d="M260 1248H409V947H818V812H409V334Q409 278 423 238T462 172T521 133T597 121Q652 121 703 139T796 188L866 75Q812 34 742 7T585 -19Q508 -19 448 2T346 66T282 176T260 331V812H53V947H260ZM482 -88H646L572 -438H440Z" horiz-adv-x="906" unicode="ț"/>
			<glyph d="M11 1400H203L646 736L1089 1400H1276L725 587V0H565V589ZM347 1711H945V1590H347Z" horiz-adv-x="1287" unicode="Ȳ"/>
			<glyph d="M21 947H188L541 353L875 947H1039L268 -404H103L456 205ZM233 1296H831V1175H233Z" horiz-adv-x="1054" unicode="ȳ"/>
			<glyph d="M179 947H329V-156Q329 -219 312 -267T264 -348T190 -398T93 -415Q56 -415 19 -406T-43 -383L-7 -254Q11 -263 33 -268T80 -274Q126 -274 152 -244T179 -149Z" horiz-adv-x="504" unicode="ȷ"/>
			<glyph d="M539 966Q644 966 732 930T883 830T982 674T1018 474Q1018 365 982 274T884 118T735 17T548 -19Q452 -19 370 17T230 117T137 272T103 470Q103 500 106 526H865Q857 602 828 660T754 757T651 815T530 835Q440 835 363 802T225 712L150 818Q194 860 241 888T336 934T436 959T539 966ZM255 405Q262 339 286 285T349 193T439 134T551 114Q617 114 670 135T763 195T828 287T863 405Z" horiz-adv-x="1121" unicode="ə"/>
			<glyph d="M238 1440H367L307 933H133Z" horiz-adv-x="494" unicode="ʻ"/>
			<glyph d="M187 1440H361L256 933H127Z" horiz-adv-x="494" unicode="ʼ"/>
			<glyph d="M142 1453Q214 1453 278 1425T389 1350T464 1237T492 1099Q492 1026 464 961T389 849T278 773T142 746V884Q184 884 221 901T286 947T330 1015T347 1099Q347 1144 330 1183T286 1252T221 1298T142 1315Z" horiz-adv-x="540" unicode="ʾ"/>
			<glyph d="M398 1453V1315Q356 1315 318 1298T253 1252T209 1184T193 1100Q193 1055 209 1015T253 946T318 900T398 884V746Q326 746 262 773T150 849T75 961T48 1100Q48 1173 75 1237T150 1350T262 1425T398 1453Z" horiz-adv-x="540" unicode="ʿ"/>
			<glyph d="M369 1381H569L804 1093H644L469 1282L295 1093H135Z" horiz-adv-x="939" unicode="ˆ"/>
			<glyph d="M135 1379H295L470 1190L644 1379H804L570 1091H370Z" horiz-adv-x="939" unicode="ˇ"/>
			<glyph d="M248 1403Q277 1306 333 1259T470 1212Q551 1212 606 1259T691 1403L811 1366Q773 1228 684 1157T470 1086Q344 1086 255 1157T128 1366Z" horiz-adv-x="939" unicode="˘"/>
			<glyph d="M280 1389Q302 1389 321 1381T355 1358T377 1324T386 1283Q386 1260 377 1241T355 1208T321 1186T280 1178Q235 1178 205 1208T175 1283Q175 1328 205 1358T280 1389Z" horiz-adv-x="561" unicode="˙"/>
			<glyph d="M470 1521Q517 1521 558 1503T631 1455T680 1384T698 1297Q698 1250 680 1209T631 1138T558 1089T470 1072Q423 1072 381 1089T309 1138T261 1209T243 1297Q243 1343 261 1384T309 1455T381 1503T470 1521ZM470 1426Q444 1426 420 1416T380 1388T353 1347T343 1297Q343 1270 353 1246T380 1204T420 1177T470 1167Q496 1167 519 1177T560 1204T588 1246T598 1297Q598 1324 588 1347T560 1388T519 1416T470 1426Z" horiz-adv-x="939" unicode="˚"/>
			<glyph d="M720 103L786 19Q669 -29 614 -75T559 -182Q559 -228 592 -257T683 -286Q763 -286 826 -228L906 -325Q859 -370 799 -392T674 -415Q616 -415 569 -399T488 -354T436 -285T418 -196Q418 -144 439 -101T499 -22T595 43T720 103Z" horiz-adv-x="1088" unicode="˛"/>
			<glyph d="M337 1345Q388 1345 423 1332T488 1305T544 1278T603 1266Q641 1266 671 1282T733 1333L822 1248Q777 1192 725 1164T603 1137Q553 1137 517 1149T452 1177T396 1204T337 1217Q299 1217 268 1200T206 1149L118 1234Q163 1290 214 1317T337 1345Z" horiz-adv-x="939" unicode="˜"/>
			<glyph d="M671 1392H860L609 1092H462ZM289 1392H478L227 1092H80Z" horiz-adv-x="939" unicode="˝"/>
			<glyph d="M-883 1392H-694L-484 1092H-632Z" horiz-adv-x="1" unicode="̀"/>
			<glyph d="M-523 1392H-333L-584 1092H-732Z" horiz-adv-x="1" unicode="́"/>
			<glyph d="M-702 1381H-502L-268 1093H-428L-602 1282L-777 1093H-937Z" horiz-adv-x="1" unicode="̂"/>
			<glyph d="M-727 1345Q-676 1345 -640 1332T-575 1305T-519 1278T-461 1266Q-423 1266 -393 1282T-331 1333L-242 1248Q-287 1192 -338 1164T-461 1137Q-511 1137 -547 1149T-612 1177T-668 1204T-727 1217Q-765 1217 -795 1200T-858 1149L-946 1234Q-901 1290 -850 1317T-727 1345Z" horiz-adv-x="1" unicode="̃"/>
			<glyph d="M-901 1296H-303V1175H-901Z" horiz-adv-x="1" unicode="̄"/>
			<glyph d="M-823 1403Q-794 1306 -738 1259T-602 1212Q-521 1212 -465 1259T-380 1403L-260 1366Q-298 1227 -387 1156T-602 1086Q-727 1086 -816 1156T-943 1366Z" horiz-adv-x="1" unicode="̆"/>
			<glyph d="M-602 1389Q-580 1389 -560 1381T-527 1358T-504 1324T-496 1283Q-496 1260 -504 1241T-527 1208T-560 1186T-602 1178Q-647 1178 -677 1208T-707 1283Q-707 1328 -677 1358T-602 1389Z" horiz-adv-x="1" unicode="̇"/>
			<glyph d="M-805 1343Q-783 1343 -763 1334T-730 1312T-707 1278T-699 1236Q-699 1213 -707 1194T-730 1161T-763 1139T-805 1131Q-850 1131 -880 1161T-911 1236Q-911 1258 -903 1278T-880 1312T-847 1334T-805 1343ZM-399 1343Q-377 1343 -357 1334T-324 1312T-301 1278T-293 1236Q-293 1213 -301 1194T-324 1161T-357 1139T-399 1131Q-444 1131 -474 1161T-504 1236Q-504 1258 -496 1278T-474 1312T-441 1334T-399 1343Z" horiz-adv-x="1" unicode="̈"/>
			<glyph d="M-603 1521Q-556 1521 -514 1503T-442 1455T-393 1384T-375 1297Q-375 1250 -393 1209T-442 1138T-514 1089T-603 1072Q-650 1072 -691 1089T-763 1138T-812 1209T-830 1297Q-830 1343 -812 1384T-763 1455T-691 1503T-603 1521ZM-603 1426Q-629 1426 -652 1416T-693 1388T-720 1347T-730 1297Q-730 1270 -720 1246T-693 1204T-652 1177T-603 1167Q-577 1167 -553 1177T-512 1204T-485 1246T-475 1297Q-475 1324 -485 1347T-512 1388T-553 1416T-603 1426Z" horiz-adv-x="1" unicode="̊"/>
			<glyph d="M-304 1392H-129L-369 1092H-519ZM-663 1392H-494L-710 1092H-863Z" horiz-adv-x="1" unicode="̋"/>
			<glyph d="M-937 1379H-777L-602 1190L-428 1379H-268L-502 1091H-702Z" horiz-adv-x="1" unicode="̌"/>
			<glyph d="M-619 1443H-487L-529 1092H-693Z" horiz-adv-x="1" unicode="̒"/>
			<glyph d="M-601 -158Q-579 -158 -559 -166T-526 -188T-503 -222T-495 -264Q-495 -287 -503 -306T-526 -339T-559 -361T-601 -369Q-646 -369 -676 -339T-706 -264Q-706 -219 -676 -188T-601 -158Z" horiz-adv-x="1" unicode="̣"/>
			<glyph d="M-670 -88H-506L-580 -438H-712Z" horiz-adv-x="1" unicode="̦"/>
			<glyph d="M-621 6L-471 5L-574 -323H-730Z" horiz-adv-x="1" unicode="̧"/>
			<glyph d="M-512 91L-498 46Q-599 -9 -650 -61T-701 -182Q-701 -228 -667 -257T-577 -286Q-497 -286 -434 -228L-354 -325Q-401 -370 -460 -392T-586 -415Q-645 -415 -693 -399T-775 -356T-828 -291T-847 -209Q-847 -155 -824 -112T-758 -33T-653 32T-512 91Z" horiz-adv-x="1" unicode="̨"/>
			<glyph d="M-823 -100Q-794 -197 -738 -244T-601 -291Q-520 -291 -464 -244T-380 -100L-260 -136Q-298 -275 -386 -346T-601 -417Q-727 -417 -816 -346T-943 -136Z" horiz-adv-x="1" unicode="̮"/>
			<glyph d="M-899 -202H-301V-324H-899Z" horiz-adv-x="1" unicode="̱"/>
			<glyph d="M-960 597H-242V461H-960Z" horiz-adv-x="1" unicode="̵"/>
			<glyph d="M-1349 597H148V461H-1349Z" horiz-adv-x="1" unicode="̶"/>
			<glyph d="M607 1402H805L1331 124V0H81V124ZM706 1239L262 152H1150Z" horiz-adv-x="1412" unicode="Δ"/>
			<glyph d="M860 1420Q1016 1420 1148 1366T1377 1215T1528 986T1583 695Q1583 606 1563 526T1505 378T1415 252T1296 152H1639V0H1037V131Q1121 158 1190 209T1310 331T1387 493T1415 688Q1415 817 1372 923T1255 1106T1079 1223T860 1265Q742 1265 640 1223T464 1106T347 923T305 688Q305 583 332 493T410 331T529 209T683 131V0H81V152H423Q358 195 305 252T214 378T157 526T137 695Q137 853 191 986T342 1215T571 1366T860 1420Z" horiz-adv-x="1720" unicode="Ω"/>
			<glyph d="M164 947H313V409Q313 273 384 198T586 123Q646 123 698 143T790 200T853 291T876 413V947H1026V0H878V135Q849 93 812 63T733 15T646 -11T559 -19Q486 -19 420 5T312 74V-400H164Z" horiz-adv-x="1201" unicode="μ"/>
			<glyph d="M175 947H1037V0H887V812H325V0H175Z" horiz-adv-x="1201" unicode="π"/>
			<glyph d="M202 1400H729Q900 1400 1038 1350T1274 1210T1423 989T1476 700Q1476 540 1423 410T1274 190T1038 49T729 0H202ZM363 1248V152H729Q871 152 979 191T1160 303T1270 476T1307 700Q1307 824 1270 925T1160 1098T979 1209T729 1248ZM761 -158Q783 -158 802 -166T836 -188T858 -222T867 -264Q867 -287 858 -306T836 -339T802 -361T761 -369Q716 -369 686 -339T656 -264Q656 -219 686 -188T761 -158Z" horiz-adv-x="1598" unicode="Ḍ"/>
			<glyph d="M922 1440H1071V0H922V141Q865 68 779 24T576 -19Q476 -19 389 18T239 120T139 276T103 474Q103 580 139 670T239 826T389 929T576 966Q694 966 779 922T922 806ZM594 826Q518 826 455 798T348 723T279 611T255 474Q255 400 279 336T349 224T456 148T594 121Q668 121 730 148T836 222T906 334T931 474Q931 549 906 613T836 725T730 799T594 826ZM617 -158Q639 -158 658 -166T692 -188T714 -222T723 -264Q723 -287 714 -306T692 -339T658 -361T617 -369Q572 -369 542 -339T512 -264Q512 -219 542 -188T617 -158Z" horiz-adv-x="1246" unicode="ḍ"/>
			<glyph d="M202 1400H729Q900 1400 1038 1350T1274 1210T1423 989T1476 700Q1476 540 1423 410T1274 190T1038 49T729 0H202ZM363 1248V152H729Q871 152 979 191T1160 303T1270 476T1307 700Q1307 824 1270 925T1160 1098T979 1209T729 1248ZM464 -202H1062V-324H464Z" horiz-adv-x="1598" unicode="Ḏ"/>
			<glyph d="M922 1440H1071V0H922V141Q865 68 779 24T576 -19Q476 -19 389 18T239 120T139 276T103 474Q103 580 139 670T239 826T389 929T576 966Q694 966 779 922T922 806ZM594 826Q518 826 455 798T348 723T279 611T255 474Q255 400 279 336T349 224T456 148T594 121Q668 121 730 148T836 222T906 334T931 474Q931 549 906 613T836 725T730 799T594 826ZM319 -202H917V-324H319Z" horiz-adv-x="1246" unicode="ḏ"/>
			<glyph d="M202 1400H363V781H1210V1400H1371V0H1210V629H363V0H202ZM785 -158Q807 -158 826 -166T860 -188T882 -222T891 -264Q891 -287 882 -306T860 -339T826 -361T785 -369Q740 -369 710 -339T680 -264Q680 -219 710 -188T785 -158Z" horiz-adv-x="1573" unicode="Ḥ"/>
			<glyph d="M175 1440H325V815Q354 856 391 885T469 932T555 958T642 966Q730 966 802 939T927 862T1008 743T1037 587V0H888V538Q888 674 817 749T615 824Q555 824 502 804T410 746T348 655T325 534V0H175ZM607 -158Q629 -158 648 -166T682 -188T704 -222T713 -264Q713 -287 704 -306T682 -339T648 -361T607 -369Q562 -369 532 -339T502 -264Q502 -219 532 -188T607 -158Z" horiz-adv-x="1201" unicode="ḥ"/>
			<glyph d="M202 1400H363V781H1210V1400H1371V0H1210V629H363V0H202ZM206 6L361 5L258 -323H95Z" horiz-adv-x="1573" unicode="Ḩ"/>
			<glyph d="M175 1440H325V815Q354 856 391 885T469 932T555 958T642 966Q730 966 802 939T927 862T1008 743T1037 587V0H888V538Q888 674 817 749T615 824Q555 824 502 804T410 746T348 655T325 534V0H175ZM175 6L325 5L222 -323H66Z" horiz-adv-x="1201" unicode="ḩ"/>
			<glyph d="M202 1400H363V781H1210V1400H1371V0H1210V629H363V0H202ZM564 -100Q593 -197 649 -244T786 -291Q867 -291 922 -244T1007 -100L1127 -136Q1089 -275 1000 -346T786 -417Q660 -417 571 -346T444 -136Z" horiz-adv-x="1573" unicode="Ḫ"/>
			<glyph d="M175 1440H325V815Q354 856 391 885T469 932T555 958T642 966Q730 966 802 939T927 862T1008 743T1037 587V0H888V538Q888 674 817 749T615 824Q555 824 502 804T410 746T348 655T325 534V0H175ZM385 -100Q414 -197 470 -244T607 -291Q688 -291 743 -244T828 -100L948 -136Q910 -275 821 -346T607 -417Q481 -417 392 -346T265 -136Z" horiz-adv-x="1201" unicode="ḫ"/>
			<glyph d="M202 1400H363V780H532L1113 1400H1321L663 713L1364 0H1145L529 628H363V0H202ZM693 -158Q715 -158 734 -166T768 -188T790 -222T799 -264Q799 -287 790 -306T768 -339T734 -361T693 -369Q648 -369 618 -339T588 -264Q588 -219 618 -188T693 -158Z" horiz-adv-x="1388" unicode="Ḳ"/>
			<glyph d="M175 1440H325V563H462L827 947H1014L584 501L1021 0H832L461 427H325V0H175ZM559 -158Q581 -158 600 -166T634 -188T656 -222T665 -264Q665 -287 656 -306T634 -339T600 -361T559 -369Q514 -369 484 -339T454 -264Q454 -219 484 -188T559 -158Z" horiz-adv-x="1058" unicode="ḳ"/>
			<glyph d="M202 1400H363V152H1173V0H202ZM677 -158Q699 -158 718 -166T752 -188T774 -222T783 -264Q783 -287 774 -306T752 -339T718 -361T677 -369Q632 -369 602 -339T572 -264Q572 -219 602 -188T677 -158Z" horiz-adv-x="1213" unicode="Ḷ"/>
			<glyph d="M175 1440H325V0H175ZM250 -158Q272 -158 291 -166T325 -188T347 -222T356 -264Q356 -287 347 -306T325 -339T291 -361T250 -369Q205 -369 175 -339T145 -264Q145 -219 175 -188T250 -158Z" horiz-adv-x="500" unicode="ḷ"/>
			<glyph d="M202 1400H363V152H1173V0H202ZM677 -158Q699 -158 718 -166T752 -188T774 -222T783 -264Q783 -287 774 -306T752 -339T718 -361T677 -369Q632 -369 602 -339T572 -264Q572 -219 602 -188T677 -158ZM-17 1711H581V1590H-17Z" horiz-adv-x="1213" unicode="Ḹ"/>
			<glyph d="M175 1440H325V0H175ZM-67 1731H531V1610H-67ZM250 -158Q272 -158 291 -166T325 -188T347 -222T356 -264Q356 -287 347 -306T325 -339T291 -361T250 -369Q205 -369 175 -339T145 -264Q145 -219 175 -188T250 -158Z" horiz-adv-x="500" unicode="ḹ"/>
			<glyph d="M202 1400H363V152H1173V0H202ZM380 -202H978V-324H380Z" horiz-adv-x="1213" unicode="Ḻ"/>
			<glyph d="M175 1440H325V0H175ZM-48 -202H550V-324H-48Z" horiz-adv-x="500" unicode="ḻ"/>
			<glyph d="M202 1400H446L935 342L1423 1400H1668V0H1507V1220L1019 155H850L363 1212V0H202ZM921 1764Q944 1764 964 1756T998 1733T1022 1697T1031 1655Q1031 1631 1022 1611T998 1577T964 1554T921 1546Q874 1546 843 1577T812 1655Q812 1701 843 1732T921 1764Z" horiz-adv-x="1870" unicode="Ṁ"/>
			<glyph d="M642 966Q767 966 859 913T997 767Q1025 822 1066 860T1154 921T1252 955T1354 966Q1442 966 1515 939T1640 862T1721 743T1750 587V0H1601V538Q1601 674 1529 749T1327 824Q1267 824 1214 804T1122 746T1060 655T1037 534V0H888V538Q888 674 817 749T615 824Q555 824 502 804T410 746T348 655T325 534V0H175V947H323V812Q352 854 389 883T468 931T554 958T642 966ZM963 1400Q985 1400 1004 1392T1038 1369T1060 1335T1069 1294Q1069 1271 1060 1252T1038 1219T1004 1197T963 1189Q918 1189 888 1219T858 1294Q858 1339 888 1369T963 1400Z" horiz-adv-x="1914" unicode="ṁ"/>
			<glyph d="M202 1400H446L935 342L1423 1400H1668V0H1507V1220L1019 155H850L363 1212V0H202ZM934 -158Q956 -158 975 -166T1009 -188T1031 -222T1040 -264Q1040 -287 1031 -306T1009 -339T975 -361T934 -369Q889 -369 859 -339T829 -264Q829 -219 859 -188T934 -158Z" horiz-adv-x="1870" unicode="Ṃ"/>
			<glyph d="M642 966Q767 966 859 913T997 767Q1025 822 1066 860T1154 921T1252 955T1354 966Q1442 966 1515 939T1640 862T1721 743T1750 587V0H1601V538Q1601 674 1529 749T1327 824Q1267 824 1214 804T1122 746T1060 655T1037 534V0H888V538Q888 674 817 749T615 824Q555 824 502 804T410 746T348 655T325 534V0H175V947H323V812Q352 854 389 883T468 931T554 958T642 966ZM963 -158Q985 -158 1004 -166T1038 -188T1060 -222T1069 -264Q1069 -287 1060 -306T1038 -339T1004 -361T963 -369Q918 -369 888 -339T858 -264Q858 -219 888 -188T963 -158Z" horiz-adv-x="1914" unicode="ṃ"/>
			<glyph d="M202 1400H347L1214 276V1400H1375V0H1230L363 1124V0H202ZM774 1764Q797 1764 817 1756T851 1733T875 1697T884 1655Q884 1631 875 1611T851 1577T817 1554T774 1546Q727 1546 696 1577T665 1655Q665 1701 696 1732T774 1764Z" horiz-adv-x="1577" unicode="Ṅ"/>
			<glyph d="M642 966Q730 966 802 939T927 862T1008 743T1037 587V0H888V538Q888 674 817 749T615 824Q555 824 502 804T410 746T348 655T325 534V0H175V947H323V812Q352 854 389 883T468 931T554 958T642 966ZM617 1389Q639 1389 658 1381T692 1358T714 1324T723 1283Q723 1260 714 1241T692 1208T658 1186T617 1178Q572 1178 542 1208T512 1283Q512 1328 542 1358T617 1389Z" horiz-adv-x="1201" unicode="ṅ"/>
			<glyph d="M202 1400H347L1214 276V1400H1375V0H1230L363 1124V0H202ZM782 -158Q804 -158 823 -166T857 -188T879 -222T888 -264Q888 -287 879 -306T857 -339T823 -361T782 -369Q737 -369 707 -339T677 -264Q677 -219 707 -188T782 -158Z" horiz-adv-x="1577" unicode="Ṇ"/>
			<glyph d="M642 966Q730 966 802 939T927 862T1008 743T1037 587V0H888V538Q888 674 817 749T615 824Q555 824 502 804T410 746T348 655T325 534V0H175V947H323V812Q352 854 389 883T468 931T554 958T642 966ZM605 -158Q627 -158 646 -166T680 -188T702 -222T711 -264Q711 -287 702 -306T680 -339T646 -361T605 -369Q560 -369 530 -339T500 -264Q500 -219 530 -188T605 -158Z" horiz-adv-x="1201" unicode="ṇ"/>
			<glyph d="M202 1400H347L1214 276V1400H1375V0H1230L363 1124V0H202ZM485 -202H1083V-324H485Z" horiz-adv-x="1577" unicode="Ṉ"/>
			<glyph d="M642 966Q730 966 802 939T927 862T1008 743T1037 587V0H888V538Q888 674 817 749T615 824Q555 824 502 804T410 746T348 655T325 534V0H175V947H323V812Q352 854 389 883T468 931T554 958T642 966ZM307 -202H905V-324H307Z" horiz-adv-x="1201" unicode="ṉ"/>
			<glyph d="M202 1400H751Q869 1400 960 1374T1113 1297T1208 1173T1240 1005Q1240 914 1206 841T1108 716T955 637T753 609H730L1233 0H1033L540 609H363V0H202ZM363 1249V755H749Q910 755 991 818T1073 1005Q1073 1127 990 1188T749 1249ZM649 1764Q672 1764 692 1756T726 1733T750 1697T759 1655Q759 1631 750 1611T726 1577T692 1554T649 1546Q602 1546 571 1577T540 1655Q540 1701 571 1732T649 1764Z" horiz-adv-x="1353" unicode="Ṙ"/>
			<glyph d="M604 966Q655 966 697 958T778 934L742 787Q707 806 663 815T578 825Q522 825 475 804T395 744T343 651T324 530V0H175V947H323V814Q372 887 444 926T604 966ZM475 1389Q497 1389 516 1381T550 1358T572 1324T581 1283Q581 1260 572 1241T550 1208T516 1186T475 1178Q430 1178 400 1208T370 1283Q370 1328 400 1358T475 1389Z" horiz-adv-x="830" unicode="ṙ"/>
			<glyph d="M202 1400H751Q869 1400 960 1374T1113 1297T1208 1173T1240 1005Q1240 914 1206 841T1108 716T955 637T753 609H730L1233 0H1033L540 609H363V0H202ZM363 1249V755H749Q910 755 991 818T1073 1005Q1073 1127 990 1188T749 1249ZM665 -158Q687 -158 706 -166T740 -188T762 -222T771 -264Q771 -287 762 -306T740 -339T706 -361T665 -369Q620 -369 590 -339T560 -264Q560 -219 590 -188T665 -158Z" horiz-adv-x="1353" unicode="Ṛ"/>
			<glyph d="M604 966Q655 966 697 958T778 934L742 787Q707 806 663 815T578 825Q522 825 475 804T395 744T343 651T324 530V0H175V947H323V814Q372 887 444 926T604 966ZM251 -158Q273 -158 292 -166T326 -188T348 -222T357 -264Q357 -287 348 -306T326 -339T292 -361T251 -369Q206 -369 176 -339T146 -264Q146 -219 176 -188T251 -158Z" horiz-adv-x="830" unicode="ṛ"/>
			<glyph d="M202 1400H751Q869 1400 960 1374T1113 1297T1208 1173T1240 1005Q1240 914 1206 841T1108 716T955 637T753 609H730L1233 0H1033L540 609H363V0H202ZM363 1249V755H749Q910 755 991 818T1073 1005Q1073 1127 990 1188T749 1249ZM665 -158Q687 -158 706 -166T740 -188T762 -222T771 -264Q771 -287 762 -306T740 -339T706 -361T665 -369Q620 -369 590 -339T560 -264Q560 -219 590 -188T665 -158ZM364 1711H962V1590H364Z" horiz-adv-x="1353" unicode="Ṝ"/>
			<glyph d="M604 966Q655 966 697 958T778 934L742 787Q707 806 663 815T578 825Q522 825 475 804T395 744T343 651T324 530V0H175V947H323V814Q372 887 444 926T604 966ZM176 1296H774V1175H176ZM251 -158Q273 -158 292 -166T326 -188T348 -222T357 -264Q357 -287 348 -306T326 -339T292 -361T251 -369Q206 -369 176 -339T146 -264Q146 -219 176 -188T251 -158Z" horiz-adv-x="830" unicode="ṝ"/>
			<glyph d="M202 1400H751Q869 1400 960 1374T1113 1297T1208 1173T1240 1005Q1240 914 1206 841T1108 716T955 637T753 609H730L1233 0H1033L540 609H363V0H202ZM363 1249V755H749Q910 755 991 818T1073 1005Q1073 1127 990 1188T749 1249ZM368 -202H966V-324H368Z" horiz-adv-x="1353" unicode="Ṟ"/>
			<glyph d="M604 966Q655 966 697 958T778 934L742 787Q707 806 663 815T578 825Q522 825 475 804T395 744T343 651T324 530V0H175V947H323V814Q372 887 444 926T604 966ZM-47 -202H551V-324H-47Z" horiz-adv-x="830" unicode="ṟ"/>
			<glyph d="M695 1418Q775 1418 845 1406T978 1375T1095 1327T1198 1265L1116 1135Q1031 1193 926 1229T694 1266Q615 1266 548 1248T434 1198T359 1119T332 1013Q332 915 411 860T655 786L788 770Q875 759 954 734T1093 666T1189 558T1225 402Q1225 298 1181 219T1061 88T885 8T671 -19Q595 -19 518 -6T369 30T234 87T121 161L209 289Q245 258 296 230T407 180T535 146T670 133Q751 133 822 149T945 198T1028 277T1058 388Q1058 490 971 544T719 617L578 633Q488 643 412 669T282 741T196 851T165 1003Q165 1103 206 1180T320 1310T488 1390T695 1418ZM696 -158Q718 -158 737 -166T771 -188T793 -222T802 -264Q802 -287 793 -306T771 -339T737 -361T696 -369Q651 -369 621 -339T591 -264Q591 -219 621 -188T696 -158Z" horiz-adv-x="1346" unicode="Ṣ"/>
			<glyph d="M500 965Q612 965 709 936T876 862L811 746Q788 762 755 777T681 806T595 827T501 835Q450 835 409 824T338 795T293 748T277 686Q277 626 326 595T470 553L582 539Q733 519 816 455T900 275Q900 207 870 153T787 61T656 2T483 -18Q437 -18 386 -12T284 8T183 46T88 103L157 215Q184 194 216 175T288 142T376 120T485 112Q605 112 675 151T746 265Q746 322 697 356T548 403L435 416Q274 436 198 504T122 678Q122 745 149 798T225 889T345 945T500 965ZM507 -158Q529 -158 548 -166T582 -188T604 -222T613 -264Q613 -287 604 -306T582 -339T548 -361T507 -369Q462 -369 432 -339T402 -264Q402 -219 432 -188T507 -158Z" horiz-adv-x="987" unicode="ṣ"/>
			<glyph d="M40 1400H1172V1248H686V0H526V1248H40ZM605 -158Q627 -158 646 -166T680 -188T702 -222T711 -264Q711 -287 702 -306T680 -339T646 -361T605 -369Q560 -369 530 -339T500 -264Q500 -219 530 -188T605 -158Z" horiz-adv-x="1212" unicode="Ṭ"/>
			<glyph d="M260 1248H409V947H818V812H409V334Q409 278 423 238T462 172T521 133T597 121Q652 121 703 139T796 188L866 75Q812 34 742 7T585 -19Q508 -19 448 2T346 66T282 176T260 331V812H53V947H260ZM551 -158Q573 -158 592 -166T626 -188T648 -222T657 -264Q657 -287 648 -306T626 -339T592 -361T551 -369Q506 -369 476 -339T446 -264Q446 -219 476 -188T551 -158Z" horiz-adv-x="906" unicode="ṭ"/>
			<glyph d="M40 1400H1172V1248H686V0H526V1248H40ZM308 -202H906V-324H308Z" horiz-adv-x="1212" unicode="Ṯ"/>
			<glyph d="M260 1248H409V947H818V812H409V334Q409 278 423 238T462 172T521 133T597 121Q652 121 703 139T796 188L866 75Q812 34 742 7T585 -19Q508 -19 448 2T346 66T282 176T260 331V812H53V947H260ZM253 -202H851V-324H253Z" horiz-adv-x="906" unicode="ṯ"/>
			<glyph d="M58 1400H226L613 182L1009 1400H1191L1586 181L1974 1400H2139L1684 0H1486L1098 1186L710 0H513ZM830 1807H1019L1229 1507H1081Z" horiz-adv-x="2197" unicode="Ẁ"/>
			<glyph d="M45 947H204L487 156L769 947H937L1221 155L1506 947H1661L1311 0H1134L851 787L569 0H395ZM572 1392H761L971 1092H823Z" horiz-adv-x="1706" unicode="ẁ"/>
			<glyph d="M58 1400H226L613 182L1009 1400H1191L1586 181L1974 1400H2139L1684 0H1486L1098 1186L710 0H513ZM1166 1807H1356L1105 1507H957Z" horiz-adv-x="2197" unicode="Ẃ"/>
			<glyph d="M45 947H204L487 156L769 947H937L1221 155L1506 947H1661L1311 0H1134L851 787L569 0H395ZM932 1392H1122L871 1092H723Z" horiz-adv-x="1706" unicode="ẃ"/>
			<glyph d="M58 1400H226L613 182L1009 1400H1191L1586 181L1974 1400H2139L1684 0H1486L1098 1186L710 0H513ZM895 1758Q917 1758 936 1749T970 1727T992 1693T1001 1651Q1001 1628 992 1609T970 1576T936 1554T895 1546Q850 1546 819 1576T789 1651Q789 1673 797 1693T819 1727T853 1749T895 1758ZM1301 1758Q1323 1758 1342 1749T1376 1727T1398 1693T1407 1651Q1407 1628 1398 1609T1376 1576T1342 1554T1301 1546Q1256 1546 1226 1576T1196 1651Q1196 1673 1204 1693T1226 1727T1259 1749T1301 1758Z" horiz-adv-x="2197" unicode="Ẅ"/>
			<glyph d="M45 947H204L487 156L769 947H937L1221 155L1506 947H1661L1311 0H1134L851 787L569 0H395ZM650 1343Q672 1343 691 1334T725 1312T747 1278T756 1236Q756 1213 747 1194T725 1161T691 1139T650 1131Q605 1131 574 1161T544 1236Q544 1258 552 1278T574 1312T608 1334T650 1343ZM1056 1343Q1078 1343 1097 1334T1131 1312T1153 1278T1162 1236Q1162 1213 1153 1194T1131 1161T1097 1139T1056 1131Q1011 1131 981 1161T951 1236Q951 1258 959 1278T981 1312T1014 1334T1056 1343Z" horiz-adv-x="1706" unicode="ẅ"/>
			<glyph d="M58 1400H226L613 182L1009 1400H1191L1586 181L1974 1400H2139L1684 0H1486L1098 1186L710 0H513ZM1098 -158Q1120 -158 1139 -166T1173 -188T1195 -222T1204 -264Q1204 -287 1195 -306T1173 -339T1139 -361T1098 -369Q1053 -369 1023 -339T993 -264Q993 -219 1023 -188T1098 -158Z" horiz-adv-x="2197" unicode="Ẉ"/>
			<glyph d="M45 947H204L487 156L769 947H937L1221 155L1506 947H1661L1311 0H1134L851 787L569 0H395ZM852 -158Q874 -158 893 -166T927 -188T949 -222T958 -264Q958 -287 949 -306T927 -339T893 -361T852 -369Q807 -369 777 -339T747 -264Q747 -219 777 -188T852 -158Z" horiz-adv-x="1706" unicode="ẉ"/>
			<glyph d="M131 1400H1190V1276L335 152H1193V0H121V124L977 1248H131ZM656 -158Q678 -158 697 -166T731 -188T753 -222T762 -264Q762 -287 753 -306T731 -339T697 -361T656 -369Q611 -369 581 -339T551 -264Q551 -219 581 -188T656 -158Z" horiz-adv-x="1314" unicode="Ẓ"/>
			<glyph d="M140 947H924V838L320 135H933V0H122V108L732 812H140ZM528 -158Q550 -158 569 -166T603 -188T625 -222T634 -264Q634 -287 625 -306T603 -339T569 -361T528 -369Q483 -369 453 -339T423 -264Q423 -219 453 -188T528 -158Z" horiz-adv-x="1055" unicode="ẓ"/>
			<glyph d="M131 1400H1190V1276L335 152H1193V0H121V124L977 1248H131ZM359 -202H957V-324H359Z" horiz-adv-x="1314" unicode="Ẕ"/>
			<glyph d="M140 947H924V838L320 135H933V0H122V108L732 812H140ZM230 -202H828V-324H230Z" horiz-adv-x="1055" unicode="ẕ"/>
			<glyph d="M175 1440H325V815Q354 856 391 885T469 932T555 958T642 966Q730 966 802 939T927 862T1008 743T1037 587V0H888V538Q888 674 817 749T615 824Q555 824 502 804T410 746T348 655T325 534V0H175ZM309 -202H907V-324H309Z" horiz-adv-x="1201" unicode="ẖ"/>
			<glyph d="M740 1419Q843 1419 925 1401T1074 1352T1192 1274T1288 1173L915 768Q1006 757 1084 726T1219 645T1309 529T1342 379Q1342 287 1301 213T1191 88T1029 9T833 -18Q732 -18 663 -6T538 24L577 176Q624 159 680 147T809 136Q892 136 959 152T1073 200T1146 276T1172 379Q1172 438 1146 484T1071 563T952 613T796 630H705V750L1068 1150Q1018 1202 938 1233T737 1265Q646 1265 573 1240T449 1170T370 1060T343 915V0H182V924Q182 1028 217 1118T323 1275T497 1380T740 1419Z" horiz-adv-x="1464" unicode="ẞ"/>
			<glyph d="M11 1400H203L646 736L1089 1400H1276L725 587V0H565V589ZM378 1807H567L777 1507H629Z" horiz-adv-x="1287" unicode="Ỳ"/>
			<glyph d="M21 947H188L541 353L875 947H1039L268 -404H103L456 205ZM251 1392H440L650 1092H502Z" horiz-adv-x="1054" unicode="ỳ"/>
			<glyph d="M11 1400H203L646 736L1089 1400H1276L725 587V0H565V589ZM644 -158Q666 -158 685 -166T719 -188T741 -222T750 -264Q750 -287 741 -306T719 -339T685 -361T644 -369Q599 -369 569 -339T539 -264Q539 -219 569 -188T644 -158Z" horiz-adv-x="1287" unicode="Ỵ"/>
			<glyph d="M21 947H188L541 353L875 947H1039L268 -404H103L456 205ZM762 -158Q784 -158 803 -166T837 -188T859 -222T868 -264Q868 -287 859 -306T837 -339T803 -361T762 -369Q717 -369 687 -339T657 -264Q657 -219 687 -188T762 -158Z" horiz-adv-x="1054" unicode="ỵ"/>
			<glyph d="" horiz-adv-x="1419" unicode=" "/>
			<glyph d="" horiz-adv-x="523" unicode=" "/>
			<glyph d="" horiz-adv-x="178" unicode=" "/>
			<glyph d="" horiz-adv-x="0" unicode="​"/>
			<glyph d="M141 597H697V461H141Z" horiz-adv-x="838" unicode="‐"/>
			<glyph d="M141 597H697V461H141Z" horiz-adv-x="838" unicode="‑"/>
			<glyph d="M125 597H1075V461H125Z" horiz-adv-x="1200" unicode="‒"/>
			<glyph d="M121 597H1071V461H121Z" horiz-adv-x="1192" unicode="–"/>
			<glyph d="M61 597H1561V461H61Z" horiz-adv-x="1622" unicode="—"/>
			<glyph d="M238 1440H367L307 933H133Z" horiz-adv-x="494" unicode="‘"/>
			<glyph d="M187 1440H361L256 933H127Z" horiz-adv-x="494" unicode="’"/>
			<glyph d="M187 248H361L256 -259H127Z" horiz-adv-x="494" unicode="‚"/>
			<glyph d="M238 1440H367L307 933H133ZM593 1440H722L662 933H488Z" horiz-adv-x="849" unicode="“"/>
			<glyph d="M541 1440H715L610 933H481ZM187 1440H361L256 933H127Z" horiz-adv-x="848" unicode="”"/>
			<glyph d="M541 248H715L610 -259H481ZM187 248H361L256 -259H127Z" horiz-adv-x="848" unicode="„"/>
			<glyph d="M309 1440H432V1232H640V1112H432V673H309V1112H101V1232H309Z" horiz-adv-x="741" unicode="†"/>
			<glyph d="M309 1440H432V1260H640V1140H432V974H640V853H432V673H309V853H101V974H309V1140H101V1260H309Z" horiz-adv-x="741" unicode="‡"/>
			<glyph d="M433 756Q479 756 520 738T593 689T642 617T660 529Q660 482 642 440T593 368T520 320T433 302Q385 302 344 320T272 368T223 440T206 529Q206 576 223 617T272 689T344 738T433 756Z" horiz-adv-x="864" unicode="•"/>
			<glyph d="M259 879L862 530L259 181Z" horiz-adv-x="1015" unicode="‣"/>
			<glyph d="M263 233Q288 233 310 223T350 195T377 155T387 108Q387 83 377 60T350 20T310 -7T263 -18Q238 -18 215 -7T175 20T147 60T137 108Q137 133 147 155T175 195T215 223T263 233ZM746 233Q771 233 793 223T833 195T861 155T871 108Q871 83 861 60T833 20T793 -7T746 -18Q721 -18 698 -7T658 20T631 60T621 108Q621 133 631 155T658 195T698 223T746 233ZM1229 233Q1254 233 1276 223T1316 195T1344 155T1354 108Q1354 83 1344 60T1316 20T1276 -7T1229 -18Q1204 -18 1181 -7T1141 20T1114 60T1104 108Q1104 133 1114 155T1141 195T1181 223T1229 233Z" horiz-adv-x="1490" unicode="…"/>
			<glyph d="M463 1419Q542 1419 610 1391T727 1315T805 1200T833 1057Q833 979 805 912T727 797T610 720T463 693Q385 693 318 720T202 797T125 912T97 1057Q97 1134 125 1200T202 1315T318 1391T463 1419ZM463 1287Q415 1287 373 1270T302 1222T254 1149T237 1057Q237 1006 254 963T302 890T373 842T463 825Q512 825 554 842T627 890T675 963T692 1057Q692 1107 675 1149T627 1222T554 1270T463 1287ZM1332 1400H1488L605 0H449ZM1471 707Q1550 707 1618 679T1735 602T1813 486T1841 344Q1841 266 1813 199T1735 84T1618 8T1471 -19Q1393 -19 1326 8T1210 84T1133 199T1105 344Q1105 421 1133 487T1210 602T1326 679T1471 707ZM1471 575Q1423 575 1381 558T1310 510T1262 437T1245 344Q1245 293 1262 251T1310 178T1381 130T1471 113Q1520 113 1562 130T1635 178T1683 251T1701 344Q1701 395 1683 437T1635 510T1562 558T1471 575ZM2310 707Q2389 707 2457 679T2574 602T2652 487T2680 344Q2680 266 2652 199T2574 84T2457 8T2310 -19Q2232 -19 2165 8T2049 84T1972 199T1944 344Q1944 421 1972 487T2049 602T2165 679T2310 707ZM2310 575Q2262 575 2220 558T2148 510T2101 437T2084 344Q2084 293 2101 251T2148 178T2220 130T2310 113Q2359 113 2401 130T2474 178T2522 251T2539 344Q2539 395 2522 437T2474 510T2401 558T2310 575Z" horiz-adv-x="2777" unicode="‰"/>
			<glyph d="M262 1400H404L270 768H127Z" horiz-adv-x="537" unicode="′"/>
			<glyph d="M575 1400H717L583 768H440ZM262 1400H404L270 768H127Z" horiz-adv-x="850" unicode="″"/>
			<glyph d="M552 1400H694L560 768H417ZM841 1400H983L849 768H706ZM262 1400H404L270 768H127Z" horiz-adv-x="1116" unicode="‴"/>
			<glyph d="M318 899H478L287 529L478 159H318L126 529Z" horiz-adv-x="625" unicode="‹"/>
			<glyph d="M147 899H307L499 529L307 159H147L338 529Z" horiz-adv-x="625" unicode="›"/>
			<glyph d="M585 1400H734L-149 0H-298Z" horiz-adv-x="436" unicode="⁄"/>
			<glyph d="M435 1410Q505 1410 566 1382T672 1303T744 1177T771 1008Q771 914 744 839T672 713T566 633T435 606Q366 606 305 633T198 713T126 839T100 1008Q100 1102 126 1177T198 1303T305 1382T435 1410ZM435 1292Q392 1292 354 1273T288 1219T244 1130T228 1008Q228 939 244 886T288 797T354 742T435 724Q478 724 516 742T582 797T627 886T643 1008Q643 1077 627 1130T582 1219T516 1273T435 1292Z" horiz-adv-x="871" unicode="⁰"/>
			<glyph d="M125 1279H248V617H125ZM186 1584Q221 1584 245 1560T269 1502Q269 1467 245 1443T186 1420Q151 1420 128 1443T105 1502Q105 1537 128 1560T186 1584Z" horiz-adv-x="374" unicode="ⁱ"/>
			<glyph d="M316 1399H453L186 882H405V1099H529V882H650V769H529V617H405V769H40V858Z" horiz-adv-x="690" unicode="⁴"/>
			<glyph d="M139 1399H582V1285H246L240 1096H334Q405 1096 459 1078T549 1030T604 956T623 864Q623 804 601 756T542 675T452 624T339 606Q252 606 182 635T65 719L138 801Q174 765 227 742T338 720Q413 720 454 757T495 855Q495 883 485 906T452 947T394 975T309 985H127Z" horiz-adv-x="712" unicode="⁵"/>
			<glyph d="M350 1399H499L305 1116Q335 1124 370 1124Q431 1124 482 1104T569 1049T625 968T645 868Q645 811 623 763T561 680T468 625T352 606Q289 606 235 625T143 679T82 761T60 865Q60 914 76 960T124 1053ZM352 1019Q317 1019 287 1007T235 976T200 928T188 867Q188 834 200 806T235 758T287 726T352 715Q388 715 418 726T469 758T503 806T516 867Q516 900 503 928T469 976T418 1007T352 1019Z" horiz-adv-x="709" unicode="⁶"/>
			<glyph d="M60 1399H613V1303L273 617H127L467 1284H60Z" horiz-adv-x="663" unicode="⁷"/>
			<glyph d="M388 1410Q446 1410 498 1395T588 1353T648 1285T671 1194Q671 1159 660 1130T632 1079T589 1040T537 1013Q569 1002 597 985T646 946T679 893T691 826Q691 773 667 732T601 663T505 620T388 606Q325 606 270 620T174 663T109 732T85 826Q85 863 97 893T129 945T178 984T238 1012Q181 1034 142 1078T104 1194Q104 1245 126 1285T187 1353T277 1395T388 1410ZM388 963Q353 963 322 955T268 931T231 892T218 839Q218 807 231 783T268 744T322 720T388 712Q422 712 453 720T507 744T543 783T557 839Q557 869 543 892T507 931T453 955T388 963ZM388 1302Q356 1302 328 1294T280 1272T247 1234T235 1182Q235 1153 247 1130T280 1093T328 1070T388 1063Q419 1063 446 1070T495 1093T528 1130T540 1182Q540 1212 528 1234T495 1272T446 1294T388 1302Z" horiz-adv-x="776" unicode="⁸"/>
			<glyph d="M357 1410Q420 1410 473 1390T566 1336T627 1254T650 1151Q650 1103 633 1057T585 964L359 617H211L404 900Q374 892 340 892Q278 892 227 912T141 966T85 1047T65 1148Q65 1205 87 1253T148 1336T240 1390T357 1410ZM357 1301Q322 1301 292 1290T240 1258T205 1210T193 1149Q193 1116 205 1088T240 1040T292 1008T357 997Q393 997 422 1008T474 1040T508 1088T520 1149Q520 1182 507 1210T473 1258T422 1289T357 1301Z" horiz-adv-x="709" unicode="⁹"/>
			<glyph d="M465 1292Q524 1292 573 1273T657 1220T712 1137T732 1029V617H609V990Q609 1078 563 1127T433 1176Q395 1176 361 1163T302 1126T262 1067T248 988V617H125V1279H245V1171Q281 1236 340 1264T465 1292Z" horiz-adv-x="850" unicode="ⁿ"/>
			<glyph d="M435 423Q505 423 566 395T672 316T744 190T771 21Q771 -73 744 -147T672 -274T566 -353T435 -381Q366 -381 305 -353T198 -274T126 -147T100 21Q100 115 126 190T198 316T305 395T435 423ZM435 305Q392 305 354 286T288 232T244 143T228 21Q228 -48 244 -101T288 -190T354 -244T435 -263Q478 -263 516 -244T582 -190T627 -101T643 21Q643 90 627 143T582 232T516 286T435 305Z" horiz-adv-x="871" unicode="₀"/>
			<glyph d="M391 422V-370H267V250L50 163V285Z" horiz-adv-x="550" unicode="₁"/>
			<glyph d="M327 423Q388 423 436 405T518 354T569 277T587 179Q587 108 555 54T472 -52L271 -255H611V-370H94V-273L385 18Q419 52 439 88T459 169Q459 228 421 266T316 305Q285 305 260 297T214 277T177 247T145 213L65 290Q81 312 104 335T159 378T232 410T327 423Z" horiz-adv-x="681" unicode="₂"/>
			<glyph d="M308 423Q369 423 419 407T506 363T562 295T582 207Q582 140 547 93T454 24Q520 1 559 -45T599 -158Q599 -215 575 -256T511 -326T420 -367T314 -381Q228 -381 161 -353T50 -275L122 -193Q157 -230 204 -250T308 -270Q341 -270 370 -262T422 -240T458 -202T471 -148Q471 -120 457 -98T420 -61T366 -38T300 -30H200V80H300Q333 80 361 87T409 109T442 146T454 197Q454 251 411 281T302 312Q243 312 199 287T128 229L54 308Q94 359 156 391T308 423Z" horiz-adv-x="685" unicode="₃"/>
			<glyph d="M316 412H453L186 -105H405V112H529V-105H650V-218H529V-370H405V-218H40V-129Z" horiz-adv-x="690" unicode="₄"/>
			<glyph d="M139 412H582V298H246L240 109H334Q405 109 459 91T549 43T604 -30T623 -123Q623 -183 601 -231T542 -312T452 -363T339 -381Q252 -381 182 -351T65 -268L138 -186Q174 -222 227 -244T338 -267Q413 -267 454 -229T495 -132Q495 -104 485 -80T452 -39T394 -12T309 -2H127Z" horiz-adv-x="712" unicode="₅"/>
			<glyph d="M350 412H499L305 129Q335 137 370 137Q431 137 482 117T569 62T625 -18T645 -119Q645 -176 623 -224T561 -307T468 -361T352 -381Q289 -381 235 -361T143 -307T82 -225T60 -122Q60 -73 76 -27T124 66ZM352 32Q317 32 287 20T235 -11T200 -59T188 -120Q188 -153 200 -181T235 -229T287 -260T352 -272Q388 -272 418 -260T469 -229T503 -181T516 -120Q516 -87 503 -59T469 -11T418 20T352 32Z" horiz-adv-x="709" unicode="₆"/>
			<glyph d="M60 412H613V316L273 -370H127L467 297H60Z" horiz-adv-x="663" unicode="₇"/>
			<glyph d="M388 423Q446 423 498 408T588 366T648 298T671 207Q671 172 660 143T632 92T589 53T537 26Q569 15 597 -1T646 -41T679 -94T691 -161Q691 -214 667 -254T601 -323T505 -366T388 -381Q325 -381 270 -366T174 -323T109 -254T85 -161Q85 -124 97 -94T129 -41T178 -2T238 25Q181 47 142 91T104 207Q104 258 126 298T187 366T277 408T388 423ZM388 -24Q353 -24 322 -32T268 -56T231 -95T218 -148Q218 -180 231 -203T268 -243T322 -267T388 -275Q422 -275 453 -267T507 -243T543 -203T557 -148Q557 -118 543 -95T507 -56T453 -32T388 -24ZM388 315Q356 315 328 307T280 285T247 247T235 195Q235 166 247 143T280 106T328 83T388 76Q419 76 446 83T495 106T528 143T540 195Q540 225 528 247T495 285T446 307T388 315Z" horiz-adv-x="776" unicode="₈"/>
			<glyph d="M357 423Q420 423 473 403T566 349T627 267T650 164Q650 116 633 70T585 -23L359 -370H211L404 -87Q374 -95 340 -95Q278 -95 227 -75T141 -20T85 60T65 161Q65 218 87 266T148 349T240 403T357 423ZM357 314Q322 314 292 303T240 271T205 223T193 162Q193 129 205 101T240 53T292 21T357 10Q393 10 422 21T474 53T508 101T520 162Q520 195 507 223T473 271T422 302T357 314Z" horiz-adv-x="709" unicode="₉"/>
			<glyph d="M846 1418Q1005 1418 1125 1354T1324 1181L1220 1073Q1160 1163 1067 1219T846 1275Q763 1275 693 1250T568 1180T475 1069T414 922H1044V798H392Q390 774 388 750T387 700Q387 674 388 649T392 602H1044V478H414Q436 395 475 330T569 219T693 149T846 125Q910 125 965 139T1068 181T1153 245T1222 327L1321 224Q1241 111 1123 46T846 -18Q730 -18 632 16T458 115T330 272T252 478H77V602H233Q231 625 230 649T229 700Q229 725 230 749T233 798H77V922H252Q278 1036 330 1127T458 1283T632 1383T846 1418Z" horiz-adv-x="1400" unicode="€"/>
			<glyph d="M337 1400H491V893L1000 1130V997L491 760V567L1000 804V672L491 435V149H724Q794 149 854 164T967 214T1066 302T1155 433L1287 360Q1233 262 1172 194T1042 82T890 19T712 0H337V363L142 273V405L337 495V688L142 598V730L337 821Z" horiz-adv-x="1400" unicode="₺"/>
			<glyph d="M489 1419Q556 1419 610 1402T702 1350T762 1262T783 1140V744H662V833Q623 789 565 759T429 730Q375 730 331 745T257 787T211 852T195 935Q195 1026 266 1079T468 1132H659Q657 1223 610 1266T475 1309Q412 1309 363 1288T278 1238L229 1333Q281 1373 346 1396T489 1419ZM486 1045Q442 1045 411 1036T361 1013T333 979T324 938Q324 895 357 863T457 832Q518 832 570 860T661 932V1045ZM1369 1400H1518L635 0H486ZM1461 671Q1539 671 1604 641T1715 557L1628 481Q1593 517 1551 536T1458 556Q1412 556 1372 539T1304 491T1258 419T1242 327Q1242 276 1258 234T1304 162T1372 115T1457 98Q1509 98 1553 118T1630 174L1715 96Q1669 42 1604 12T1461 -18Q1384 -18 1321 8T1212 80T1141 190T1116 327Q1116 401 1141 464T1212 573T1321 645T1461 671Z" horiz-adv-x="1909" unicode="℀"/>
			<glyph d="M493 1419Q560 1419 614 1402T706 1350T766 1262T787 1140V744H666V833Q627 789 569 759T433 730Q379 730 335 745T261 787T215 852T199 935Q199 1026 270 1079T472 1132H663Q661 1223 614 1266T479 1309Q416 1309 367 1288T282 1238L233 1333Q285 1373 350 1396T493 1419ZM490 1045Q446 1045 415 1036T365 1013T337 979T328 938Q328 895 361 863T461 832Q522 832 574 860T665 932V1045ZM1373 1400H1522L639 0H490ZM1420 670Q1499 670 1565 651T1687 601L1642 505Q1624 516 1599 527T1545 546T1485 560T1423 566Q1357 566 1318 541T1280 472Q1280 434 1314 414T1413 387L1484 378Q1589 364 1646 318T1704 192Q1704 143 1683 104T1625 38T1532 -3T1411 -18Q1375 -18 1337 -13T1263 0T1193 25T1129 62L1180 156Q1221 127 1276 106T1413 86Q1490 86 1534 110T1579 183Q1579 220 1546 241T1444 271L1374 279Q1260 292 1206 340T1152 466Q1152 514 1171 552T1225 616T1309 656T1420 670Z" horiz-adv-x="1909" unicode="℁"/>
			<glyph d="M502 1419Q580 1419 645 1389T756 1305L669 1229Q634 1265 592 1284T499 1304Q453 1304 413 1287T345 1239T299 1167T283 1075Q283 1024 299 982T345 910T413 863T498 846Q550 846 594 866T671 922L756 844Q710 790 645 760T502 730Q425 730 362 756T253 828T182 938T157 1075Q157 1149 182 1212T253 1321T362 1393T502 1419ZM1313 1400H1462L579 0H430ZM1404 671Q1479 671 1543 645T1653 573T1726 464T1753 327Q1753 253 1726 190T1653 80T1543 8T1404 -18Q1329 -18 1265 8T1154 80T1081 190T1055 327Q1055 401 1081 464T1154 573T1265 645T1404 671ZM1404 556Q1356 556 1315 539T1245 491T1198 419T1181 327Q1181 277 1198 235T1245 162T1315 115T1404 98Q1452 98 1493 115T1564 162T1611 235T1628 327Q1628 377 1611 419T1564 491T1493 539T1404 556Z" horiz-adv-x="1909" unicode="℅"/>
			<glyph d="M499 1419Q577 1419 642 1389T753 1305L666 1229Q631 1265 589 1284T496 1304Q450 1304 410 1287T342 1239T296 1167T280 1075Q280 1024 296 982T342 910T410 863T495 846Q547 846 591 866T668 922L753 844Q707 790 642 760T499 730Q422 730 359 756T250 828T179 938T154 1075Q154 1149 179 1212T250 1321T359 1393T499 1419ZM1310 1400H1459L576 0H427ZM1149 658H1272V284Q1272 237 1285 202T1323 144T1380 109T1452 98Q1492 98 1525 109T1583 144T1620 202T1634 284V658H1756V273Q1756 199 1731 144T1665 54T1569 0T1452 -18Q1390 -18 1335 0T1239 54T1173 144T1149 273Z" horiz-adv-x="1909" unicode="℆"/>
			<glyph d="M613 1459Q679 1459 734 1436T828 1373T889 1275T911 1152Q911 1053 876 962T780 791T635 639T454 508V333Q454 277 467 237T505 171T562 133T634 121Q690 121 741 141T835 193L895 74Q843 34 775 7T621 -20Q472 -20 388 66T304 331V426Q278 413 251 401T197 378L142 506Q229 541 305 582L306 1087Q306 1167 328 1235T389 1353T485 1431T613 1459ZM613 1319Q578 1319 549 1303T499 1257T466 1184T455 1087L454 674Q524 723 580 778T675 894T736 1019T758 1152Q758 1230 720 1274T613 1319Z" horiz-adv-x="1072" unicode="ℓ"/>
			<glyph d="M1674 579H2338V444H1674ZM2006 1414Q2081 1414 2144 1388T2254 1316T2327 1207T2354 1071Q2354 998 2327 935T2254 827T2144 755T2006 729Q1931 729 1867 755T1757 827T1685 935T1659 1071Q1659 1144 1685 1207T1757 1316T1867 1388T2006 1414ZM2006 1300Q1958 1300 1917 1283T1847 1235T1800 1163T1783 1071Q1783 1021 1800 979T1847 907T1917 860T2006 843Q2054 843 2095 860T2166 907T2213 979T2230 1071Q2230 1121 2213 1163T2166 1235T2095 1283T2006 1300ZM202 1400H347L1214 276V1400H1375V0H1230L363 1124V0H202Z" horiz-adv-x="2433" unicode="№"/>
			<glyph d="M951 1508Q1062 1508 1165 1479T1357 1398T1520 1273T1646 1111T1728 920T1757 708Q1757 598 1728 495T1646 304T1520 141T1357 15T1165 -65T951 -94Q840 -94 736 -65T543 15T380 141T254 304T173 495T145 708Q145 818 173 920T254 1111T380 1273T543 1398T736 1479T951 1508ZM951 1376Q812 1376 690 1323T477 1180T333 968T281 708Q281 569 333 447T477 234T690 90T951 38Q1043 38 1129 62T1289 129T1425 234T1529 369T1597 529T1621 708Q1621 800 1597 885T1529 1045T1425 1181T1289 1285T1129 1352T951 1376ZM666 1124H1013Q1174 1124 1260 1054T1347 861Q1347 801 1325 752T1260 670T1155 618T1014 600H799V279H666ZM799 1003V719H1010Q1106 719 1158 755T1210 861Q1210 931 1158 967T1010 1003Z" horiz-adv-x="1903" unicode="℗"/>
			<glyph d="M370 1409Q447 1409 503 1392T608 1351L560 1262Q524 1281 477 1296T373 1312Q314 1312 274 1291T235 1234Q235 1199 272 1182T376 1159L423 1154Q514 1145 570 1106T626 996Q626 946 604 909T546 849T461 815T361 804Q287 804 218 822T101 872L154 960Q189 938 243 920T362 902Q393 902 420 906T467 921T498 946T510 981Q510 1017 473 1032T367 1056L315 1061Q221 1070 169 1111T117 1224Q117 1267 136 1301T189 1359T269 1396T370 1409ZM746 1400H899L1076 998L1252 1400H1404V815H1297V1257L1132 876H1019L854 1256V815H746Z" horiz-adv-x="1485" unicode="℠"/>
			<glyph d="M695 1401H848L1024 998L1200 1401H1353V815H1245V1258L1080 876H968L803 1257V815H695ZM81 1400H580V1301H384V815H277V1301H81Z" horiz-adv-x="1434" unicode="™"/>
			<glyph d="M860 1420Q1016 1420 1148 1366T1377 1215T1528 986T1583 695Q1583 606 1563 526T1505 378T1415 252T1296 152H1639V0H1037V131Q1121 158 1190 209T1310 331T1387 493T1415 688Q1415 817 1372 923T1255 1106T1079 1223T860 1265Q742 1265 640 1223T464 1106T347 923T305 688Q305 583 332 493T410 331T529 209T683 131V0H81V152H423Q358 195 305 252T214 378T157 526T137 695Q137 853 191 986T342 1215T571 1366T860 1420Z" horiz-adv-x="1720" unicode="Ω"/>
			<glyph d="M1000 1504Q1165 1504 1310 1446T1563 1282T1735 1029T1798 700V685Q1798 678 1797 671H451V326Q451 252 473 196T555 96Q649 27 761 -9T1000 -45Q1097 -45 1187 -23T1356 39T1501 139T1616 273L1663 237Q1609 157 1537 93T1381 -14T1199 -81T1000 -104Q835 -104 690 -46T436 117T265 371T202 700Q202 881 265 1029T436 1282T690 1446T1000 1504ZM1000 1445Q874 1445 761 1409T555 1304Q495 1260 473 1204T451 1074V729H1558V1064Q1558 1138 1537 1194T1458 1295Q1363 1368 1247 1406T1000 1445Z" horiz-adv-x="2000" unicode="℮"/>
			<glyph d="M412 1400H560L843 671H711L647 844H322L259 671H130ZM1479 738Q1525 738 1564 732T1637 717T1700 693T1757 664L1704 562Q1664 586 1609 605T1484 625Q1449 625 1420 618T1369 599T1335 567T1323 524Q1323 479 1369 457T1493 426L1547 420Q1655 408 1717 359T1780 224Q1780 162 1754 118T1687 45T1589 3T1474 -10Q1385 -10 1306 13T1173 75L1232 176Q1253 163 1278 150T1335 126T1401 109T1476 103Q1512 103 1543 109T1597 128T1633 160T1646 207Q1646 254 1604 274T1479 304L1421 311Q1191 338 1191 513Q1191 565 1212 606T1272 677T1363 722T1479 738ZM485 1285L364 957H606ZM1396 1400H1545L662 0H513Z" horiz-adv-x="1909" unicode="⅍"/>
			<glyph d="M1159 1400H1308L425 0H276ZM1097 782H1650V686L1310 0H1164L1504 667H1097ZM391 1409V617H267V1237L50 1150V1272Z" horiz-adv-x="1700" unicode="⅐"/>
			<glyph d="M1159 1400H1308L425 0H276ZM1367 793Q1430 793 1483 773T1576 719T1637 637T1660 534Q1660 486 1643 440T1595 347L1369 0H1221L1414 283Q1384 275 1350 275Q1288 275 1237 295T1151 349T1095 430T1075 531Q1075 588 1097 636T1158 719T1250 773T1367 793ZM1367 684Q1332 684 1302 673T1250 641T1215 593T1203 532Q1203 499 1215 471T1250 423T1302 391T1367 380Q1403 380 1432 391T1484 423T1518 471T1530 532Q1530 565 1517 593T1483 641T1432 672T1367 684ZM391 1409V617H267V1237L50 1150V1272Z" horiz-adv-x="1719" unicode="⅑"/>
			<glyph d="M1159 1400H1308L425 0H276ZM1421 792V0H1297V620L1080 533V655ZM2015 793Q2085 793 2146 765T2252 686T2324 560T2351 391Q2351 297 2324 222T2252 96T2146 16T2015 -11Q1946 -11 1885 16T1778 96T1706 222T1680 391Q1680 485 1706 560T1778 686T1885 765T2015 793ZM2015 675Q1972 675 1934 656T1868 602T1824 513T1808 391Q1808 322 1824 269T1868 180T1934 125T2015 107Q2058 107 2096 125T2162 180T2207 269T2223 391Q2223 460 2207 513T2162 602T2096 656T2015 675ZM391 1409V617H267V1237L50 1150V1272Z" horiz-adv-x="2451" unicode="⅒"/>
			<glyph d="M1159 1400H1308L425 0H276ZM1318 793Q1379 793 1429 777T1516 733T1572 665T1592 577Q1592 510 1557 463T1464 394Q1530 371 1569 324T1609 212Q1609 155 1585 113T1521 44T1430 2T1324 -11Q1238 -11 1171 16T1060 95L1132 177Q1167 140 1214 120T1318 100Q1351 100 1380 107T1432 130T1468 168T1481 222Q1481 250 1467 272T1430 309T1376 332T1310 340H1210V450H1310Q1343 450 1371 457T1419 479T1452 516T1464 567Q1464 621 1421 651T1312 682Q1253 682 1209 657T1138 599L1064 678Q1104 729 1166 761T1318 793ZM391 1409V617H267V1237L50 1150V1272Z" horiz-adv-x="1694" unicode="⅓"/>
			<glyph d="M1296 1400H1445L562 0H413ZM1454 793Q1515 793 1565 777T1652 733T1708 665T1728 577Q1728 510 1693 463T1600 394Q1666 371 1705 324T1745 212Q1745 155 1721 113T1657 44T1566 2T1460 -11Q1374 -11 1307 16T1196 95L1268 177Q1303 140 1350 120T1454 100Q1487 100 1516 107T1568 130T1604 168T1617 222Q1617 250 1603 272T1566 309T1512 332T1446 340H1346V450H1446Q1479 450 1507 457T1555 479T1588 516T1600 567Q1600 621 1557 651T1448 682Q1389 682 1345 657T1274 599L1200 678Q1240 729 1302 761T1454 793ZM327 1410Q388 1410 436 1392T518 1341T569 1264T587 1166Q587 1095 555 1041T472 935L271 732H611V617H94V714L385 1005Q419 1039 439 1075T459 1156Q459 1215 421 1253T316 1292Q285 1292 260 1284T214 1264T177 1234T145 1200L65 1277Q81 1299 104 1322T159 1365T232 1397T327 1410Z" horiz-adv-x="1831" unicode="⅔"/>
			<glyph d="M1159 1400H1308L425 0H276ZM1149 782H1592V668H1256L1250 479H1344Q1415 479 1469 461T1559 413T1614 339T1633 247Q1633 187 1611 139T1552 58T1462 7T1349 -11Q1262 -11 1192 18T1075 102L1148 184Q1184 148 1237 125T1348 103Q1423 103 1464 140T1505 238Q1505 266 1495 289T1462 330T1404 358T1319 368H1137ZM391 1409V617H267V1237L50 1150V1272Z" horiz-adv-x="1722" unicode="⅕"/>
			<glyph d="M1296 1400H1445L562 0H413ZM1285 782H1728V668H1392L1386 479H1480Q1551 479 1605 461T1695 413T1750 339T1769 247Q1769 187 1747 139T1688 58T1598 7T1485 -11Q1398 -11 1328 18T1211 102L1284 184Q1320 148 1373 125T1484 103Q1559 103 1600 140T1641 238Q1641 266 1631 289T1598 330T1540 358T1455 368H1273ZM327 1410Q388 1410 436 1392T518 1341T569 1264T587 1166Q587 1095 555 1041T472 935L271 732H611V617H94V714L385 1005Q419 1039 439 1075T459 1156Q459 1215 421 1253T316 1292Q285 1292 260 1284T214 1264T177 1234T145 1200L65 1277Q81 1299 104 1322T159 1365T232 1397T327 1410Z" horiz-adv-x="1859" unicode="⅖"/>
			<glyph d="M1270 1400H1419L536 0H387ZM1259 782H1702V668H1366L1360 479H1454Q1525 479 1579 461T1669 413T1724 339T1743 247Q1743 187 1721 139T1662 58T1572 7T1459 -11Q1372 -11 1302 18T1185 102L1258 184Q1294 148 1347 125T1458 103Q1533 103 1574 140T1615 238Q1615 266 1605 289T1572 330T1514 358T1429 368H1247ZM308 1410Q369 1410 419 1394T506 1350T562 1282T582 1194Q582 1127 547 1080T454 1011Q520 988 559 941T599 829Q599 772 575 730T511 661T420 619T314 606Q228 606 161 633T50 712L122 794Q157 757 204 737T308 717Q341 717 370 724T422 747T458 785T471 839Q471 867 457 889T420 926T366 949T300 957H200V1067H300Q333 1067 361 1074T409 1096T442 1133T454 1184Q454 1238 411 1268T302 1299Q243 1299 199 1274T128 1216L54 1295Q94 1346 156 1378T308 1410Z" horiz-adv-x="1833" unicode="⅗"/>
			<glyph d="M1275 1400H1424L541 0H392ZM1265 782H1708V668H1372L1366 479H1460Q1531 479 1585 461T1675 413T1730 339T1749 247Q1749 187 1727 139T1668 58T1578 7T1465 -11Q1378 -11 1308 18T1191 102L1264 184Q1300 148 1353 125T1464 103Q1539 103 1580 140T1621 238Q1621 266 1611 289T1578 330T1520 358T1435 368H1253ZM316 1399H453L186 882H405V1099H529V882H650V769H529V617H405V769H40V858Z" horiz-adv-x="1838" unicode="⅘"/>
			<glyph d="M1159 1400H1308L425 0H276ZM1276 782H1425L1231 499Q1261 507 1296 507Q1357 507 1408 487T1495 432T1551 351T1571 251Q1571 194 1549 146T1487 63T1394 8T1278 -11Q1215 -11 1161 8T1069 62T1008 144T986 248Q986 297 1002 343T1050 436ZM1278 402Q1243 402 1213 390T1161 359T1126 311T1114 250Q1114 217 1126 189T1161 141T1213 109T1278 98Q1314 98 1344 109T1395 141T1429 189T1442 250Q1442 283 1429 311T1395 359T1344 390T1278 402ZM391 1409V617H267V1237L50 1150V1272Z" horiz-adv-x="1635" unicode="⅙"/>
			<glyph d="M1290 1400H1439L556 0H407ZM1407 782H1556L1362 499Q1392 507 1427 507Q1488 507 1539 487T1626 432T1682 351T1702 251Q1702 194 1680 146T1618 63T1525 8T1409 -11Q1346 -11 1292 8T1200 62T1139 144T1117 248Q1117 297 1133 343T1181 436ZM1409 402Q1374 402 1344 390T1292 359T1257 311T1245 250Q1245 217 1257 189T1292 141T1344 109T1409 98Q1445 98 1475 109T1526 141T1560 189T1573 250Q1573 283 1560 311T1526 359T1475 390T1409 402ZM139 1399H582V1285H246L240 1096H334Q405 1096 459 1078T549 1030T604 956T623 864Q623 804 601 756T542 675T452 624T339 606Q252 606 182 635T65 719L138 801Q174 765 227 742T338 720Q413 720 454 757T495 855Q495 883 485 906T452 947T394 975T309 985H127Z" horiz-adv-x="1766" unicode="⅚"/>
			<glyph d="M1159 1400H1308L425 0H276ZM1371 793Q1429 793 1481 778T1571 736T1631 668T1654 577Q1654 542 1643 513T1615 462T1572 423T1520 396Q1552 385 1580 368T1629 329T1662 276T1674 209Q1674 156 1650 115T1584 46T1488 3T1371 -11Q1308 -11 1253 3T1157 46T1092 115T1068 209Q1068 246 1080 276T1112 328T1161 367T1221 395Q1164 417 1125 461T1087 577Q1087 628 1109 668T1170 736T1260 778T1371 793ZM1371 346Q1336 346 1305 338T1251 314T1214 275T1201 222Q1201 190 1214 166T1251 127T1305 103T1371 95Q1405 95 1436 103T1490 127T1526 166T1540 222Q1540 252 1526 275T1490 314T1436 338T1371 346ZM1371 685Q1339 685 1311 677T1263 655T1230 617T1218 565Q1218 536 1230 513T1263 476T1311 453T1371 446Q1402 446 1429 453T1478 476T1511 513T1523 565Q1523 595 1511 617T1478 655T1429 677T1371 685ZM391 1409V617H267V1237L50 1150V1272Z" horiz-adv-x="1759" unicode="⅛"/>
			<glyph d="M1270 1400H1419L536 0H387ZM1481 793Q1539 793 1591 778T1681 736T1741 668T1764 577Q1764 542 1753 513T1725 462T1682 423T1630 396Q1662 385 1690 368T1739 329T1772 276T1784 209Q1784 156 1760 115T1694 46T1598 3T1481 -11Q1418 -11 1363 3T1267 46T1202 115T1178 209Q1178 246 1190 276T1222 328T1271 367T1331 395Q1274 417 1235 461T1197 577Q1197 628 1219 668T1280 736T1370 778T1481 793ZM1481 346Q1446 346 1415 338T1361 314T1324 275T1311 222Q1311 190 1324 166T1361 127T1415 103T1481 95Q1515 95 1546 103T1600 127T1636 166T1650 222Q1650 252 1636 275T1600 314T1546 338T1481 346ZM1481 685Q1449 685 1421 677T1373 655T1340 617T1328 565Q1328 536 1340 513T1373 476T1421 453T1481 446Q1512 446 1539 453T1588 476T1621 513T1633 565Q1633 595 1621 617T1588 655T1539 677T1481 685ZM308 1410Q369 1410 419 1394T506 1350T562 1282T582 1194Q582 1127 547 1080T454 1011Q520 988 559 941T599 829Q599 772 575 730T511 661T420 619T314 606Q228 606 161 633T50 712L122 794Q157 757 204 737T308 717Q341 717 370 724T422 747T458 785T471 839Q471 867 457 889T420 926T366 949T300 957H200V1067H300Q333 1067 361 1074T409 1096T442 1133T454 1184Q454 1238 411 1268T302 1299Q243 1299 199 1274T128 1216L54 1295Q94 1346 156 1378T308 1410Z" horiz-adv-x="1869" unicode="⅜"/>
			<glyph d="M1290 1400H1439L556 0H407ZM1502 793Q1560 793 1612 778T1702 736T1762 668T1785 577Q1785 542 1774 513T1746 462T1703 423T1651 396Q1683 385 1711 368T1760 329T1793 276T1805 209Q1805 156 1781 115T1715 46T1619 3T1502 -11Q1439 -11 1384 3T1288 46T1223 115T1199 209Q1199 246 1211 276T1243 328T1292 367T1352 395Q1295 417 1256 461T1218 577Q1218 628 1240 668T1301 736T1391 778T1502 793ZM1502 346Q1467 346 1436 338T1382 314T1345 275T1332 222Q1332 190 1345 166T1382 127T1436 103T1502 95Q1536 95 1567 103T1621 127T1657 166T1671 222Q1671 252 1657 275T1621 314T1567 338T1502 346ZM1502 685Q1470 685 1442 677T1394 655T1361 617T1349 565Q1349 536 1361 513T1394 476T1442 453T1502 446Q1533 446 1560 453T1609 476T1642 513T1654 565Q1654 595 1642 617T1609 655T1560 677T1502 685ZM139 1399H582V1285H246L240 1096H334Q405 1096 459 1078T549 1030T604 956T623 864Q623 804 601 756T542 675T452 624T339 606Q252 606 182 635T65 719L138 801Q174 765 227 742T338 720Q413 720 454 757T495 855Q495 883 485 906T452 947T394 975T309 985H127Z" horiz-adv-x="1890" unicode="⅝"/>
			<glyph d="M1135 1400H1284L401 0H252ZM1347 793Q1405 793 1457 778T1547 736T1607 668T1630 577Q1630 542 1619 513T1591 462T1548 423T1496 396Q1528 385 1556 368T1605 329T1638 276T1650 209Q1650 156 1626 115T1560 46T1464 3T1347 -11Q1284 -11 1229 3T1133 46T1068 115T1044 209Q1044 246 1056 276T1088 328T1137 367T1197 395Q1140 417 1101 461T1063 577Q1063 628 1085 668T1146 736T1236 778T1347 793ZM1347 346Q1312 346 1281 338T1227 314T1190 275T1177 222Q1177 190 1190 166T1227 127T1281 103T1347 95Q1381 95 1412 103T1466 127T1502 166T1516 222Q1516 252 1502 275T1466 314T1412 338T1347 346ZM1347 685Q1315 685 1287 677T1239 655T1206 617T1194 565Q1194 536 1206 513T1239 476T1287 453T1347 446Q1378 446 1405 453T1454 476T1487 513T1499 565Q1499 595 1487 617T1454 655T1405 677T1347 685ZM60 1399H613V1303L273 617H127L467 1284H60Z" horiz-adv-x="1735" unicode="⅞"/>
			<glyph d="M1159 1400H1308L425 0H276ZM391 1409V617H267V1237L50 1150V1272Z" horiz-adv-x="1010" unicode="⅟"/>
			<glyph d="M1402 1400H1551L668 0H519ZM1560 793Q1621 793 1671 777T1758 733T1814 665T1834 577Q1834 510 1799 463T1706 394Q1772 371 1811 324T1851 212Q1851 155 1827 113T1763 44T1672 2T1566 -11Q1480 -11 1413 16T1302 95L1374 177Q1409 140 1456 120T1560 100Q1593 100 1622 107T1674 130T1710 168T1723 222Q1723 250 1709 272T1672 309T1618 332T1552 340H1452V450H1552Q1585 450 1613 457T1661 479T1694 516T1706 567Q1706 621 1663 651T1554 682Q1495 682 1451 657T1380 599L1306 678Q1346 729 1408 761T1560 793ZM435 1410Q505 1410 566 1382T672 1303T744 1177T771 1008Q771 914 744 839T672 713T566 633T435 606Q366 606 305 633T198 713T126 839T100 1008Q100 1102 126 1177T198 1303T305 1382T435 1410ZM435 1292Q392 1292 354 1273T288 1219T244 1130T228 1008Q228 939 244 886T288 797T354 742T435 724Q478 724 516 742T582 797T627 886T643 1008Q643 1077 627 1130T582 1219T516 1273T435 1292Z" horiz-adv-x="1937" unicode="↉"/>
			<glyph d="M840 1275L936 1179L649 892Q608 851 558 804T458 715Q492 717 518 718T568 720T611 721H1782V585H611Q591 585 568 585T518 587T458 591Q509 549 558 502T649 414L936 127L840 31L219 653Z" horiz-adv-x="2000" unicode="←"/>
			<glyph d="M1000 1486L1622 864L1526 768L1240 1056Q1199 1098 1151 1146T1062 1247Q1064 1212 1065 1185T1067 1136T1068 1092V-77H933V1092Q933 1113 933 1136T935 1185T938 1247Q896 1195 849 1146T761 1056L474 768L378 864Z" horiz-adv-x="2000" unicode="↑"/>
			<glyph d="M1160 1275L1782 653L1160 31L1064 127L1351 414Q1393 455 1442 502T1542 591Q1508 589 1481 587T1432 585T1388 585H219V721H1388Q1409 721 1432 720T1481 718T1542 715Q1491 757 1442 804T1351 892L1064 1179Z" horiz-adv-x="2000" unicode="→"/>
			<glyph d="M932 1484H1068V314Q1068 294 1067 271T1065 221T1062 160Q1104 212 1151 261T1239 351L1526 639L1622 543L1000 -79L378 543L474 639L761 351Q802 310 849 261T938 160Q936 194 934 221T932 271T932 314Z" horiz-adv-x="2000" unicode="↓"/>
			<glyph d="M1302 1216V1080H896Q838 1080 770 1081T636 1090Q662 1067 681 1049T717 1015T748 985L1576 158L1480 62L652 889Q638 904 622 920T589 956T548 1002Q555 936 556 867T558 742V336H423V1215Z" horiz-adv-x="2000" unicode="↖"/>
			<glyph d="M673 1206H1553V327H1417V733Q1417 790 1418 858T1428 993Q1405 967 1386 947T1352 910T1322 879L1293 850L495 53L400 149L1227 976Q1242 991 1258 1006T1294 1040T1339 1081Q1274 1074 1205 1072T1079 1071H673Z" horiz-adv-x="2000" unicode="↗"/>
			<glyph d="M496 1254L1293 456Q1308 440 1322 425T1353 394T1387 358T1428 314Q1421 380 1419 448T1418 574V980H1553V100H674V236H1080Q1138 236 1206 234T1340 225Q1314 248 1294 266T1258 300T1227 330L400 1158Z" horiz-adv-x="2000" unicode="↘"/>
			<glyph d="M1482 1244L1577 1147L749 319Q735 305 718 289T682 256T638 215Q703 222 771 223T898 225H1304V90H424V969H560V564Q560 506 558 437T549 303Q572 329 590 348T624 384T654 416T684 446Z" horiz-adv-x="2000" unicode="↙"/>
			<glyph d="M346 1450Q497 1389 610 1310T806 1143T941 963T1027 784T1071 619T1084 483Q1084 376 1046 284T941 124T783 19T585 -19Q478 -19 387 18T229 119T124 272T87 463Q87 567 123 656T222 810T372 912T559 949Q655 949 736 909T875 797Q843 874 793 946T670 1086T501 1215T279 1331ZM585 808Q511 808 448 782T339 711T266 603T240 464Q240 389 266 326T339 217T448 146T585 121Q659 121 722 146T831 217T904 326T931 464Q931 540 904 603T831 711T722 782T585 808Z" horiz-adv-x="1192" unicode="∂"/>
			<glyph d="M1131 1033L1227 937L1099 809Q1144 748 1170 674T1196 520Q1196 421 1158 333T1055 179T902 76T715 38Q633 38 559 63T425 135L298 7L202 103L329 230Q283 291 257 364T232 520Q232 619 270 707T373 860T527 964T715 1003Q796 1003 869 977T1004 905ZM715 867Q643 867 579 839T469 765T394 655T367 520Q367 464 383 413T430 321L912 804Q870 834 820 850T715 867ZM999 717L518 235Q560 206 610 190T715 174Q786 174 849 201T959 275T1033 385T1061 520Q1061 575 1044 625T999 717Z" horiz-adv-x="1429" unicode="∅"/>
			<glyph d="M607 1402H805L1331 124V0H81V124ZM706 1239L262 152H1150Z" horiz-adv-x="1412" unicode="∆"/>
			<glyph d="M202 1400H1265V-265H1104V1248H363V-265H202Z" horiz-adv-x="1467" unicode="∏"/>
			<glyph d="M125 1400H1190V1248H360L914 623V534L356 -113H1193V-265H121V-140L743 575L125 1275Z" horiz-adv-x="1314" unicode="∑"/>
			<glyph d="M165 597H1035V461H165Z" horiz-adv-x="1200" unicode="−"/>
			<glyph d="M600 756Q646 756 687 738T760 689T809 617T827 529Q827 482 809 440T760 368T687 320T600 302Q552 302 511 320T439 368T390 440T373 529Q373 576 390 617T439 689T511 738T600 756Z" horiz-adv-x="1200" unicode="∙"/>
			<glyph d="M1038 1440H1202L629 -265H430L30 735H207L529 -76Z" horiz-adv-x="1238" unicode="√"/>
			<glyph d="M413 898Q472 898 522 877T620 820T716 732T820 621Q875 682 923 732T1020 820T1118 877T1227 898Q1300 898 1365 871T1480 796T1559 677T1589 520Q1589 433 1559 363T1480 244T1365 168T1227 142Q1168 142 1118 162T1020 219T923 307T820 419Q765 358 716 307T620 219T522 162T413 142Q340 142 274 168T159 244T81 363T52 520Q52 607 81 677T159 796T274 871T413 898ZM413 762Q368 762 328 746T258 699T211 623T194 520Q194 462 211 417T258 341T328 294T413 278Q450 278 483 293T552 338T630 413T729 520Q675 581 632 626T553 702T482 747T413 762ZM1227 762Q1191 762 1158 747T1089 702T1010 626T912 520Q967 459 1010 413T1089 338T1158 293T1227 278Q1272 278 1312 294T1382 341T1429 417T1446 520Q1446 578 1429 623T1382 699T1312 746T1227 762Z" horiz-adv-x="1642" unicode="∞"/>
			<glyph d="M537 1419Q598 1419 651 1407L611 1271Q595 1275 579 1277T547 1279Q460 1279 420 1226T381 1078V57Q381 -17 363 -79T309 -187T214 -258T75 -284Q13 -284 -39 -272L2 -136Q34 -144 65 -144Q152 -144 191 -91T231 57V1078Q231 1151 248 1213T303 1322T398 1393T537 1419Z" horiz-adv-x="667" unicode="∫"/>
			<glyph d="M165 412H1035V276H165ZM165 782H1035V646H165ZM415 1195Q462 1195 497 1188T562 1172T618 1152T670 1131T726 1115T794 1109Q843 1109 882 1129T966 1192L1048 1098Q993 1038 931 1009T784 980Q737 980 701 986T636 1002T581 1023T529 1043T472 1059T405 1066Q356 1066 316 1045T233 983L152 1077Q206 1137 267 1166T415 1195Z" horiz-adv-x="1200" unicode="≅"/>
			<glyph d="M415 820Q462 820 497 813T562 797T618 777T670 756T726 740T794 734Q843 734 882 754T966 817L1048 723Q993 663 931 634T784 605Q737 605 701 611T636 627T581 648T529 668T472 684T405 691Q356 691 316 670T233 608L152 702Q206 762 267 791T415 820ZM415 453Q462 453 497 446T562 430T618 410T670 389T726 373T794 367Q843 367 882 387T966 450L1048 356Q993 296 931 267T784 238Q737 238 701 244T636 260T581 281T529 301T472 317T405 324Q356 324 316 303T233 241L152 335Q206 395 267 424T415 453Z" horiz-adv-x="1200" unicode="≈"/>
			<glyph d="M165 412H1035V276H165ZM165 782H1035V646H165ZM500 1252H700L934 964H774L600 1153L425 964H265Z" horiz-adv-x="1200" unicode="≙"/>
			<glyph d="M775 1034H918L795 782H1035V646H728L614 412H1035V276H548L425 24H282L405 276H165V412H471L585 646H165V782H652Z" horiz-adv-x="1200" unicode="≠"/>
			<glyph d="M994 1088V930L368 677L994 424V266L207 603V750ZM207 181H994V45H207Z" horiz-adv-x="1200" unicode="≤"/>
			<glyph d="M207 1088L994 750V603L207 266V424L833 677L207 930ZM207 181H994V45H207Z" horiz-adv-x="1200" unicode="≥"/>
			<glyph d="M601 654Q626 654 648 644T688 617T715 577T725 530Q725 504 715 481T688 441T648 414T601 404Q576 404 553 414T513 441T485 481T475 530Q475 555 485 577T513 617T553 644T601 654Z" horiz-adv-x="1200" unicode="⋅"/>
			<glyph d="M1131 1033L1227 937L1099 809Q1144 748 1170 674T1196 520Q1196 421 1158 333T1055 179T902 76T715 38Q633 38 559 63T425 135L298 7L202 103L329 230Q283 291 257 364T232 520Q232 619 270 707T373 860T527 964T715 1003Q796 1003 869 977T1004 905ZM715 867Q643 867 579 839T469 765T394 655T367 520Q367 464 383 413T430 321L912 804Q870 834 820 850T715 867ZM999 717L518 235Q560 206 610 190T715 174Q786 174 849 201T959 275T1033 385T1061 520Q1061 575 1044 625T999 717Z" horiz-adv-x="1429" unicode="⌀"/>
			<glyph d="M1025 1582Q1147 1582 1260 1550T1472 1461T1652 1323T1790 1145T1879 935T1911 701Q1911 579 1879 466T1790 256T1652 77T1472 -61T1260 -150T1025 -182Q903 -182 789 -150T577 -61T398 77T259 256T170 466T139 701Q139 823 170 935T259 1145T398 1323T577 1461T789 1550T1025 1582ZM1025 1443Q923 1443 828 1416T650 1342T500 1226T384 1076T309 899T283 701Q283 598 309 503T384 325T500 175T650 58T827 -16T1025 -43Q1127 -43 1222 -16T1399 58T1550 175T1666 325T1741 503T1768 701Q1768 804 1741 899T1666 1076T1550 1226T1399 1342T1222 1416T1025 1443ZM1140 1145V290H1007V961L749 858V990Z" unicode="①"/>
			<glyph d="M1025 1582Q1147 1582 1260 1550T1472 1461T1652 1323T1790 1145T1879 935T1911 701Q1911 579 1879 466T1790 256T1652 77T1472 -61T1260 -150T1025 -182Q903 -182 789 -150T577 -61T398 77T259 256T170 466T139 701Q139 823 170 935T259 1145T398 1323T577 1461T789 1550T1025 1582ZM1025 1443Q923 1443 828 1416T650 1342T500 1226T384 1076T309 899T283 701Q283 598 309 503T384 325T500 175T650 58T827 -16T1025 -43Q1127 -43 1222 -16T1399 58T1550 175T1666 325T1741 503T1768 701Q1768 804 1741 899T1666 1076T1550 1226T1399 1342T1222 1416T1025 1443ZM1021 1146Q1088 1146 1141 1126T1231 1071T1287 987T1307 881Q1307 842 1296 807T1268 742T1227 684T1178 632L957 414H1332V290H765V394L1086 708Q1123 745 1145 784T1168 872Q1168 903 1157 930T1126 977T1076 1008T1010 1019Q976 1019 948 1011T898 989T857 957T823 920L735 1002Q753 1026 778 1051T838 1098T918 1132T1021 1146Z" unicode="②"/>
			<glyph d="M1025 1582Q1147 1582 1260 1550T1472 1461T1652 1323T1790 1145T1879 935T1911 701Q1911 579 1879 466T1790 256T1652 77T1472 -61T1260 -150T1025 -182Q903 -182 789 -150T577 -61T398 77T259 256T170 466T139 701Q139 823 170 935T259 1145T398 1323T577 1461T789 1550T1025 1582ZM1025 1443Q923 1443 828 1416T650 1342T500 1226T384 1076T309 899T283 701Q283 598 309 503T384 325T500 175T650 58T827 -16T1025 -43Q1127 -43 1222 -16T1399 58T1550 175T1666 325T1741 503T1768 701Q1768 804 1741 899T1666 1076T1550 1226T1399 1342T1222 1416T1025 1443ZM1012 1146Q1080 1146 1136 1129T1232 1081T1295 1008T1318 913Q1318 839 1278 789T1171 716Q1246 693 1291 642T1336 519Q1336 458 1309 412T1238 337T1136 292T1018 278Q926 278 852 307T729 391L806 478Q845 439 898 417T1012 395Q1049 395 1083 403T1143 427T1184 469T1199 527Q1199 558 1184 583T1142 624T1081 650T1006 659H894V774H1007Q1044 774 1075 782T1130 806T1167 846T1181 902Q1181 930 1168 953T1131 993T1076 1018T1005 1027Q941 1027 892 1000T814 938L733 1023Q777 1077 846 1111T1012 1146Z" unicode="③"/>
			<glyph d="M1025 1582Q1147 1582 1260 1550T1472 1461T1652 1323T1790 1145T1879 935T1911 701Q1911 579 1879 466T1790 256T1652 77T1472 -61T1260 -150T1025 -182Q903 -182 789 -150T577 -61T398 77T259 256T170 466T139 701Q139 823 170 935T259 1145T398 1323T577 1461T789 1550T1025 1582ZM1025 1443Q923 1443 828 1416T650 1342T500 1226T384 1076T309 899T283 701Q283 598 309 503T384 325T500 175T650 58T827 -16T1025 -43Q1127 -43 1222 -16T1399 58T1550 175T1666 325T1741 503T1768 701Q1768 804 1741 899T1666 1076T1550 1226T1399 1342T1222 1416T1025 1443ZM977 1134H1124L833 578H1076V810H1209V578H1343V455H1209V290H1076V455H674V549Z" unicode="④"/>
			<glyph d="M1025 1582Q1147 1582 1260 1550T1472 1461T1652 1323T1790 1145T1879 935T1911 701Q1911 579 1879 466T1790 256T1652 77T1472 -61T1260 -150T1025 -182Q903 -182 789 -150T577 -61T398 77T259 256T170 466T139 701Q139 823 170 935T259 1145T398 1323T577 1461T789 1550T1025 1582ZM1025 1443Q923 1443 828 1416T650 1342T500 1226T384 1076T309 899T283 701Q283 598 309 503T384 325T500 175T650 58T827 -16T1025 -43Q1127 -43 1222 -16T1399 58T1550 175T1666 325T1741 503T1768 701Q1768 804 1741 899T1666 1076T1550 1226T1399 1342T1222 1416T1025 1443ZM809 1135H1295V1012H926L918 805H1027Q1104 805 1162 787T1260 736T1320 656T1340 553Q1340 489 1316 438T1251 351T1153 297T1029 278Q934 278 858 310T728 400L800 495Q819 475 844 457T899 427T961 407T1028 400Q1112 400 1156 440T1201 544Q1201 576 1189 602T1153 648T1088 677T991 688H798Z" unicode="⑤"/>
			<glyph d="M1025 1582Q1147 1582 1260 1550T1472 1461T1652 1323T1790 1145T1879 935T1911 701Q1911 579 1879 466T1790 256T1652 77T1472 -61T1260 -150T1025 -182Q903 -182 789 -150T577 -61T398 77T259 256T170 466T139 701Q139 823 170 935T259 1145T398 1323T577 1461T789 1550T1025 1582ZM1025 1443Q923 1443 828 1416T650 1342T500 1226T384 1076T309 899T283 701Q283 598 309 503T384 325T500 175T650 58T827 -16T1025 -43Q1127 -43 1222 -16T1399 58T1550 175T1666 325T1741 503T1768 701Q1768 804 1741 899T1666 1076T1550 1226T1399 1342T1222 1416T1025 1443ZM1015 1135H1175L963 827Q980 832 998 834T1036 837Q1102 837 1157 815T1251 757T1313 670T1335 562Q1335 500 1311 448T1244 358T1144 299T1018 278Q950 278 891 299T790 357T723 446T699 558Q699 610 717 659T769 759ZM1018 724Q979 724 946 711T889 677T851 625T838 560Q838 524 851 494T889 443T946 409T1018 397Q1056 397 1089 409T1146 443T1183 495T1197 560Q1197 595 1183 625T1146 677T1089 711T1018 724Z" unicode="⑥"/>
			<glyph d="M1025 1582Q1147 1582 1260 1550T1472 1461T1652 1323T1790 1145T1879 935T1911 701Q1911 579 1879 466T1790 256T1652 77T1472 -61T1260 -150T1025 -182Q903 -182 789 -150T577 -61T398 77T259 256T170 466T139 701Q139 823 170 935T259 1145T398 1323T577 1461T789 1550T1025 1582ZM1025 1443Q923 1443 828 1416T650 1342T500 1226T384 1076T309 899T283 701Q283 598 309 503T384 325T500 175T650 58T827 -16T1025 -43Q1127 -43 1222 -16T1399 58T1550 175T1666 325T1741 503T1768 701Q1768 804 1741 899T1666 1076T1550 1226T1399 1342T1222 1416T1025 1443ZM751 1135H1357V1030L983 290H825L1200 1011H751Z" unicode="⑦"/>
			<glyph d="M1025 1582Q1147 1582 1260 1550T1472 1461T1652 1323T1790 1145T1879 935T1911 701Q1911 579 1879 466T1790 256T1652 77T1472 -61T1260 -150T1025 -182Q903 -182 789 -150T577 -61T398 77T259 256T170 466T139 701Q139 823 170 935T259 1145T398 1323T577 1461T789 1550T1025 1582ZM1025 1443Q923 1443 828 1416T650 1342T500 1226T384 1076T309 899T283 701Q283 598 309 503T384 325T500 175T650 58T827 -16T1025 -43Q1127 -43 1222 -16T1399 58T1550 175T1666 325T1741 503T1768 701Q1768 804 1741 899T1666 1076T1550 1226T1399 1342T1222 1416T1025 1443ZM1025 1146Q1088 1146 1144 1130T1242 1085T1308 1011T1333 913Q1333 875 1321 844T1289 789T1241 747T1183 717Q1219 705 1250 687T1304 644T1341 587T1355 516Q1355 459 1329 415T1258 340T1153 294T1025 278Q957 278 897 294T793 340T722 415T696 516Q696 556 709 587T746 644T800 687T867 717Q835 729 807 747T760 789T728 844T717 913Q717 968 741 1011T808 1085T906 1130T1025 1146ZM1025 665Q987 665 953 656T895 630T855 588T840 530Q840 497 855 471T895 429T953 403T1025 395Q1062 395 1096 403T1155 429T1196 471T1211 530Q1211 563 1196 588T1155 630T1096 656T1025 665ZM1025 1029Q990 1029 960 1021T907 996T871 956T858 901Q858 869 871 845T907 804T960 779T1025 771Q1060 771 1090 779T1144 804T1180 845T1193 901Q1193 932 1180 956T1144 996T1090 1021T1025 1029Z" unicode="⑧"/>
			<glyph d="M1025 1582Q1147 1582 1260 1550T1472 1461T1652 1323T1790 1145T1879 935T1911 701Q1911 579 1879 466T1790 256T1652 77T1472 -61T1260 -150T1025 -182Q903 -182 789 -150T577 -61T398 77T259 256T170 466T139 701Q139 823 170 935T259 1145T398 1323T577 1461T789 1550T1025 1582ZM1025 1443Q923 1443 828 1416T650 1342T500 1226T384 1076T309 899T283 701Q283 598 309 503T384 325T500 175T650 58T827 -16T1025 -43Q1127 -43 1222 -16T1399 58T1550 175T1666 325T1741 503T1768 701Q1768 804 1741 899T1666 1076T1550 1226T1399 1342T1222 1416T1025 1443ZM1037 1146Q1105 1146 1163 1125T1264 1066T1331 978T1355 867Q1355 814 1337 765T1286 665L1040 290H879L1091 597Q1058 587 1019 587Q953 587 897 608T802 667T741 754T719 863Q719 924 743 976T809 1066T910 1125T1037 1146ZM1037 1028Q998 1028 965 1015T909 981T871 930T858 865Q858 829 871 799T909 747T965 713T1037 701Q1076 701 1109 713T1166 747T1203 799T1217 865Q1217 900 1203 930T1166 981T1109 1015T1037 1028Z" unicode="⑨"/>
			<glyph d="M1025 1582Q1147 1582 1260 1550T1472 1461T1652 1323T1790 1145T1879 935T1911 701Q1911 579 1879 466T1790 256T1652 77T1472 -61T1260 -150T1025 -182Q903 -182 789 -150T577 -61T398 77T259 256T170 466T139 701Q139 823 170 935T259 1145T398 1323T577 1461T789 1550T1025 1582ZM1025 1443Q923 1443 828 1416T650 1342T500 1226T384 1076T309 899T283 701Q283 598 309 503T384 325T500 175T650 58T827 -16T1025 -43Q1127 -43 1222 -16T1399 58T1550 175T1666 325T1741 503T1768 701Q1768 804 1741 899T1666 1076T1550 1226T1399 1342T1222 1416T1025 1443ZM1025 1146Q1103 1146 1171 1116T1289 1031T1369 894T1398 713Q1398 611 1369 530T1289 393T1171 307T1025 278Q948 278 880 307T761 393T682 530T653 713Q653 814 682 894T761 1031T880 1116T1025 1146ZM1025 1019Q977 1019 934 998T859 939T809 843T791 712Q791 638 809 580T859 484T934 425T1025 405Q1074 405 1116 425T1191 484T1241 580T1260 712Q1260 786 1241 843T1191 939T1116 998T1025 1019Z" unicode="⓪"/>
			<glyph d="M1025 1146Q948 1146 880 1116T761 1031T682 894T653 713Q653 611 682 530T761 393T880 307T1025 278Q1103 278 1171 307T1289 393T1369 530T1398 713Q1398 814 1369 894T1289 1031T1171 1116T1025 1146ZM1025 1019Q1074 1019 1116 998T1191 939T1241 843T1260 712Q1260 638 1241 580T1191 484T1116 425T1025 405Q977 405 934 425T859 484T809 580T791 712Q791 786 809 843T859 939T934 998T1025 1019ZM1025 1568Q1146 1568 1257 1537T1466 1449T1642 1314T1779 1138T1867 931T1898 701Q1898 581 1867 470T1779 262T1642 86T1466 -49T1257 -137T1025 -168Q904 -168 792 -137T584 -49T407 86T271 262T184 470T153 701Q153 821 184 931T271 1138T407 1314T584 1449T792 1537T1025 1568Z" unicode="⓿"/>
			<glyph d="M97 1765L1057 806L2016 1765L2120 1659L1161 700L2120 -259L2016 -365L1057 595L97 -365L-8 -259L951 700L-8 1659Z" horiz-adv-x="2113" unicode="╳"/>
			<glyph d="M200 1400H900V0H200Z" horiz-adv-x="1800" unicode="▌"/>
			<glyph d="M200 1400H1600V0H200Z" horiz-adv-x="1800" unicode="■"/>
			<glyph d="M200 1400H1600V0H200ZM338 1262V138H1462V1262Z" horiz-adv-x="1800" unicode="□"/>
			<glyph d="M200 1400H900V0H200Z" horiz-adv-x="1800" unicode="▮"/>
			<glyph d="M900 1420L1720 0H80Z" horiz-adv-x="1800" unicode="▲"/>
			<glyph d="M900 1420L1720 0H80ZM900 1143L319 138H1481Z" horiz-adv-x="1800" unicode="△"/>
			<glyph d="M601 955L949 353H252Z" horiz-adv-x="1200" unicode="▴"/>
			<glyph d="M360 1002L963 653L360 304Z" horiz-adv-x="1200" unicode="▸"/>
			<glyph d="M80 1400H1720L900 -20Z" horiz-adv-x="1800" unicode="▼"/>
			<glyph d="M80 1400H1720L900 -20ZM319 1262L900 257L1481 1262Z" horiz-adv-x="1800" unicode="▽"/>
			<glyph d="M251 954H948L599 352Z" horiz-adv-x="1200" unicode="▾"/>
			<glyph d="M840 1002V304L237 653Z" horiz-adv-x="1200" unicode="◂"/>
			<glyph d="M900 1438L1638 700L900 -38L162 700Z" horiz-adv-x="1800" unicode="◆"/>
			<glyph d="M900 1438L1638 700L900 -38L162 700ZM900 1243L357 700L900 157L1443 700Z" horiz-adv-x="1800" unicode="◇"/>
			<glyph d="M688 1400H861L1448 700L861 0H688L101 700ZM771 1263L297 701L778 137L1253 700Z" horiz-adv-x="1549" unicode="◊"/>
			<glyph d="M900 1439Q1002 1439 1096 1412T1273 1338T1422 1222T1538 1073T1612 896T1639 700Q1639 598 1612 503T1538 327T1422 177T1273 62T1096 -12T900 -39Q798 -39 703 -12T527 62T377 177T262 327T187 503T161 700Q161 802 187 896T262 1073T377 1222T527 1338T703 1412T900 1439ZM900 1301Q817 1301 740 1279T596 1219T474 1125T381 1003T320 860T299 700Q299 575 346 466T474 275T665 146T900 99Q983 99 1060 120T1203 181T1325 275T1419 396T1479 540T1501 700Q1501 783 1479 860T1419 1003T1325 1125T1203 1219T1060 1279T900 1301Z" horiz-adv-x="1800" unicode="○"/>
			<glyph d="M900 1439Q1002 1439 1096 1412T1273 1338T1422 1222T1538 1073T1612 896T1639 700Q1639 598 1612 503T1538 327T1422 177T1273 62T1096 -12T900 -39Q798 -39 703 -12T527 62T377 177T262 327T187 503T161 700Q161 802 187 896T262 1073T377 1222T527 1338T703 1412T900 1439Z" horiz-adv-x="1800" unicode="●"/>
			<glyph d="M900 1439Q1002 1439 1096 1412T1273 1338T1422 1222T1538 1073T1612 896T1639 700Q1639 598 1612 503T1538 327T1422 177T1273 62T1096 -12T900 -39Q798 -39 703 -12T527 62T377 177T262 327T187 503T161 700Q161 802 187 896T262 1073T377 1222T527 1338T703 1412T900 1439ZM900 1301V99Q983 99 1060 120T1203 181T1325 275T1419 396T1479 540T1501 700Q1501 783 1479 860T1419 1003T1325 1125T1203 1219T1060 1279T900 1301Z" horiz-adv-x="1800" unicode="◐"/>
			<glyph d="M900 1439V-39Q798 -39 703 -12T527 62T377 177T262 327T187 503T161 700Q161 802 187 896T262 1073T377 1222T527 1338T703 1412T900 1439Z" horiz-adv-x="1800" unicode="◖"/>
			<glyph d="M200 1400H1600V0H200ZM900 1262V138H1462V1262Z" horiz-adv-x="1800" unicode="◧"/>
			<glyph d="M253 1547H1947V-147H253ZM368 1432V-32H1832V1432Z" horiz-adv-x="2200" unicode="☐"/>
			<glyph d="M253 1547H1947V-147H253ZM368 1432V-32H1832V1432ZM1573 1198L1666 1131L973 162L563 674L651 747L967 349Z" horiz-adv-x="2200" unicode="☑"/>
			<glyph d="M253 1547H1947V-147H253ZM368 1432V-32H1832V1432ZM693 1186L1100 779L1507 1186L1589 1105L1181 698L1586 293L1505 211L1100 616L695 211L614 293L1018 698L611 1105Z" horiz-adv-x="2200" unicode="☒"/>
			<glyph d="M620 1196Q675 1196 725 1178T815 1130T877 1060Q897 1024 900 984Q902 1024 923 1060Q946 1100 985 1130T1074 1178T1181 1196Q1242 1196 1294 1173T1384 1112T1443 1020T1465 905Q1465 813 1419 716T1296 523T1116 335T900 165Q786 244 683 335T503 523T380 716T335 905Q335 967 356 1020T416 1112T506 1173T620 1196Z" horiz-adv-x="1800" unicode="♥"/>
			<glyph d="M1621 1285L1730 1204L915 104L470 589L570 681L904 316Z" horiz-adv-x="2200" unicode="✓"/>
			<glyph d="M97 1765L1057 806L2016 1765L2120 1659L1161 700L2120 -259L2016 -365L1057 595L97 -365L-8 -259L951 700L-8 1659Z" horiz-adv-x="2113" unicode="✕"/>
			<glyph d="M640 1256L1100 796L1560 1256L1656 1160L1196 700L1656 240L1560 144L1100 604L640 144L544 240L1004 700L544 1160Z" horiz-adv-x="2200" unicode="✗"/>
			<glyph d="M1140 1145L749 990V858L1007 961V290H1140ZM1025 1568Q1146 1568 1257 1537T1466 1449T1642 1314T1779 1138T1867 931T1898 701Q1898 581 1867 470T1779 262T1642 86T1466 -49T1257 -137T1025 -168Q904 -168 792 -137T584 -49T407 86T271 262T184 470T153 701Q153 821 184 931T271 1138T407 1314T584 1449T792 1537T1025 1568Z" unicode="❶"/>
			<glyph d="M1021 1146Q964 1146 918 1132T838 1098T778 1051T735 1002L823 920Q839 939 857 957T898 989T948 1011T1010 1019Q1047 1019 1076 1008T1126 977T1157 930T1168 872Q1168 824 1145 784T1086 708L765 394V290H1332V414H957L1178 632Q1204 657 1227 684T1268 742T1296 807T1307 881Q1307 939 1287 987T1231 1071T1141 1126T1021 1146ZM1025 1568Q1146 1568 1257 1537T1466 1449T1642 1314T1779 1138T1867 931T1898 701Q1898 581 1867 470T1779 262T1642 86T1466 -49T1257 -137T1025 -168Q904 -168 792 -137T584 -49T407 86T271 262T184 470T153 701Q153 821 184 931T271 1138T407 1314T584 1449T792 1537T1025 1568Z" unicode="❷"/>
			<glyph d="M1025 1568Q1146 1568 1257 1537T1466 1449T1642 1314T1779 1138T1867 931T1898 701Q1898 581 1867 470T1779 262T1642 86T1466 -49T1257 -137T1025 -168Q904 -168 792 -137T584 -49T407 86T271 262T184 470T153 701Q153 821 184 931T271 1138T407 1314T584 1449T792 1537T1025 1568ZM1012 1146Q915 1146 846 1111T733 1023L814 938Q844 973 892 1000T1005 1027Q1044 1027 1076 1018T1131 993T1168 953T1181 902Q1181 870 1167 846T1130 806T1075 782T1007 774H894V659H1006Q1046 659 1081 650T1142 624T1184 583T1199 527Q1199 494 1184 469T1143 427T1083 403T1012 395Q952 395 898 417T806 478L729 391Q778 337 852 307T1018 278Q1079 278 1136 292T1238 337T1309 412T1336 519Q1336 591 1291 642T1171 716Q1239 739 1278 789T1318 913Q1318 965 1295 1008T1232 1081T1136 1129T1012 1146Z" unicode="❸"/>
			<glyph d="M1025 1568Q1146 1568 1257 1537T1466 1449T1642 1314T1779 1138T1867 931T1898 701Q1898 581 1867 470T1779 262T1642 86T1466 -49T1257 -137T1025 -168Q904 -168 792 -137T584 -49T407 86T271 262T184 470T153 701Q153 821 184 931T271 1138T407 1314T584 1449T792 1537T1025 1568ZM977 1134L674 549V455H1076V290H1209V455H1343V578H1209V810H1076V578H833L1124 1134Z" unicode="❹"/>
			<glyph d="M809 1135L798 688H991Q1048 688 1088 677T1153 648T1189 602T1201 544Q1201 480 1156 440T1028 400Q994 400 961 407T899 427T844 457T800 495L728 400Q782 343 858 310T1029 278Q1096 278 1153 297T1251 351T1316 438T1340 553Q1340 610 1320 656T1260 736T1162 787T1027 805H918L926 1012H1295V1135ZM1025 1568Q1146 1568 1257 1537T1466 1449T1642 1314T1779 1138T1867 931T1898 701Q1898 581 1867 470T1779 262T1642 86T1466 -49T1257 -137T1025 -168Q904 -168 792 -137T584 -49T407 86T271 262T184 470T153 701Q153 821 184 931T271 1138T407 1314T584 1449T792 1537T1025 1568Z" unicode="❺"/>
			<glyph d="M1025 1568Q1146 1568 1257 1537T1466 1449T1642 1314T1779 1138T1867 931T1898 701Q1898 581 1867 470T1779 262T1642 86T1466 -49T1257 -137T1025 -168Q904 -168 792 -137T584 -49T407 86T271 262T184 470T153 701Q153 821 184 931T271 1138T407 1314T584 1449T792 1537T1025 1568ZM1015 1135L769 759Q736 708 717 659T699 558Q699 498 723 446T790 357T891 299T1018 278Q1086 278 1144 299T1244 358T1311 448T1335 562Q1335 620 1313 670T1251 757T1157 815T1036 837Q1016 837 998 834T963 827L1175 1135ZM1018 724Q1056 724 1089 711T1146 677T1183 625T1197 560Q1197 525 1183 495T1146 443T1089 409T1018 397Q979 397 946 409T889 443T851 494T838 560Q838 595 851 625T889 677T946 711T1018 724Z" unicode="❻"/>
			<glyph d="M751 1135V1011H1200L825 290H983L1357 1030V1135ZM1025 1568Q1146 1568 1257 1537T1466 1449T1642 1314T1779 1138T1867 931T1898 701Q1898 581 1867 470T1779 262T1642 86T1466 -49T1257 -137T1025 -168Q904 -168 792 -137T584 -49T407 86T271 262T184 470T153 701Q153 821 184 931T271 1138T407 1314T584 1449T792 1537T1025 1568Z" unicode="❼"/>
			<glyph d="M1025 1568Q1146 1568 1257 1537T1466 1449T1642 1314T1779 1138T1867 931T1898 701Q1898 581 1867 470T1779 262T1642 86T1466 -49T1257 -137T1025 -168Q904 -168 792 -137T584 -49T407 86T271 262T184 470T153 701Q153 821 184 931T271 1138T407 1314T584 1449T792 1537T1025 1568ZM1025 1146Q962 1146 906 1130T808 1085T741 1011T717 913Q717 875 728 844T760 789T807 747T867 717Q831 705 800 687T746 644T709 587T696 516Q696 459 722 415T793 340T897 294T1025 278Q1092 278 1152 294T1257 340T1328 415T1355 516Q1355 556 1341 587T1304 644T1250 687T1183 717Q1214 729 1241 747T1289 789T1321 844T1333 913Q1333 968 1308 1011T1242 1085T1144 1130T1025 1146ZM1025 665Q1062 665 1096 656T1155 630T1196 588T1211 530Q1211 497 1196 472T1155 430T1096 404T1025 396Q987 396 953 404T895 430T855 472T840 530Q840 563 855 588T895 630T953 656T1025 665ZM1025 1028Q1059 1028 1090 1020T1143 996T1179 956T1193 901Q1193 869 1180 845T1144 804T1090 779T1025 771Q990 771 960 779T907 804T871 845T858 901Q858 932 871 956T907 996T960 1020T1025 1028Z" unicode="❽"/>
			<glyph d="M1025 1568Q1146 1568 1257 1537T1466 1449T1642 1314T1779 1138T1867 931T1898 701Q1898 581 1867 470T1779 262T1642 86T1466 -49T1257 -137T1025 -168Q904 -168 792 -137T584 -49T407 86T271 262T184 470T153 701Q153 821 184 931T271 1138T407 1314T584 1449T792 1537T1025 1568ZM1037 1146Q969 1146 910 1125T809 1066T743 976T719 863Q719 805 741 754T802 667T897 608T1019 587Q1058 587 1091 597L879 290H1040L1286 665Q1319 716 1337 765T1355 867Q1355 927 1331 978T1264 1066T1163 1125T1037 1146ZM1037 1028Q1076 1028 1109 1015T1166 981T1203 930T1217 865Q1217 829 1203 799T1166 747T1109 713T1037 701Q998 701 965 713T909 747T871 799T858 865Q858 900 871 930T909 981T965 1015T1037 1028Z" unicode="❾"/>
			<glyph d="M1140 1145L749 990V858L1007 961V290H1140ZM1025 1568Q1146 1568 1257 1537T1466 1449T1642 1314T1779 1138T1867 931T1898 701Q1898 581 1867 470T1779 262T1642 86T1466 -49T1257 -137T1025 -168Q904 -168 792 -137T584 -49T407 86T271 262T184 470T153 701Q153 821 184 931T271 1138T407 1314T584 1449T792 1537T1025 1568Z" unicode="➊"/>
			<glyph d="M1021 1146Q964 1146 918 1132T838 1098T778 1051T735 1002L823 920Q839 939 857 957T898 989T948 1011T1010 1019Q1047 1019 1076 1008T1126 977T1157 930T1168 872Q1168 824 1145 784T1086 708L765 394V290H1332V414H957L1178 632Q1204 657 1227 684T1268 742T1296 807T1307 881Q1307 939 1287 987T1231 1071T1141 1126T1021 1146ZM1025 1568Q1146 1568 1257 1537T1466 1449T1642 1314T1779 1138T1867 931T1898 701Q1898 581 1867 470T1779 262T1642 86T1466 -49T1257 -137T1025 -168Q904 -168 792 -137T584 -49T407 86T271 262T184 470T153 701Q153 821 184 931T271 1138T407 1314T584 1449T792 1537T1025 1568Z" unicode="➋"/>
			<glyph d="M1025 1568Q1146 1568 1257 1537T1466 1449T1642 1314T1779 1138T1867 931T1898 701Q1898 581 1867 470T1779 262T1642 86T1466 -49T1257 -137T1025 -168Q904 -168 792 -137T584 -49T407 86T271 262T184 470T153 701Q153 821 184 931T271 1138T407 1314T584 1449T792 1537T1025 1568ZM1012 1146Q915 1146 846 1111T733 1023L814 938Q844 973 892 1000T1005 1027Q1044 1027 1076 1018T1131 993T1168 953T1181 902Q1181 870 1167 846T1130 806T1075 782T1007 774H894V659H1006Q1046 659 1081 650T1142 624T1184 583T1199 527Q1199 494 1184 469T1143 427T1083 403T1012 395Q952 395 898 417T806 478L729 391Q778 337 852 307T1018 278Q1079 278 1136 292T1238 337T1309 412T1336 519Q1336 591 1291 642T1171 716Q1239 739 1278 789T1318 913Q1318 965 1295 1008T1232 1081T1136 1129T1012 1146Z" unicode="➌"/>
			<glyph d="M1025 1568Q1146 1568 1257 1537T1466 1449T1642 1314T1779 1138T1867 931T1898 701Q1898 581 1867 470T1779 262T1642 86T1466 -49T1257 -137T1025 -168Q904 -168 792 -137T584 -49T407 86T271 262T184 470T153 701Q153 821 184 931T271 1138T407 1314T584 1449T792 1537T1025 1568ZM977 1134L674 549V455H1076V290H1209V455H1343V578H1209V810H1076V578H833L1124 1134Z" unicode="➍"/>
			<glyph d="M809 1135L798 688H991Q1048 688 1088 677T1153 648T1189 602T1201 544Q1201 480 1156 440T1028 400Q994 400 961 407T899 427T844 457T800 495L728 400Q782 343 858 310T1029 278Q1096 278 1153 297T1251 351T1316 438T1340 553Q1340 610 1320 656T1260 736T1162 787T1027 805H918L926 1012H1295V1135ZM1025 1568Q1146 1568 1257 1537T1466 1449T1642 1314T1779 1138T1867 931T1898 701Q1898 581 1867 470T1779 262T1642 86T1466 -49T1257 -137T1025 -168Q904 -168 792 -137T584 -49T407 86T271 262T184 470T153 701Q153 821 184 931T271 1138T407 1314T584 1449T792 1537T1025 1568Z" unicode="➎"/>
			<glyph d="M1025 1568Q1146 1568 1257 1537T1466 1449T1642 1314T1779 1138T1867 931T1898 701Q1898 581 1867 470T1779 262T1642 86T1466 -49T1257 -137T1025 -168Q904 -168 792 -137T584 -49T407 86T271 262T184 470T153 701Q153 821 184 931T271 1138T407 1314T584 1449T792 1537T1025 1568ZM1015 1135L769 759Q736 708 717 659T699 558Q699 498 723 446T790 357T891 299T1018 278Q1086 278 1144 299T1244 358T1311 448T1335 562Q1335 620 1313 670T1251 757T1157 815T1036 837Q1016 837 998 834T963 827L1175 1135ZM1018 724Q1056 724 1089 711T1146 677T1183 625T1197 560Q1197 525 1183 495T1146 443T1089 409T1018 397Q979 397 946 409T889 443T851 494T838 560Q838 595 851 625T889 677T946 711T1018 724Z" unicode="➏"/>
			<glyph d="M751 1135V1011H1200L825 290H983L1357 1030V1135ZM1025 1568Q1146 1568 1257 1537T1466 1449T1642 1314T1779 1138T1867 931T1898 701Q1898 581 1867 470T1779 262T1642 86T1466 -49T1257 -137T1025 -168Q904 -168 792 -137T584 -49T407 86T271 262T184 470T153 701Q153 821 184 931T271 1138T407 1314T584 1449T792 1537T1025 1568Z" unicode="➐"/>
			<glyph d="M1025 1568Q1146 1568 1257 1537T1466 1449T1642 1314T1779 1138T1867 931T1898 701Q1898 581 1867 470T1779 262T1642 86T1466 -49T1257 -137T1025 -168Q904 -168 792 -137T584 -49T407 86T271 262T184 470T153 701Q153 821 184 931T271 1138T407 1314T584 1449T792 1537T1025 1568ZM1025 1146Q962 1146 906 1130T808 1085T741 1011T717 913Q717 875 728 844T760 789T807 747T867 717Q831 705 800 687T746 644T709 587T696 516Q696 459 722 415T793 340T897 294T1025 278Q1092 278 1152 294T1257 340T1328 415T1355 516Q1355 556 1341 587T1304 644T1250 687T1183 717Q1214 729 1241 747T1289 789T1321 844T1333 913Q1333 968 1308 1011T1242 1085T1144 1130T1025 1146ZM1025 665Q1062 665 1096 656T1155 630T1196 588T1211 530Q1211 497 1196 472T1155 430T1096 404T1025 396Q987 396 953 404T895 430T855 472T840 530Q840 563 855 588T895 630T953 656T1025 665ZM1025 1028Q1059 1028 1090 1020T1143 996T1179 956T1193 901Q1193 869 1180 845T1144 804T1090 779T1025 771Q990 771 960 779T907 804T871 845T858 901Q858 932 871 956T907 996T960 1020T1025 1028Z" unicode="➑"/>
			<glyph d="M1025 1568Q1146 1568 1257 1537T1466 1449T1642 1314T1779 1138T1867 931T1898 701Q1898 581 1867 470T1779 262T1642 86T1466 -49T1257 -137T1025 -168Q904 -168 792 -137T584 -49T407 86T271 262T184 470T153 701Q153 821 184 931T271 1138T407 1314T584 1449T792 1537T1025 1568ZM1037 1146Q969 1146 910 1125T809 1066T743 976T719 863Q719 805 741 754T802 667T897 608T1019 587Q1058 587 1091 597L879 290H1040L1286 665Q1319 716 1337 765T1355 867Q1355 927 1331 978T1264 1066T1163 1125T1037 1146ZM1037 1028Q1076 1028 1109 1015T1166 981T1203 930T1217 865Q1217 829 1203 799T1166 747T1109 713T1037 701Q998 701 965 713T909 747T871 799T858 865Q858 900 871 930T909 981T965 1015T1037 1028Z" unicode="➒"/>
			<glyph d="M901 1383L1066 872H1602L1169 557L1335 46L901 362L468 46L633 557L198 872H736Z" horiz-adv-x="1800" unicode="⭑"/>
			<glyph d="M901 1383L1066 872H1602L1169 557L1335 46L901 362L468 46L633 557L198 872H736ZM901 1083L803 780H483L741 592L643 288L901 476L1159 288L1061 592L1319 780H999Z" horiz-adv-x="1800" unicode="⭒"/>
			<glyph d="M746 883V752L183 547V678ZM746 558V427L183 222V353Z" horiz-adv-x="929" unicode="⸗"/>
			<glyph d="M309 1440H432V1001H640V881H432V673H309V881H101V1001H309Z" horiz-adv-x="741" unicode="⸸"/>
			</font>
</defs>
</svg>
