<?xml version="1.0" encoding="UTF-8"?>
<svg height="100%" width="100%" xmlns="http://www.w3.org/2000/svg">
	<defs>
		<font horiz-adv-x="2050" id="web">
			<font-face alphabetic="0" ascent="2028" descent="-507" font-family="" panose-1="2 11 5 4 2 2 1 1 1 4" units-per-em="2000"/>
			<missing-glyph d="M74 1400H1102V0H74ZM177 1297V103H999V1297Z" horiz-adv-x="1176"/>
			<glyph d="" horiz-adv-x="530" unicode=" "/>
			<glyph d="M380 1400H519L295 435H197ZM175 178Q194 178 211 170T242 150T262 119T270 83Q270 63 262 45T242 15T211 -6T175 -14Q156 -14 138 -6T108 15T87 45T79 83Q79 102 87 119T108 150T138 170T175 178Z" horiz-adv-x="504" unicode="!"/>
			<glyph d="M486 1440H600L497 956H383ZM798 1440H912L809 956H695Z" horiz-adv-x="985" unicode="&quot;"/>
			<glyph d="M677 1400H784L658 1025H1047L1173 1400H1280L1154 1025H1385L1351 923H1119L972 483H1203L1169 382H938L810 0H703L831 382H442L314 0H207L335 382H101L135 483H369L517 923H282L316 1025H551ZM623 923L476 483H865L1013 923Z" horiz-adv-x="1387" unicode="#"/>
			<glyph d="M902 1585H1008L965 1384Q1054 1370 1145 1335T1321 1235L1255 1142Q1179 1199 1099 1229T942 1273L831 748L844 746Q925 732 993 706T1110 639T1186 543T1214 415Q1214 332 1180 257T1079 127T914 38T687 5H673L632 -190H526L569 13Q521 20 468 33T362 67T258 116T161 184L230 278Q269 243 314 217T407 172T501 141T592 123L704 652L676 657Q501 688 412 770T323 988Q323 1062 352 1135T441 1266T594 1360T814 1396H837Q849 1396 862 1395ZM806 1285Q710 1285 642 1259T530 1193T467 1102T447 1003Q447 907 513 849T722 767L728 766L838 1284Q830 1285 822 1285ZM806 633L697 116Q794 116 868 139T991 202T1066 293T1092 402Q1092 496 1020 552T806 633Z" horiz-adv-x="1400" unicode="$"/>
			<glyph d="M590 1415Q661 1415 720 1391T823 1324T891 1221T916 1090Q916 1013 888 944T810 823T692 741T545 711Q474 711 414 735T310 802T242 904T218 1035Q218 1112 246 1181T324 1302T442 1384T590 1415ZM584 1314Q527 1314 479 1292T397 1233T344 1146T325 1041Q325 990 342 948T389 876T460 829T550 812Q607 812 654 834T736 893T790 979T809 1085Q809 1135 792 1177T746 1249T674 1297T584 1314ZM1488 1400H1615L560 0H433ZM1502 688Q1573 688 1632 664T1735 597T1803 494T1828 364Q1828 287 1800 218T1722 97T1604 14T1457 -16Q1386 -16 1326 8T1222 75T1154 178T1130 309Q1130 386 1158 455T1236 575T1354 657T1502 688ZM1496 587Q1439 587 1391 565T1309 506T1256 419T1237 314Q1237 264 1254 222T1301 149T1372 102T1462 85Q1519 85 1566 107T1648 166T1702 252T1721 358Q1721 409 1704 451T1658 523T1586 570T1496 587Z" horiz-adv-x="1948" unicode="%"/>
			<glyph d="M667 1415Q735 1415 792 1394T890 1337T955 1251T979 1144Q979 1073 949 1015T870 909T757 818T625 737L896 396L1178 738L1260 678L961 314L1212 0H1064L886 225Q842 175 794 131T693 55T579 4T448 -15Q368 -15 300 7T184 72T107 173T80 304Q80 388 112 455T199 577T322 677T463 763Q427 812 400 853T356 931T330 1005T322 1079Q322 1144 344 1205T409 1312T517 1387T667 1415ZM526 680Q462 643 403 604T299 521T227 426T201 314Q201 264 220 222T274 151T356 104T460 88Q515 88 562 103T652 147T737 216T821 306ZM661 1310Q608 1310 567 1291T497 1240T454 1165T440 1077Q440 1051 446 1024T467 968T504 901T563 819Q623 853 676 887T771 958T836 1039T860 1133Q860 1171 846 1203T806 1259T744 1296T661 1310Z" horiz-adv-x="1358" unicode="&amp;"/>
			<glyph d="M486 1440H600L497 956H383Z" horiz-adv-x="673" unicode="'"/>
			<glyph d="M783 1419L821 1317Q737 1292 663 1241T527 1122T417 968T335 789T284 595T266 396Q266 211 330 64T519 -180L459 -277Q304 -160 224 10T144 394Q144 505 164 616T224 831T319 1030T446 1202T601 1335T783 1419Z" horiz-adv-x="737" unicode="("/>
			<glyph d="M320 1415Q475 1298 555 1127T635 744Q635 633 614 522T555 306T460 107T333 -64T177 -197T-4 -281L-42 -179Q42 -154 116 -103T251 16T361 170T443 349T495 543T513 742Q513 927 448 1073T260 1318Z" horiz-adv-x="737" unicode=")"/>
			<glyph d="M581 1440H670L611 1164L881 1221L891 1134L619 1077L723 859L645 815L541 1034L346 840L285 899L480 1093L245 1203L288 1284L524 1174Z" horiz-adv-x="850" unicode="*"/>
			<glyph d="M636 955H741L661 578H1036L1015 475H639L560 103H454L533 475H163L184 578H555Z" horiz-adv-x="1200" unicode="+"/>
			<glyph d="M149 234H281L90 -249H-16Z" horiz-adv-x="476" unicode=","/>
			<glyph d="M163 578H697L675 475H142Z" horiz-adv-x="814" unicode="-"/>
			<glyph d="M172 177Q191 177 208 169T239 148T260 117T268 81Q268 62 260 44T239 14T208 -7T172 -15Q153 -15 135 -7T105 14T84 44T76 81Q76 100 84 117T105 148T135 169T172 177Z" horiz-adv-x="503" unicode="."/>
			<glyph d="M960 1540H1090L27 -200H-103Z" horiz-adv-x="984" unicode="/"/>
			<glyph d="M856 1415Q966 1415 1055 1376T1206 1265T1302 1093T1336 871Q1336 770 1315 665T1253 461T1154 276T1019 124T850 22T650 -15Q539 -15 450 24T298 135T202 307T169 529Q169 630 190 734T251 937T351 1123T486 1275T655 1377T856 1415ZM850 1303Q761 1303 685 1269T547 1179T438 1047T358 886T309 711T293 538Q293 436 319 354T393 215T508 127T656 97Q745 97 821 130T958 220T1067 352T1147 513T1195 687T1212 862Q1212 965 1186 1046T1112 1185T998 1272T850 1303Z" horiz-adv-x="1408" unicode="0"/>
			<glyph d="M816 1414L514 0H395L659 1238L195 1070L222 1198Z" horiz-adv-x="830" unicode="1"/>
			<glyph d="M662 1415Q760 1415 833 1384T954 1304T1027 1189T1051 1056Q1051 987 1030 925T972 805T881 690T762 575L239 112H915L891 0H38L56 92L678 645Q739 700 786 750T865 848T913 944T929 1046Q929 1095 912 1141T862 1223T776 1281T655 1303Q600 1303 550 1288T457 1247T378 1187T316 1115L239 1188Q269 1230 311 1270T408 1343T526 1395T662 1415Z" horiz-adv-x="1085" unicode="2"/>
			<glyph d="M660 1415Q750 1415 823 1390T948 1321T1028 1217T1056 1086Q1056 1026 1036 967T978 858T883 767T751 703Q840 665 891 591T943 418Q943 332 910 254T812 116T651 20T432 -15Q292 -15 185 30T19 153L99 231Q126 199 162 173T241 130T334 104T434 95Q534 95 607 122T729 194T800 296T823 416Q823 470 801 514T741 589T649 636T530 653H344L367 761H543Q635 761 707 788T830 859T907 959T934 1072Q934 1123 913 1165T854 1239T764 1287T649 1305Q592 1305 541 1292T447 1256T366 1202T300 1137L226 1217Q263 1262 308 1298T408 1361T524 1401T660 1415Z" horiz-adv-x="1078" unicode="3"/>
			<glyph d="M725 1399H863L188 418H699L784 817H902L817 418H1070L1046 307H793L728 0H610L675 307H19L39 402Z" horiz-adv-x="1135" unicode="4"/>
			<glyph d="M381 1400H1098L1075 1289H467L352 831H531Q669 831 762 792T909 688T978 541T978 371Q959 273 912 200T797 80T646 8T473 -15Q338 -15 224 38T36 199L124 268Q156 223 195 190T280 137T376 107T478 97Q552 97 616 117T730 173T812 262T857 380T858 506T807 614T692 690T503 719H216Z" horiz-adv-x="1120" unicode="5"/>
			<glyph d="M716 1400H864L436 856Q473 870 514 878T602 886Q696 886 779 855T923 768T1019 636T1055 469Q1055 371 1017 283T911 130T749 26T544 -12Q445 -12 360 18T212 104T113 236T78 407Q78 489 107 570T206 741ZM584 777Q499 777 428 748T307 669T228 553T200 412Q200 343 226 285T298 185T409 120T550 97Q634 97 704 126T825 204T904 321T932 463Q932 534 905 592T832 691T722 754T584 777Z" horiz-adv-x="1147" unicode="6"/>
			<glyph d="M265 1400H1190L1172 1303L351 0H211L1031 1289H241Z" horiz-adv-x="1076" unicode="7"/>
			<glyph d="M782 1415Q864 1415 940 1391T1076 1324T1170 1217T1206 1075Q1206 1012 1183 954T1118 848T1015 760T876 699Q924 679 963 650T1030 586T1073 506T1088 414Q1088 324 1048 245T935 109T760 18T533 -15Q443 -15 362 8T219 74T120 181T84 324Q84 392 107 453T174 566T282 655T430 716Q349 755 299 822T250 983Q250 1069 286 1147T390 1284T557 1379T782 1415ZM633 655Q535 655 456 630T323 562T238 460T209 336Q209 278 235 233T307 157T412 110T539 94Q636 94 715 118T849 186T935 287T966 412Q966 467 940 512T870 588T765 637T633 655ZM774 1305Q679 1305 604 1280T478 1212T400 1111T373 990Q373 937 395 894T457 821T552 774T673 758Q766 758 842 783T971 850T1053 948T1082 1066Q1082 1122 1056 1166T988 1241T890 1288T774 1305Z" horiz-adv-x="1223" unicode="8"/>
			<glyph d="M701 1412Q800 1412 885 1381T1033 1296T1131 1164T1167 993Q1167 911 1137 829T1038 659L529 0H381L809 544Q772 530 730 522T642 514Q547 514 465 545T321 631T225 763T190 931Q190 1029 228 1116T333 1269T495 1373T701 1412ZM694 1303Q610 1303 539 1274T418 1195T340 1079T312 937Q312 866 338 808T411 709T522 645T660 623Q745 623 816 652T938 730T1017 846T1045 988Q1045 1057 1019 1115T946 1215T835 1280T694 1303Z" horiz-adv-x="1147" unicode="9"/>
			<glyph d="M335 956Q354 956 371 948T402 927T422 896T430 860Q430 841 422 823T402 793T371 772T335 764Q315 764 298 772T267 793T246 823T239 860Q239 879 246 896T267 927T298 948T335 956ZM169 178Q188 178 205 170T236 150T257 119T265 83Q265 63 257 45T236 15T205 -6T169 -14Q150 -14 132 -6T102 15T81 45T73 83Q73 102 81 119T102 150T132 170T169 178Z" horiz-adv-x="503" unicode=":"/>
			<glyph d="M306 956Q325 956 342 948T373 927T394 896T402 860Q402 841 394 823T373 793T342 772T306 764Q287 764 269 772T239 793T218 823T210 860Q210 879 218 896T239 927T269 948T306 956ZM149 234H281L90 -249H-16Z" horiz-adv-x="476" unicode=";"/>
			<glyph d="M1086 952L1058 822L341 519L929 216L905 103L213 471L237 584Z" horiz-adv-x="1200" unicode="&lt;"/>
			<glyph d="M160 403H1012L989 299H137ZM235 754H1087L1064 651H212Z" horiz-adv-x="1200" unicode="="/>
			<glyph d="M329 952L1021 584L997 471L148 103L176 233L893 536L305 839Z" horiz-adv-x="1200" unicode="&gt;"/>
			<glyph d="M377 1414Q479 1414 566 1388T717 1316T817 1202T854 1051Q854 963 822 889T729 761T575 675T362 637L312 435H208L273 745H336Q433 745 505 766T627 825T700 917T725 1036Q725 1098 696 1146T618 1228T501 1279T356 1297Q339 1297 323 1296T294 1294L299 1411Q316 1413 336 1413T377 1414ZM192 177Q211 177 228 169T259 148T280 117T288 81Q288 62 280 44T259 14T228 -7T192 -15Q173 -15 155 -7T125 14T104 44T96 81Q96 100 104 117T125 148T155 169T192 177Z" horiz-adv-x="827" unicode="?"/>
			<glyph d="M1056 1298Q1211 1298 1343 1250T1572 1114T1723 904T1778 630Q1778 517 1752 419T1679 250T1566 137T1422 96Q1377 96 1342 109T1281 144T1239 194T1216 253Q1161 184 1083 144T910 104Q833 104 769 129T659 200T587 308T561 446Q561 536 594 617T685 761T821 859T989 896Q1095 896 1170 850T1284 722L1319 883H1416L1314 405Q1305 363 1305 329Q1305 258 1340 222T1430 186Q1484 186 1529 220T1606 313T1657 454T1675 628Q1675 759 1628 866T1498 1048T1300 1165T1048 1207Q936 1207 834 1178T646 1097T490 972T370 810T294 621T268 413Q268 267 317 150T451 -47T651 -171T898 -215Q1009 -215 1106 -187T1297 -92L1344 -166Q1239 -243 1126 -275T890 -307Q737 -307 604 -255T373 -110T219 115T163 409Q163 530 193 642T280 854T417 1034T597 1174T812 1265T1056 1298ZM993 802Q923 802 863 773T758 697T688 585T663 452Q663 395 681 348T734 267T814 214T917 196Q987 196 1047 224T1153 300T1224 412T1250 547Q1250 604 1231 651T1178 731T1096 783T993 802Z" horiz-adv-x="1919" unicode="@"/>
			<glyph d="M824 1400H974L1259 0H1134L1052 409H334L80 0H-53ZM877 1279L406 525H1028Z" horiz-adv-x="1406" unicode="A"/>
			<glyph d="M398 1400H910Q1003 1400 1082 1380T1218 1320T1308 1219T1340 1079Q1340 1018 1321 959T1264 851T1168 765T1034 709Q1091 691 1135 657T1206 578T1242 474T1236 351Q1213 246 1164 178T1041 71T870 15T651 0H100ZM363 656L248 115H669Q761 115 835 127T965 167T1057 241T1109 358Q1125 435 1109 491T1050 584T939 638T785 656ZM497 1285L388 770H789Q906 770 987 794T1118 860T1192 955T1215 1068Q1215 1126 1189 1167T1119 1235T1015 1273T888 1285Z" horiz-adv-x="1373" unicode="B"/>
			<glyph d="M936 1415Q973 1415 1018 1410T1114 1394T1216 1362T1317 1310T1412 1232T1492 1125L1398 1051Q1359 1120 1304 1167T1186 1244T1056 1285T929 1298Q839 1298 756 1275T603 1210T476 1110T378 978T316 822T294 647Q294 527 334 426T447 254T617 142T831 102Q963 102 1078 157T1273 312L1354 234Q1306 175 1246 128T1119 50T977 1T823 -16Q682 -16 561 32T353 166T215 373T166 637Q166 803 224 945T386 1191T630 1355T936 1415Z" horiz-adv-x="1493" unicode="C"/>
			<glyph d="M398 1400H851Q1006 1400 1127 1359T1331 1242T1458 1060T1502 823Q1502 651 1443 501T1270 239T987 64T599 0H100ZM497 1284L248 116H612Q798 116 940 169T1179 316T1324 537T1373 812Q1373 918 1339 1005T1239 1154T1071 1250T838 1284Z" horiz-adv-x="1559" unicode="D"/>
			<glyph d="M398 1400H1334L1310 1285H497L386 762H1180L1155 648H362L248 115H1072L1047 0H100Z" horiz-adv-x="1297" unicode="E"/>
			<glyph d="M398 1400H1327L1302 1284H497L386 763H1175L1150 647H361L224 0H100Z" horiz-adv-x="1249" unicode="F"/>
			<glyph d="M933 1414Q983 1414 1048 1405T1184 1370T1324 1297T1450 1176L1358 1093Q1314 1150 1261 1189T1151 1251T1035 1285T923 1296Q792 1296 677 1247T476 1110T341 902T292 640Q292 520 332 421T445 251T617 142T835 104Q949 104 1045 139T1215 242T1336 404T1403 620H932L957 733H1545Q1545 720 1544 705T1541 676Q1523 522 1463 395T1310 177T1093 36T824 -14Q682 -14 561 33T352 166T214 369T164 628Q164 740 191 842T267 1031T387 1189T542 1310T726 1387T933 1414Z" horiz-adv-x="1613" unicode="G"/>
			<glyph d="M398 1400H522L386 763H1274L1410 1400H1535L1236 0H1112L1249 647H361L224 0H100Z" horiz-adv-x="1537" unicode="H"/>
			<glyph d="M398 1400H522L224 0H100Z" horiz-adv-x="524" unicode="I"/>
			<glyph d="M979 1400H1103L911 472Q885 346 838 254T725 102T577 13T396 -15Q332 -15 272 0T161 40T67 102T-5 181L84 261Q106 229 139 200T213 149T301 115T401 102Q474 102 536 125T648 196T734 320T792 499Z" horiz-adv-x="1100" unicode="J"/>
			<glyph d="M398 1400H522L386 762H556L1263 1400H1427L648 706L1217 0H1068L548 646H361L224 0H100Z" horiz-adv-x="1334" unicode="K"/>
			<glyph d="M398 1400H522L248 116H1058L1034 0H100Z" horiz-adv-x="1174" unicode="L"/>
			<glyph d="M398 1400H575L876 306L1623 1400H1812L1514 0H1390L1656 1250L921 166H792L491 1253L224 0H100Z" horiz-adv-x="1813" unicode="M"/>
			<glyph d="M398 1400H513L1156 192L1413 1400H1538L1239 0H1126L481 1208L224 0H100Z" horiz-adv-x="1540" unicode="N"/>
			<glyph d="M931 1415Q1071 1415 1192 1369T1402 1240T1543 1036T1595 769Q1595 662 1569 562T1496 375T1380 216T1227 92T1041 12T829 -16Q689 -16 567 29T356 159T215 363T164 631Q164 738 189 837T263 1024T379 1183T533 1306T718 1386T931 1415ZM921 1298Q782 1298 666 1244T467 1101T338 891T292 640Q292 516 333 416T448 247T622 139T839 102Q931 102 1013 126T1166 194T1291 298T1386 432T1446 589T1467 760Q1467 884 1425 983T1310 1153T1137 1260T921 1298Z" horiz-adv-x="1662" unicode="O"/>
			<glyph d="M398 1400H865Q968 1400 1049 1375T1186 1303T1271 1191T1300 1044Q1300 945 1265 859T1158 708T978 607T724 570H345L224 0H100ZM497 1285L370 686H729Q846 686 930 713T1068 788T1147 898T1173 1033Q1173 1155 1089 1220T854 1285Z" horiz-adv-x="1287" unicode="P"/>
			<glyph d="M931 1415Q1071 1415 1192 1369T1402 1240T1543 1036T1595 769Q1595 625 1549 496T1421 263L1609 0H1471L1341 178Q1241 87 1111 35T829 -16Q689 -16 567 29T356 159T215 363T164 631Q164 738 189 837T263 1024T379 1183T533 1306T718 1386T931 1415ZM921 1298Q782 1298 666 1244T467 1101T338 891T292 640Q292 516 333 416T448 247T622 139T839 102Q970 102 1079 149T1270 277L979 684H1119L1346 367Q1404 451 1435 551T1467 760Q1467 884 1425 983T1310 1153T1137 1260T921 1298Z" horiz-adv-x="1672" unicode="Q"/>
			<glyph d="M398 1400H893Q996 1400 1075 1375T1208 1305T1289 1198T1317 1063Q1317 977 1286 897T1189 756T1022 658T779 621H689L1151 0H1005L554 621H356L224 0H100ZM497 1284L379 732H783Q890 732 967 756T1093 824T1166 925T1189 1050Q1189 1103 1169 1146T1111 1220T1014 1267T881 1284Z" horiz-adv-x="1317" unicode="R"/>
			<glyph d="M775 1415Q835 1415 900 1407T1033 1380T1168 1330T1298 1251L1230 1153Q1173 1196 1112 1224T992 1268T876 1292T768 1299Q664 1299 590 1273T469 1205T400 1112T379 1010Q379 912 448 853T668 769L795 748Q881 733 953 706T1076 637T1157 538T1186 406Q1186 320 1150 243T1043 109T868 17T627 -16Q573 -16 504 -7T362 23T216 79T79 168L152 267Q206 220 270 188T399 136T524 108T632 100Q737 100 816 124T950 188T1031 281T1058 392Q1058 489 982 546T754 630L625 652Q442 683 346 769T250 995Q250 1071 281 1146T376 1281T540 1378T775 1415Z" horiz-adv-x="1318" unicode="S"/>
			<glyph d="M238 1400H1346L1321 1284H833L560 0H435L708 1284H213Z" horiz-adv-x="1188" unicode="T"/>
			<glyph d="M378 1400H503L324 563Q316 525 312 492T309 428Q309 342 337 280T414 178T530 120T675 102Q766 102 847 128T995 209T1109 348T1181 549L1361 1400H1486L1304 540Q1273 395 1213 290T1070 117T883 17T661 -15Q562 -15 475 10T322 87T219 219T182 408Q182 443 186 481T199 561Z" horiz-adv-x="1469" unicode="U"/>
			<glyph d="M245 1400H369L625 119L1407 1400H1538L680 0H530Z" horiz-adv-x="1387" unicode="V"/>
			<glyph d="M1231 1402H1364L1518 137L2193 1400H2322L1567 0H1421L1267 1236L607 0H456L273 1400H397L557 133Z" horiz-adv-x="2199" unicode="W"/>
			<glyph d="M287 1400H423L738 809L1298 1400H1451L796 710L1180 0H1044L710 617L128 0H-25L651 716Z" horiz-adv-x="1354" unicode="X"/>
			<glyph d="M212 1400H344L672 720L1278 1400H1433L713 599L586 0H462L591 610Z" horiz-adv-x="1249" unicode="Y"/>
			<glyph d="M318 1400H1370L1350 1303L237 116H1135L1110 0H48L71 103L1182 1284H293Z" horiz-adv-x="1310" unicode="Z"/>
			<glyph d="M398 1400H842L820 1294H492L183 -157H511L488 -263H44Z" horiz-adv-x="725" unicode="["/>
			<glyph d="M245 1540H354L642 -200H533Z" horiz-adv-x="843" unicode="\"/>
			<glyph d="M279 1400H723L369 -263H-75L-53 -157H274L583 1294H256Z" horiz-adv-x="725" unicode="]"/>
			<glyph d="M613 1400H725L1081 656H957L667 1282L378 656H257Z" horiz-adv-x="1200" unicode="^"/>
			<glyph d="M-137 -150H808L787 -253H-159Z" horiz-adv-x="935" unicode="_"/>
			<glyph d="M380 1382H524L744 1082H631Z" horiz-adv-x="904" unicode="`"/>
			<glyph d="M625 956Q693 956 750 938T851 890T927 816T976 722L1023 941H1136L936 0H823L854 143Q789 71 699 28T495 -15Q406 -15 331 16T203 102T118 234T88 400Q88 511 129 612T243 789T413 911T625 956ZM622 849Q535 849 459 814T326 719T237 580T205 411Q205 343 226 284T288 183T386 116T515 92Q593 92 662 120T787 197T879 314T928 462Q940 543 923 613T866 736T763 819T622 849Z" horiz-adv-x="1210" unicode="a"/>
			<glyph d="M380 1440H494L359 807Q423 876 511 916T709 956Q799 956 875 924T1006 837T1092 706T1123 541Q1123 430 1081 329T968 151T798 30T586 -15Q518 -15 461 2T359 50T282 124T235 218L188 0H74ZM696 849Q618 849 548 821T424 743T332 626T283 479Q271 398 287 327T345 204T448 122T589 92Q676 92 752 126T884 221T973 360T1006 530Q1006 597 984 655T922 757T825 824T696 849Z" horiz-adv-x="1212" unicode="b"/>
			<glyph d="M617 955Q738 955 830 910T981 780L892 716Q863 753 829 778T759 819T685 841T612 848Q527 848 454 815T327 726T242 594T211 433Q211 359 236 297T304 190T408 119T538 94Q617 94 688 122T814 205L880 130Q813 61 723 24T533 -13Q435 -13 354 20T215 113T125 252T94 426Q94 535 134 631T244 799T409 913T617 955Z" horiz-adv-x="1008" unicode="c"/>
			<glyph d="M1129 1440H1243L937 0H824L854 145Q790 72 699 28T495 -15Q406 -15 331 16T203 102T118 234T88 400Q88 511 129 612T243 789T413 911T625 956Q693 955 750 937T851 889T927 816T976 722ZM622 849Q535 849 459 814T326 719T237 580T205 411Q205 343 226 284T288 183T386 116T515 92Q593 92 662 120T787 197T879 314T928 462Q940 543 923 613T866 736T763 819T622 849Z" horiz-adv-x="1211" unicode="d"/>
			<glyph d="M618 956Q704 956 774 929T895 854T973 737T1001 585Q1001 545 994 503T976 429H202Q201 420 201 411V394Q201 326 222 269T284 171T384 107T517 84Q617 84 692 116T833 209L890 130Q809 56 717 20T505 -16Q406 -16 328 15T196 100T114 229T86 390Q86 458 102 526T150 657T227 774T332 869T463 933T618 956ZM613 855Q533 855 467 827T352 754T269 650T219 527H884Q886 541 887 554T888 582Q888 645 868 695T812 781T725 836T613 855Z" horiz-adv-x="1078" unicode="e"/>
			<glyph d="M761 1455Q830 1455 890 1434T991 1379L935 1290Q900 1318 851 1333T760 1348Q719 1348 683 1334T618 1293T567 1221T532 1118L494 941H876L854 837H472L294 0H179L357 837H131L152 941H379L420 1133Q454 1292 540 1373T761 1455Z" horiz-adv-x="839" unicode="f"/>
			<glyph d="M623 956Q692 956 749 938T851 890T927 816T976 721L1023 941H1136L949 57Q925 -57 876 -144T759 -289T609 -378T434 -408Q310 -408 208 -370T29 -261L95 -176Q159 -237 246 -271T436 -305Q508 -305 573 -280T691 -209T782 -93T837 64L854 150Q791 79 703 38T510 -2Q415 -2 338 29T205 114T120 244T90 406Q90 519 131 619T245 794T414 912T623 956ZM622 849Q535 849 459 816T328 725T240 588T208 417Q208 349 230 291T293 192T390 127T515 104Q596 104 667 132T794 212T884 335T928 490Q936 566 917 631T857 745T756 821T622 849Z" horiz-adv-x="1211" unicode="g"/>
			<glyph d="M380 1440H494L360 810Q428 888 513 922T689 956Q772 956 836 932T945 865T1013 762T1037 631Q1037 607 1033 580T1024 525L912 0H798L911 530Q916 553 918 574T921 617Q921 667 905 709T858 782T780 830T670 848Q601 848 541 826T433 762T351 662T301 531L188 0H74Z" horiz-adv-x="1176" unicode="h"/>
			<glyph d="M274 941H389L188 0H74ZM402 1362Q437 1362 460 1338T484 1279Q484 1244 460 1221T402 1198Q367 1198 344 1221T321 1279Q321 1314 344 1338T402 1362Z" horiz-adv-x="463" unicode="i"/>
			<glyph d="M279 941H394L155 -183Q131 -298 66 -355T-93 -412Q-136 -412 -173 -400T-235 -371L-192 -278Q-174 -290 -150 -297T-100 -305Q-45 -305 -8 -270T43 -168ZM407 1362Q442 1362 465 1338T489 1279Q489 1244 465 1221T407 1198Q372 1198 349 1221T326 1279Q326 1314 349 1338T407 1362Z" horiz-adv-x="468" unicode="j"/>
			<glyph d="M380 1440H494L303 544H452L897 941H1047L529 486L879 0H750L437 441H281L188 0H74Z" horiz-adv-x="1013" unicode="k"/>
			<glyph d="M380 1440H494L188 0H74Z" horiz-adv-x="462" unicode="l"/>
			<glyph d="M689 956Q755 956 809 940T904 897T974 831T1018 745Q1054 800 1100 840T1197 905T1303 943T1414 956Q1496 956 1561 932T1670 865T1738 762T1762 631Q1762 580 1750 525L1636 0H1522L1635 530Q1645 573 1645 617Q1645 667 1629 709T1583 782T1504 830T1394 848Q1325 848 1265 826T1157 762T1075 662T1026 531L912 0H798L911 530Q925 594 918 652T883 753T801 821T670 847Q601 847 541 825T433 761T351 661T301 530L188 -1H74L274 940H387L359 809Q427 887 513 921T689 956Z" horiz-adv-x="1902" unicode="m"/>
			<glyph d="M689 956Q772 956 836 932T945 865T1013 762T1037 631Q1037 607 1033 580T1024 525L912 0H798L911 530Q916 553 918 574T921 617Q921 667 905 709T858 782T780 830T670 848Q601 848 541 826T433 762T351 662T301 531L188 0H74L274 941H387L359 808Q427 886 513 921T689 956Z" horiz-adv-x="1176" unicode="n"/>
			<glyph d="M622 956Q721 956 803 923T944 831T1036 691T1069 517Q1069 408 1028 311T917 141T749 26T540 -16Q442 -16 359 17T218 108T126 247T93 424Q93 533 133 629T245 798T412 913T622 956ZM613 849Q527 849 453 815T326 725T241 591T210 430Q210 356 235 294T304 187T411 116T547 91Q633 91 707 124T836 215T922 348T953 511Q953 584 928 646T858 753T750 823T613 849Z" horiz-adv-x="1162" unicode="o"/>
			<glyph d="M715 956Q804 956 879 924T1008 837T1092 706T1123 541Q1123 430 1081 329T967 151T797 30T585 -15Q517 -15 460 2T358 50T282 124T234 218L103 -400H-11L274 941H387L356 796Q420 868 510 912T715 956ZM695 849Q617 849 547 821T423 743T332 626T283 479Q271 398 287 327T344 204T447 122T588 92Q675 92 751 126T884 221T973 360T1006 530Q1006 597 984 655T922 757T824 824T695 849Z" horiz-adv-x="1212" unicode="p"/>
			<glyph d="M625 956Q693 955 750 937T851 889T927 816T976 722L1023 941H1136L851 -400H736L850 131Q786 64 698 24T502 -15Q412 -15 336 16T205 102T119 234T88 400Q88 511 129 612T243 789T413 911T625 956ZM622 849Q535 849 459 814T326 719T237 580T205 411Q205 343 226 284T288 183T386 116T515 92Q593 92 662 120T787 197T879 314T928 462Q940 543 923 613T866 736T763 819T622 849Z" horiz-adv-x="1210" unicode="q"/>
			<glyph d="M655 957Q701 957 748 945T830 914L779 811Q752 828 713 838T635 848Q575 848 521 826T424 763T348 662T300 528L188 0H74L274 941H387L361 818Q423 891 499 924T655 957Z" horiz-adv-x="788" unicode="r"/>
			<glyph d="M529 956Q649 956 747 925T908 849L848 762Q822 781 786 798T708 828T620 848T528 856Q475 856 429 845T348 815T292 766T267 700Q258 629 303 588T452 531L547 517Q697 494 764 425T820 251Q812 189 780 140T696 56T576 3T425 -15Q370 -15 314 -5T204 21T104 62T20 116L84 200Q114 176 151 155T232 118T324 93T423 84Q480 84 529 94T616 126T675 178T703 250Q718 384 516 415L419 430Q340 442 286 466T199 525T155 602T149 695Q156 758 187 806T269 888T385 938T529 956Z" horiz-adv-x="950" unicode="s"/>
			<glyph d="M432 1248H546L481 941H894L872 837H459L355 345Q341 279 348 231T378 152T438 107T518 92Q578 92 631 111T734 167L782 79Q725 36 657 10T505 -15Q432 -15 374 8T280 76T232 190T240 348L344 837H130L152 941H366Z" horiz-adv-x="888" unicode="t"/>
			<glyph d="M264 941H379L266 411Q255 361 255 322Q255 263 275 220T329 148T411 106T513 92Q577 92 635 111T740 170T821 267T872 404L986 941H1101L983 384Q962 282 916 207T806 82T664 9T500 -15Q424 -15 358 6T243 68T167 169T140 310Q140 360 152 417Z" horiz-adv-x="1165" unicode="u"/>
			<glyph d="M132 941H248L432 108L961 941H1085L480 -2H348Z" horiz-adv-x="1017" unicode="v"/>
			<glyph d="M148 941H263L412 120L860 941H986L1144 119L1627 941H1752L1193 0H1058L906 821L458 0H325Z" horiz-adv-x="1699" unicode="w"/>
			<glyph d="M135 941H262L498 555L874 941H1012L555 473L845 0H719L473 396L92 0H-45L420 482Z" horiz-adv-x="980" unicode="x"/>
			<glyph d="M122 941H243L524 327L966 941H1096L121 -403H-9L451 225Z" horiz-adv-x="1012" unicode="y"/>
			<glyph d="M223 941H993L974 854L211 103H840L818 0H34L52 89L820 837H200Z" horiz-adv-x="1023" unicode="z"/>
			<glyph d="M871 1400H927L905 1294H859Q804 1294 757 1281T675 1238T615 1157T580 1029L560 889Q550 815 527 760T471 666T394 602T299 564Q388 530 422 448T424 248L384 103Q366 37 370 -11T398 -92T460 -140T550 -156H616L594 -262H528Q445 -262 386 -233T295 -152T256 -28T274 130L310 261Q327 325 321 373T292 453T226 500T130 516L152 622Q213 622 261 636T346 683T406 765T441 888L463 1039Q477 1137 511 1206T598 1318T719 1380T871 1400Z" horiz-adv-x="830" unicode="{"/>
			<glyph d="M478 1400H592L238 -265H124Z" horiz-adv-x="674" unicode="|"/>
			<glyph d="M278 1400H344Q426 1400 485 1371T577 1290T615 1166T598 1008L562 877Q545 812 550 764T580 685T645 637T742 622L720 516Q598 516 525 454T431 250L409 99Q395 1 360 -68T273 -180T152 -242T1 -262H-55L-33 -156H13Q68 -156 114 -143T197 -100T257 -19T292 109L312 249Q322 322 344 377T400 471T477 535T572 574Q484 608 450 689T448 890L488 1035Q506 1101 501 1149T474 1230T412 1278T322 1294H256Z" horiz-adv-x="830" unicode="}"/>
			<glyph d="M440 622Q506 622 548 608T625 576T699 545T794 531Q851 531 897 553T993 620L1044 543Q981 488 918 460T778 433Q734 433 701 439T642 456T593 478T545 500T491 517T424 524Q367 524 321 501T226 435L174 512Q237 567 300 594T440 622Z" horiz-adv-x="1200" unicode="~"/>
			<glyph d="" horiz-adv-x="530" unicode=" "/>
			<glyph d="M209 506H307L124 -459H-15ZM329 955Q348 955 365 947T396 926T417 895T425 858Q425 839 417 821T396 791T365 770T329 763Q310 763 292 770T262 791T241 821T234 858Q234 877 241 895T262 926T292 947T329 955Z" horiz-adv-x="504" unicode="¡"/>
			<glyph d="M901 1400H1007L959 1175Q1047 1160 1115 1118T1232 1010L1146 946Q1100 1001 1046 1030T937 1070L777 321H784Q865 321 937 349T1067 432L1130 358Q1062 289 971 252T780 215H767Q761 215 755 216L709 0H603L652 231Q579 250 520 289T420 384T356 508T334 655Q334 763 373 858T482 1025T647 1139T855 1183ZM832 1077Q751 1072 681 1037T559 946T478 817T449 662Q449 603 465 551T512 457T583 384T675 338Z" horiz-adv-x="1400" unicode="¢"/>
			<glyph d="M989 1415Q1107 1415 1196 1370T1336 1234L1238 1170Q1197 1237 1131 1270T981 1303Q922 1303 866 1283T764 1221T680 1110T622 943L581 752H1107L1085 648H559L446 112H1149L1125 0H121L145 112H328L441 648H259L281 752H463L510 972Q534 1087 581 1170T692 1308T832 1389T989 1415Z" horiz-adv-x="1400" unicode="£"/>
			<glyph d="M436 1172L534 1048Q592 1086 660 1106T802 1122Q877 1117 941 1089T1055 1014L1224 1155L1281 1083L1113 945Q1151 888 1167 820T1175 677Q1165 599 1130 532T1041 413L1138 291L1061 228L964 350Q906 312 838 292T698 277Q621 282 556 310T443 386L275 246L218 318L385 455Q348 512 332 580T325 723Q335 800 369 866T457 985L360 1108ZM790 1028Q721 1032 657 1009T544 944T461 843T420 717Q411 648 429 587T486 479T582 403T709 371T841 389T955 454T1038 555T1080 683Q1088 751 1069 812T1012 920T916 996T790 1028Z" horiz-adv-x="1400" unicode="¤"/>
			<glyph d="M322 1400H454L757 786L1321 1400H1466L867 748H1218L1197 653H797L750 433H1151L1131 338H730L658 0H541L612 338H212L233 433H632L679 653H279L300 748H649Z" horiz-adv-x="1400" unicode="¥"/>
			<glyph d="M478 1400H592L444 706H330ZM272 429H386L238 -265H124Z" horiz-adv-x="674" unicode="¦"/>
			<glyph d="M807 1415Q879 1415 944 1403T1064 1372T1166 1326T1247 1269L1177 1181Q1146 1207 1106 1230T1019 1270T917 1298T802 1308Q727 1308 661 1291T546 1247T464 1180T424 1099Q413 1045 425 1004T470 936T556 892T678 867L791 855Q875 846 943 819T1058 751T1123 652T1127 526Q1110 445 1055 385T920 288Q975 246 1000 182T1010 35Q995 -39 950 -98T838 -198T683 -262T497 -285Q425 -285 356 -272T227 -237T115 -185T30 -122L105 -36Q133 -62 174 -88T266 -134T377 -166T503 -179Q581 -179 648 -163T767 -120T851 -52T894 36Q905 91 889 131T837 198T745 242T623 266L504 280Q419 290 353 315T246 381T187 475T185 595Q203 680 257 739T392 838Q335 880 312 943T307 1096Q321 1166 364 1224T474 1325T625 1391T807 1415ZM488 790Q413 761 363 712T300 603Q289 552 302 514T350 449T442 405T574 381L687 369Q725 364 760 356T828 337Q902 366 953 412T1016 517Q1027 570 1010 611T953 681T856 728T728 753L609 765Q576 769 545 775T488 790Z" horiz-adv-x="1247" unicode="§"/>
			<glyph d="M420 1310Q455 1310 478 1286T502 1227Q502 1192 478 1169T420 1146Q385 1146 362 1169T339 1227Q339 1262 362 1286T420 1310ZM829 1310Q864 1310 888 1286T912 1227Q912 1192 888 1169T829 1146Q794 1146 771 1169T748 1227Q748 1262 771 1286T829 1310Z" horiz-adv-x="914" unicode="¨"/>
			<glyph d="M1050 1496Q1152 1496 1247 1471T1425 1399T1577 1287T1695 1139T1772 962T1799 760Q1799 650 1769 545T1684 346T1551 172T1377 35T1171 -54T939 -86Q837 -86 742 -61T563 10T411 123T293 270T216 448T189 650Q189 760 219 865T304 1065T437 1238T610 1374T817 1464T1050 1496ZM1042 1396Q936 1396 839 1367T660 1289T509 1169T393 1017T320 843T294 656Q294 517 346 399T487 195T694 62T946 14Q1052 14 1149 42T1329 121T1479 241T1595 393T1669 567T1695 754Q1695 847 1671 930T1604 1085T1501 1214T1368 1312T1213 1374T1042 1396ZM1045 1130Q1102 1130 1155 1116T1253 1078T1335 1017T1395 937L1303 884Q1281 924 1250 952T1183 997T1111 1022T1040 1030Q965 1030 901 1001T792 924T721 811T696 675Q696 608 719 553T782 461T876 402T991 381Q1071 381 1141 415T1257 513L1327 449Q1267 370 1179 325T986 281Q905 281 832 308T705 385T619 508T588 669Q588 763 621 846T716 993T860 1093T1045 1130Z" horiz-adv-x="1888" unicode="©"/>
			<glyph d="M507 1298Q565 1298 612 1283T692 1239T742 1170T760 1077Q760 1060 758 1041T752 1003L673 634H581L599 720Q554 676 494 649T364 623Q316 623 277 635T210 670T166 725T151 797Q151 839 167 878T219 946T307 993T436 1011H658Q665 1039 665 1067Q665 1139 619 1176T490 1214Q425 1214 375 1194T284 1149L257 1226Q311 1260 371 1279T507 1298ZM443 940Q390 940 353 928T294 898T261 856T251 808Q251 757 288 729T390 702Q453 702 512 730T616 806L644 940Z" horiz-adv-x="741" unicode="ª"/>
			<glyph d="M788 891H917L637 515L750 163H634L518 527ZM409 891H538L258 515L371 163H255L139 527Z" horiz-adv-x="998" unicode="«"/>
			<glyph d="M183 578H1035L946 158H840L907 475H161Z" horiz-adv-x="1200" unicode="¬"/>
			<glyph d="M163 578H697L675 475H142Z" horiz-adv-x="814" unicode="­"/>
			<glyph d="M619 1431Q692 1431 758 1404T873 1330T951 1217T980 1073Q980 993 948 919T860 788T730 698T568 664Q494 664 428 690T312 764T233 877T204 1022Q204 1103 236 1177T324 1307T456 1397T619 1431ZM615 1361Q544 1361 483 1333T377 1259T306 1152T280 1026Q280 961 303 907T366 815T459 755T571 734Q641 734 702 762T807 837T877 944T903 1069Q903 1133 880 1187T817 1279T725 1339T615 1361ZM497 1236H645Q678 1236 704 1226T746 1198T768 1158T768 1112Q757 1064 718 1039T620 1012L728 868H656L554 1012H512L482 868H419ZM548 1181L523 1063H613Q649 1063 672 1075T704 1117Q712 1145 693 1163T639 1181Z" horiz-adv-x="938" unicode="®"/>
			<glyph d="M335 1273H920L900 1180H315Z" horiz-adv-x="904" unicode="¯"/>
			<glyph d="M534 1413Q600 1413 656 1389T755 1323T820 1226T844 1107Q844 1037 816 973T741 861T628 784T487 755Q421 755 364 779T266 844T201 941T178 1061Q178 1131 204 1195T278 1307T391 1384T534 1413ZM529 1321Q477 1321 431 1300T351 1245T297 1164T277 1067Q277 1021 293 981T339 911T407 865T493 848Q544 848 589 868T669 924T724 1004T744 1101Q744 1146 727 1186T682 1256T613 1303T529 1321Z" horiz-adv-x="761" unicode="°"/>
			<glyph d="M674 1088H779L702 727H1078L1056 623H680L611 298H506L575 623H204L226 727H597ZM109 176H961L938 72H87Z" horiz-adv-x="1200" unicode="±"/>
			<glyph d="M487 1408Q544 1408 586 1390T656 1344T697 1279T711 1204Q711 1166 700 1132T668 1067T616 1003T545 936L296 721H645L627 634H140L156 708L484 991Q549 1047 582 1093T615 1192Q615 1217 606 1240T579 1280T536 1308T475 1319Q416 1319 373 1291T300 1227L242 1284Q260 1307 284 1329T339 1368T407 1397T487 1408Z" horiz-adv-x="657" unicode="²"/>
			<glyph d="M477 1408Q529 1408 571 1393T644 1354T690 1295T706 1224Q706 1191 694 1158T660 1098T605 1049T531 1016Q585 996 614 955T644 860Q644 814 625 771T571 696T481 644T355 625Q274 625 213 651T119 722L182 780Q210 746 256 728T357 710Q407 710 443 723T503 757T538 805T549 862Q549 916 507 948T399 980H300L317 1062H414Q461 1062 497 1075T558 1109T595 1156T608 1210Q608 1260 568 1291T464 1323Q405 1323 358 1299T278 1239L230 1304Q275 1352 335 1380T477 1408Z" horiz-adv-x="645" unicode="³"/>
			<glyph d="M672 1383H820L537 1083H419Z" horiz-adv-x="904" unicode="´"/>
			<glyph d="M265 941H379L266 411Q261 388 258 366T256 324Q256 274 271 231T318 158T397 110T507 93Q576 93 636 115T744 178T826 278T876 410L989 941H1103L903 0H790L818 133Q750 55 664 20T488 -15Q394 -15 319 19T203 117L93 -400H-22Z" horiz-adv-x="1177" unicode="µ"/>
			<glyph d="M693 1400H827L529 0H438L597 749Q519 751 458 774T354 836T289 929T267 1047Q267 1086 275 1127T304 1208T356 1282T436 1343T546 1384T693 1400ZM933 1400H1024L726 0H635Z" horiz-adv-x="1106" unicode="¶"/>
			<glyph d="M377 623Q396 623 413 615T444 594T464 563T472 527Q472 508 464 490T444 460T413 439T377 431Q358 431 340 439T310 460T289 490T281 527Q281 546 289 563T310 594T340 615T377 623Z" horiz-adv-x="717" unicode="·"/>
			<glyph d="M421 6L534 5L370 -323H243Z" horiz-adv-x="1000" unicode="¸"/>
			<glyph d="M568 1407L404 634H311L448 1277L207 1193L227 1290Z" horiz-adv-x="517" unicode="¹"/>
			<glyph d="M550 1298Q618 1298 675 1275T774 1211T839 1115T863 992Q863 917 835 849T757 732T640 652T495 623Q427 623 370 645T271 708T206 805T183 929Q183 1004 211 1071T288 1189T404 1268T550 1298ZM543 1210Q487 1210 439 1188T355 1128T300 1041T280 934Q280 885 296 844T341 773T411 727T501 711Q557 711 605 733T689 792T745 880T766 987Q766 1035 749 1076T703 1147T633 1193T543 1210Z" horiz-adv-x="837" unicode="º"/>
			<glyph d="M272 891H388L504 527L234 163H105L385 539ZM651 891H767L883 527L613 163H484L764 539Z" horiz-adv-x="998" unicode="»"/>
			<glyph d="M1207 1400H1328L273 0H152ZM1213 764H1320L968 245H1211L1257 460H1350L1304 245H1433L1415 158H1285L1252 0H1159L1193 158H837L852 233ZM568 1407L404 634H311L448 1277L207 1193L227 1290Z" horiz-adv-x="1519" unicode="¼"/>
			<glyph d="M1207 1400H1328L273 0H152ZM1298 774Q1355 774 1397 756T1467 710T1508 645T1522 570Q1522 532 1511 498T1479 433T1427 369T1356 302L1107 87H1456L1438 0H951L967 74L1295 357Q1360 413 1393 459T1426 558Q1426 583 1417 606T1390 646T1347 674T1286 685Q1227 685 1184 657T1111 593L1053 650Q1071 673 1095 695T1150 734T1218 763T1298 774ZM568 1407L404 634H311L448 1277L207 1193L227 1290Z" horiz-adv-x="1604" unicode="½"/>
			<glyph d="M1325 1400H1446L391 0H270ZM1332 764H1439L1087 245H1330L1376 460H1469L1423 245H1552L1534 158H1404L1371 0H1278L1312 158H956L971 233ZM477 1408Q529 1408 571 1393T644 1354T690 1295T706 1224Q706 1191 694 1158T660 1098T605 1049T531 1016Q585 996 614 955T644 860Q644 814 625 771T571 696T481 644T355 625Q274 625 213 651T119 722L182 780Q210 746 256 728T357 710Q407 710 443 723T503 757T538 805T549 862Q549 916 507 948T399 980H300L317 1062H414Q461 1062 497 1075T558 1109T595 1156T608 1210Q608 1260 568 1291T464 1323Q405 1323 358 1299T278 1239L230 1304Q275 1352 335 1380T477 1408Z" horiz-adv-x="1638" unicode="¾"/>
			<glyph d="M515 506H619L554 196H491Q394 196 321 175T199 115T126 23T102 -95Q102 -157 130 -205T208 -287T325 -338T471 -356Q488 -356 503 -355T533 -353L528 -470Q511 -472 491 -472T450 -473Q348 -473 261 -447T110 -375T9 -261T-27 -110Q-27 -22 4 51T98 179T252 265T465 303ZM635 956Q654 956 671 948T702 927T723 896T731 860Q731 840 723 823T702 792T671 771T635 764Q615 764 598 771T567 792T546 823T539 860Q539 879 546 896T567 927T598 948T635 956Z" horiz-adv-x="827" unicode="¿"/>
			<glyph d="M824 1400H974L1259 0H1134L1052 409H334L80 0H-53ZM877 1279L406 525H1028ZM673 1797H817L1037 1497H924Z" horiz-adv-x="1406" unicode="À"/>
			<glyph d="M824 1400H974L1259 0H1134L1052 409H334L80 0H-53ZM877 1279L406 525H1028ZM1014 1797H1162L879 1497H761Z" horiz-adv-x="1406" unicode="Á"/>
			<glyph d="M824 1400H974L1259 0H1134L1052 409H334L80 0H-53ZM877 1279L406 525H1028ZM877 1785H1027L1217 1503H1097L943 1716L704 1503H575Z" horiz-adv-x="1406" unicode="Â"/>
			<glyph d="M824 1400H974L1259 0H1134L1052 409H334L80 0H-53ZM877 1279L406 525H1028ZM810 1742Q861 1742 894 1728T954 1699T1006 1669T1066 1656Q1110 1656 1145 1675T1216 1733L1281 1665Q1232 1610 1181 1583T1065 1557Q1014 1557 981 1570T921 1600T869 1630T809 1644Q765 1644 730 1624T659 1566L594 1634Q643 1689 693 1715T810 1742Z" horiz-adv-x="1406" unicode="Ã"/>
			<glyph d="M824 1400H974L1259 0H1134L1052 409H334L80 0H-53ZM877 1279L406 525H1028ZM739 1725Q774 1725 797 1701T821 1642Q821 1607 797 1584T739 1561Q704 1561 681 1584T658 1642Q658 1677 681 1701T739 1725ZM1148 1725Q1183 1725 1207 1701T1231 1642Q1231 1607 1207 1584T1148 1561Q1113 1561 1090 1584T1067 1642Q1067 1677 1090 1701T1148 1725Z" horiz-adv-x="1406" unicode="Ä"/>
			<glyph d="M824 1400H974L1259 0H1134L1052 409H334L80 0H-53ZM877 1279L406 525H1028ZM928 1907Q972 1907 1011 1890T1079 1844T1126 1776T1143 1694Q1143 1650 1126 1611T1079 1543T1011 1497T928 1481Q884 1481 844 1497T776 1543T730 1611T713 1694Q713 1738 730 1776T776 1844T844 1890T928 1907ZM928 1833Q899 1833 874 1822T830 1792T801 1748T790 1694Q790 1665 801 1639T830 1595T874 1565T928 1554Q956 1554 981 1565T1025 1595T1055 1639T1066 1694Q1066 1723 1055 1748T1025 1792T981 1822T928 1833Z" horiz-adv-x="1406" unicode="Å"/>
			<glyph d="M1288 1400H2278L2254 1285H1441L1330 762H2124L2099 648H1306L1192 115H2016L1991 0H1044L1127 390H469L94 0H-62ZM1313 1266L581 506H1151Z" horiz-adv-x="2241" unicode="Æ"/>
			<glyph d="M936 1415Q973 1415 1018 1410T1114 1394T1216 1362T1317 1310T1412 1232T1492 1125L1398 1051Q1359 1120 1304 1167T1186 1244T1056 1285T929 1298Q839 1298 756 1275T603 1210T476 1110T378 978T316 822T294 647Q294 527 334 426T447 254T617 142T831 102Q963 102 1078 157T1273 312L1354 234Q1306 175 1246 128T1119 50T977 1T823 -16Q682 -16 561 32T353 166T215 373T166 637Q166 803 224 945T386 1191T630 1355T936 1415ZM750 6L872 5L704 -323H572Z" horiz-adv-x="1493" unicode="Ç"/>
			<glyph d="M398 1400H1334L1310 1285H497L386 762H1180L1155 648H362L248 115H1072L1047 0H100ZM641 1797H785L1005 1497H892Z" horiz-adv-x="1297" unicode="È"/>
			<glyph d="M398 1400H1334L1310 1285H497L386 762H1180L1155 648H362L248 115H1072L1047 0H100ZM982 1797H1130L847 1497H729Z" horiz-adv-x="1297" unicode="É"/>
			<glyph d="M398 1400H1334L1310 1285H497L386 762H1180L1155 648H362L248 115H1072L1047 0H100ZM845 1785H995L1185 1503H1065L911 1716L672 1503H543Z" horiz-adv-x="1297" unicode="Ê"/>
			<glyph d="M398 1400H1334L1310 1285H497L386 762H1180L1155 648H362L248 115H1072L1047 0H100ZM707 1725Q742 1725 765 1701T789 1642Q789 1607 765 1584T707 1561Q672 1561 649 1584T626 1642Q626 1677 649 1701T707 1725ZM1116 1725Q1151 1725 1175 1701T1199 1642Q1199 1607 1175 1584T1116 1561Q1081 1561 1058 1584T1035 1642Q1035 1677 1058 1701T1116 1725Z" horiz-adv-x="1297" unicode="Ë"/>
			<glyph d="M398 1400H522L224 0H100ZM235 1797H379L599 1497H486Z" horiz-adv-x="524" unicode="Ì"/>
			<glyph d="M398 1400H522L224 0H100ZM576 1797H724L441 1497H323Z" horiz-adv-x="524" unicode="Í"/>
			<glyph d="M398 1400H522L224 0H100ZM439 1785H589L779 1503H659L505 1716L266 1503H137Z" horiz-adv-x="524" unicode="Î"/>
			<glyph d="M398 1400H522L224 0H100ZM301 1725Q336 1725 359 1701T383 1642Q383 1607 359 1584T301 1561Q266 1561 243 1584T220 1642Q220 1677 243 1701T301 1725ZM710 1725Q745 1725 769 1701T793 1642Q793 1607 769 1584T710 1561Q675 1561 652 1584T629 1642Q629 1677 652 1701T710 1725Z" horiz-adv-x="524" unicode="Ï"/>
			<glyph d="M572 1400H1025Q1180 1400 1301 1359T1505 1242T1632 1060T1676 823Q1676 651 1617 501T1444 239T1161 64T773 0H274L411 647H158L183 763H436ZM671 1284L560 763H971L946 647H535L422 116H786Q972 116 1114 169T1353 316T1498 537T1547 812Q1547 918 1513 1005T1413 1154T1245 1250T1012 1284Z" horiz-adv-x="1733" unicode="Ð"/>
			<glyph d="M398 1400H513L1156 192L1413 1400H1538L1239 0H1126L481 1208L224 0H100ZM871 1742Q922 1742 955 1728T1015 1699T1067 1669T1127 1656Q1171 1656 1206 1675T1277 1733L1342 1665Q1293 1610 1242 1583T1126 1557Q1075 1557 1042 1570T982 1600T930 1630T870 1644Q826 1644 791 1624T720 1566L655 1634Q704 1689 754 1715T871 1742Z" horiz-adv-x="1540" unicode="Ñ"/>
			<glyph d="M931 1415Q1071 1415 1192 1369T1402 1240T1543 1036T1595 769Q1595 662 1569 562T1496 375T1380 216T1227 92T1041 12T829 -16Q689 -16 567 29T356 159T215 363T164 631Q164 738 189 837T263 1024T379 1183T533 1306T718 1386T931 1415ZM921 1298Q782 1298 666 1244T467 1101T338 891T292 640Q292 516 333 416T448 247T622 139T839 102Q931 102 1013 126T1166 194T1291 298T1386 432T1446 589T1467 760Q1467 884 1425 983T1310 1153T1137 1260T921 1298ZM731 1797H875L1095 1497H982Z" horiz-adv-x="1662" unicode="Ò"/>
			<glyph d="M931 1415Q1071 1415 1192 1369T1402 1240T1543 1036T1595 769Q1595 662 1569 562T1496 375T1380 216T1227 92T1041 12T829 -16Q689 -16 567 29T356 159T215 363T164 631Q164 738 189 837T263 1024T379 1183T533 1306T718 1386T931 1415ZM921 1298Q782 1298 666 1244T467 1101T338 891T292 640Q292 516 333 416T448 247T622 139T839 102Q931 102 1013 126T1166 194T1291 298T1386 432T1446 589T1467 760Q1467 884 1425 983T1310 1153T1137 1260T921 1298ZM1072 1797H1220L937 1497H819Z" horiz-adv-x="1662" unicode="Ó"/>
			<glyph d="M931 1415Q1071 1415 1192 1369T1402 1240T1543 1036T1595 769Q1595 662 1569 562T1496 375T1380 216T1227 92T1041 12T829 -16Q689 -16 567 29T356 159T215 363T164 631Q164 738 189 837T263 1024T379 1183T533 1306T718 1386T931 1415ZM921 1298Q782 1298 666 1244T467 1101T338 891T292 640Q292 516 333 416T448 247T622 139T839 102Q931 102 1013 126T1166 194T1291 298T1386 432T1446 589T1467 760Q1467 884 1425 983T1310 1153T1137 1260T921 1298ZM935 1785H1085L1275 1503H1155L1001 1716L762 1503H633Z" horiz-adv-x="1662" unicode="Ô"/>
			<glyph d="M931 1415Q1071 1415 1192 1369T1402 1240T1543 1036T1595 769Q1595 662 1569 562T1496 375T1380 216T1227 92T1041 12T829 -16Q689 -16 567 29T356 159T215 363T164 631Q164 738 189 837T263 1024T379 1183T533 1306T718 1386T931 1415ZM921 1298Q782 1298 666 1244T467 1101T338 891T292 640Q292 516 333 416T448 247T622 139T839 102Q931 102 1013 126T1166 194T1291 298T1386 432T1446 589T1467 760Q1467 884 1425 983T1310 1153T1137 1260T921 1298ZM868 1742Q919 1742 952 1728T1012 1699T1064 1669T1124 1656Q1168 1656 1203 1675T1274 1733L1339 1665Q1290 1610 1239 1583T1123 1557Q1072 1557 1039 1570T979 1600T927 1630T867 1644Q823 1644 788 1624T717 1566L652 1634Q701 1689 751 1715T868 1742Z" horiz-adv-x="1662" unicode="Õ"/>
			<glyph d="M931 1415Q1071 1415 1192 1369T1402 1240T1543 1036T1595 769Q1595 662 1569 562T1496 375T1380 216T1227 92T1041 12T829 -16Q689 -16 567 29T356 159T215 363T164 631Q164 738 189 837T263 1024T379 1183T533 1306T718 1386T931 1415ZM921 1298Q782 1298 666 1244T467 1101T338 891T292 640Q292 516 333 416T448 247T622 139T839 102Q931 102 1013 126T1166 194T1291 298T1386 432T1446 589T1467 760Q1467 884 1425 983T1310 1153T1137 1260T921 1298ZM797 1725Q832 1725 855 1701T879 1642Q879 1607 855 1584T797 1561Q762 1561 739 1584T716 1642Q716 1677 739 1701T797 1725ZM1206 1725Q1241 1725 1265 1701T1289 1642Q1289 1607 1265 1584T1206 1561Q1171 1561 1148 1584T1125 1642Q1125 1677 1148 1701T1206 1725Z" horiz-adv-x="1662" unicode="Ö"/>
			<glyph d="M974 908L1038 828L672 527L909 225L828 158L596 453L227 149L164 229L525 527L290 825L371 892L601 600Z" horiz-adv-x="1200" unicode="×"/>
			<glyph d="M1613 1416L1687 1334L1481 1150Q1535 1073 1565 977T1595 769Q1595 662 1569 562T1496 375T1380 216T1227 92T1041 12T829 -16Q690 -16 571 28T362 154L170 -16L97 66L288 236Q229 315 196 414T164 631Q164 738 189 837T263 1024T379 1183T533 1306T718 1386T931 1415Q1074 1415 1196 1368T1409 1234ZM921 1298Q782 1298 666 1244T467 1101T338 891T292 640Q292 546 316 466T385 322L1314 1149Q1240 1221 1139 1259T921 1298ZM1383 1063L457 239Q530 173 627 137T839 102Q931 102 1013 126T1166 194T1291 298T1386 432T1446 589T1467 760Q1467 849 1445 924T1383 1063Z" horiz-adv-x="1662" unicode="Ø"/>
			<glyph d="M378 1400H503L324 563Q316 525 312 492T309 428Q309 342 337 280T414 178T530 120T675 102Q766 102 847 128T995 209T1109 348T1181 549L1361 1400H1486L1304 540Q1273 395 1213 290T1070 117T883 17T661 -15Q562 -15 475 10T322 87T219 219T182 408Q182 443 186 481T199 561ZM707 1797H851L1071 1497H958Z" horiz-adv-x="1469" unicode="Ù"/>
			<glyph d="M378 1400H503L324 563Q316 525 312 492T309 428Q309 342 337 280T414 178T530 120T675 102Q766 102 847 128T995 209T1109 348T1181 549L1361 1400H1486L1304 540Q1273 395 1213 290T1070 117T883 17T661 -15Q562 -15 475 10T322 87T219 219T182 408Q182 443 186 481T199 561ZM1048 1797H1196L913 1497H795Z" horiz-adv-x="1469" unicode="Ú"/>
			<glyph d="M378 1400H503L324 563Q316 525 312 492T309 428Q309 342 337 280T414 178T530 120T675 102Q766 102 847 128T995 209T1109 348T1181 549L1361 1400H1486L1304 540Q1273 395 1213 290T1070 117T883 17T661 -15Q562 -15 475 10T322 87T219 219T182 408Q182 443 186 481T199 561ZM911 1785H1061L1251 1503H1131L977 1716L738 1503H609Z" horiz-adv-x="1469" unicode="Û"/>
			<glyph d="M378 1400H503L324 563Q316 525 312 492T309 428Q309 342 337 280T414 178T530 120T675 102Q766 102 847 128T995 209T1109 348T1181 549L1361 1400H1486L1304 540Q1273 395 1213 290T1070 117T883 17T661 -15Q562 -15 475 10T322 87T219 219T182 408Q182 443 186 481T199 561ZM773 1725Q808 1725 831 1701T855 1642Q855 1607 831 1584T773 1561Q738 1561 715 1584T692 1642Q692 1677 715 1701T773 1725ZM1182 1725Q1217 1725 1241 1701T1265 1642Q1265 1607 1241 1584T1182 1561Q1147 1561 1124 1584T1101 1642Q1101 1677 1124 1701T1182 1725Z" horiz-adv-x="1469" unicode="Ü"/>
			<glyph d="M212 1400H344L672 720L1278 1400H1433L713 599L586 0H462L591 610ZM927 1797H1075L792 1497H674Z" horiz-adv-x="1249" unicode="Ý"/>
			<glyph d="M398 1400H522L464 1130H821Q924 1130 1005 1105T1142 1033T1227 921T1256 774Q1256 675 1221 589T1114 438T934 337T680 300H288L224 0H100ZM440 1015L312 416H685Q802 416 886 443T1024 518T1103 628T1129 763Q1129 885 1045 950T810 1015Z" horiz-adv-x="1300" unicode="Þ"/>
			<glyph d="M793 1455Q877 1455 947 1430T1069 1360T1149 1254T1178 1121Q1178 1056 1157 994T1096 879T1001 787T877 727Q931 710 973 672T1042 584T1077 474T1073 351Q1054 258 1010 189T903 74T765 7T605 -15Q527 -15 462 0T355 42L404 138Q439 116 492 103T601 91Q670 91 729 108T836 160T914 244T959 360Q972 426 959 484T912 585T820 653T687 678H604L627 781H672Q750 781 812 798T927 853Q959 876 984 906T1026 971T1053 1040T1062 1110Q1062 1164 1040 1208T981 1283T894 1331T788 1348Q720 1348 657 1329T542 1268T451 1161T393 1002L180 0H65L281 1015Q305 1127 352 1209T465 1346T614 1428T793 1455Z" horiz-adv-x="1189" unicode="ß"/>
			<glyph d="M625 956Q693 956 750 938T851 890T927 816T976 722L1023 941H1136L936 0H823L854 143Q789 71 699 28T495 -15Q406 -15 331 16T203 102T118 234T88 400Q88 511 129 612T243 789T413 911T625 956ZM622 849Q535 849 459 814T326 719T237 580T205 411Q205 343 226 284T288 183T386 116T515 92Q593 92 662 120T787 197T879 314T928 462Q940 543 923 613T866 736T763 819T622 849ZM432 1382H576L796 1082H683Z" horiz-adv-x="1210" unicode="à"/>
			<glyph d="M625 956Q693 956 750 938T851 890T927 816T976 722L1023 941H1136L936 0H823L854 143Q789 71 699 28T495 -15Q406 -15 331 16T203 102T118 234T88 400Q88 511 129 612T243 789T413 911T625 956ZM622 849Q535 849 459 814T326 719T237 580T205 411Q205 343 226 284T288 183T386 116T515 92Q593 92 662 120T787 197T879 314T928 462Q940 543 923 613T866 736T763 819T622 849ZM811 1383H959L676 1083H558Z" horiz-adv-x="1210" unicode="á"/>
			<glyph d="M625 956Q693 956 750 938T851 890T927 816T976 722L1023 941H1136L936 0H823L854 143Q789 71 699 28T495 -15Q406 -15 331 16T203 102T118 234T88 400Q88 511 129 612T243 789T413 911T625 956ZM622 849Q535 849 459 814T326 719T237 580T205 411Q205 343 226 284T288 183T386 116T515 92Q593 92 662 120T787 197T879 314T928 462Q940 543 923 613T866 736T763 819T622 849ZM656 1370H806L996 1088H876L722 1301L483 1088H354Z" horiz-adv-x="1210" unicode="â"/>
			<glyph d="M625 956Q693 956 750 938T851 890T927 816T976 722L1023 941H1136L936 0H823L854 143Q789 71 699 28T495 -15Q406 -15 331 16T203 102T118 234T88 400Q88 511 129 612T243 789T413 911T625 956ZM622 849Q535 849 459 814T326 719T237 580T205 411Q205 343 226 284T288 183T386 116T515 92Q593 92 662 120T787 197T879 314T928 462Q940 543 923 613T866 736T763 819T622 849ZM569 1327Q620 1327 653 1313T713 1284T765 1254T825 1241Q869 1241 904 1260T975 1318L1040 1250Q991 1195 940 1168T824 1142Q773 1142 740 1155T680 1185T628 1215T568 1229Q524 1229 489 1209T418 1151L353 1219Q402 1274 452 1300T569 1327Z" horiz-adv-x="1210" unicode="ã"/>
			<glyph d="M625 956Q693 956 750 938T851 890T927 816T976 722L1023 941H1136L936 0H823L854 143Q789 71 699 28T495 -15Q406 -15 331 16T203 102T118 234T88 400Q88 511 129 612T243 789T413 911T625 956ZM622 849Q535 849 459 814T326 719T237 580T205 411Q205 343 226 284T288 183T386 116T515 92Q593 92 662 120T787 197T879 314T928 462Q940 543 923 613T866 736T763 819T622 849ZM506 1310Q541 1310 564 1286T588 1227Q588 1192 564 1169T506 1146Q471 1146 448 1169T425 1227Q425 1262 448 1286T506 1310ZM915 1310Q950 1310 974 1286T998 1227Q998 1192 974 1169T915 1146Q880 1146 857 1169T834 1227Q834 1262 857 1286T915 1310Z" horiz-adv-x="1210" unicode="ä"/>
			<glyph d="M625 956Q693 956 750 938T851 890T927 816T976 722L1023 941H1136L936 0H823L854 143Q789 71 699 28T495 -15Q406 -15 331 16T203 102T118 234T88 400Q88 511 129 612T243 789T413 911T625 956ZM622 849Q535 849 459 814T326 719T237 580T205 411Q205 343 226 284T288 183T386 116T515 92Q593 92 662 120T787 197T879 314T928 462Q940 543 923 613T866 736T763 819T622 849ZM688 1492Q732 1492 771 1475T839 1429T886 1361T903 1279Q903 1235 886 1196T839 1128T771 1082T688 1066Q644 1066 604 1082T536 1128T490 1196T473 1279Q473 1323 490 1361T536 1429T604 1475T688 1492ZM688 1418Q659 1418 634 1407T590 1377T561 1333T550 1279Q550 1250 561 1224T590 1180T634 1150T688 1139Q716 1139 741 1150T785 1180T815 1224T826 1279Q826 1308 815 1333T785 1377T741 1407T688 1418Z" horiz-adv-x="1210" unicode="å"/>
			<glyph d="M579 956Q712 956 797 901T913 742Q945 789 987 828T1081 896T1194 940T1324 956Q1410 956 1480 929T1601 854T1679 737T1707 585Q1707 545 1699 502T1681 429H908Q907 420 907 411V394Q907 326 928 269T990 171T1090 107T1223 84Q1323 84 1398 116T1539 209L1596 130Q1515 56 1423 20T1211 -16Q1074 -16 979 40T837 191Q749 93 637 39T395 -15Q324 -15 265 2T163 52T97 130T74 233Q74 291 97 344T169 437T293 502T474 527H809L811 537Q816 562 819 585T823 630Q823 739 754 796T560 853Q468 853 396 825T267 761L224 851Q301 901 387 928T579 956ZM1319 855Q1239 855 1174 827T1059 754T976 650T925 527H1590Q1592 541 1593 554T1594 582Q1594 645 1574 695T1518 781T1431 836T1319 855ZM481 432Q403 432 349 415T261 372T212 311T197 244Q197 168 254 126T409 85Q462 85 515 98T619 135T717 197T804 282Q792 333 792 390Q792 401 792 411T794 432Z" horiz-adv-x="1784" unicode="æ"/>
			<glyph d="M617 955Q738 955 830 910T981 780L892 716Q863 753 829 778T759 819T685 841T612 848Q527 848 454 815T327 726T242 594T211 433Q211 359 236 297T304 190T408 119T538 94Q617 94 688 122T814 205L880 130Q813 61 723 24T533 -13Q435 -13 354 20T215 113T125 252T94 426Q94 535 134 631T244 799T409 913T617 955ZM462 6L575 5L411 -323H284Z" horiz-adv-x="1008" unicode="ç"/>
			<glyph d="M618 956Q704 956 774 929T895 854T973 737T1001 585Q1001 545 994 503T976 429H202Q201 420 201 411V394Q201 326 222 269T284 171T384 107T517 84Q617 84 692 116T833 209L890 130Q809 56 717 20T505 -16Q406 -16 328 15T196 100T114 229T86 390Q86 458 102 526T150 657T227 774T332 869T463 933T618 956ZM613 855Q533 855 467 827T352 754T269 650T219 527H884Q886 541 887 554T888 582Q888 645 868 695T812 781T725 836T613 855ZM398 1382H542L762 1082H649Z" horiz-adv-x="1078" unicode="è"/>
			<glyph d="M618 956Q704 956 774 929T895 854T973 737T1001 585Q1001 545 994 503T976 429H202Q201 420 201 411V394Q201 326 222 269T284 171T384 107T517 84Q617 84 692 116T833 209L890 130Q809 56 717 20T505 -16Q406 -16 328 15T196 100T114 229T86 390Q86 458 102 526T150 657T227 774T332 869T463 933T618 956ZM613 855Q533 855 467 827T352 754T269 650T219 527H884Q886 541 887 554T888 582Q888 645 868 695T812 781T725 836T613 855ZM777 1383H925L642 1083H524Z" horiz-adv-x="1078" unicode="é"/>
			<glyph d="M618 956Q704 956 774 929T895 854T973 737T1001 585Q1001 545 994 503T976 429H202Q201 420 201 411V394Q201 326 222 269T284 171T384 107T517 84Q617 84 692 116T833 209L890 130Q809 56 717 20T505 -16Q406 -16 328 15T196 100T114 229T86 390Q86 458 102 526T150 657T227 774T332 869T463 933T618 956ZM613 855Q533 855 467 827T352 754T269 650T219 527H884Q886 541 887 554T888 582Q888 645 868 695T812 781T725 836T613 855ZM622 1370H772L962 1088H842L688 1301L449 1088H320Z" horiz-adv-x="1078" unicode="ê"/>
			<glyph d="M618 956Q704 956 774 929T895 854T973 737T1001 585Q1001 545 994 503T976 429H202Q201 420 201 411V394Q201 326 222 269T284 171T384 107T517 84Q617 84 692 116T833 209L890 130Q809 56 717 20T505 -16Q406 -16 328 15T196 100T114 229T86 390Q86 458 102 526T150 657T227 774T332 869T463 933T618 956ZM613 855Q533 855 467 827T352 754T269 650T219 527H884Q886 541 887 554T888 582Q888 645 868 695T812 781T725 836T613 855ZM472 1310Q507 1310 530 1286T554 1227Q554 1192 530 1169T472 1146Q437 1146 414 1169T391 1227Q391 1262 414 1286T472 1310ZM881 1310Q916 1310 940 1286T964 1227Q964 1192 940 1169T881 1146Q846 1146 823 1169T800 1227Q800 1262 823 1286T881 1310Z" horiz-adv-x="1078" unicode="ë"/>
			<glyph d="M274 941H389L188 0H74ZM113 1382H257L477 1082H364Z" horiz-adv-x="463" unicode="ì"/>
			<glyph d="M274 941H389L188 0H74ZM492 1383H640L357 1083H239Z" horiz-adv-x="463" unicode="í"/>
			<glyph d="M274 941H389L188 0H74ZM337 1370H487L677 1088H557L403 1301L164 1088H35Z" horiz-adv-x="463" unicode="î"/>
			<glyph d="M274 941H389L188 0H74ZM187 1310Q222 1310 245 1286T269 1227Q269 1192 245 1169T187 1146Q152 1146 129 1169T106 1227Q106 1262 129 1286T187 1310ZM596 1310Q631 1310 655 1286T679 1227Q679 1192 655 1169T596 1146Q561 1146 538 1169T515 1227Q515 1262 538 1286T596 1310Z" horiz-adv-x="463" unicode="ï"/>
			<glyph d="M436 1450Q524 1415 600 1371T743 1274L1001 1415L1042 1338L812 1212Q944 1083 1012 924T1081 589Q1081 551 1077 512T1067 434Q1051 336 1004 253T888 111T732 18T550 -15Q449 -15 365 18T220 109T126 248T92 421Q92 525 131 619T240 784T403 898T605 940Q726 940 817 890T963 754Q939 869 875 971T715 1160L466 1024L426 1101L642 1219Q585 1261 520 1296T384 1360ZM613 832Q518 832 443 796T316 702T237 572T210 426Q210 354 235 292T306 186T416 117T557 92Q651 92 726 127T853 219T933 350T961 498Q961 571 935 632T864 738T754 807T613 832Z" horiz-adv-x="1167" unicode="ð"/>
			<glyph d="M689 956Q772 956 836 932T945 865T1013 762T1037 631Q1037 607 1033 580T1024 525L912 0H798L911 530Q916 553 918 574T921 617Q921 667 905 709T858 782T780 830T670 848Q601 848 541 826T433 762T351 662T301 531L188 0H74L274 941H387L359 808Q427 886 513 921T689 956ZM599 1327Q650 1327 683 1313T743 1284T795 1254T855 1241Q899 1241 934 1260T1005 1318L1070 1250Q1021 1195 970 1168T854 1142Q803 1142 770 1155T710 1185T658 1215T598 1229Q554 1229 519 1209T448 1151L383 1219Q432 1274 482 1300T599 1327Z" horiz-adv-x="1176" unicode="ñ"/>
			<glyph d="M622 956Q721 956 803 923T944 831T1036 691T1069 517Q1069 408 1028 311T917 141T749 26T540 -16Q442 -16 359 17T218 108T126 247T93 424Q93 533 133 629T245 798T412 913T622 956ZM613 849Q527 849 453 815T326 725T241 591T210 430Q210 356 235 294T304 187T411 116T547 91Q633 91 707 124T836 215T922 348T953 511Q953 584 928 646T858 753T750 823T613 849ZM428 1382H572L792 1082H679Z" horiz-adv-x="1162" unicode="ò"/>
			<glyph d="M622 956Q721 956 803 923T944 831T1036 691T1069 517Q1069 408 1028 311T917 141T749 26T540 -16Q442 -16 359 17T218 108T126 247T93 424Q93 533 133 629T245 798T412 913T622 956ZM613 849Q527 849 453 815T326 725T241 591T210 430Q210 356 235 294T304 187T411 116T547 91Q633 91 707 124T836 215T922 348T953 511Q953 584 928 646T858 753T750 823T613 849ZM807 1383H955L672 1083H554Z" horiz-adv-x="1162" unicode="ó"/>
			<glyph d="M622 956Q721 956 803 923T944 831T1036 691T1069 517Q1069 408 1028 311T917 141T749 26T540 -16Q442 -16 359 17T218 108T126 247T93 424Q93 533 133 629T245 798T412 913T622 956ZM613 849Q527 849 453 815T326 725T241 591T210 430Q210 356 235 294T304 187T411 116T547 91Q633 91 707 124T836 215T922 348T953 511Q953 584 928 646T858 753T750 823T613 849ZM652 1370H802L992 1088H872L718 1301L479 1088H350Z" horiz-adv-x="1162" unicode="ô"/>
			<glyph d="M622 956Q721 956 803 923T944 831T1036 691T1069 517Q1069 408 1028 311T917 141T749 26T540 -16Q442 -16 359 17T218 108T126 247T93 424Q93 533 133 629T245 798T412 913T622 956ZM613 849Q527 849 453 815T326 725T241 591T210 430Q210 356 235 294T304 187T411 116T547 91Q633 91 707 124T836 215T922 348T953 511Q953 584 928 646T858 753T750 823T613 849ZM565 1327Q616 1327 649 1313T709 1284T761 1254T821 1241Q865 1241 900 1260T971 1318L1036 1250Q987 1195 936 1168T820 1142Q769 1142 736 1155T676 1185T624 1215T564 1229Q520 1229 485 1209T414 1151L349 1219Q398 1274 448 1300T565 1327Z" horiz-adv-x="1162" unicode="õ"/>
			<glyph d="M622 956Q721 956 803 923T944 831T1036 691T1069 517Q1069 408 1028 311T917 141T749 26T540 -16Q442 -16 359 17T218 108T126 247T93 424Q93 533 133 629T245 798T412 913T622 956ZM613 849Q527 849 453 815T326 725T241 591T210 430Q210 356 235 294T304 187T411 116T547 91Q633 91 707 124T836 215T922 348T953 511Q953 584 928 646T858 753T750 823T613 849ZM502 1310Q537 1310 560 1286T584 1227Q584 1192 560 1169T502 1146Q467 1146 444 1169T421 1227Q421 1262 444 1286T502 1310ZM911 1310Q946 1310 970 1286T994 1227Q994 1192 970 1169T911 1146Q876 1146 853 1169T830 1227Q830 1262 853 1286T911 1310Z" horiz-adv-x="1162" unicode="ö"/>
			<glyph d="M197 578H1049L1027 475H175ZM672 918Q688 918 702 911T728 894T746 868T753 838Q753 822 746 807T728 781T702 763T672 757Q656 757 641 763T616 781T598 807T592 838Q592 854 598 868T616 894T641 911T672 918ZM558 296Q574 296 588 289T614 272T631 247T638 216Q638 200 631 185T614 160T588 142T558 136Q542 136 527 142T502 160T484 185T478 216Q478 232 484 247T502 272T527 289T558 296Z" horiz-adv-x="1200" unicode="÷"/>
			<glyph d="M1074 968L1137 898L994 770Q1030 717 1049 653T1069 517Q1069 408 1028 311T917 141T749 26T540 -16Q447 -16 370 12T234 93L98 -28L35 42L171 164Q133 218 113 283T93 424Q93 533 133 629T245 798T412 913T622 956Q716 956 795 926T933 842ZM613 849Q527 849 453 815T326 725T241 591T210 430Q210 376 223 329T260 243L846 765Q801 805 742 827T613 849ZM905 691L321 171Q365 133 422 112T547 91Q633 91 707 124T836 215T922 348T953 511Q953 562 940 607T905 691Z" horiz-adv-x="1162" unicode="ø"/>
			<glyph d="M264 941H379L266 411Q255 361 255 322Q255 263 275 220T329 148T411 106T513 92Q577 92 635 111T740 170T821 267T872 404L986 941H1101L983 384Q962 282 916 207T806 82T664 9T500 -15Q424 -15 358 6T243 68T167 169T140 310Q140 360 152 417ZM459 1382H603L823 1082H710Z" horiz-adv-x="1165" unicode="ù"/>
			<glyph d="M264 941H379L266 411Q255 361 255 322Q255 263 275 220T329 148T411 106T513 92Q577 92 635 111T740 170T821 267T872 404L986 941H1101L983 384Q962 282 916 207T806 82T664 9T500 -15Q424 -15 358 6T243 68T167 169T140 310Q140 360 152 417ZM838 1383H986L703 1083H585Z" horiz-adv-x="1165" unicode="ú"/>
			<glyph d="M264 941H379L266 411Q255 361 255 322Q255 263 275 220T329 148T411 106T513 92Q577 92 635 111T740 170T821 267T872 404L986 941H1101L983 384Q962 282 916 207T806 82T664 9T500 -15Q424 -15 358 6T243 68T167 169T140 310Q140 360 152 417ZM683 1370H833L1023 1088H903L749 1301L510 1088H381Z" horiz-adv-x="1165" unicode="û"/>
			<glyph d="M264 941H379L266 411Q255 361 255 322Q255 263 275 220T329 148T411 106T513 92Q577 92 635 111T740 170T821 267T872 404L986 941H1101L983 384Q962 282 916 207T806 82T664 9T500 -15Q424 -15 358 6T243 68T167 169T140 310Q140 360 152 417ZM533 1310Q568 1310 591 1286T615 1227Q615 1192 591 1169T533 1146Q498 1146 475 1169T452 1227Q452 1262 475 1286T533 1310ZM942 1310Q977 1310 1001 1286T1025 1227Q1025 1192 1001 1169T942 1146Q907 1146 884 1169T861 1227Q861 1262 884 1286T942 1310Z" horiz-adv-x="1165" unicode="ü"/>
			<glyph d="M122 941H243L524 327L966 941H1096L121 -403H-9L451 225ZM743 1383H891L608 1083H490Z" horiz-adv-x="1012" unicode="ý"/>
			<glyph d="M380 1440H494L360 808Q424 876 511 916T708 956Q799 956 875 924T1006 837T1092 706T1123 541Q1123 430 1081 329T967 151T797 30T585 -15Q517 -15 460 2T359 50T283 123T235 217L103 -400H-11ZM695 849Q617 849 547 821T423 743T332 626T283 479Q271 398 287 327T344 204T447 122T588 92Q675 92 751 126T884 221T973 360T1006 530Q1006 597 984 655T922 757T824 824T695 849Z" horiz-adv-x="1212" unicode="þ"/>
			<glyph d="M122 941H243L524 327L966 941H1096L121 -403H-9L451 225ZM438 1310Q473 1310 496 1286T520 1227Q520 1192 496 1169T438 1146Q403 1146 380 1169T357 1227Q357 1262 380 1286T438 1310ZM847 1310Q882 1310 906 1286T930 1227Q930 1192 906 1169T847 1146Q812 1146 789 1169T766 1227Q766 1262 789 1286T847 1310Z" horiz-adv-x="1012" unicode="ÿ"/>
			<glyph d="M824 1400H974L1259 0H1134L1052 409H334L80 0H-53ZM877 1279L406 525H1028ZM657 1688H1242L1222 1595H637Z" horiz-adv-x="1406" unicode="Ā"/>
			<glyph d="M625 956Q693 956 750 938T851 890T927 816T976 722L1023 941H1136L936 0H823L854 143Q789 71 699 28T495 -15Q406 -15 331 16T203 102T118 234T88 400Q88 511 129 612T243 789T413 911T625 956ZM622 849Q535 849 459 814T326 719T237 580T205 411Q205 343 226 284T288 183T386 116T515 92Q593 92 662 120T787 197T879 314T928 462Q940 543 923 613T866 736T763 819T622 849ZM428 1273H1013L993 1180H408Z" horiz-adv-x="1210" unicode="ā"/>
			<glyph d="M824 1400H974L1259 0H1134L1052 409H334L80 0H-53ZM877 1279L406 525H1028ZM733 1799Q736 1749 751 1711T791 1648T851 1610T927 1598Q1090 1598 1185 1799L1276 1771Q1213 1638 1125 1569T917 1501Q859 1501 809 1518T723 1570T665 1654T640 1771Z" horiz-adv-x="1406" unicode="Ă"/>
			<glyph d="M625 956Q693 956 750 938T851 890T927 816T976 722L1023 941H1136L936 0H823L854 143Q789 71 699 28T495 -15Q406 -15 331 16T203 102T118 234T88 400Q88 511 129 612T243 789T413 911T625 956ZM622 849Q535 849 459 814T326 719T237 580T205 411Q205 343 226 284T288 183T386 116T515 92Q593 92 662 120T787 197T879 314T928 462Q940 543 923 613T866 736T763 819T622 849ZM498 1384Q501 1334 516 1296T556 1233T616 1195T692 1183Q855 1183 950 1384L1041 1356Q978 1223 890 1154T682 1086Q624 1086 574 1103T488 1155T430 1239T405 1356Z" horiz-adv-x="1210" unicode="ă"/>
			<glyph d="M824 1400H974L1259 0H1134L1052 409H334L80 0H-53ZM877 1279L406 525H1028ZM1200 46L1221 0Q1148 -30 1097 -59T1015 -118T970 -175T956 -231Q956 -269 982 -291T1052 -314Q1084 -314 1113 -300T1168 -260L1221 -334Q1136 -412 1036 -412Q994 -412 959 -401T899 -370T860 -321T846 -257Q846 -211 867 -171T932 -94T1042 -23T1200 46Z" horiz-adv-x="1406" unicode="Ą"/>
			<glyph d="M625 956Q693 956 750 938T851 890T927 816T976 722L1023 941H1136L936 0H823L854 143Q789 71 699 28T495 -15Q406 -15 331 16T203 102T118 234T88 400Q88 511 129 612T243 789T413 911T625 956ZM622 849Q535 849 459 814T326 719T237 580T205 411Q205 343 226 284T288 183T386 116T515 92Q593 92 662 120T787 197T879 314T928 462Q940 543 923 613T866 736T763 819T622 849ZM915 46L936 0Q863 -30 812 -59T730 -118T685 -175T671 -231Q671 -269 697 -291T767 -314Q799 -314 828 -300T883 -260L936 -334Q851 -412 751 -412Q709 -412 674 -401T614 -370T575 -321T561 -257Q561 -211 582 -171T647 -94T757 -23T915 46Z" horiz-adv-x="1210" unicode="ą"/>
			<glyph d="M936 1415Q973 1415 1018 1410T1114 1394T1216 1362T1317 1310T1412 1232T1492 1125L1398 1051Q1359 1120 1304 1167T1186 1244T1056 1285T929 1298Q839 1298 756 1275T603 1210T476 1110T378 978T316 822T294 647Q294 527 334 426T447 254T617 142T831 102Q963 102 1078 157T1273 312L1354 234Q1306 175 1246 128T1119 50T977 1T823 -16Q682 -16 561 32T353 166T215 373T166 637Q166 803 224 945T386 1191T630 1355T936 1415ZM1061 1797H1209L926 1497H808Z" horiz-adv-x="1493" unicode="Ć"/>
			<glyph d="M617 955Q738 955 830 910T981 780L892 716Q863 753 829 778T759 819T685 841T612 848Q527 848 454 815T327 726T242 594T211 433Q211 359 236 297T304 190T408 119T538 94Q617 94 688 122T814 205L880 130Q813 61 723 24T533 -13Q435 -13 354 20T215 113T125 252T94 426Q94 535 134 631T244 799T409 913T617 955ZM775 1383H923L640 1083H522Z" horiz-adv-x="1008" unicode="ć"/>
			<glyph d="M936 1415Q973 1415 1018 1410T1114 1394T1216 1362T1317 1310T1412 1232T1492 1125L1398 1051Q1359 1120 1304 1167T1186 1244T1056 1285T929 1298Q839 1298 756 1275T603 1210T476 1110T378 978T316 822T294 647Q294 527 334 426T447 254T617 142T831 102Q963 102 1078 157T1273 312L1354 234Q1306 175 1246 128T1119 50T977 1T823 -16Q682 -16 561 32T353 166T215 373T166 637Q166 803 224 945T386 1191T630 1355T936 1415ZM924 1785H1074L1264 1503H1144L990 1716L751 1503H622Z" horiz-adv-x="1493" unicode="Ĉ"/>
			<glyph d="M617 955Q738 955 830 910T981 780L892 716Q863 753 829 778T759 819T685 841T612 848Q527 848 454 815T327 726T242 594T211 433Q211 359 236 297T304 190T408 119T538 94Q617 94 688 122T814 205L880 130Q813 61 723 24T533 -13Q435 -13 354 20T215 113T125 252T94 426Q94 535 134 631T244 799T409 913T617 955ZM620 1370H770L960 1088H840L686 1301L447 1088H318Z" horiz-adv-x="1008" unicode="ĉ"/>
			<glyph d="M936 1415Q973 1415 1018 1410T1114 1394T1216 1362T1317 1310T1412 1232T1492 1125L1398 1051Q1359 1120 1304 1167T1186 1244T1056 1285T929 1298Q839 1298 756 1275T603 1210T476 1110T378 978T316 822T294 647Q294 527 334 426T447 254T617 142T831 102Q963 102 1078 157T1273 312L1354 234Q1306 175 1246 128T1119 50T977 1T823 -16Q682 -16 561 32T353 166T215 373T166 637Q166 803 224 945T386 1191T630 1355T936 1415ZM979 1734Q1016 1734 1040 1709T1065 1647Q1065 1610 1040 1586T979 1562Q942 1562 918 1586T894 1647Q894 1684 918 1709T979 1734Z" horiz-adv-x="1493" unicode="Ċ"/>
			<glyph d="M617 955Q738 955 830 910T981 780L892 716Q863 753 829 778T759 819T685 841T612 848Q527 848 454 815T327 726T242 594T211 433Q211 359 236 297T304 190T408 119T538 94Q617 94 688 122T814 205L880 130Q813 61 723 24T533 -13Q435 -13 354 20T215 113T125 252T94 426Q94 535 134 631T244 799T409 913T617 955ZM685 1362Q720 1362 743 1338T767 1279Q767 1244 743 1221T685 1198Q650 1198 627 1221T604 1279Q604 1314 627 1338T685 1362Z" horiz-adv-x="1008" unicode="ċ"/>
			<glyph d="M936 1415Q973 1415 1018 1410T1114 1394T1216 1362T1317 1310T1412 1232T1492 1125L1398 1051Q1359 1120 1304 1167T1186 1244T1056 1285T929 1298Q839 1298 756 1275T603 1210T476 1110T378 978T316 822T294 647Q294 527 334 426T447 254T617 142T831 102Q963 102 1078 157T1273 312L1354 234Q1306 175 1246 128T1119 50T977 1T823 -16Q682 -16 561 32T353 166T215 373T166 637Q166 803 224 945T386 1191T630 1355T936 1415ZM692 1782H812L965 1569L1205 1782H1335L1032 1501H883Z" horiz-adv-x="1493" unicode="Č"/>
			<glyph d="M617 955Q738 955 830 910T981 780L892 716Q863 753 829 778T759 819T685 841T612 848Q527 848 454 815T327 726T242 594T211 433Q211 359 236 297T304 190T408 119T538 94Q617 94 688 122T814 205L880 130Q813 61 723 24T533 -13Q435 -13 354 20T215 113T125 252T94 426Q94 535 134 631T244 799T409 913T617 955ZM376 1367H496L649 1154L889 1367H1019L716 1086H567Z" horiz-adv-x="1008" unicode="č"/>
			<glyph d="M398 1400H851Q1006 1400 1127 1359T1331 1242T1458 1060T1502 823Q1502 651 1443 501T1270 239T987 64T599 0H100ZM497 1284L248 116H612Q798 116 940 169T1179 316T1324 537T1373 812Q1373 918 1339 1005T1239 1154T1071 1250T838 1284ZM653 1782H773L926 1569L1166 1782H1296L993 1501H844Z" horiz-adv-x="1559" unicode="Ď"/>
			<glyph d="M1129 1440H1243L937 0H824L854 145Q790 72 699 28T495 -15Q406 -15 331 16T203 102T118 234T88 400Q88 511 129 612T243 789T413 911T625 956Q693 955 750 937T851 889T927 816T976 722ZM622 849Q535 849 459 814T326 719T237 580T205 411Q205 343 226 284T288 183T386 116T515 92Q593 92 662 120T787 197T879 314T928 462Q940 543 923 613T866 736T763 819T622 849ZM1392 1440H1519L1395 1051H1300Z" horiz-adv-x="1268" unicode="ď"/>
			<glyph d="M572 1400H1025Q1180 1400 1301 1359T1505 1242T1632 1060T1676 823Q1676 651 1617 501T1444 239T1161 64T773 0H274L411 647H158L183 763H436ZM671 1284L560 763H971L946 647H535L422 116H786Q972 116 1114 169T1353 316T1498 537T1547 812Q1547 918 1513 1005T1413 1154T1245 1250T1012 1284Z" horiz-adv-x="1733" unicode="Đ"/>
			<glyph d="M1129 1440H1243L1198 1228H1380L1359 1125H1176L937 0H824L854 145Q790 72 699 28T495 -15Q406 -15 331 16T203 102T118 234T88 400Q88 511 129 612T243 789T413 911T625 956Q693 956 750 938T851 890T927 816T976 722L1062 1125H658L679 1228H1084ZM622 849Q535 849 459 814T326 719T237 580T205 411Q205 343 226 284T288 183T386 116T515 92Q593 92 662 120T787 197T879 314T928 462Q940 543 923 613T866 736T763 819T622 849Z" horiz-adv-x="1211" unicode="đ"/>
			<glyph d="M398 1400H1334L1310 1285H497L386 762H1180L1155 648H362L248 115H1072L1047 0H100ZM625 1688H1210L1190 1595H605Z" horiz-adv-x="1297" unicode="Ē"/>
			<glyph d="M618 956Q704 956 774 929T895 854T973 737T1001 585Q1001 545 994 503T976 429H202Q201 420 201 411V394Q201 326 222 269T284 171T384 107T517 84Q617 84 692 116T833 209L890 130Q809 56 717 20T505 -16Q406 -16 328 15T196 100T114 229T86 390Q86 458 102 526T150 657T227 774T332 869T463 933T618 956ZM613 855Q533 855 467 827T352 754T269 650T219 527H884Q886 541 887 554T888 582Q888 645 868 695T812 781T725 836T613 855ZM394 1273H979L959 1180H374Z" horiz-adv-x="1078" unicode="ē"/>
			<glyph d="M398 1400H1334L1310 1285H497L386 762H1180L1155 648H362L248 115H1072L1047 0H100ZM701 1799Q704 1749 719 1711T759 1648T819 1610T895 1598Q1058 1598 1153 1799L1244 1771Q1181 1638 1093 1569T885 1501Q827 1501 777 1518T691 1570T633 1654T608 1771Z" horiz-adv-x="1297" unicode="Ĕ"/>
			<glyph d="M618 956Q704 956 774 929T895 854T973 737T1001 585Q1001 545 994 503T976 429H202Q201 420 201 411V394Q201 326 222 269T284 171T384 107T517 84Q617 84 692 116T833 209L890 130Q809 56 717 20T505 -16Q406 -16 328 15T196 100T114 229T86 390Q86 458 102 526T150 657T227 774T332 869T463 933T618 956ZM613 855Q533 855 467 827T352 754T269 650T219 527H884Q886 541 887 554T888 582Q888 645 868 695T812 781T725 836T613 855ZM464 1384Q467 1334 482 1296T522 1233T582 1195T658 1183Q821 1183 916 1384L1007 1356Q944 1223 856 1154T648 1086Q590 1086 540 1103T454 1155T396 1239T371 1356Z" horiz-adv-x="1078" unicode="ĕ"/>
			<glyph d="M398 1400H1334L1310 1285H497L386 762H1180L1155 648H362L248 115H1072L1047 0H100ZM900 1734Q937 1734 961 1709T986 1647Q986 1610 961 1586T900 1562Q863 1562 839 1586T815 1647Q815 1684 839 1709T900 1734Z" horiz-adv-x="1297" unicode="Ė"/>
			<glyph d="M618 956Q704 956 774 929T895 854T973 737T1001 585Q1001 545 994 503T976 429H202Q201 420 201 411V394Q201 326 222 269T284 171T384 107T517 84Q617 84 692 116T833 209L890 130Q809 56 717 20T505 -16Q406 -16 328 15T196 100T114 229T86 390Q86 458 102 526T150 657T227 774T332 869T463 933T618 956ZM613 855Q533 855 467 827T352 754T269 650T219 527H884Q886 541 887 554T888 582Q888 645 868 695T812 781T725 836T613 855ZM687 1362Q722 1362 745 1338T769 1279Q769 1244 745 1221T687 1198Q652 1198 629 1221T606 1279Q606 1314 629 1338T687 1362Z" horiz-adv-x="1078" unicode="ė"/>
			<glyph d="M398 1400H1334L1310 1285H497L386 762H1180L1155 648H362L248 115H1072L1047 0H100ZM897 52L908 9Q845 -18 803 -45T735 -99T698 -154T687 -209Q687 -255 722 -284T820 -314Q862 -314 900 -299T972 -259L1017 -338Q969 -374 914 -392T802 -411Q749 -411 706 -397T633 -360T586 -303T570 -231Q570 -189 586 -151T641 -77T741 -10T897 52Z" horiz-adv-x="1297" unicode="Ę"/>
			<glyph d="M618 956Q704 956 774 929T895 854T973 737T1001 585Q1001 545 994 503T976 429H202Q201 420 201 411V394Q201 326 222 269T284 171T384 107T517 84Q617 84 692 116T833 209L890 130Q809 56 717 20T505 -16Q406 -16 328 15T196 100T114 229T86 390Q86 458 102 526T150 657T227 774T332 869T463 933T618 956ZM613 855Q533 855 467 827T352 754T269 650T219 527H884Q886 541 887 554T888 582Q888 645 868 695T812 781T725 836T613 855ZM731 77L750 34Q675 4 625 -25T544 -83T500 -143T487 -203Q487 -254 522 -284T620 -315Q662 -315 699 -300T770 -260L823 -336Q778 -374 724 -393T614 -412Q559 -412 515 -397T439 -357T391 -297T374 -220Q374 -180 391 -140T449 -62T558 11T731 77Z" horiz-adv-x="1078" unicode="ę"/>
			<glyph d="M398 1400H1334L1310 1285H497L386 762H1180L1155 648H362L248 115H1072L1047 0H100ZM613 1782H733L886 1569L1126 1782H1256L953 1501H804Z" horiz-adv-x="1297" unicode="Ě"/>
			<glyph d="M618 956Q704 956 774 929T895 854T973 737T1001 585Q1001 545 994 503T976 429H202Q201 420 201 411V394Q201 326 222 269T284 171T384 107T517 84Q617 84 692 116T833 209L890 130Q809 56 717 20T505 -16Q406 -16 328 15T196 100T114 229T86 390Q86 458 102 526T150 657T227 774T332 869T463 933T618 956ZM613 855Q533 855 467 827T352 754T269 650T219 527H884Q886 541 887 554T888 582Q888 645 868 695T812 781T725 836T613 855ZM378 1367H498L651 1154L891 1367H1021L718 1086H569Z" horiz-adv-x="1078" unicode="ě"/>
			<glyph d="M933 1414Q983 1414 1048 1405T1184 1370T1324 1297T1450 1176L1358 1093Q1314 1150 1261 1189T1151 1251T1035 1285T923 1296Q792 1296 677 1247T476 1110T341 902T292 640Q292 520 332 421T445 251T617 142T835 104Q949 104 1045 139T1215 242T1336 404T1403 620H932L957 733H1545Q1545 720 1544 705T1541 676Q1523 522 1463 395T1310 177T1093 36T824 -14Q682 -14 561 33T352 166T214 369T164 628Q164 740 191 842T267 1031T387 1189T542 1310T726 1387T933 1414ZM911 1785H1061L1251 1503H1131L977 1716L738 1503H609Z" horiz-adv-x="1613" unicode="Ĝ"/>
			<glyph d="M623 956Q692 956 749 938T851 890T927 816T976 721L1023 941H1136L949 57Q925 -57 876 -144T759 -289T609 -378T434 -408Q310 -408 208 -370T29 -261L95 -176Q159 -237 246 -271T436 -305Q508 -305 573 -280T691 -209T782 -93T837 64L854 150Q791 79 703 38T510 -2Q415 -2 338 29T205 114T120 244T90 406Q90 519 131 619T245 794T414 912T623 956ZM622 849Q535 849 459 816T328 725T240 588T208 417Q208 349 230 291T293 192T390 127T515 104Q596 104 667 132T794 212T884 335T928 490Q936 566 917 631T857 745T756 821T622 849ZM652 1370H802L992 1088H872L718 1301L479 1088H350Z" horiz-adv-x="1211" unicode="ĝ"/>
			<glyph d="M933 1414Q983 1414 1048 1405T1184 1370T1324 1297T1450 1176L1358 1093Q1314 1150 1261 1189T1151 1251T1035 1285T923 1296Q792 1296 677 1247T476 1110T341 902T292 640Q292 520 332 421T445 251T617 142T835 104Q949 104 1045 139T1215 242T1336 404T1403 620H932L957 733H1545Q1545 720 1544 705T1541 676Q1523 522 1463 395T1310 177T1093 36T824 -14Q682 -14 561 33T352 166T214 369T164 628Q164 740 191 842T267 1031T387 1189T542 1310T726 1387T933 1414ZM767 1799Q770 1749 785 1711T825 1648T885 1610T961 1598Q1124 1598 1219 1799L1310 1771Q1247 1638 1159 1569T951 1501Q893 1501 843 1518T757 1570T699 1654T674 1771Z" horiz-adv-x="1613" unicode="Ğ"/>
			<glyph d="M623 956Q692 956 749 938T851 890T927 816T976 721L1023 941H1136L949 57Q925 -57 876 -144T759 -289T609 -378T434 -408Q310 -408 208 -370T29 -261L95 -176Q159 -237 246 -271T436 -305Q508 -305 573 -280T691 -209T782 -93T837 64L854 150Q791 79 703 38T510 -2Q415 -2 338 29T205 114T120 244T90 406Q90 519 131 619T245 794T414 912T623 956ZM622 849Q535 849 459 816T328 725T240 588T208 417Q208 349 230 291T293 192T390 127T515 104Q596 104 667 132T794 212T884 335T928 490Q936 566 917 631T857 745T756 821T622 849ZM494 1384Q497 1334 512 1296T552 1233T612 1195T688 1183Q851 1183 946 1384L1037 1356Q974 1223 886 1154T678 1086Q620 1086 570 1103T484 1155T426 1239T401 1356Z" horiz-adv-x="1211" unicode="ğ"/>
			<glyph d="M933 1414Q983 1414 1048 1405T1184 1370T1324 1297T1450 1176L1358 1093Q1314 1150 1261 1189T1151 1251T1035 1285T923 1296Q792 1296 677 1247T476 1110T341 902T292 640Q292 520 332 421T445 251T617 142T835 104Q949 104 1045 139T1215 242T1336 404T1403 620H932L957 733H1545Q1545 720 1544 705T1541 676Q1523 522 1463 395T1310 177T1093 36T824 -14Q682 -14 561 33T352 166T214 369T164 628Q164 740 191 842T267 1031T387 1189T542 1310T726 1387T933 1414ZM966 1734Q1003 1734 1027 1709T1052 1647Q1052 1610 1027 1586T966 1562Q929 1562 905 1586T881 1647Q881 1684 905 1709T966 1734Z" horiz-adv-x="1613" unicode="Ġ"/>
			<glyph d="M623 956Q692 956 749 938T851 890T927 816T976 721L1023 941H1136L949 57Q925 -57 876 -144T759 -289T609 -378T434 -408Q310 -408 208 -370T29 -261L95 -176Q159 -237 246 -271T436 -305Q508 -305 573 -280T691 -209T782 -93T837 64L854 150Q791 79 703 38T510 -2Q415 -2 338 29T205 114T120 244T90 406Q90 519 131 619T245 794T414 912T623 956ZM622 849Q535 849 459 816T328 725T240 588T208 417Q208 349 230 291T293 192T390 127T515 104Q596 104 667 132T794 212T884 335T928 490Q936 566 917 631T857 745T756 821T622 849ZM717 1362Q752 1362 775 1338T799 1279Q799 1244 775 1221T717 1198Q682 1198 659 1221T636 1279Q636 1314 659 1338T717 1362Z" horiz-adv-x="1211" unicode="ġ"/>
			<glyph d="M933 1414Q983 1414 1048 1405T1184 1370T1324 1297T1450 1176L1358 1093Q1314 1150 1261 1189T1151 1251T1035 1285T923 1296Q792 1296 677 1247T476 1110T341 902T292 640Q292 520 332 421T445 251T617 142T835 104Q949 104 1045 139T1215 242T1336 404T1403 620H932L957 733H1545Q1545 720 1544 705T1541 676Q1523 522 1463 395T1310 177T1093 36T824 -14Q682 -14 561 33T352 166T214 369T164 628Q164 740 191 842T267 1031T387 1189T542 1310T726 1387T933 1414ZM732 -88H859L724 -429H616Z" horiz-adv-x="1613" unicode="Ģ"/>
			<glyph d="M623 956Q692 956 749 938T851 890T927 816T976 721L1023 941H1136L949 57Q925 -57 876 -144T759 -289T609 -378T434 -408Q310 -408 208 -370T29 -261L95 -176Q159 -237 246 -271T436 -305Q508 -305 573 -280T691 -209T782 -93T837 64L854 150Q791 79 703 38T510 -2Q415 -2 338 29T205 114T120 244T90 406Q90 519 131 619T245 794T414 912T623 956ZM622 849Q535 849 459 816T328 725T240 588T208 417Q208 349 230 291T293 192T390 127T515 104Q596 104 667 132T794 212T884 335T928 490Q936 566 917 631T857 745T756 821T622 849ZM747 1422H855L739 1082H612Z" horiz-adv-x="1211" unicode="ģ"/>
			<glyph d="M398 1400H522L386 763H1274L1410 1400H1535L1236 0H1112L1249 647H361L224 0H100ZM948 1785H1098L1288 1503H1168L1014 1716L775 1503H646Z" horiz-adv-x="1537" unicode="Ĥ"/>
			<glyph d="M380 1440H494L360 810Q428 888 513 922T689 956Q772 956 836 932T945 865T1013 762T1037 631Q1037 607 1033 580T1024 525L912 0H798L911 530Q916 553 918 574T921 617Q921 667 905 709T858 782T780 830T670 848Q601 848 541 826T433 762T351 662T301 531L188 0H74ZM773 1829H923L1113 1547H993L839 1760L600 1547H471Z" horiz-adv-x="1176" unicode="ĥ"/>
			<glyph d="M426 1400H550L491 1125H1379L1438 1400H1563L1504 1125H1671L1651 1022H1482L1264 0H1140L1277 647H389L252 0H128L345 1022H178L199 1125H367ZM469 1022L414 763H1302L1357 1022Z" horiz-adv-x="1594" unicode="Ħ"/>
			<glyph d="M380 1440H494L449 1228H863L842 1125H427L360 810Q428 888 513 922T689 956Q772 956 836 932T945 865T1013 762T1037 631Q1037 607 1033 580T1024 525L912 0H798L911 530Q916 553 918 574T921 617Q921 667 905 709T858 782T780 830T670 848Q601 848 541 826T433 762T351 662T301 531L188 0H74L313 1125H141L162 1228H335Z" horiz-adv-x="1176" unicode="ħ"/>
			<glyph d="M398 1400H522L224 0H100ZM372 1742Q423 1742 456 1728T516 1699T568 1669T628 1656Q672 1656 707 1675T778 1733L843 1665Q794 1610 743 1583T627 1557Q576 1557 543 1570T483 1600T431 1630T371 1644Q327 1644 292 1624T221 1566L156 1634Q205 1689 255 1715T372 1742Z" horiz-adv-x="524" unicode="Ĩ"/>
			<glyph d="M274 941H389L188 0H74ZM250 1327Q301 1327 334 1313T394 1284T446 1254T506 1241Q550 1241 585 1260T656 1318L721 1250Q672 1195 621 1168T505 1142Q454 1142 421 1155T361 1185T309 1215T249 1229Q205 1229 170 1209T99 1151L34 1219Q83 1274 133 1300T250 1327Z" horiz-adv-x="463" unicode="ĩ"/>
			<glyph d="M398 1400H522L224 0H100ZM219 1688H804L784 1595H199Z" horiz-adv-x="524" unicode="Ī"/>
			<glyph d="M274 941H389L188 0H74ZM109 1273H694L674 1180H89Z" horiz-adv-x="463" unicode="ī"/>
			<glyph d="M398 1400H522L224 0H100ZM295 1799Q298 1749 313 1711T353 1648T413 1610T489 1598Q652 1598 747 1799L838 1771Q775 1638 687 1569T479 1501Q421 1501 371 1518T285 1570T227 1654T202 1771Z" horiz-adv-x="524" unicode="Ĭ"/>
			<glyph d="M274 941H389L188 0H74ZM179 1384Q182 1334 197 1296T237 1233T297 1195T373 1183Q536 1183 631 1384L722 1356Q659 1223 571 1154T363 1086Q305 1086 255 1103T169 1155T111 1239T86 1356Z" horiz-adv-x="463" unicode="ĭ"/>
			<glyph d="M398 1400H522L224 0H100ZM195 43L224 0Q171 -37 135 -68T79 -127T49 -180T41 -229Q41 -267 68 -290T141 -314Q171 -314 199 -300T253 -262L306 -338Q265 -376 222 -393T132 -411Q88 -411 51 -399T-11 -367T-53 -316T-68 -250Q-68 -213 -55 -178T-13 -108T67 -36T195 43Z" horiz-adv-x="524" unicode="Į"/>
			<glyph d="M159 43L188 0Q135 -37 99 -68T43 -127T13 -180T5 -229Q5 -267 32 -290T105 -314Q135 -314 163 -300T217 -262L270 -338Q229 -376 186 -393T96 -411Q52 -411 15 -399T-47 -367T-89 -316T-104 -250Q-104 -213 -91 -178T-49 -108T31 -36T159 43ZM274 941H389L188 0H74ZM402 1362Q437 1362 460 1338T484 1279Q484 1244 460 1221T402 1198Q367 1198 344 1221T321 1279Q321 1314 344 1338T402 1362Z" horiz-adv-x="463" unicode="į"/>
			<glyph d="M398 1400H522L224 0H100ZM494 1734Q531 1734 555 1709T580 1647Q580 1610 555 1586T494 1562Q457 1562 433 1586T409 1647Q409 1684 433 1709T494 1734Z" horiz-adv-x="524" unicode="İ"/>
			<glyph d="M274 941H389L188 0H74Z" horiz-adv-x="463" unicode="ı"/>
			<glyph d="M398 1400H522L224 0H100ZM1503 1400H1627L1435 472Q1409 346 1362 254T1249 102T1101 13T920 -15Q856 -15 796 0T685 40T591 102T519 181L608 261Q630 229 663 200T737 149T825 115T925 102Q998 102 1060 125T1172 196T1258 320T1316 499Z" horiz-adv-x="1624" unicode="Ĳ"/>
			<glyph d="M742 941H857L618 -183Q594 -298 529 -355T370 -412Q327 -412 289 -400T228 -371L271 -278Q289 -290 313 -297T363 -305Q418 -305 455 -270T506 -168ZM870 1362Q905 1362 928 1338T952 1279Q952 1244 928 1221T870 1198Q835 1198 812 1221T789 1279Q789 1314 812 1338T870 1362ZM274 941H389L188 0H74ZM402 1362Q437 1362 460 1338T484 1279Q484 1244 460 1221T402 1198Q367 1198 344 1221T321 1279Q321 1314 344 1338T402 1362Z" horiz-adv-x="931" unicode="ĳ"/>
			<glyph d="M979 1400H1103L911 472Q885 346 838 254T725 102T577 13T396 -15Q332 -15 272 0T161 40T67 102T-5 181L84 261Q106 229 139 200T213 149T301 115T401 102Q474 102 536 125T648 196T734 320T792 499ZM1020 1785H1170L1360 1503H1240L1086 1716L847 1503H718Z" horiz-adv-x="1100" unicode="Ĵ"/>
			<glyph d="M279 941H394L155 -183Q131 -298 66 -355T-93 -412Q-136 -412 -173 -400T-235 -371L-192 -278Q-174 -290 -150 -297T-100 -305Q-45 -305 -8 -270T43 -168ZM342 1370H492L682 1088H562L408 1301L169 1088H40Z" horiz-adv-x="468" unicode="ĵ"/>
			<glyph d="M398 1400H522L386 762H556L1263 1400H1427L648 706L1217 0H1068L548 646H361L224 0H100ZM566 -88H693L558 -429H450Z" horiz-adv-x="1334" unicode="Ķ"/>
			<glyph d="M380 1440H494L303 544H452L897 941H1047L529 486L879 0H750L437 441H281L188 0H74ZM387 -88H514L379 -429H271Z" horiz-adv-x="1013" unicode="ķ"/>
			<glyph d="M274 941H389L304 544H451L897 941H1046L528 486L878 0H750L436 441H282L188 0H74Z" horiz-adv-x="1012" unicode="ĸ"/>
			<glyph d="M398 1400H522L248 116H1058L1034 0H100ZM576 1797H724L441 1497H323Z" horiz-adv-x="1174" unicode="Ĺ"/>
			<glyph d="M380 1440H494L188 0H74ZM544 1797H692L409 1497H291Z" horiz-adv-x="462" unicode="ĺ"/>
			<glyph d="M398 1400H522L248 116H1058L1034 0H100ZM518 -88H645L510 -429H402Z" horiz-adv-x="1174" unicode="Ļ"/>
			<glyph d="M380 1440H494L188 0H74ZM62 -88H189L54 -429H-54Z" horiz-adv-x="462" unicode="ļ"/>
			<glyph d="M398 1400H522L248 116H1058L1034 0H100ZM800 1401H927L803 1012H708Z" horiz-adv-x="1174" unicode="Ľ"/>
			<glyph d="M380 1440H494L188 0H74ZM642 1440H769L645 1051H550Z" horiz-adv-x="518" unicode="ľ"/>
			<glyph d="M398 1400H522L248 116H1058L1034 0H100ZM857 794Q894 794 918 769T943 707Q943 670 918 646T857 622Q820 622 796 646T772 707Q772 744 796 769T857 794Z" horiz-adv-x="1174" unicode="Ŀ"/>
			<glyph d="M380 1440H494L188 0H74ZM561 814Q596 814 619 790T643 731Q643 696 619 673T561 650Q526 650 503 673T480 731Q480 766 503 790T561 814Z" horiz-adv-x="555" unicode="ŀ"/>
			<glyph d="M542 1400H666L525 741L1072 1016L1044 880L496 604L392 116H1202L1178 0H244L358 534L108 409L136 545L387 671Z" horiz-adv-x="1318" unicode="Ł"/>
			<glyph d="M457 1440H571L447 858L702 1013L675 888L421 733L265 0H151L290 653L61 514L88 640L316 779Z" horiz-adv-x="639" unicode="ł"/>
			<glyph d="M398 1400H513L1156 192L1413 1400H1538L1239 0H1126L481 1208L224 0H100ZM1075 1797H1223L940 1497H822Z" horiz-adv-x="1540" unicode="Ń"/>
			<glyph d="M689 956Q772 956 836 932T945 865T1013 762T1037 631Q1037 607 1033 580T1024 525L912 0H798L911 530Q916 553 918 574T921 617Q921 667 905 709T858 782T780 830T670 848Q601 848 541 826T433 762T351 662T301 531L188 0H74L274 941H387L359 808Q427 886 513 921T689 956ZM841 1383H989L706 1083H588Z" horiz-adv-x="1176" unicode="ń"/>
			<glyph d="M398 1400H513L1156 192L1413 1400H1538L1239 0H1126L481 1208L224 0H100ZM619 -88H746L611 -429H503Z" horiz-adv-x="1540" unicode="Ņ"/>
			<glyph d="M689 956Q772 956 836 932T945 865T1013 762T1037 631Q1037 607 1033 580T1024 525L912 0H798L911 530Q916 553 918 574T921 617Q921 667 905 709T858 782T780 830T670 848Q601 848 541 826T433 762T351 662T301 531L188 0H74L274 941H387L359 808Q427 886 513 921T689 956ZM424 -88H551L416 -429H308Z" horiz-adv-x="1176" unicode="ņ"/>
			<glyph d="M398 1400H513L1156 192L1413 1400H1538L1239 0H1126L481 1208L224 0H100ZM706 1782H826L979 1569L1219 1782H1349L1046 1501H897Z" horiz-adv-x="1540" unicode="Ň"/>
			<glyph d="M689 956Q772 956 836 932T945 865T1013 762T1037 631Q1037 607 1033 580T1024 525L912 0H798L911 530Q916 553 918 574T921 617Q921 667 905 709T858 782T780 830T670 848Q601 848 541 826T433 762T351 662T301 531L188 0H74L274 941H387L359 808Q427 886 513 921T689 956ZM442 1367H562L715 1154L955 1367H1085L782 1086H633Z" horiz-adv-x="1176" unicode="ň"/>
			<glyph d="M405 1440H537L346 957H240ZM968 956Q1051 956 1115 932T1224 865T1292 762T1316 631Q1316 607 1312 580T1303 525L1191 0H1077L1190 530Q1195 553 1197 574T1200 617Q1200 667 1184 709T1137 782T1059 830T949 848Q880 848 820 826T712 762T630 662T580 531L467 0H353L553 941H666L638 808Q706 886 792 921T968 956Z" horiz-adv-x="1455" unicode="ŉ"/>
			<glyph d="M398 1402H513L1156 190L1413 1400H1538L1227 -60Q1209 -143 1178 -208T1100 -319T989 -388T844 -412Q763 -412 696 -392T586 -338L644 -237Q680 -263 730 -279T844 -295Q959 -295 1021 -227T1110 -34L1119 10L481 1210L224 0H100Z" horiz-adv-x="1540" unicode="Ŋ"/>
			<glyph d="M689 956Q772 956 836 932T945 865T1013 762T1037 631Q1037 607 1033 580T1024 525L892 -98Q867 -214 802 -271T644 -328Q600 -328 563 -316T502 -287L545 -193Q563 -206 587 -213T637 -221Q691 -221 728 -186T780 -84L911 530Q916 553 918 574T921 617Q921 667 905 709T858 782T780 830T670 848Q601 848 541 826T433 762T351 662T301 531L188 0H74L274 941H387L359 808Q427 886 513 921T689 956Z" horiz-adv-x="1177" unicode="ŋ"/>
			<glyph d="M931 1415Q1071 1415 1192 1369T1402 1240T1543 1036T1595 769Q1595 662 1569 562T1496 375T1380 216T1227 92T1041 12T829 -16Q689 -16 567 29T356 159T215 363T164 631Q164 738 189 837T263 1024T379 1183T533 1306T718 1386T931 1415ZM921 1298Q782 1298 666 1244T467 1101T338 891T292 640Q292 516 333 416T448 247T622 139T839 102Q931 102 1013 126T1166 194T1291 298T1386 432T1446 589T1467 760Q1467 884 1425 983T1310 1153T1137 1260T921 1298ZM715 1688H1300L1280 1595H695Z" horiz-adv-x="1662" unicode="Ō"/>
			<glyph d="M622 956Q721 956 803 923T944 831T1036 691T1069 517Q1069 408 1028 311T917 141T749 26T540 -16Q442 -16 359 17T218 108T126 247T93 424Q93 533 133 629T245 798T412 913T622 956ZM613 849Q527 849 453 815T326 725T241 591T210 430Q210 356 235 294T304 187T411 116T547 91Q633 91 707 124T836 215T922 348T953 511Q953 584 928 646T858 753T750 823T613 849ZM424 1273H1009L989 1180H404Z" horiz-adv-x="1162" unicode="ō"/>
			<glyph d="M931 1415Q1071 1415 1192 1369T1402 1240T1543 1036T1595 769Q1595 662 1569 562T1496 375T1380 216T1227 92T1041 12T829 -16Q689 -16 567 29T356 159T215 363T164 631Q164 738 189 837T263 1024T379 1183T533 1306T718 1386T931 1415ZM921 1298Q782 1298 666 1244T467 1101T338 891T292 640Q292 516 333 416T448 247T622 139T839 102Q931 102 1013 126T1166 194T1291 298T1386 432T1446 589T1467 760Q1467 884 1425 983T1310 1153T1137 1260T921 1298ZM791 1799Q794 1749 809 1711T849 1648T909 1610T985 1598Q1148 1598 1243 1799L1334 1771Q1271 1638 1183 1569T975 1501Q917 1501 867 1518T781 1570T723 1654T698 1771Z" horiz-adv-x="1662" unicode="Ŏ"/>
			<glyph d="M622 956Q721 956 803 923T944 831T1036 691T1069 517Q1069 408 1028 311T917 141T749 26T540 -16Q442 -16 359 17T218 108T126 247T93 424Q93 533 133 629T245 798T412 913T622 956ZM613 849Q527 849 453 815T326 725T241 591T210 430Q210 356 235 294T304 187T411 116T547 91Q633 91 707 124T836 215T922 348T953 511Q953 584 928 646T858 753T750 823T613 849ZM494 1384Q497 1334 512 1296T552 1233T612 1195T688 1183Q851 1183 946 1384L1037 1356Q974 1223 886 1154T678 1086Q620 1086 570 1103T484 1155T426 1239T401 1356Z" horiz-adv-x="1162" unicode="ŏ"/>
			<glyph d="M931 1415Q1071 1415 1192 1369T1402 1240T1543 1036T1595 769Q1595 662 1569 562T1496 375T1380 216T1227 92T1041 12T829 -16Q689 -16 567 29T356 159T215 363T164 631Q164 738 189 837T263 1024T379 1183T533 1306T718 1386T931 1415ZM921 1298Q782 1298 666 1244T467 1101T338 891T292 640Q292 516 333 416T448 247T622 139T839 102Q931 102 1013 126T1166 194T1291 298T1386 432T1446 589T1467 760Q1467 884 1425 983T1310 1153T1137 1260T921 1298ZM1313 1797H1451L1174 1497H1056ZM959 1797H1092L833 1497H713Z" horiz-adv-x="1662" unicode="Ő"/>
			<glyph d="M622 956Q721 956 803 923T944 831T1036 691T1069 517Q1069 408 1028 311T917 141T749 26T540 -16Q442 -16 359 17T218 108T126 247T93 424Q93 533 133 629T245 798T412 913T622 956ZM613 849Q527 849 453 815T326 725T241 591T210 430Q210 356 235 294T304 187T411 116T547 91Q633 91 707 124T836 215T922 348T953 511Q953 584 928 646T858 753T750 823T613 849ZM1020 1382H1158L881 1082H763ZM666 1382H799L540 1082H420Z" horiz-adv-x="1162" unicode="ő"/>
			<glyph d="M1057 1400H2218L2194 1285H1381L1270 762H2064L2039 648H1246L1132 115H1956L1931 0H805Q650 0 529 41T325 157T198 339T155 577Q155 749 213 899T386 1160T668 1336T1057 1400ZM1044 1284Q858 1284 715 1230T477 1083T332 862T283 588Q283 482 316 395T417 246T584 150T818 116H1008L1257 1284Z" horiz-adv-x="2181" unicode="Œ"/>
			<glyph d="M622 956Q695 956 758 937T874 882T966 798T1028 689Q1060 747 1104 796T1205 880T1328 936T1473 956Q1559 956 1629 929T1750 854T1828 737T1856 585Q1856 545 1849 503T1831 429H1057Q1056 420 1056 411V394Q1056 326 1077 269T1139 171T1239 107T1372 84Q1472 84 1547 116T1688 209L1745 130Q1664 56 1572 20T1360 -16Q1287 -16 1226 1T1117 51T1034 128T978 228Q944 173 897 128T795 51T674 1T540 -16Q442 -16 359 17T218 108T126 247T93 424Q93 533 133 629T245 798T412 913T622 956ZM613 849Q527 849 453 815T326 725T241 591T210 430Q210 356 235 294T304 187T411 116T547 91Q633 91 707 124T836 215T922 348T953 511Q953 584 928 646T858 753T750 823T613 849ZM1468 855Q1388 855 1322 827T1207 754T1124 650T1074 527H1739Q1741 541 1742 554T1743 582Q1743 645 1723 695T1667 781T1580 836T1468 855Z" horiz-adv-x="1933" unicode="œ"/>
			<glyph d="M398 1400H893Q996 1400 1075 1375T1208 1305T1289 1198T1317 1063Q1317 977 1286 897T1189 756T1022 658T779 621H689L1151 0H1005L554 621H356L224 0H100ZM497 1284L379 732H783Q890 732 967 756T1093 824T1166 925T1189 1050Q1189 1103 1169 1146T1111 1220T1014 1267T881 1284ZM932 1797H1080L797 1497H679Z" horiz-adv-x="1317" unicode="Ŕ"/>
			<glyph d="M655 957Q701 957 748 945T830 914L779 811Q752 828 713 838T635 848Q575 848 521 826T424 763T348 662T300 528L188 0H74L274 941H387L361 818Q423 891 499 924T655 957ZM698 1383H846L563 1083H445Z" horiz-adv-x="788" unicode="ŕ"/>
			<glyph d="M398 1400H893Q996 1400 1075 1375T1208 1305T1289 1198T1317 1063Q1317 977 1286 897T1189 756T1022 658T779 621H689L1151 0H1005L554 621H356L224 0H100ZM497 1284L379 732H783Q890 732 967 756T1093 824T1166 925T1189 1050Q1189 1103 1169 1146T1111 1220T1014 1267T881 1284ZM538 -88H665L530 -429H422Z" horiz-adv-x="1317" unicode="Ŗ"/>
			<glyph d="M655 957Q701 957 748 945T830 914L779 811Q752 828 713 838T635 848Q575 848 521 826T424 763T348 662T300 528L188 0H74L274 941H387L361 818Q423 891 499 924T655 957ZM62 -88H189L54 -429H-54Z" horiz-adv-x="788" unicode="ŗ"/>
			<glyph d="M398 1400H893Q996 1400 1075 1375T1208 1305T1289 1198T1317 1063Q1317 977 1286 897T1189 756T1022 658T779 621H689L1151 0H1005L554 621H356L224 0H100ZM497 1284L379 732H783Q890 732 967 756T1093 824T1166 925T1189 1050Q1189 1103 1169 1146T1111 1220T1014 1267T881 1284ZM563 1782H683L836 1569L1076 1782H1206L903 1501H754Z" horiz-adv-x="1317" unicode="Ř"/>
			<glyph d="M655 957Q701 957 748 945T830 914L779 811Q752 828 713 838T635 848Q575 848 521 826T424 763T348 662T300 528L188 0H74L274 941H387L361 818Q423 891 499 924T655 957ZM299 1367H419L572 1154L812 1367H942L639 1086H490Z" horiz-adv-x="788" unicode="ř"/>
			<glyph d="M775 1415Q835 1415 900 1407T1033 1380T1168 1330T1298 1251L1230 1153Q1173 1196 1112 1224T992 1268T876 1292T768 1299Q664 1299 590 1273T469 1205T400 1112T379 1010Q379 912 448 853T668 769L795 748Q881 733 953 706T1076 637T1157 538T1186 406Q1186 320 1150 243T1043 109T868 17T627 -16Q573 -16 504 -7T362 23T216 79T79 168L152 267Q206 220 270 188T399 136T524 108T632 100Q737 100 816 124T950 188T1031 281T1058 392Q1058 489 982 546T754 630L625 652Q442 683 346 769T250 995Q250 1071 281 1146T376 1281T540 1378T775 1415ZM925 1797H1073L790 1497H672Z" horiz-adv-x="1318" unicode="Ś"/>
			<glyph d="M529 956Q649 956 747 925T908 849L848 762Q822 781 786 798T708 828T620 848T528 856Q475 856 429 845T348 815T292 766T267 700Q258 629 303 588T452 531L547 517Q697 494 764 425T820 251Q812 189 780 140T696 56T576 3T425 -15Q370 -15 314 -5T204 21T104 62T20 116L84 200Q114 176 151 155T232 118T324 93T423 84Q480 84 529 94T616 126T675 178T703 250Q718 384 516 415L419 430Q340 442 286 466T199 525T155 602T149 695Q156 758 187 806T269 888T385 938T529 956ZM727 1383H875L592 1083H474Z" horiz-adv-x="950" unicode="ś"/>
			<glyph d="M775 1415Q835 1415 900 1407T1033 1380T1168 1330T1298 1251L1230 1153Q1173 1196 1112 1224T992 1268T876 1292T768 1299Q664 1299 590 1273T469 1205T400 1112T379 1010Q379 912 448 853T668 769L795 748Q881 733 953 706T1076 637T1157 538T1186 406Q1186 320 1150 243T1043 109T868 17T627 -16Q573 -16 504 -7T362 23T216 79T79 168L152 267Q206 220 270 188T399 136T524 108T632 100Q737 100 816 124T950 188T1031 281T1058 392Q1058 489 982 546T754 630L625 652Q442 683 346 769T250 995Q250 1071 281 1146T376 1281T540 1378T775 1415ZM788 1785H938L1128 1503H1008L854 1716L615 1503H486Z" horiz-adv-x="1318" unicode="Ŝ"/>
			<glyph d="M529 956Q649 956 747 925T908 849L848 762Q822 781 786 798T708 828T620 848T528 856Q475 856 429 845T348 815T292 766T267 700Q258 629 303 588T452 531L547 517Q697 494 764 425T820 251Q812 189 780 140T696 56T576 3T425 -15Q370 -15 314 -5T204 21T104 62T20 116L84 200Q114 176 151 155T232 118T324 93T423 84Q480 84 529 94T616 126T675 178T703 250Q718 384 516 415L419 430Q340 442 286 466T199 525T155 602T149 695Q156 758 187 806T269 888T385 938T529 956ZM572 1370H722L912 1088H792L638 1301L399 1088H270Z" horiz-adv-x="950" unicode="ŝ"/>
			<glyph d="M775 1415Q835 1415 900 1407T1033 1380T1168 1330T1298 1251L1230 1153Q1173 1196 1112 1224T992 1268T876 1292T768 1299Q664 1299 590 1273T469 1205T400 1112T379 1010Q379 912 448 853T668 769L795 748Q881 733 953 706T1076 637T1157 538T1186 406Q1186 320 1150 243T1043 109T868 17T627 -16Q573 -16 504 -7T362 23T216 79T79 168L152 267Q206 220 270 188T399 136T524 108T632 100Q737 100 816 124T950 188T1031 281T1058 392Q1058 489 982 546T754 630L625 652Q442 683 346 769T250 995Q250 1071 281 1146T376 1281T540 1378T775 1415ZM600 6L722 5L554 -323H422Z" horiz-adv-x="1318" unicode="Ş"/>
			<glyph d="M529 956Q649 956 747 925T908 849L848 762Q822 781 786 798T708 828T620 848T528 856Q475 856 429 845T348 815T292 766T267 700Q258 629 303 588T452 531L547 517Q697 494 764 425T820 251Q812 189 780 140T696 56T576 3T425 -15Q370 -15 314 -5T204 21T104 62T20 116L84 200Q114 176 151 155T232 118T324 93T423 84Q480 84 529 94T616 126T675 178T703 250Q718 384 516 415L419 430Q340 442 286 466T199 525T155 602T149 695Q156 758 187 806T269 888T385 938T529 956ZM375 6L488 5L324 -323H197Z" horiz-adv-x="950" unicode="ş"/>
			<glyph d="M775 1415Q835 1415 900 1407T1033 1380T1168 1330T1298 1251L1230 1153Q1173 1196 1112 1224T992 1268T876 1292T768 1299Q664 1299 590 1273T469 1205T400 1112T379 1010Q379 912 448 853T668 769L795 748Q881 733 953 706T1076 637T1157 538T1186 406Q1186 320 1150 243T1043 109T868 17T627 -16Q573 -16 504 -7T362 23T216 79T79 168L152 267Q206 220 270 188T399 136T524 108T632 100Q737 100 816 124T950 188T1031 281T1058 392Q1058 489 982 546T754 630L625 652Q442 683 346 769T250 995Q250 1071 281 1146T376 1281T540 1378T775 1415ZM556 1782H676L829 1569L1069 1782H1199L896 1501H747Z" horiz-adv-x="1318" unicode="Š"/>
			<glyph d="M529 956Q649 956 747 925T908 849L848 762Q822 781 786 798T708 828T620 848T528 856Q475 856 429 845T348 815T292 766T267 700Q258 629 303 588T452 531L547 517Q697 494 764 425T820 251Q812 189 780 140T696 56T576 3T425 -15Q370 -15 314 -5T204 21T104 62T20 116L84 200Q114 176 151 155T232 118T324 93T423 84Q480 84 529 94T616 126T675 178T703 250Q718 384 516 415L419 430Q340 442 286 466T199 525T155 602T149 695Q156 758 187 806T269 888T385 938T529 956ZM328 1367H448L601 1154L841 1367H971L668 1086H519Z" horiz-adv-x="950" unicode="š"/>
			<glyph d="M238 1400H1346L1321 1284H833L560 0H435L708 1284H213ZM437 6L559 5L391 -323H259Z" horiz-adv-x="1188" unicode="Ţ"/>
			<glyph d="M432 1248H546L481 941H894L872 837H459L355 345Q341 279 348 231T378 152T438 107T518 92Q578 92 631 111T734 167L782 79Q725 36 657 10T505 -15Q432 -15 374 8T280 76T232 190T240 348L344 837H130L152 941H366ZM421 6L534 5L370 -323H243Z" horiz-adv-x="888" unicode="ţ"/>
			<glyph d="M238 1400H1346L1321 1284H833L560 0H435L708 1284H213ZM542 1782H662L815 1569L1055 1782H1185L882 1501H733Z" horiz-adv-x="1188" unicode="Ť"/>
			<glyph d="M432 1248H546L481 941H894L872 837H459L355 345Q341 279 348 231T378 152T438 107T518 92Q578 92 631 111T734 167L782 79Q725 36 657 10T505 -15Q432 -15 374 8T280 76T232 190T240 348L344 837H130L152 941H366ZM737 1440H864L740 1051H645Z" horiz-adv-x="888" unicode="ť"/>
			<glyph d="M238 1400H1346L1321 1284H833L722 763H1066L1041 647H697L560 0H435L572 647H253L278 763H597L708 1284H213Z" horiz-adv-x="1188" unicode="Ŧ"/>
			<glyph d="M432 1248H546L481 941H894L872 837H459L404 578H748L726 475H382L355 345Q341 279 348 231T379 152T438 107T518 92Q578 92 631 111T734 167L782 79Q725 36 657 10T505 -15Q432 -15 374 8T280 76T232 190T240 348L267 475H98L120 578H289L344 837H130L152 941H366Z" horiz-adv-x="888" unicode="ŧ"/>
			<glyph d="M378 1400H503L324 563Q316 525 312 492T309 428Q309 342 337 280T414 178T530 120T675 102Q766 102 847 128T995 209T1109 348T1181 549L1361 1400H1486L1304 540Q1273 395 1213 290T1070 117T883 17T661 -15Q562 -15 475 10T322 87T219 219T182 408Q182 443 186 481T199 561ZM844 1742Q895 1742 928 1728T988 1699T1040 1669T1100 1656Q1144 1656 1179 1675T1250 1733L1315 1665Q1266 1610 1215 1583T1099 1557Q1048 1557 1015 1570T955 1600T903 1630T843 1644Q799 1644 764 1624T693 1566L628 1634Q677 1689 727 1715T844 1742Z" horiz-adv-x="1469" unicode="Ũ"/>
			<glyph d="M264 941H379L266 411Q255 361 255 322Q255 263 275 220T329 148T411 106T513 92Q577 92 635 111T740 170T821 267T872 404L986 941H1101L983 384Q962 282 916 207T806 82T664 9T500 -15Q424 -15 358 6T243 68T167 169T140 310Q140 360 152 417ZM596 1327Q647 1327 680 1313T740 1284T792 1254T852 1241Q896 1241 931 1260T1002 1318L1067 1250Q1018 1195 967 1168T851 1142Q800 1142 767 1155T707 1185T655 1215T595 1229Q551 1229 516 1209T445 1151L380 1219Q429 1274 479 1300T596 1327Z" horiz-adv-x="1165" unicode="ũ"/>
			<glyph d="M378 1400H503L324 563Q316 525 312 492T309 428Q309 342 337 280T414 178T530 120T675 102Q766 102 847 128T995 209T1109 348T1181 549L1361 1400H1486L1304 540Q1273 395 1213 290T1070 117T883 17T661 -15Q562 -15 475 10T322 87T219 219T182 408Q182 443 186 481T199 561ZM691 1688H1276L1256 1595H671Z" horiz-adv-x="1469" unicode="Ū"/>
			<glyph d="M264 941H379L266 411Q255 361 255 322Q255 263 275 220T329 148T411 106T513 92Q577 92 635 111T740 170T821 267T872 404L986 941H1101L983 384Q962 282 916 207T806 82T664 9T500 -15Q424 -15 358 6T243 68T167 169T140 310Q140 360 152 417ZM455 1273H1040L1020 1180H435Z" horiz-adv-x="1165" unicode="ū"/>
			<glyph d="M378 1400H503L324 563Q316 525 312 492T309 428Q309 342 337 280T414 178T530 120T675 102Q766 102 847 128T995 209T1109 348T1181 549L1361 1400H1486L1304 540Q1273 395 1213 290T1070 117T883 17T661 -15Q562 -15 475 10T322 87T219 219T182 408Q182 443 186 481T199 561ZM767 1799Q770 1749 785 1711T825 1648T885 1610T961 1598Q1124 1598 1219 1799L1310 1771Q1247 1638 1159 1569T951 1501Q893 1501 843 1518T757 1570T699 1654T674 1771Z" horiz-adv-x="1469" unicode="Ŭ"/>
			<glyph d="M264 941H379L266 411Q255 361 255 322Q255 263 275 220T329 148T411 106T513 92Q577 92 635 111T740 170T821 267T872 404L986 941H1101L983 384Q962 282 916 207T806 82T664 9T500 -15Q424 -15 358 6T243 68T167 169T140 310Q140 360 152 417ZM525 1384Q528 1334 543 1296T583 1233T643 1195T719 1183Q882 1183 977 1384L1068 1356Q1005 1223 917 1154T709 1086Q651 1086 601 1103T515 1155T457 1239T432 1356Z" horiz-adv-x="1165" unicode="ŭ"/>
			<glyph d="M378 1400H503L324 563Q316 525 312 492T309 428Q309 342 337 280T414 178T530 120T675 102Q766 102 847 128T995 209T1109 348T1181 549L1361 1400H1486L1304 540Q1273 395 1213 290T1070 117T883 17T661 -15Q562 -15 475 10T322 87T219 219T182 408Q182 443 186 481T199 561ZM962 1907Q1006 1907 1045 1890T1113 1844T1160 1776T1177 1694Q1177 1650 1160 1611T1113 1543T1045 1497T962 1481Q918 1481 878 1497T810 1543T764 1611T747 1694Q747 1738 764 1776T810 1844T878 1890T962 1907ZM962 1833Q933 1833 908 1822T864 1792T835 1748T824 1694Q824 1665 835 1639T864 1595T908 1565T962 1554Q990 1554 1015 1565T1059 1595T1089 1639T1100 1694Q1100 1723 1089 1748T1059 1792T1015 1822T962 1833Z" horiz-adv-x="1469" unicode="Ů"/>
			<glyph d="M264 941H379L266 411Q255 361 255 322Q255 263 275 220T329 148T411 106T513 92Q577 92 635 111T740 170T821 267T872 404L986 941H1101L983 384Q962 282 916 207T806 82T664 9T500 -15Q424 -15 358 6T243 68T167 169T140 310Q140 360 152 417ZM715 1492Q759 1492 798 1475T866 1429T913 1361T930 1279Q930 1235 913 1196T866 1128T798 1082T715 1066Q671 1066 631 1082T563 1128T517 1196T500 1279Q500 1323 517 1361T563 1429T631 1475T715 1492ZM715 1418Q686 1418 661 1407T617 1377T588 1333T577 1279Q577 1250 588 1224T617 1180T661 1150T715 1139Q743 1139 768 1150T812 1180T842 1224T853 1279Q853 1308 842 1333T812 1377T768 1407T715 1418Z" horiz-adv-x="1165" unicode="ů"/>
			<glyph d="M378 1400H503L324 563Q316 525 312 492T309 428Q309 342 337 280T414 178T530 120T675 102Q766 102 847 128T995 209T1109 348T1181 549L1361 1400H1486L1304 540Q1273 395 1213 290T1070 117T883 17T661 -15Q562 -15 475 10T322 87T219 219T182 408Q182 443 186 481T199 561ZM1289 1797H1427L1150 1497H1032ZM935 1797H1068L809 1497H689Z" horiz-adv-x="1469" unicode="Ű"/>
			<glyph d="M264 941H379L266 411Q255 361 255 322Q255 263 275 220T329 148T411 106T513 92Q577 92 635 111T740 170T821 267T872 404L986 941H1101L983 384Q962 282 916 207T806 82T664 9T500 -15Q424 -15 358 6T243 68T167 169T140 310Q140 360 152 417ZM1051 1382H1189L912 1082H794ZM697 1382H830L571 1082H451Z" horiz-adv-x="1165" unicode="ű"/>
			<glyph d="M378 1400H503L324 563Q316 525 312 492T309 428Q309 342 337 280T414 178T530 120T675 102Q766 102 847 128T995 209T1109 348T1181 549L1361 1400H1486L1304 540Q1273 395 1213 290T1070 117T883 17T661 -15Q562 -15 475 10T322 87T219 219T182 408Q182 443 186 481T199 561ZM936 78L948 42Q879 11 831 -19T754 -81T712 -143T699 -205Q699 -254 734 -284T832 -315Q874 -315 911 -300T982 -260L1035 -336Q990 -374 936 -393T826 -412Q771 -412 727 -398T651 -359T603 -300T586 -225Q586 -180 603 -139T662 -61T770 10T936 78Z" horiz-adv-x="1469" unicode="Ų"/>
			<glyph d="M264 941H379L266 411Q255 361 255 322Q255 263 275 220T329 148T411 106T513 92Q577 92 635 111T740 170T821 267T872 404L986 941H1101L983 384Q962 282 916 207T806 82T664 9T500 -15Q424 -15 358 6T243 68T167 169T140 310Q140 360 152 417ZM731 78L743 42Q674 11 626 -19T549 -81T507 -143T494 -205Q494 -254 529 -284T627 -315Q669 -315 706 -300T777 -260L830 -336Q785 -374 731 -393T621 -412Q566 -412 522 -398T446 -359T398 -300T381 -225Q381 -180 398 -139T457 -61T565 10T731 78Z" horiz-adv-x="1165" unicode="ų"/>
			<glyph d="M1231 1402H1364L1518 137L2193 1400H2322L1567 0H1421L1267 1236L607 0H456L273 1400H397L557 133ZM1276 1785H1426L1616 1503H1496L1342 1716L1103 1503H974Z" horiz-adv-x="2199" unicode="Ŵ"/>
			<glyph d="M148 941H263L412 120L860 941H986L1144 119L1627 941H1752L1193 0H1058L906 821L458 0H325ZM930 1370H1080L1270 1088H1150L996 1301L757 1088H628Z" horiz-adv-x="1699" unicode="ŵ"/>
			<glyph d="M212 1400H344L672 720L1278 1400H1433L713 599L586 0H462L591 610ZM790 1785H940L1130 1503H1010L856 1716L617 1503H488Z" horiz-adv-x="1249" unicode="Ŷ"/>
			<glyph d="M122 941H243L524 327L966 941H1096L121 -403H-9L451 225ZM588 1370H738L928 1088H808L654 1301L415 1088H286Z" horiz-adv-x="1012" unicode="ŷ"/>
			<glyph d="M212 1400H344L672 720L1278 1400H1433L713 599L586 0H462L591 610ZM652 1725Q687 1725 710 1701T734 1642Q734 1607 710 1584T652 1561Q617 1561 594 1584T571 1642Q571 1677 594 1701T652 1725ZM1061 1725Q1096 1725 1120 1701T1144 1642Q1144 1607 1120 1584T1061 1561Q1026 1561 1003 1584T980 1642Q980 1677 1003 1701T1061 1725Z" horiz-adv-x="1249" unicode="Ÿ"/>
			<glyph d="M318 1400H1370L1350 1303L237 116H1135L1110 0H48L71 103L1182 1284H293ZM937 1797H1085L802 1497H684Z" horiz-adv-x="1310" unicode="Ź"/>
			<glyph d="M223 941H993L974 854L211 103H840L818 0H34L52 89L820 837H200ZM745 1383H893L610 1083H492Z" horiz-adv-x="1023" unicode="ź"/>
			<glyph d="M318 1400H1370L1350 1303L237 116H1135L1110 0H48L71 103L1182 1284H293ZM855 1734Q892 1734 916 1709T941 1647Q941 1610 916 1586T855 1562Q818 1562 794 1586T770 1647Q770 1684 794 1709T855 1734Z" horiz-adv-x="1310" unicode="Ż"/>
			<glyph d="M223 941H993L974 854L211 103H840L818 0H34L52 89L820 837H200ZM655 1362Q690 1362 713 1338T737 1279Q737 1244 713 1221T655 1198Q620 1198 597 1221T574 1279Q574 1314 597 1338T655 1362Z" horiz-adv-x="1023" unicode="ż"/>
			<glyph d="M318 1400H1370L1350 1303L237 116H1135L1110 0H48L71 103L1182 1284H293ZM568 1782H688L841 1569L1081 1782H1211L908 1501H759Z" horiz-adv-x="1310" unicode="Ž"/>
			<glyph d="M223 941H993L974 854L211 103H840L818 0H34L52 89L820 837H200ZM346 1367H466L619 1154L859 1367H989L686 1086H537Z" horiz-adv-x="1023" unicode="ž"/>
			<glyph d="M647 1455Q716 1455 775 1434T877 1379L821 1290Q786 1318 737 1333T646 1348Q605 1348 569 1334T504 1293T453 1221T418 1118L180 0H65L306 1133Q340 1292 426 1373T647 1455Z" horiz-adv-x="638" unicode="ſ"/>
			<glyph d="M882 1414Q1023 1414 1142 1366T1349 1233T1485 1030T1534 770Q1534 663 1508 563T1436 376T1322 216T1173 92T993 12T790 -16Q649 -16 532 30T333 160T204 360T159 616Q159 653 163 686T172 757H1406V759Q1406 877 1366 976T1255 1146T1086 1256T873 1296Q726 1296 602 1235T380 1067L308 1157Q422 1276 565 1345T882 1414ZM290 642V611Q290 500 327 406T431 245T593 140T800 102Q915 102 1015 143T1194 258T1325 429T1396 642Z" horiz-adv-x="1601" unicode="Ə"/>
			<glyph d="M1090 1415Q1155 1415 1207 1396T1297 1349L1246 1257Q1218 1280 1176 1296T1090 1312Q1012 1312 964 1260T894 1106L821 777H1133L1112 673H798L714 293Q680 140 607 62T407 -15Q342 -15 289 4T201 51L251 143Q279 120 321 104T407 88Q485 88 532 140T603 294L687 673H401L423 777H710L783 1107Q817 1259 890 1337T1090 1415Z" horiz-adv-x="1400" unicode="ƒ"/>
			<glyph d="M318 1400H1370L1350 1303L838 757H1115L1091 644H732L237 116H1135L1110 0H48L71 103L583 648H301L325 760H689L1182 1284H293Z" horiz-adv-x="1310" unicode="Ƶ"/>
			<glyph d="M223 941H993L974 854L635 521H833L814 433H546L211 103H840L818 0H34L52 89L410 437H211L230 525H499L820 837H200Z" horiz-adv-x="1023" unicode="ƶ"/>
			<glyph d="M824 1400H974L1259 0H1134L1052 409H334L80 0H-53ZM877 1279L406 525H1028ZM645 1782H765L918 1569L1158 1782H1288L985 1501H836Z" horiz-adv-x="1406" unicode="Ǎ"/>
			<glyph d="M625 956Q693 956 750 938T851 890T927 816T976 722L1023 941H1136L936 0H823L854 143Q789 71 699 28T495 -15Q406 -15 331 16T203 102T118 234T88 400Q88 511 129 612T243 789T413 911T625 956ZM622 849Q535 849 459 814T326 719T237 580T205 411Q205 343 226 284T288 183T386 116T515 92Q593 92 662 120T787 197T879 314T928 462Q940 543 923 613T866 736T763 819T622 849ZM412 1367H532L685 1154L925 1367H1055L752 1086H603Z" horiz-adv-x="1210" unicode="ǎ"/>
			<glyph d="M398 1400H522L224 0H100ZM207 1782H327L480 1569L720 1782H850L547 1501H398Z" horiz-adv-x="524" unicode="Ǐ"/>
			<glyph d="M274 941H389L188 0H74ZM93 1367H213L366 1154L606 1367H736L433 1086H284Z" horiz-adv-x="463" unicode="ǐ"/>
			<glyph d="M931 1415Q1071 1415 1192 1369T1402 1240T1543 1036T1595 769Q1595 662 1569 562T1496 375T1380 216T1227 92T1041 12T829 -16Q689 -16 567 29T356 159T215 363T164 631Q164 738 189 837T263 1024T379 1183T533 1306T718 1386T931 1415ZM921 1298Q782 1298 666 1244T467 1101T338 891T292 640Q292 516 333 416T448 247T622 139T839 102Q931 102 1013 126T1166 194T1291 298T1386 432T1446 589T1467 760Q1467 884 1425 983T1310 1153T1137 1260T921 1298ZM703 1782H823L976 1569L1216 1782H1346L1043 1501H894Z" horiz-adv-x="1662" unicode="Ǒ"/>
			<glyph d="M622 956Q721 956 803 923T944 831T1036 691T1069 517Q1069 408 1028 311T917 141T749 26T540 -16Q442 -16 359 17T218 108T126 247T93 424Q93 533 133 629T245 798T412 913T622 956ZM613 849Q527 849 453 815T326 725T241 591T210 430Q210 356 235 294T304 187T411 116T547 91Q633 91 707 124T836 215T922 348T953 511Q953 584 928 646T858 753T750 823T613 849ZM408 1367H528L681 1154L921 1367H1051L748 1086H599Z" horiz-adv-x="1162" unicode="ǒ"/>
			<glyph d="M378 1400H503L324 563Q316 525 312 492T309 428Q309 342 337 280T414 178T530 120T675 102Q766 102 847 128T995 209T1109 348T1181 549L1361 1400H1486L1304 540Q1273 395 1213 290T1070 117T883 17T661 -15Q562 -15 475 10T322 87T219 219T182 408Q182 443 186 481T199 561ZM679 1782H799L952 1569L1192 1782H1322L1019 1501H870Z" horiz-adv-x="1469" unicode="Ǔ"/>
			<glyph d="M264 941H379L266 411Q255 361 255 322Q255 263 275 220T329 148T411 106T513 92Q577 92 635 111T740 170T821 267T872 404L986 941H1101L983 384Q962 282 916 207T806 82T664 9T500 -15Q424 -15 358 6T243 68T167 169T140 310Q140 360 152 417ZM439 1367H559L712 1154L952 1367H1082L779 1086H630Z" horiz-adv-x="1165" unicode="ǔ"/>
			<glyph d="M378 1400H503L324 563Q316 525 312 492T309 428Q309 342 337 280T414 178T530 120T675 102Q766 102 847 128T995 209T1109 348T1181 549L1361 1400H1486L1304 540Q1273 395 1213 290T1070 117T883 17T661 -15Q562 -15 475 10T322 87T219 219T182 408Q182 443 186 481T199 561ZM754 2020H1339L1319 1927H734ZM773 1725Q808 1725 831 1701T855 1642Q855 1607 831 1584T773 1561Q738 1561 715 1584T692 1642Q692 1677 715 1701T773 1725ZM1182 1725Q1217 1725 1241 1701T1265 1642Q1265 1607 1241 1584T1182 1561Q1147 1561 1124 1584T1101 1642Q1101 1677 1124 1701T1182 1725Z" horiz-adv-x="1469" unicode="Ǖ"/>
			<glyph d="M264 941H379L266 411Q255 361 255 322Q255 263 275 220T329 148T411 106T513 92Q577 92 635 111T740 170T821 267T872 404L986 941H1101L983 384Q962 282 916 207T806 82T664 9T500 -15Q424 -15 358 6T243 68T167 169T140 310Q140 360 152 417ZM533 1310Q568 1310 591 1286T615 1227Q615 1192 591 1169T533 1146Q498 1146 475 1169T452 1227Q452 1262 475 1286T533 1310ZM942 1310Q977 1310 1001 1286T1025 1227Q1025 1192 1001 1169T942 1146Q907 1146 884 1169T861 1227Q861 1262 884 1286T942 1310ZM517 1598H1102L1082 1505H497Z" horiz-adv-x="1165" unicode="ǖ"/>
			<glyph d="M378 1400H503L324 563Q316 525 312 492T309 428Q309 342 337 280T414 178T530 120T675 102Q766 102 847 128T995 209T1109 348T1181 549L1361 1400H1486L1304 540Q1273 395 1213 290T1070 117T883 17T661 -15Q562 -15 475 10T322 87T219 219T182 408Q182 443 186 481T199 561ZM1123 2203H1271L988 1903H870ZM773 1725Q808 1725 831 1701T855 1642Q855 1607 831 1584T773 1561Q738 1561 715 1584T692 1642Q692 1677 715 1701T773 1725ZM1182 1725Q1217 1725 1241 1701T1265 1642Q1265 1607 1241 1584T1182 1561Q1147 1561 1124 1584T1101 1642Q1101 1677 1124 1701T1182 1725Z" horiz-adv-x="1469" unicode="Ǘ"/>
			<glyph d="M264 941H379L266 411Q255 361 255 322Q255 263 275 220T329 148T411 106T513 92Q577 92 635 111T740 170T821 267T872 404L986 941H1101L983 384Q962 282 916 207T806 82T664 9T500 -15Q424 -15 358 6T243 68T167 169T140 310Q140 360 152 417ZM533 1310Q568 1310 591 1286T615 1227Q615 1192 591 1169T533 1146Q498 1146 475 1169T452 1227Q452 1262 475 1286T533 1310ZM942 1310Q977 1310 1001 1286T1025 1227Q1025 1192 1001 1169T942 1146Q907 1146 884 1169T861 1227Q861 1262 884 1286T942 1310ZM886 1781H1034L751 1481H633Z" horiz-adv-x="1165" unicode="ǘ"/>
			<glyph d="M378 1400H503L324 563Q316 525 312 492T309 428Q309 342 337 280T414 178T530 120T675 102Q766 102 847 128T995 209T1109 348T1181 549L1361 1400H1486L1304 540Q1273 395 1213 290T1070 117T883 17T661 -15Q562 -15 475 10T322 87T219 219T182 408Q182 443 186 481T199 561ZM752 2188H872L1025 1975L1265 2188H1395L1092 1907H943ZM773 1725Q808 1725 831 1701T855 1642Q855 1607 831 1584T773 1561Q738 1561 715 1584T692 1642Q692 1677 715 1701T773 1725ZM1182 1725Q1217 1725 1241 1701T1265 1642Q1265 1607 1241 1584T1182 1561Q1147 1561 1124 1584T1101 1642Q1101 1677 1124 1701T1182 1725Z" horiz-adv-x="1469" unicode="Ǚ"/>
			<glyph d="M264 941H379L266 411Q255 361 255 322Q255 263 275 220T329 148T411 106T513 92Q577 92 635 111T740 170T821 267T872 404L986 941H1101L983 384Q962 282 916 207T806 82T664 9T500 -15Q424 -15 358 6T243 68T167 169T140 310Q140 360 152 417ZM533 1310Q568 1310 591 1286T615 1227Q615 1192 591 1169T533 1146Q498 1146 475 1169T452 1227Q452 1262 475 1286T533 1310ZM942 1310Q977 1310 1001 1286T1025 1227Q1025 1192 1001 1169T942 1146Q907 1146 884 1169T861 1227Q861 1262 884 1286T942 1310ZM515 1766H635L788 1553L1028 1766H1158L855 1485H706Z" horiz-adv-x="1165" unicode="ǚ"/>
			<glyph d="M378 1400H503L324 563Q316 525 312 492T309 428Q309 342 337 280T414 178T530 120T675 102Q766 102 847 128T995 209T1109 348T1181 549L1361 1400H1486L1304 540Q1273 395 1213 290T1070 117T883 17T661 -15Q562 -15 475 10T322 87T219 219T182 408Q182 443 186 481T199 561ZM781 2203H925L1145 1903H1032ZM773 1725Q808 1725 831 1701T855 1642Q855 1607 831 1584T773 1561Q738 1561 715 1584T692 1642Q692 1677 715 1701T773 1725ZM1182 1725Q1217 1725 1241 1701T1265 1642Q1265 1607 1241 1584T1182 1561Q1147 1561 1124 1584T1101 1642Q1101 1677 1124 1701T1182 1725Z" horiz-adv-x="1469" unicode="Ǜ"/>
			<glyph d="M264 941H379L266 411Q255 361 255 322Q255 263 275 220T329 148T411 106T513 92Q577 92 635 111T740 170T821 267T872 404L986 941H1101L983 384Q962 282 916 207T806 82T664 9T500 -15Q424 -15 358 6T243 68T167 169T140 310Q140 360 152 417ZM533 1310Q568 1310 591 1286T615 1227Q615 1192 591 1169T533 1146Q498 1146 475 1169T452 1227Q452 1262 475 1286T533 1310ZM942 1310Q977 1310 1001 1286T1025 1227Q1025 1192 1001 1169T942 1146Q907 1146 884 1169T861 1227Q861 1262 884 1286T942 1310ZM544 1781H688L908 1481H795Z" horiz-adv-x="1165" unicode="ǜ"/>
			<glyph d="M1288 1400H2278L2254 1285H1441L1330 762H2124L2099 648H1306L1192 115H2016L1991 0H1044L1127 390H469L94 0H-62ZM1313 1266L581 506H1151ZM1489 1688H2074L2054 1595H1469Z" horiz-adv-x="2241" unicode="Ǣ"/>
			<glyph d="M579 956Q712 956 797 901T913 742Q945 789 987 828T1081 896T1194 940T1324 956Q1410 956 1480 929T1601 854T1679 737T1707 585Q1707 545 1699 502T1681 429H908Q907 420 907 411V394Q907 326 928 269T990 171T1090 107T1223 84Q1323 84 1398 116T1539 209L1596 130Q1515 56 1423 20T1211 -16Q1074 -16 979 40T837 191Q749 93 637 39T395 -15Q324 -15 265 2T163 52T97 130T74 233Q74 291 97 344T169 437T293 502T474 527H809L811 537Q816 562 819 585T823 630Q823 739 754 796T560 853Q468 853 396 825T267 761L224 851Q301 901 387 928T579 956ZM1319 855Q1239 855 1174 827T1059 754T976 650T925 527H1590Q1592 541 1593 554T1594 582Q1594 645 1574 695T1518 781T1431 836T1319 855ZM481 432Q403 432 349 415T261 372T212 311T197 244Q197 168 254 126T409 85Q462 85 515 98T619 135T717 197T804 282Q792 333 792 390Q792 401 792 411T794 432ZM721 1273H1306L1286 1180H701Z" horiz-adv-x="1784" unicode="ǣ"/>
			<glyph d="M933 1414Q983 1414 1048 1405T1184 1370T1324 1297T1450 1176L1358 1093Q1314 1150 1261 1189T1151 1251T1035 1285T923 1296Q792 1296 677 1247T476 1110T341 902T292 640Q292 520 332 421T445 251T617 142T835 104Q949 104 1045 139T1215 242T1336 404T1403 620H932L957 733H1545Q1545 720 1544 705T1541 676Q1523 522 1463 395T1310 177T1093 36T824 -14Q682 -14 561 33T352 166T214 369T164 628Q164 740 191 842T267 1031T387 1189T542 1310T726 1387T933 1414ZM679 1782H799L952 1569L1192 1782H1322L1019 1501H870Z" horiz-adv-x="1613" unicode="Ǧ"/>
			<glyph d="M623 956Q692 956 749 938T851 890T927 816T976 721L1023 941H1136L949 57Q925 -57 876 -144T759 -289T609 -378T434 -408Q310 -408 208 -370T29 -261L95 -176Q159 -237 246 -271T436 -305Q508 -305 573 -280T691 -209T782 -93T837 64L854 150Q791 79 703 38T510 -2Q415 -2 338 29T205 114T120 244T90 406Q90 519 131 619T245 794T414 912T623 956ZM622 849Q535 849 459 816T328 725T240 588T208 417Q208 349 230 291T293 192T390 127T515 104Q596 104 667 132T794 212T884 335T928 490Q936 566 917 631T857 745T756 821T622 849ZM408 1367H528L681 1154L921 1367H1051L748 1086H599Z" horiz-adv-x="1211" unicode="ǧ"/>
			<glyph d="M824 1400H974L1259 0H1134L1052 409H334L80 0H-53ZM877 1279L406 525H1028ZM1041 2117H1189L906 1817H788ZM907 1762Q951 1762 990 1745T1058 1699T1105 1631T1122 1549Q1122 1505 1105 1466T1058 1398T990 1352T907 1336Q863 1336 823 1352T755 1398T709 1466T692 1549Q692 1593 709 1631T755 1699T823 1745T907 1762ZM907 1688Q878 1688 853 1677T809 1647T780 1603T769 1549Q769 1520 780 1494T809 1450T853 1420T907 1409Q935 1409 960 1420T1004 1450T1034 1494T1045 1549Q1045 1578 1034 1603T1004 1647T960 1677T907 1688Z" horiz-adv-x="1406" unicode="Ǻ"/>
			<glyph d="M625 956Q693 956 750 938T851 890T927 816T976 722L1023 941H1136L936 0H823L854 143Q789 71 699 28T495 -15Q406 -15 331 16T203 102T118 234T88 400Q88 511 129 612T243 789T413 911T625 956ZM622 849Q535 849 459 814T326 719T237 580T205 411Q205 343 226 284T288 183T386 116T515 92Q593 92 662 120T787 197T879 314T928 462Q940 543 923 613T866 736T763 819T622 849ZM719 1463Q763 1463 802 1446T870 1400T917 1332T934 1250Q934 1206 917 1167T870 1099T802 1053T719 1037Q675 1037 635 1053T567 1099T521 1167T504 1250Q504 1294 521 1332T567 1400T635 1446T719 1463ZM719 1389Q690 1389 665 1378T621 1348T592 1304T581 1250Q581 1221 592 1195T621 1151T665 1121T719 1110Q747 1110 772 1121T816 1151T846 1195T857 1250Q857 1279 846 1304T816 1348T772 1378T719 1389ZM854 1821H1002L719 1521H601Z" horiz-adv-x="1210" unicode="ǻ"/>
			<glyph d="M1288 1400H2278L2254 1285H1441L1330 762H2124L2099 648H1306L1192 115H2016L1991 0H1044L1127 390H469L94 0H-62ZM1313 1266L581 506H1151ZM1846 1797H1994L1711 1497H1593Z" horiz-adv-x="2241" unicode="Ǽ"/>
			<glyph d="M579 956Q712 956 797 901T913 742Q945 789 987 828T1081 896T1194 940T1324 956Q1410 956 1480 929T1601 854T1679 737T1707 585Q1707 545 1699 502T1681 429H908Q907 420 907 411V394Q907 326 928 269T990 171T1090 107T1223 84Q1323 84 1398 116T1539 209L1596 130Q1515 56 1423 20T1211 -16Q1074 -16 979 40T837 191Q749 93 637 39T395 -15Q324 -15 265 2T163 52T97 130T74 233Q74 291 97 344T169 437T293 502T474 527H809L811 537Q816 562 819 585T823 630Q823 739 754 796T560 853Q468 853 396 825T267 761L224 851Q301 901 387 928T579 956ZM1319 855Q1239 855 1174 827T1059 754T976 650T925 527H1590Q1592 541 1593 554T1594 582Q1594 645 1574 695T1518 781T1431 836T1319 855ZM481 432Q403 432 349 415T261 372T212 311T197 244Q197 168 254 126T409 85Q462 85 515 98T619 135T717 197T804 282Q792 333 792 390Q792 401 792 411T794 432ZM1104 1383H1252L969 1083H851Z" horiz-adv-x="1784" unicode="ǽ"/>
			<glyph d="M1613 1416L1687 1334L1481 1150Q1535 1073 1565 977T1595 769Q1595 662 1569 562T1496 375T1380 216T1227 92T1041 12T829 -16Q690 -16 571 28T362 154L170 -16L97 66L288 236Q229 315 196 414T164 631Q164 738 189 837T263 1024T379 1183T533 1306T718 1386T931 1415Q1074 1415 1196 1368T1409 1234ZM921 1298Q782 1298 666 1244T467 1101T338 891T292 640Q292 546 316 466T385 322L1314 1149Q1240 1221 1139 1259T921 1298ZM1383 1063L457 239Q530 173 627 137T839 102Q931 102 1013 126T1166 194T1291 298T1386 432T1446 589T1467 760Q1467 849 1445 924T1383 1063ZM1079 1797H1227L944 1497H826Z" horiz-adv-x="1662" unicode="Ǿ"/>
			<glyph d="M1074 968L1137 898L994 770Q1030 717 1049 653T1069 517Q1069 408 1028 311T917 141T749 26T540 -16Q447 -16 370 12T234 93L98 -28L35 42L171 164Q133 218 113 283T93 424Q93 533 133 629T245 798T412 913T622 956Q716 956 795 926T933 842ZM613 849Q527 849 453 815T326 725T241 591T210 430Q210 376 223 329T260 243L846 765Q801 805 742 827T613 849ZM905 691L321 171Q365 133 422 112T547 91Q633 91 707 124T836 215T922 348T953 511Q953 562 940 607T905 691ZM822 1383H970L687 1083H569Z" horiz-adv-x="1162" unicode="ǿ"/>
			<glyph d="M775 1415Q835 1415 900 1407T1033 1380T1168 1330T1298 1251L1230 1153Q1173 1196 1112 1224T992 1268T876 1292T768 1299Q664 1299 590 1273T469 1205T400 1112T379 1010Q379 912 448 853T668 769L795 748Q881 733 953 706T1076 637T1157 538T1186 406Q1186 320 1150 243T1043 109T868 17T627 -16Q573 -16 504 -7T362 23T216 79T79 168L152 267Q206 220 270 188T399 136T524 108T632 100Q737 100 816 124T950 188T1031 281T1058 392Q1058 489 982 546T754 630L625 652Q442 683 346 769T250 995Q250 1071 281 1146T376 1281T540 1378T775 1415ZM587 -88H714L579 -429H471Z" horiz-adv-x="1318" unicode="Ș"/>
			<glyph d="M529 956Q649 956 747 925T908 849L848 762Q822 781 786 798T708 828T620 848T528 856Q475 856 429 845T348 815T292 766T267 700Q258 629 303 588T452 531L547 517Q697 494 764 425T820 251Q812 189 780 140T696 56T576 3T425 -15Q370 -15 314 -5T204 21T104 62T20 116L84 200Q114 176 151 155T232 118T324 93T423 84Q480 84 529 94T616 126T675 178T703 250Q718 384 516 415L419 430Q340 442 286 466T199 525T155 602T149 695Q156 758 187 806T269 888T385 938T529 956ZM363 -88H490L355 -429H247Z" horiz-adv-x="950" unicode="ș"/>
			<glyph d="M238 1400H1346L1321 1284H833L560 0H435L708 1284H213ZM424 -88H551L416 -429H308Z" horiz-adv-x="1188" unicode="Ț"/>
			<glyph d="M432 1248H546L481 941H894L872 837H459L355 345Q341 279 348 231T378 152T438 107T518 92Q578 92 631 111T734 167L782 79Q725 36 657 10T505 -15Q432 -15 374 8T280 76T232 190T240 348L344 837H130L152 941H366ZM409 -88H536L401 -429H293Z" horiz-adv-x="888" unicode="ț"/>
			<glyph d="M212 1400H344L672 720L1278 1400H1433L713 599L586 0H462L591 610ZM570 1688H1155L1135 1595H550Z" horiz-adv-x="1249" unicode="Ȳ"/>
			<glyph d="M122 941H243L524 327L966 941H1096L121 -403H-9L451 225ZM360 1273H945L925 1180H340Z" horiz-adv-x="1012" unicode="ȳ"/>
			<glyph d="M279 941H394L155 -183Q131 -298 66 -355T-93 -412Q-136 -412 -173 -400T-235 -371L-192 -278Q-174 -290 -150 -297T-100 -305Q-45 -305 -8 -270T43 -168Z" horiz-adv-x="468" unicode="ȷ"/>
			<glyph d="M573 957Q672 957 750 926T882 840T964 712T992 551Q992 484 975 415T928 284T851 166T746 71T615 8T460 -15Q374 -15 303 11T182 86T104 203T77 356Q77 396 84 438T102 512H876Q877 521 877 530V547Q877 615 855 672T793 770T694 834T561 857Q459 857 382 823T238 727L188 811Q269 885 360 921T573 957ZM194 414Q192 400 191 386T190 359Q190 296 210 245T266 159T352 105T465 86Q545 86 610 113T724 186T808 291T859 414Z" horiz-adv-x="1078" unicode="ə"/>
			<glyph d="M438 1440H544L379 957H247Z" horiz-adv-x="475" unicode="ʻ"/>
			<glyph d="M405 1440H537L346 957H240Z" horiz-adv-x="475" unicode="ʼ"/>
			<glyph d="M349 1449Q410 1444 461 1417T549 1349T608 1251T629 1134Q629 1063 602 999T527 886T415 808T274 780Q256 780 241 781T208 786L230 889Q244 886 255 885T280 884Q329 884 372 904T448 959T498 1038T517 1132Q517 1175 502 1213T462 1279T402 1325T326 1345Z" horiz-adv-x="540" unicode="ʾ"/>
			<glyph d="M540 1449Q558 1449 572 1448T606 1443L584 1340Q570 1343 558 1344T534 1345Q484 1345 441 1324T366 1269T315 1190T297 1097Q297 1054 311 1016T351 949T412 903T488 884L465 780Q404 785 353 811T264 880T206 977T185 1095Q185 1166 212 1230T286 1343T399 1420T540 1449Z" horiz-adv-x="540" unicode="ʿ"/>
			<glyph d="M559 1370H709L899 1088H779L625 1301L386 1088H257Z" horiz-adv-x="904" unicode="ˆ"/>
			<glyph d="M307 1367H427L580 1154L820 1367H950L647 1086H498Z" horiz-adv-x="904" unicode="ˇ"/>
			<glyph d="M408 1384Q411 1334 426 1296T466 1233T526 1195T602 1183Q765 1183 860 1384L951 1356Q888 1223 800 1154T592 1086Q534 1086 484 1103T398 1155T340 1239T315 1356Z" horiz-adv-x="904" unicode="˘"/>
			<glyph d="M429 1362Q464 1362 487 1338T511 1279Q511 1244 487 1221T429 1198Q394 1198 371 1221T348 1279Q348 1314 371 1338T429 1362Z" horiz-adv-x="515" unicode="˙"/>
			<glyph d="M623 1492Q667 1492 706 1475T774 1429T821 1361T838 1279Q838 1235 821 1196T774 1128T706 1082T623 1066Q579 1066 539 1082T471 1128T425 1196T408 1279Q408 1323 425 1361T471 1429T539 1475T623 1492ZM623 1418Q594 1418 569 1407T525 1377T496 1333T485 1279Q485 1250 496 1224T525 1180T569 1150T623 1139Q651 1139 676 1150T720 1180T750 1224T761 1279Q761 1308 750 1333T720 1377T676 1407T623 1418Z" horiz-adv-x="904" unicode="˚"/>
			<glyph d="M773 78L785 42Q716 11 668 -19T591 -81T549 -143T536 -205Q536 -254 571 -284T669 -315Q711 -315 748 -300T819 -260L872 -336Q827 -374 773 -393T663 -412Q608 -412 564 -398T488 -359T440 -300T423 -225Q423 -180 440 -139T499 -61T607 10T773 78Z" horiz-adv-x="1076" unicode="˛"/>
			<glyph d="M494 1327Q545 1327 578 1313T638 1284T690 1254T750 1241Q794 1241 829 1260T900 1318L965 1250Q916 1195 865 1168T749 1142Q698 1142 665 1155T605 1185T553 1215T493 1229Q449 1229 414 1209T343 1151L278 1219Q327 1274 377 1300T494 1327Z" horiz-adv-x="904" unicode="˜"/>
			<glyph d="M856 1382H994L717 1082H599ZM502 1382H635L376 1082H256Z" horiz-adv-x="904" unicode="˝"/>
			<glyph d="M-734 1382H-590L-370 1082H-483Z" horiz-adv-x="1" unicode="̀"/>
			<glyph d="M-355 1383H-207L-490 1083H-608Z" horiz-adv-x="1" unicode="́"/>
			<glyph d="M-510 1370H-360L-170 1088H-290L-444 1301L-683 1088H-812Z" horiz-adv-x="1" unicode="̂"/>
			<glyph d="M-597 1327Q-546 1327 -512 1313T-452 1284T-401 1254T-341 1241Q-297 1241 -262 1260T-191 1318L-126 1250Q-175 1195 -225 1168T-342 1142Q-393 1142 -426 1155T-485 1185T-537 1215T-598 1229Q-642 1229 -676 1209T-748 1151L-813 1219Q-764 1274 -713 1300T-597 1327Z" horiz-adv-x="1" unicode="̃"/>
			<glyph d="M-738 1273H-153L-173 1180H-758Z" horiz-adv-x="1" unicode="̄"/>
			<glyph d="M-668 1384Q-665 1334 -650 1296T-609 1233T-549 1195T-474 1183Q-311 1183 -216 1384L-125 1356Q-188 1223 -275 1154T-484 1086Q-542 1086 -591 1103T-677 1155T-736 1239T-761 1356Z" horiz-adv-x="1" unicode="̆"/>
			<glyph d="M-445 1362Q-410 1362 -386 1338T-363 1279Q-363 1244 -386 1221T-445 1198Q-480 1198 -503 1221T-526 1279Q-526 1314 -503 1338T-445 1362Z" horiz-adv-x="1" unicode="̇"/>
			<glyph d="M-660 1310Q-625 1310 -601 1286T-578 1227Q-578 1192 -601 1169T-660 1146Q-695 1146 -718 1169T-741 1227Q-741 1262 -718 1286T-660 1310ZM-251 1310Q-216 1310 -192 1286T-168 1227Q-168 1192 -192 1169T-251 1146Q-286 1146 -309 1169T-332 1227Q-332 1262 -309 1286T-251 1310Z" horiz-adv-x="1" unicode="̈"/>
			<glyph d="M-478 1492Q-434 1492 -395 1475T-326 1429T-280 1361T-263 1279Q-263 1235 -280 1196T-326 1128T-395 1082T-478 1066Q-522 1066 -561 1082T-630 1128T-676 1196T-693 1279Q-693 1323 -676 1361T-630 1429T-561 1475T-478 1492ZM-478 1418Q-507 1418 -532 1407T-575 1377T-605 1333T-616 1279Q-616 1250 -605 1224T-575 1180T-532 1150T-478 1139Q-450 1139 -424 1150T-380 1180T-351 1224T-340 1279Q-340 1308 -351 1333T-380 1377T-424 1407T-478 1418Z" horiz-adv-x="1" unicode="̊"/>
			<glyph d="M-142 1382H-4L-281 1082H-399ZM-496 1382H-363L-622 1082H-742Z" horiz-adv-x="1" unicode="̋"/>
			<glyph d="M-754 1367H-634L-481 1154L-241 1367H-111L-414 1086H-563Z" horiz-adv-x="1" unicode="̌"/>
			<glyph d="M-415 1422H-307L-423 1082H-550Z" horiz-adv-x="1" unicode="̒"/>
			<glyph d="M-539 -178Q-504 -178 -480 -202T-457 -261Q-457 -296 -480 -319T-539 -342Q-574 -342 -597 -319T-620 -261Q-620 -226 -597 -202T-539 -178Z" horiz-adv-x="1" unicode="̣"/>
			<glyph d="M-609 -88H-482L-617 -429H-725Z" horiz-adv-x="1" unicode="̦"/>
			<glyph d="M-509 6L-396 5L-560 -323H-687Z" horiz-adv-x="1" unicode="̧"/>
			<glyph d="M-414 78L-402 42Q-471 11 -518 -19T-595 -81T-638 -143T-651 -205Q-651 -254 -615 -284T-518 -315Q-476 -315 -438 -300T-368 -260L-315 -336Q-360 -374 -413 -393T-524 -412Q-579 -412 -623 -398T-698 -359T-747 -300T-764 -225Q-764 -180 -746 -139T-688 -61T-580 10T-414 78Z" horiz-adv-x="1" unicode="̨"/>
			<glyph d="M-786 -111Q-780 -212 -726 -262T-591 -312Q-428 -312 -333 -111L-242 -138Q-305 -272 -392 -340T-601 -408Q-659 -408 -708 -390T-795 -339T-854 -254T-879 -138Z" horiz-adv-x="1" unicode="̮"/>
			<glyph d="M-878 -215H-293L-313 -308H-898Z" horiz-adv-x="1" unicode="̱"/>
			<glyph d="M-921 578H-220L-241 475H-942Z" horiz-adv-x="1" unicode="̵"/>
			<glyph d="M-1306 578H166L146 475H-1327Z" horiz-adv-x="1" unicode="̶"/>
			<glyph d="M830 1402H979L1252 95L1232 0H-19L0 95ZM883 1277L148 116H1124Z" horiz-adv-x="1412" unicode="Δ"/>
			<glyph d="M944 1417Q1091 1417 1215 1369T1430 1236T1572 1031T1623 769Q1623 664 1597 566T1520 383T1395 230T1223 116H1592L1568 0H984L1005 103Q1117 129 1207 191T1360 340T1458 536T1493 763Q1493 879 1452 977T1338 1147T1163 1259T937 1300Q846 1300 764 1277T611 1212T484 1110T387 977T325 819T303 641Q303 540 330 453T407 298T527 181T682 107L660 0H70L94 116H490Q418 154 360 208T261 330T198 480T176 652Q176 820 236 960T401 1202T646 1360T944 1417Z" horiz-adv-x="1708" unicode="Ω"/>
			<glyph d="M265 941H379L266 411Q261 388 258 366T256 324Q256 274 271 231T318 158T397 110T507 93Q576 93 636 115T744 178T826 278T876 410L989 941H1103L903 0H790L818 133Q750 55 664 20T488 -15Q394 -15 319 19T203 117L93 -400H-22Z" horiz-adv-x="1177" unicode="μ"/>
			<glyph d="M274 941H1111L911 0H797L975 837H366L187 0H74Z" horiz-adv-x="1175" unicode="π"/>
			<glyph d="M398 1400H851Q1006 1400 1127 1359T1331 1242T1458 1060T1502 823Q1502 651 1443 501T1270 239T987 64T599 0H100ZM497 1284L248 116H612Q798 116 940 169T1179 316T1324 537T1373 812Q1373 918 1339 1005T1239 1154T1071 1250T838 1284ZM646 -178Q681 -178 704 -202T728 -261Q728 -296 704 -319T646 -342Q611 -342 588 -319T565 -261Q565 -226 588 -202T646 -178Z" horiz-adv-x="1559" unicode="Ḍ"/>
			<glyph d="M1129 1440H1243L937 0H824L854 145Q790 72 699 28T495 -15Q406 -15 331 16T203 102T118 234T88 400Q88 511 129 612T243 789T413 911T625 956Q693 955 750 937T851 889T927 816T976 722ZM622 849Q535 849 459 814T326 719T237 580T205 411Q205 343 226 284T288 183T386 116T515 92Q593 92 662 120T787 197T879 314T928 462Q940 543 923 613T866 736T763 819T622 849ZM486 -178Q521 -178 544 -202T568 -261Q568 -296 544 -319T486 -342Q451 -342 428 -319T405 -261Q405 -226 428 -202T486 -178Z" horiz-adv-x="1211" unicode="ḍ"/>
			<glyph d="M398 1400H851Q1006 1400 1127 1359T1331 1242T1458 1060T1502 823Q1502 651 1443 501T1270 239T987 64T599 0H100ZM497 1284L248 116H612Q798 116 940 169T1179 316T1324 537T1373 812Q1373 918 1339 1005T1239 1154T1071 1250T838 1284ZM365 -215H950L930 -308H345Z" horiz-adv-x="1559" unicode="Ḏ"/>
			<glyph d="M1129 1440H1243L937 0H824L854 145Q790 72 699 28T495 -15Q406 -15 331 16T203 102T118 234T88 400Q88 511 129 612T243 789T413 911T625 956Q693 955 750 937T851 889T927 816T976 722ZM622 849Q535 849 459 814T326 719T237 580T205 411Q205 343 226 284T288 183T386 116T515 92Q593 92 662 120T787 197T879 314T928 462Q940 543 923 613T866 736T763 819T622 849ZM204 -215H789L769 -308H184Z" horiz-adv-x="1211" unicode="ḏ"/>
			<glyph d="M398 1400H522L386 763H1274L1410 1400H1535L1236 0H1112L1249 647H361L224 0H100ZM611 -178Q646 -178 669 -202T693 -261Q693 -296 669 -319T611 -342Q576 -342 553 -319T530 -261Q530 -226 553 -202T611 -178Z" horiz-adv-x="1537" unicode="Ḥ"/>
			<glyph d="M380 1440H494L360 810Q428 888 513 922T689 956Q772 956 836 932T945 865T1013 762T1037 631Q1037 607 1033 580T1024 525L912 0H798L911 530Q916 553 918 574T921 617Q921 667 905 709T858 782T780 830T670 848Q601 848 541 826T433 762T351 662T301 531L188 0H74ZM438 -178Q473 -178 496 -202T520 -261Q520 -296 496 -319T438 -342Q403 -342 380 -319T357 -261Q357 -226 380 -202T438 -178Z" horiz-adv-x="1176" unicode="ḥ"/>
			<glyph d="M398 1400H522L386 763H1274L1410 1400H1535L1236 0H1112L1249 647H361L224 0H100ZM103 6L225 5L57 -323H-75Z" horiz-adv-x="1537" unicode="Ḩ"/>
			<glyph d="M380 1440H494L360 810Q428 888 513 922T689 956Q772 956 836 932T945 865T1013 762T1037 631Q1037 607 1033 580T1024 525L912 0H798L911 530Q916 553 918 574T921 617Q921 667 905 709T858 782T780 830T670 848Q601 848 541 826T433 762T351 662T301 531L188 0H74ZM76 6L189 5L25 -323H-102Z" horiz-adv-x="1176" unicode="ḩ"/>
			<glyph d="M398 1400H522L386 763H1274L1410 1400H1535L1236 0H1112L1249 647H361L224 0H100ZM422 -111Q428 -212 481 -262T617 -312Q780 -312 875 -111L966 -138Q903 -272 815 -340T607 -408Q549 -408 499 -390T413 -339T354 -254T329 -138Z" horiz-adv-x="1537" unicode="Ḫ"/>
			<glyph d="M380 1440H494L360 810Q428 888 513 922T689 956Q772 956 836 932T945 865T1013 762T1037 631Q1037 607 1033 580T1024 525L912 0H798L911 530Q916 553 918 574T921 617Q921 667 905 709T858 782T780 830T670 848Q601 848 541 826T433 762T351 662T301 531L188 0H74ZM248 -111Q254 -212 307 -262T443 -312Q606 -312 701 -111L792 -138Q729 -272 641 -340T433 -408Q375 -408 325 -390T239 -339T180 -254T155 -138Z" horiz-adv-x="1176" unicode="ḫ"/>
			<glyph d="M398 1400H522L386 762H556L1263 1400H1427L648 706L1217 0H1068L548 646H361L224 0H100ZM582 -178Q617 -178 640 -202T664 -261Q664 -296 640 -319T582 -342Q547 -342 524 -319T501 -261Q501 -226 524 -202T582 -178Z" horiz-adv-x="1334" unicode="Ḳ"/>
			<glyph d="M380 1440H494L303 544H452L897 941H1047L529 486L879 0H750L437 441H281L188 0H74ZM400 -178Q435 -178 458 -202T482 -261Q482 -296 458 -319T400 -342Q365 -342 342 -319T319 -261Q319 -226 342 -202T400 -178Z" horiz-adv-x="1013" unicode="ḳ"/>
			<glyph d="M398 1400H522L248 116H1058L1034 0H100ZM534 -178Q569 -178 592 -202T616 -261Q616 -296 592 -319T534 -342Q499 -342 476 -319T453 -261Q453 -226 476 -202T534 -178Z" horiz-adv-x="1174" unicode="Ḷ"/>
			<glyph d="M380 1440H494L188 0H74ZM75 -178Q110 -178 133 -202T157 -261Q157 -296 133 -319T75 -342Q40 -342 17 -319T-6 -261Q-6 -226 17 -202T75 -178Z" horiz-adv-x="462" unicode="ḷ"/>
			<glyph d="M398 1400H522L248 116H1058L1034 0H100ZM534 -178Q569 -178 592 -202T616 -261Q616 -296 592 -319T534 -342Q499 -342 476 -319T453 -261Q453 -226 476 -202T534 -178ZM219 1688H804L784 1595H199Z" horiz-adv-x="1174" unicode="Ḹ"/>
			<glyph d="M380 1440H494L188 0H74ZM206 1732H791L771 1639H186ZM75 -178Q110 -178 133 -202T157 -261Q157 -296 133 -319T75 -342Q40 -342 17 -319T-6 -261Q-6 -226 17 -202T75 -178Z" horiz-adv-x="462" unicode="ḹ"/>
			<glyph d="M398 1400H522L248 116H1058L1034 0H100ZM253 -215H838L818 -308H233Z" horiz-adv-x="1174" unicode="Ḻ"/>
			<glyph d="M380 1440H494L188 0H74ZM-207 -215H378L358 -308H-227Z" horiz-adv-x="462" unicode="ḻ"/>
			<glyph d="M398 1400H575L876 306L1623 1400H1812L1514 0H1390L1656 1250L921 166H792L491 1253L224 0H100ZM1123 1734Q1160 1734 1184 1709T1209 1647Q1209 1610 1184 1586T1123 1562Q1086 1562 1062 1586T1038 1647Q1038 1684 1062 1709T1123 1734Z" horiz-adv-x="1813" unicode="Ṁ"/>
			<glyph d="M689 956Q755 956 809 940T904 897T974 831T1018 745Q1054 800 1100 840T1197 905T1303 943T1414 956Q1496 956 1561 932T1670 865T1738 762T1762 631Q1762 580 1750 525L1636 0H1522L1635 530Q1645 573 1645 617Q1645 667 1629 709T1583 782T1504 830T1394 848Q1325 848 1265 826T1157 762T1075 662T1026 531L912 0H798L911 530Q925 594 918 652T883 753T801 821T670 847Q601 847 541 825T433 761T351 661T301 530L188 -1H74L274 940H387L359 809Q427 887 513 921T689 956ZM1125 1379Q1160 1379 1183 1355T1207 1296Q1207 1261 1183 1238T1125 1215Q1090 1215 1067 1238T1044 1296Q1044 1331 1067 1355T1125 1379Z" horiz-adv-x="1902" unicode="ṁ"/>
			<glyph d="M398 1400H575L876 306L1623 1400H1812L1514 0H1390L1656 1250L921 166H792L491 1253L224 0H100ZM782 -178Q817 -178 840 -202T864 -261Q864 -296 840 -319T782 -342Q747 -342 724 -319T701 -261Q701 -226 724 -202T782 -178Z" horiz-adv-x="1813" unicode="Ṃ"/>
			<glyph d="M689 956Q755 956 809 940T904 897T974 831T1018 745Q1054 800 1100 840T1197 905T1303 943T1414 956Q1496 956 1561 932T1670 865T1738 762T1762 631Q1762 580 1750 525L1636 0H1522L1635 530Q1645 573 1645 617Q1645 667 1629 709T1583 782T1504 830T1394 848Q1325 848 1265 826T1157 762T1075 662T1026 531L912 0H798L911 530Q925 594 918 652T883 753T801 821T670 847Q601 847 541 825T433 761T351 661T301 530L188 -1H74L274 940H387L359 809Q427 887 513 921T689 956ZM799 -178Q834 -178 857 -202T881 -261Q881 -296 857 -319T799 -342Q764 -342 741 -319T718 -261Q718 -226 741 -202T799 -178Z" horiz-adv-x="1902" unicode="ṃ"/>
			<glyph d="M398 1400H513L1156 192L1413 1400H1538L1239 0H1126L481 1208L224 0H100ZM993 1734Q1030 1734 1054 1709T1079 1647Q1079 1610 1054 1586T993 1562Q956 1562 932 1586T908 1647Q908 1684 932 1709T993 1734Z" horiz-adv-x="1540" unicode="Ṅ"/>
			<glyph d="M689 956Q772 956 836 932T945 865T1013 762T1037 631Q1037 607 1033 580T1024 525L912 0H798L911 530Q916 553 918 574T921 617Q921 667 905 709T858 782T780 830T670 848Q601 848 541 826T433 762T351 662T301 531L188 0H74L274 941H387L359 808Q427 886 513 921T689 956ZM751 1362Q786 1362 809 1338T833 1279Q833 1244 809 1221T751 1198Q716 1198 693 1221T670 1279Q670 1314 693 1338T751 1362Z" horiz-adv-x="1176" unicode="ṅ"/>
			<glyph d="M398 1400H513L1156 192L1413 1400H1538L1239 0H1126L481 1208L224 0H100ZM635 -178Q670 -178 693 -202T717 -261Q717 -296 693 -319T635 -342Q600 -342 577 -319T554 -261Q554 -226 577 -202T635 -178Z" horiz-adv-x="1540" unicode="Ṇ"/>
			<glyph d="M689 956Q772 956 836 932T945 865T1013 762T1037 631Q1037 607 1033 580T1024 525L912 0H798L911 530Q916 553 918 574T921 617Q921 667 905 709T858 782T780 830T670 848Q601 848 541 826T433 762T351 662T301 531L188 0H74L274 941H387L359 808Q427 886 513 921T689 956ZM437 -178Q472 -178 495 -202T519 -261Q519 -296 495 -319T437 -342Q402 -342 379 -319T356 -261Q356 -226 379 -202T437 -178Z" horiz-adv-x="1176" unicode="ṇ"/>
			<glyph d="M398 1400H513L1156 192L1413 1400H1538L1239 0H1126L481 1208L224 0H100ZM354 -215H939L919 -308H334Z" horiz-adv-x="1540" unicode="Ṉ"/>
			<glyph d="M689 956Q772 956 836 932T945 865T1013 762T1037 631Q1037 607 1033 580T1024 525L912 0H798L911 530Q916 553 918 574T921 617Q921 667 905 709T858 782T780 830T670 848Q601 848 541 826T433 762T351 662T301 531L188 0H74L274 941H387L359 808Q427 886 513 921T689 956ZM155 -215H740L720 -308H135Z" horiz-adv-x="1176" unicode="ṉ"/>
			<glyph d="M398 1400H893Q996 1400 1075 1375T1208 1305T1289 1198T1317 1063Q1317 977 1286 897T1189 756T1022 658T779 621H689L1151 0H1005L554 621H356L224 0H100ZM497 1284L379 732H783Q890 732 967 756T1093 824T1166 925T1189 1050Q1189 1103 1169 1146T1111 1220T1014 1267T881 1284ZM850 1734Q887 1734 911 1709T936 1647Q936 1610 911 1586T850 1562Q813 1562 789 1586T765 1647Q765 1684 789 1709T850 1734Z" horiz-adv-x="1317" unicode="Ṙ"/>
			<glyph d="M655 957Q701 957 748 945T830 914L779 811Q752 828 713 838T635 848Q575 848 521 826T424 763T348 662T300 528L188 0H74L274 941H387L361 818Q423 891 499 924T655 957ZM608 1362Q643 1362 666 1338T690 1279Q690 1244 666 1221T608 1198Q573 1198 550 1221T527 1279Q527 1314 550 1338T608 1362Z" horiz-adv-x="788" unicode="ṙ"/>
			<glyph d="M398 1400H893Q996 1400 1075 1375T1208 1305T1289 1198T1317 1063Q1317 977 1286 897T1189 756T1022 658T779 621H689L1151 0H1005L554 621H356L224 0H100ZM497 1284L379 732H783Q890 732 967 756T1093 824T1166 925T1189 1050Q1189 1103 1169 1146T1111 1220T1014 1267T881 1284ZM554 -178Q589 -178 612 -202T636 -261Q636 -296 612 -319T554 -342Q519 -342 496 -319T473 -261Q473 -226 496 -202T554 -178Z" horiz-adv-x="1317" unicode="Ṛ"/>
			<glyph d="M655 957Q701 957 748 945T830 914L779 811Q752 828 713 838T635 848Q575 848 521 826T424 763T348 662T300 528L188 0H74L274 941H387L361 818Q423 891 499 924T655 957ZM75 -178Q110 -178 133 -202T157 -261Q157 -296 133 -319T75 -342Q40 -342 17 -319T-6 -261Q-6 -226 17 -202T75 -178Z" horiz-adv-x="788" unicode="ṛ"/>
			<glyph d="M398 1400H893Q996 1400 1075 1375T1208 1305T1289 1198T1317 1063Q1317 977 1286 897T1189 756T1022 658T779 621H689L1151 0H1005L554 621H356L224 0H100ZM497 1284L379 732H783Q890 732 967 756T1093 824T1166 925T1189 1050Q1189 1103 1169 1146T1111 1220T1014 1267T881 1284ZM554 -178Q589 -178 612 -202T636 -261Q636 -296 612 -319T554 -342Q519 -342 496 -319T473 -261Q473 -226 496 -202T554 -178ZM575 1688H1160L1140 1595H555Z" horiz-adv-x="1317" unicode="Ṝ"/>
			<glyph d="M655 957Q701 957 748 945T830 914L779 811Q752 828 713 838T635 848Q575 848 521 826T424 763T348 662T300 528L188 0H74L274 941H387L361 818Q423 891 499 924T655 957ZM315 1273H900L880 1180H295ZM75 -178Q110 -178 133 -202T157 -261Q157 -296 133 -319T75 -342Q40 -342 17 -319T-6 -261Q-6 -226 17 -202T75 -178Z" horiz-adv-x="788" unicode="ṝ"/>
			<glyph d="M398 1400H893Q996 1400 1075 1375T1208 1305T1289 1198T1317 1063Q1317 977 1286 897T1189 756T1022 658T779 621H689L1151 0H1005L554 621H356L224 0H100ZM497 1284L379 732H783Q890 732 967 756T1093 824T1166 925T1189 1050Q1189 1103 1169 1146T1111 1220T1014 1267T881 1284ZM273 -215H858L838 -308H253Z" horiz-adv-x="1317" unicode="Ṟ"/>
			<glyph d="M655 957Q701 957 748 945T830 914L779 811Q752 828 713 838T635 848Q575 848 521 826T424 763T348 662T300 528L188 0H74L274 941H387L361 818Q423 891 499 924T655 957ZM-207 -215H378L358 -308H-227Z" horiz-adv-x="788" unicode="ṟ"/>
			<glyph d="M775 1415Q835 1415 900 1407T1033 1380T1168 1330T1298 1251L1230 1153Q1173 1196 1112 1224T992 1268T876 1292T768 1299Q664 1299 590 1273T469 1205T400 1112T379 1010Q379 912 448 853T668 769L795 748Q881 733 953 706T1076 637T1157 538T1186 406Q1186 320 1150 243T1043 109T868 17T627 -16Q573 -16 504 -7T362 23T216 79T79 168L152 267Q206 220 270 188T399 136T524 108T632 100Q737 100 816 124T950 188T1031 281T1058 392Q1058 489 982 546T754 630L625 652Q442 683 346 769T250 995Q250 1071 281 1146T376 1281T540 1378T775 1415ZM603 -178Q638 -178 661 -202T685 -261Q685 -296 661 -319T603 -342Q568 -342 545 -319T522 -261Q522 -226 545 -202T603 -178Z" horiz-adv-x="1318" unicode="Ṣ"/>
			<glyph d="M529 956Q649 956 747 925T908 849L848 762Q822 781 786 798T708 828T620 848T528 856Q475 856 429 845T348 815T292 766T267 700Q258 629 303 588T452 531L547 517Q697 494 764 425T820 251Q812 189 780 140T696 56T576 3T425 -15Q370 -15 314 -5T204 21T104 62T20 116L84 200Q114 176 151 155T232 118T324 93T423 84Q480 84 529 94T616 126T675 178T703 250Q718 384 516 415L419 430Q340 442 286 466T199 525T155 602T149 695Q156 758 187 806T269 888T385 938T529 956ZM376 -178Q411 -178 434 -202T458 -261Q458 -296 434 -319T376 -342Q341 -342 318 -319T295 -261Q295 -226 318 -202T376 -178Z" horiz-adv-x="950" unicode="ṣ"/>
			<glyph d="M238 1400H1346L1321 1284H833L560 0H435L708 1284H213ZM440 -178Q475 -178 498 -202T522 -261Q522 -296 498 -319T440 -342Q405 -342 382 -319T359 -261Q359 -226 382 -202T440 -178Z" horiz-adv-x="1188" unicode="Ṭ"/>
			<glyph d="M432 1248H546L481 941H894L872 837H459L355 345Q341 279 348 231T378 152T438 107T518 92Q578 92 631 111T734 167L782 79Q725 36 657 10T505 -15Q432 -15 374 8T280 76T232 190T240 348L344 837H130L152 941H366ZM422 -178Q457 -178 480 -202T504 -261Q504 -296 480 -319T422 -342Q387 -342 364 -319T341 -261Q341 -226 364 -202T422 -178Z" horiz-adv-x="888" unicode="ṭ"/>
			<glyph d="M238 1400H1346L1321 1284H833L560 0H435L708 1284H213ZM159 -215H744L724 -308H139Z" horiz-adv-x="1188" unicode="Ṯ"/>
			<glyph d="M432 1248H546L481 941H894L872 837H459L355 345Q341 279 348 231T378 152T438 107T518 92Q578 92 631 111T734 167L782 79Q725 36 657 10T505 -15Q432 -15 374 8T280 76T232 190T240 348L344 837H130L152 941H366ZM140 -215H725L705 -308H120Z" horiz-adv-x="888" unicode="ṯ"/>
			<glyph d="M1231 1402H1364L1518 137L2193 1400H2322L1567 0H1421L1267 1236L607 0H456L273 1400H397L557 133ZM1072 1797H1216L1436 1497H1323Z" horiz-adv-x="2199" unicode="Ẁ"/>
			<glyph d="M148 941H263L412 120L860 941H986L1144 119L1627 941H1752L1193 0H1058L906 821L458 0H325ZM706 1382H850L1070 1082H957Z" horiz-adv-x="1699" unicode="ẁ"/>
			<glyph d="M1231 1402H1364L1518 137L2193 1400H2322L1567 0H1421L1267 1236L607 0H456L273 1400H397L557 133ZM1413 1797H1561L1278 1497H1160Z" horiz-adv-x="2199" unicode="Ẃ"/>
			<glyph d="M148 941H263L412 120L860 941H986L1144 119L1627 941H1752L1193 0H1058L906 821L458 0H325ZM1085 1383H1233L950 1083H832Z" horiz-adv-x="1699" unicode="ẃ"/>
			<glyph d="M1231 1402H1364L1518 137L2193 1400H2322L1567 0H1421L1267 1236L607 0H456L273 1400H397L557 133ZM1138 1725Q1173 1725 1196 1701T1220 1642Q1220 1607 1196 1584T1138 1561Q1103 1561 1080 1584T1057 1642Q1057 1677 1080 1701T1138 1725ZM1547 1725Q1582 1725 1606 1701T1630 1642Q1630 1607 1606 1584T1547 1561Q1512 1561 1489 1584T1466 1642Q1466 1677 1489 1701T1547 1725Z" horiz-adv-x="2199" unicode="Ẅ"/>
			<glyph d="M148 941H263L412 120L860 941H986L1144 119L1627 941H1752L1193 0H1058L906 821L458 0H325ZM780 1310Q815 1310 838 1286T862 1227Q862 1192 838 1169T780 1146Q745 1146 722 1169T699 1227Q699 1262 722 1286T780 1310ZM1189 1310Q1224 1310 1248 1286T1272 1227Q1272 1192 1248 1169T1189 1146Q1154 1146 1131 1169T1108 1227Q1108 1262 1131 1286T1189 1310Z" horiz-adv-x="1699" unicode="ẅ"/>
			<glyph d="M1231 1402H1364L1518 137L2193 1400H2322L1567 0H1421L1267 1236L607 0H456L273 1400H397L557 133ZM987 -178Q1022 -178 1045 -202T1069 -261Q1069 -296 1045 -319T987 -342Q952 -342 929 -319T906 -261Q906 -226 929 -202T987 -178Z" horiz-adv-x="2199" unicode="Ẉ"/>
			<glyph d="M148 941H263L412 120L860 941H986L1144 119L1627 941H1752L1193 0H1058L906 821L458 0H325ZM713 -178Q748 -178 771 -202T795 -261Q795 -296 771 -319T713 -342Q678 -342 655 -319T632 -261Q632 -226 655 -202T713 -178Z" horiz-adv-x="1699" unicode="ẉ"/>
			<glyph d="M318 1400H1370L1350 1303L237 116H1135L1110 0H48L71 103L1182 1284H293ZM555 -178Q590 -178 613 -202T637 -261Q637 -296 613 -319T555 -342Q520 -342 497 -319T474 -261Q474 -226 497 -202T555 -178Z" horiz-adv-x="1310" unicode="Ẓ"/>
			<glyph d="M223 941H993L974 854L211 103H840L818 0H34L52 89L820 837H200ZM393 -178Q428 -178 451 -202T475 -261Q475 -296 451 -319T393 -342Q358 -342 335 -319T312 -261Q312 -226 335 -202T393 -178Z" horiz-adv-x="1023" unicode="ẓ"/>
			<glyph d="M318 1400H1370L1350 1303L237 116H1135L1110 0H48L71 103L1182 1284H293ZM274 -215H859L839 -308H254Z" horiz-adv-x="1310" unicode="Ẕ"/>
			<glyph d="M223 941H993L974 854L211 103H840L818 0H34L52 89L820 837H200ZM111 -215H696L676 -308H91Z" horiz-adv-x="1023" unicode="ẕ"/>
			<glyph d="M380 1440H494L360 810Q428 888 513 922T689 956Q772 956 836 932T945 865T1013 762T1037 631Q1037 607 1033 580T1024 525L912 0H798L911 530Q916 553 918 574T921 617Q921 667 905 709T858 782T780 830T670 848Q601 848 541 826T433 762T351 662T301 531L188 0H74ZM156 -215H741L721 -308H136Z" horiz-adv-x="1176" unicode="ẖ"/>
			<glyph d="M863 1415Q957 1415 1038 1395T1187 1338T1306 1251T1392 1141L927 748Q1023 733 1099 698T1226 610T1300 488T1312 338Q1301 254 1256 188T1144 77T989 8T808 -15Q771 -15 727 -11T636 0T540 21T447 56L493 169Q533 149 574 136T656 116T735 106T808 103Q884 103 949 119T1064 166T1145 243T1184 347Q1192 411 1169 466T1097 561T974 625T809 648H741L761 744L1232 1144Q1172 1216 1074 1257T855 1298Q770 1298 695 1271T561 1195T459 1074T399 915L205 0H80L278 931Q300 1037 351 1126T477 1279T649 1379T863 1415Z" horiz-adv-x="1453" unicode="ẞ"/>
			<glyph d="M212 1400H344L672 720L1278 1400H1433L713 599L586 0H462L591 610ZM586 1797H730L950 1497H837Z" horiz-adv-x="1249" unicode="Ỳ"/>
			<glyph d="M122 941H243L524 327L966 941H1096L121 -403H-9L451 225ZM364 1382H508L728 1082H615Z" horiz-adv-x="1012" unicode="ỳ"/>
			<glyph d="M212 1400H344L672 720L1278 1400H1433L713 599L586 0H462L591 610ZM467 -178Q502 -178 525 -202T549 -261Q549 -296 525 -319T467 -342Q432 -342 409 -319T386 -261Q386 -226 409 -202T467 -178Z" horiz-adv-x="1249" unicode="Ỵ"/>
			<glyph d="M122 941H243L524 327L966 941H1096L121 -403H-9L451 225ZM647 -178Q682 -178 705 -202T729 -261Q729 -296 705 -319T647 -342Q612 -342 589 -319T566 -261Q566 -226 589 -202T647 -178Z" horiz-adv-x="1012" unicode="ỵ"/>
			<glyph d="" horiz-adv-x="1408" unicode=" "/>
			<glyph d="" horiz-adv-x="503" unicode=" "/>
			<glyph d="" horiz-adv-x="177" unicode=" "/>
			<glyph d="" horiz-adv-x="0" unicode="​"/>
			<glyph d="M163 578H697L675 475H142Z" horiz-adv-x="814" unicode="‐"/>
			<glyph d="M163 578H697L675 475H142Z" horiz-adv-x="814" unicode="‑"/>
			<glyph d="M143 578H1079L1058 475H122Z" horiz-adv-x="1200" unicode="‒"/>
			<glyph d="M143 578H1079L1058 475H122Z" horiz-adv-x="1177" unicode="–"/>
			<glyph d="M83 578H1560L1540 475H62Z" horiz-adv-x="1599" unicode="—"/>
			<glyph d="M438 1440H544L379 957H247Z" horiz-adv-x="475" unicode="‘"/>
			<glyph d="M405 1440H537L346 957H240Z" horiz-adv-x="475" unicode="’"/>
			<glyph d="M149 234H281L90 -249H-16Z" horiz-adv-x="475" unicode="‚"/>
			<glyph d="M438 1440H544L379 957H247ZM771 1440H877L712 957H580Z" horiz-adv-x="808" unicode="“"/>
			<glyph d="M738 1440H870L679 957H573ZM405 1440H537L346 957H240Z" horiz-adv-x="808" unicode="”"/>
			<glyph d="M482 234H614L423 -249H317ZM149 234H281L90 -249H-16Z" horiz-adv-x="808" unicode="„"/>
			<glyph d="M511 1440H606L562 1236H767L747 1143H543L449 701H354L448 1143H244L263 1236H467Z" horiz-adv-x="704" unicode="†"/>
			<glyph d="M511 1440H606L567 1256H772L752 1164H547L507 977H712L692 884H488L449 701H355L393 884H189L208 977H413L452 1164H249L269 1256H472Z" horiz-adv-x="705" unicode="‡"/>
			<glyph d="M443 718Q482 718 516 703T577 662T619 601T634 527Q634 488 619 453T577 392T516 351T443 336Q403 336 368 351T307 392T267 453T252 527Q252 567 267 601T307 662T368 703T443 718Z" horiz-adv-x="851" unicode="•"/>
			<glyph d="M351 837L821 527L219 216Z" horiz-adv-x="991" unicode="‣"/>
			<glyph d="M172 178Q191 178 208 170T239 150T260 119T268 83Q268 63 260 45T239 15T208 -6T172 -14Q153 -14 135 -6T105 15T84 45T76 83Q76 102 84 119T105 150T135 170T172 178ZM617 178Q636 178 653 170T684 150T704 119T712 83Q712 63 704 45T684 15T653 -6T617 -14Q597 -14 580 -6T549 15T528 45T521 83Q521 102 528 119T549 150T580 170T617 178ZM1061 178Q1080 178 1097 170T1128 150T1149 119T1157 83Q1157 63 1149 45T1128 15T1097 -6T1061 -14Q1042 -14 1024 -6T994 15T973 45T965 83Q965 102 973 119T994 150T1024 170T1061 178Z" horiz-adv-x="1391" unicode="…"/>
			<glyph d="M590 1415Q661 1415 720 1391T823 1324T891 1221T916 1090Q916 1013 888 944T810 823T692 741T545 711Q474 711 414 735T310 802T242 904T218 1035Q218 1112 246 1181T324 1302T442 1384T590 1415ZM584 1314Q527 1314 479 1292T397 1233T344 1146T325 1041Q325 990 342 948T389 876T460 829T550 812Q607 812 654 834T736 893T790 979T809 1085Q809 1135 792 1177T746 1249T674 1297T584 1314ZM1488 1400H1615L560 0H433ZM1502 688Q1573 688 1632 664T1735 597T1803 494T1828 364Q1828 287 1800 218T1722 97T1604 14T1457 -16Q1386 -16 1326 8T1222 75T1154 178T1130 309Q1130 386 1158 455T1236 575T1354 657T1502 688ZM1496 587Q1439 587 1391 565T1309 506T1256 419T1237 314Q1237 264 1254 222T1301 149T1372 102T1462 85Q1519 85 1566 107T1648 166T1702 252T1721 358Q1721 409 1704 451T1658 523T1586 570T1496 587ZM2310 688Q2381 688 2440 664T2543 597T2611 494T2636 364Q2636 287 2608 218T2530 97T2412 14T2265 -16Q2194 -16 2134 8T2030 75T1962 178T1938 309Q1938 386 1966 455T2044 575T2162 657T2310 688ZM2305 587Q2248 587 2200 565T2117 506T2064 419T2045 314Q2045 264 2062 222T2109 149T2180 102T2270 85Q2327 85 2374 107T2456 166T2510 252T2529 358Q2529 409 2512 451T2466 523T2395 570T2305 587Z" horiz-adv-x="2756" unicode="‰"/>
			<glyph d="M465 1400H579L318 784H203Z" horiz-adv-x="526" unicode="′"/>
			<glyph d="M767 1400H881L620 784H505ZM465 1400H579L318 784H203Z" horiz-adv-x="828" unicode="″"/>
			<glyph d="M741 1400H855L594 784H479ZM1017 1400H1131L870 784H755ZM465 1400H579L318 784H203Z" horiz-adv-x="1078" unicode="‴"/>
			<glyph d="M409 891H538L258 515L371 163H255L139 527Z" horiz-adv-x="619" unicode="‹"/>
			<glyph d="M272 891H388L504 527L234 163H105L385 539Z" horiz-adv-x="618" unicode="›"/>
			<glyph d="M680 1400H801L-254 0H-375Z" horiz-adv-x="420" unicode="⁄"/>
			<glyph d="M597 1408Q658 1408 708 1387T795 1327T851 1232T871 1108Q871 1025 845 939T771 784T651 669T489 625Q428 625 377 646T291 706T235 800T215 925Q215 980 226 1037T260 1147T315 1248T390 1331T484 1387T597 1408ZM593 1319Q548 1319 510 1302T440 1257T385 1190T345 1109T321 1021T313 934Q313 883 326 842T362 772T419 729T493 714Q560 714 612 750T700 842T754 967T773 1099Q773 1151 760 1191T723 1260T666 1304T593 1319Z" horiz-adv-x="840" unicode="⁰"/>
			<glyph d="M323 1287H417L279 634H185ZM415 1580Q442 1580 461 1562T480 1516Q480 1489 461 1471T415 1453Q389 1453 370 1471T352 1516Q352 1544 370 1562T415 1580Z" horiz-adv-x="387" unicode="ⁱ"/>
			<glyph d="M488 1398H595L243 879H486L532 1094H625L579 879H708L690 792H560L527 634H434L468 792H112L127 867Z" horiz-adv-x="659" unicode="⁴"/>
			<glyph d="M316 1399H723L705 1313H381L326 1094H412Q486 1094 538 1073T621 1017T661 936T661 839Q650 785 623 745T558 678T472 638T371 625Q295 625 230 653T126 738L185 798Q219 753 268 732T375 711Q452 711 503 747T566 846Q572 878 566 908T540 961T481 997T385 1011H223Z" horiz-adv-x="666" unicode="⁵"/>
			<glyph d="M502 1399H620L389 1115Q419 1124 454 1124Q508 1124 554 1108T635 1062T688 989T708 895Q708 840 686 791T627 705T535 647T418 626Q362 626 313 643T229 690T172 764T152 860Q152 906 170 954T229 1054ZM439 1044Q397 1044 362 1029T302 990T264 933T250 864Q250 830 262 802T297 753T352 721T422 710Q464 710 498 724T558 763T597 820T611 890Q611 924 598 952T562 1001T507 1032T439 1044Z" horiz-adv-x="679" unicode="⁶"/>
			<glyph d="M250 1399H773L757 1321L320 634H208L645 1312H232Z" horiz-adv-x="632" unicode="⁷"/>
			<glyph d="M553 1408Q601 1408 644 1395T721 1359T774 1302T794 1225Q794 1154 744 1098T606 1016Q662 995 696 955T730 862Q730 813 708 770T645 694T546 643T416 625Q364 625 317 637T236 674T182 732T162 810Q162 885 213 942T358 1024Q310 1044 281 1081T253 1169Q253 1217 273 1260T332 1336T426 1388T553 1408ZM470 983Q423 983 384 971T319 938T277 888T263 826Q263 797 276 775T311 738T362 715T424 707Q470 707 508 718T574 751T617 800T632 863Q632 890 619 912T585 950T533 974T470 983ZM545 1324Q500 1324 464 1312T403 1279T365 1231T352 1172Q352 1121 392 1090T497 1059Q541 1059 577 1071T640 1103T680 1150T694 1209Q694 1236 682 1257T649 1293T602 1316T545 1324Z" horiz-adv-x="730" unicode="⁸"/>
			<glyph d="M493 1407Q550 1407 598 1390T682 1342T738 1268T759 1173Q759 1127 741 1079T682 979L409 634H291L521 918Q492 909 458 909Q404 909 357 925T276 971T222 1043T203 1137Q203 1192 224 1241T284 1327T376 1385T493 1407ZM489 1323Q447 1323 412 1308T353 1269T314 1212T300 1143Q300 1109 313 1080T349 1032T404 1000T473 989Q515 989 550 1003T609 1042T648 1099T662 1168Q662 1202 649 1230T614 1279T559 1311T489 1323Z" horiz-adv-x="679" unicode="⁹"/>
			<glyph d="M603 1298Q659 1298 702 1281T776 1235T821 1165T837 1076Q837 1044 829 1004L749 634H654L733 1002Q739 1030 739 1057Q739 1123 698 1166T575 1209Q487 1209 421 1153T334 996L258 634H164L302 1287H394L371 1183Q416 1243 476 1270T603 1298Z" horiz-adv-x="818" unicode="ⁿ"/>
			<glyph d="M391 412Q452 412 502 391T589 331T645 236T665 112Q665 29 639 -56T565 -212T445 -326T283 -371Q222 -371 171 -350T85 -290T29 -195T9 -71Q9 -16 20 41T54 151T109 252T184 335T278 391T391 412ZM387 323Q342 323 304 306T234 261T179 194T139 113T115 25T107 -62Q107 -113 120 -154T156 -223T213 -267T287 -282Q354 -282 406 -246T494 -153T548 -29T567 103Q567 155 554 195T517 264T460 308T387 323Z" horiz-adv-x="840" unicode="₀"/>
			<glyph d="M360 411L196 -362H103L240 281L-1 197L19 294Z" horiz-adv-x="512" unicode="₁"/>
			<glyph d="M279 412Q336 412 378 394T448 348T489 283T503 208Q503 170 492 136T460 71T408 7T337 -60L88 -275H437L419 -362H-68L-52 -288L276 -5Q341 51 374 97T407 196Q407 221 398 244T371 284T328 312T267 323Q208 323 165 295T92 231L34 288Q52 311 76 333T131 372T199 401T279 412Z" horiz-adv-x="657" unicode="₂"/>
			<glyph d="M269 412Q321 412 363 397T436 358T482 299T498 228Q498 195 486 162T452 102T397 53T323 20Q377 0 406 -41T436 -136Q436 -182 417 -224T363 -299T273 -351T147 -371Q66 -371 5 -345T-89 -274L-26 -216Q2 -250 48 -268T149 -286Q199 -286 235 -273T295 -239T330 -190T341 -134Q341 -80 299 -48T191 -16H92L109 66H206Q253 66 289 79T350 113T387 160T400 214Q400 264 360 295T256 327Q197 327 150 303T70 243L22 308Q67 356 127 384T269 412Z" horiz-adv-x="648" unicode="₃"/>
			<glyph d="M279 402H386L34 -117H277L323 98H416L370 -117H499L481 -204H351L318 -362H225L259 -204H-97L-82 -129Z" horiz-adv-x="659" unicode="₄"/>
			<glyph d="M108 403H515L497 317H173L118 98H204Q278 98 330 77T413 21T453 -60T453 -157Q442 -211 415 -251T350 -317T264 -357T163 -371Q87 -371 22 -342T-82 -258L-23 -198Q11 -243 60 -264T167 -285Q244 -285 295 -249T358 -150Q364 -118 358 -88T332 -35T273 1T177 15H15Z" horiz-adv-x="664" unicode="₅"/>
			<glyph d="M294 403H412L181 119Q211 128 246 128Q300 128 346 112T427 66T480 -6T500 -101Q500 -156 478 -205T419 -290T327 -348T210 -370Q154 -370 105 -353T21 -305T-35 -232T-56 -136Q-56 -90 -38 -42T21 58ZM231 48Q189 48 154 33T94 -5T56 -62T42 -132Q42 -166 54 -194T89 -242T144 -274T214 -286Q256 -286 290 -271T350 -232T389 -175T403 -106Q403 -72 390 -43T354 5T299 36T231 48Z" horiz-adv-x="679" unicode="₆"/>
			<glyph d="M42 403H565L549 325L112 -362H0L437 316H24Z" horiz-adv-x="632" unicode="₇"/>
			<glyph d="M346 412Q394 412 437 399T514 363T567 306T587 229Q587 158 537 102T399 20Q455 -1 489 -40T523 -134Q523 -183 501 -226T438 -301T339 -352T209 -371Q157 -371 110 -358T29 -322T-25 -264T-45 -186Q-45 -111 6 -53T151 28Q103 48 74 85T46 173Q46 221 66 264T125 340T219 392T346 412ZM263 -13Q216 -13 177 -25T112 -58T70 -108T56 -170Q56 -199 69 -221T104 -258T155 -281T217 -289Q263 -289 301 -277T367 -245T410 -195T425 -133Q425 -106 412 -83T378 -45T326 -21T263 -13ZM338 328Q293 328 257 316T196 283T158 235T145 176Q145 125 185 94T290 63Q334 63 370 75T433 107T473 154T487 213Q487 240 475 261T442 297T395 320T338 328Z" horiz-adv-x="730" unicode="₈"/>
			<glyph d="M279 411Q336 411 384 394T468 346T524 272T545 177Q545 131 527 83T468 -17L195 -362H77L307 -78Q278 -87 244 -87Q190 -87 143 -71T62 -25T8 47T-11 141Q-11 196 10 245T70 331T162 389T279 411ZM275 327Q233 327 198 312T139 273T100 216T86 147Q86 113 99 84T135 36T190 4T259 -7Q301 -7 336 7T395 46T434 103T448 172Q448 206 435 234T400 283T345 315T275 327Z" horiz-adv-x="679" unicode="₉"/>
			<glyph d="M961 1412Q1030 1412 1096 1399T1224 1356T1341 1277T1442 1156L1354 1083Q1280 1203 1178 1253T954 1304Q864 1304 785 1277T643 1199T530 1074T450 908H1138L1118 813H425Q416 772 410 727Q405 691 403 658T402 593H1072L1052 498H408Q422 395 461 320T558 195T686 122T834 98Q897 98 954 114T1060 159T1150 228T1221 318L1292 244Q1214 125 1096 57T827 -10Q724 -10 632 21T468 116T348 275T287 498H104L124 593H282Q282 659 291 733Q293 753 296 773T304 813H167L186 908H328Q363 1025 423 1118T565 1276T746 1377T961 1412Z" horiz-adv-x="1400" unicode="€"/>
			<glyph d="M567 1400H685L570 861L1109 1102L1087 993L547 752L499 525L1039 767L1018 658L476 416L411 110H679Q755 110 825 124T956 172T1066 265T1150 410L1246 359Q1205 255 1145 185T1010 74T848 15T667 -2H269L345 357L127 260L148 368L368 467L416 693L196 595L218 703L439 802Z" horiz-adv-x="1400" unicode="₺"/>
			<glyph d="M630 1416Q688 1416 735 1401T815 1357T865 1288T883 1195Q883 1178 881 1159T875 1121L796 752H704L722 838Q677 794 617 767T487 741Q439 741 400 753T333 788T289 843T274 915Q274 957 290 996T342 1064T430 1111T559 1129H781Q788 1157 788 1185Q788 1257 742 1294T613 1332Q548 1332 498 1312T407 1267L380 1344Q434 1378 494 1397T630 1416ZM566 1058Q513 1058 476 1046T417 1016T384 974T374 926Q374 875 411 847T513 820Q576 820 635 848T739 924L767 1058ZM1482 1400H1603L548 0H427ZM1468 659Q1556 659 1621 625T1727 529L1649 481Q1612 531 1563 551T1464 571Q1408 571 1360 549T1277 490T1221 403T1201 298Q1201 249 1217 208T1262 137T1330 90T1416 74Q1468 74 1515 94T1599 150L1659 91Q1611 40 1547 13T1412 -14Q1344 -14 1287 9T1189 73T1126 170T1104 292Q1104 367 1131 433T1207 550T1323 630T1468 659Z" horiz-adv-x="1856" unicode="℀"/>
			<glyph d="M624 1416Q682 1416 729 1401T809 1357T859 1288T877 1195Q877 1178 875 1159T869 1121L790 752H698L716 838Q671 794 611 767T481 741Q433 741 394 753T327 788T283 843T268 915Q268 957 284 996T336 1064T424 1111T553 1129H775Q782 1157 782 1185Q782 1257 736 1294T607 1332Q542 1332 492 1312T401 1267L374 1344Q428 1378 488 1397T624 1416ZM560 1058Q507 1058 470 1046T411 1016T378 974T368 926Q368 875 405 847T507 820Q570 820 629 848T733 924L761 1058ZM1476 1400H1597L542 0H421ZM1434 660Q1516 660 1584 639T1700 585L1655 515Q1635 529 1609 541T1554 561T1494 575T1433 580Q1363 580 1316 554T1264 480Q1258 434 1288 407T1390 370L1454 360Q1557 343 1603 294T1640 173Q1629 83 1553 34T1361 -15Q1322 -15 1282 -8T1206 11T1136 39T1078 76L1126 146Q1169 112 1231 89T1362 66Q1437 66 1487 91T1543 171Q1553 258 1418 279L1353 289Q1243 306 1200 356T1167 477Q1172 521 1194 555T1251 612T1332 648T1434 660Z" horiz-adv-x="1856" unicode="℁"/>
			<glyph d="M602 1415Q690 1415 755 1381T861 1285L783 1237Q746 1287 697 1307T598 1327Q542 1327 494 1305T411 1246T355 1159T335 1054Q335 1005 351 964T396 893T464 846T550 830Q602 830 649 850T733 906L793 847Q745 796 681 769T546 742Q478 742 421 765T323 829T260 926T238 1048Q238 1123 265 1189T341 1306T457 1386T602 1415ZM1419 1400H1540L485 0H364ZM1405 660Q1473 660 1530 637T1629 573T1694 477T1718 354Q1718 279 1690 211T1612 94T1495 14T1350 -15Q1282 -15 1225 7T1126 70T1061 167T1038 291Q1038 366 1066 433T1143 551T1259 630T1405 660ZM1398 572Q1342 572 1294 550T1210 490T1155 403T1135 296Q1135 247 1151 206T1196 135T1266 89T1356 73Q1412 73 1460 95T1544 154T1600 242T1621 349Q1621 397 1604 438T1558 509T1488 555T1398 572Z" horiz-adv-x="1856" unicode="℅"/>
			<glyph d="M606 1415Q694 1415 759 1381T865 1285L787 1237Q750 1287 701 1307T602 1327Q546 1327 498 1305T415 1246T359 1159T339 1054Q339 1005 355 964T400 893T468 846T554 830Q606 830 653 850T737 906L797 847Q749 796 685 769T550 742Q482 742 425 765T327 829T264 926T242 1048Q242 1123 269 1189T345 1306T461 1386T606 1415ZM1412 1400H1533L478 0H357ZM1172 655H1267L1189 288Q1182 259 1182 230Q1182 192 1195 163T1230 116T1284 88T1351 79Q1436 79 1500 131T1586 285L1664 655H1758L1677 268Q1662 196 1630 144T1553 58T1455 7T1342 -9Q1288 -9 1241 5T1160 49T1106 120T1087 220Q1087 237 1088 256T1095 295Z" horiz-adv-x="1856" unicode="℆"/>
			<glyph d="M646 1455Q708 1455 759 1433T848 1373T905 1279T926 1160Q926 1060 891 968T795 795T650 641T470 509V324Q470 264 484 220T524 147T586 105T667 91Q727 91 779 112T872 167L919 78Q870 36 805 10T657 -16Q516 -16 436 67T356 321V444Q325 428 294 413T231 385L189 483Q233 501 274 521T356 564L357 1093Q357 1172 377 1238T435 1353T526 1428T646 1455ZM646 1349Q607 1349 575 1331T520 1280T484 1199T471 1093L470 635Q546 688 609 748T716 875T785 1012T810 1160Q810 1248 766 1298T646 1349Z" horiz-adv-x="1081" unicode="ℓ"/>
			<glyph d="M1654 575H2304L2281 472H1632ZM2081 1410Q2151 1410 2210 1387T2311 1324T2377 1226T2401 1103Q2401 1030 2373 964T2297 850T2183 772T2039 744Q1968 744 1909 767T1809 830T1743 927T1720 1049Q1720 1122 1747 1188T1822 1303T1937 1381T2081 1410ZM2077 1323Q2020 1323 1972 1301T1889 1243T1834 1158T1815 1055Q1815 1006 1832 965T1879 894T1951 847T2043 831Q2100 831 2148 852T2232 910T2286 995T2306 1099Q2306 1148 2289 1189T2241 1260T2169 1306T2077 1323ZM398 1400H513L1156 192L1413 1400H1538L1239 0H1126L481 1208L224 0H100Z" horiz-adv-x="2358" unicode="№"/>
			<glyph d="M1050 1496Q1152 1496 1247 1471T1425 1399T1577 1287T1695 1139T1772 962T1799 760Q1799 650 1769 545T1684 346T1551 172T1377 35T1171 -54T939 -86Q837 -86 742 -61T563 10T411 123T293 270T216 448T189 650Q189 760 219 865T304 1065T437 1238T610 1374T817 1464T1050 1496ZM1042 1396Q936 1396 839 1367T660 1289T509 1169T393 1017T320 843T294 656Q294 517 346 399T487 195T694 62T946 14Q1052 14 1149 42T1329 121T1479 241T1595 393T1669 567T1695 754Q1695 847 1671 930T1604 1085T1501 1214T1368 1312T1213 1374T1042 1396ZM819 1121H1128Q1204 1121 1262 1099T1357 1040T1407 950T1408 839T1364 736T1287 664T1181 622T1052 609H812L743 281H641ZM901 1028L832 700H1052Q1104 700 1147 708T1222 734T1276 780T1306 849Q1322 929 1274 978T1123 1028Z" horiz-adv-x="1888" unicode="℗"/>
			<glyph d="M491 1407Q540 1407 601 1394T722 1341L679 1276Q656 1292 631 1302T581 1319T532 1328T490 1331Q454 1331 428 1323T385 1304T361 1276T354 1245Q354 1210 384 1190T469 1163L513 1157Q589 1146 633 1110T677 1016Q677 978 661 946T614 891T539 854T437 841Q410 841 378 845T314 858T251 880T195 914L241 980Q289 945 343 930T443 916Q515 916 552 941T589 1005Q589 1038 559 1056T471 1084L426 1091Q348 1103 307 1139T266 1234Q266 1268 280 1299T322 1355T392 1393T491 1407ZM886 1401H999L1101 1003L1371 1401H1491L1374 848H1291L1385 1289L1127 909H1041L944 1289L851 848H768Z" horiz-adv-x="1374" unicode="℠"/>
			<glyph d="M853 1401H966L1068 1003L1339 1401H1459L1341 848H1259L1352 1289L1094 909H1009L912 1289L818 848H736ZM278 1400H744L728 1324H536L435 848H353L454 1324H262Z" horiz-adv-x="1341" unicode="™"/>
			<glyph d="M944 1417Q1091 1417 1215 1369T1430 1236T1572 1031T1623 769Q1623 664 1597 566T1520 383T1395 230T1223 116H1592L1568 0H984L1005 103Q1117 129 1207 191T1360 340T1458 536T1493 763Q1493 879 1452 977T1338 1147T1163 1259T937 1300Q846 1300 764 1277T611 1212T484 1110T387 977T325 819T303 641Q303 540 330 453T407 298T527 181T682 107L660 0H70L94 116H490Q418 154 360 208T261 330T198 480T176 652Q176 820 236 960T401 1202T646 1360T944 1417Z" horiz-adv-x="1708" unicode="Ω"/>
			<glyph d="M1068 1500Q1232 1500 1376 1442T1629 1280T1799 1027T1862 700V677H506V324Q506 252 526 197T604 99Q700 25 818 -14T1068 -54Q1166 -54 1257 -32T1429 32T1576 134T1693 270L1730 242Q1677 161 1605 97T1449 -10T1267 -77T1068 -100Q904 -100 759 -42T507 120T336 372T274 700Q274 880 336 1027T507 1280T759 1442T1068 1500ZM1068 1454Q936 1454 818 1414T604 1301Q547 1257 526 1202T506 1076V723H1638V1069Q1638 1140 1617 1195T1542 1294Q1445 1372 1324 1413T1068 1454Z" horiz-adv-x="2000" unicode="℮"/>
			<glyph d="M597 1400H709L850 671H754L718 865H370L253 671H149ZM1457 736Q1488 736 1523 732T1595 719T1671 693T1746 649L1697 574Q1668 596 1636 610T1572 633T1511 645T1457 649Q1410 649 1376 638T1320 609T1288 568T1278 524Q1278 476 1317 450T1428 411L1484 401Q1581 384 1634 340T1687 221Q1687 173 1667 131T1609 58T1514 9T1385 -9Q1349 -9 1309 -3T1230 13T1151 43T1081 87L1134 163Q1196 116 1264 97T1391 78Q1439 78 1475 88T1536 117T1572 158T1584 208Q1584 254 1546 279T1433 318L1376 328Q1175 363 1175 511Q1175 555 1192 595T1245 667T1333 717T1457 736ZM637 1308L422 952H702ZM1496 1400H1617L562 0H441Z" horiz-adv-x="1856" unicode="⅍"/>
			<glyph d="M1207 1400H1328L273 0H152ZM1078 765H1601L1585 687L1148 0H1036L1473 678H1060ZM568 1407L404 634H311L448 1277L207 1193L227 1290Z" horiz-adv-x="1596" unicode="⅐"/>
			<glyph d="M1207 1400H1328L273 0H152ZM1306 773Q1363 773 1411 756T1495 708T1551 634T1572 539Q1572 493 1554 445T1495 345L1222 0H1104L1334 284Q1305 275 1271 275Q1217 275 1170 291T1089 337T1035 409T1016 503Q1016 558 1037 607T1097 693T1189 751T1306 773ZM1302 689Q1260 689 1225 674T1166 635T1127 578T1113 509Q1113 475 1126 446T1162 398T1217 366T1286 355Q1328 355 1363 369T1422 408T1461 465T1475 534Q1475 568 1462 596T1427 645T1372 677T1302 689ZM568 1407L404 634H311L448 1277L207 1193L227 1290Z" horiz-adv-x="1627" unicode="⅑"/>
			<glyph d="M1207 1400H1328L273 0H152ZM1384 773L1220 0H1127L1264 643L1023 559L1043 656ZM1931 774Q1992 774 2042 753T2129 693T2185 598T2205 474Q2205 391 2179 305T2105 150T1985 35T1823 -9Q1762 -9 1711 12T1625 72T1569 166T1549 291Q1549 346 1560 403T1594 513T1649 614T1724 697T1818 753T1931 774ZM1927 685Q1882 685 1844 668T1774 623T1719 556T1679 475T1655 387T1647 300Q1647 249 1660 208T1696 138T1753 95T1827 80Q1894 80 1946 116T2034 208T2088 333T2107 465Q2107 517 2094 557T2057 626T2000 670T1927 685ZM568 1407L404 634H311L448 1277L207 1193L227 1290Z" horiz-adv-x="2312" unicode="⅒"/>
			<glyph d="M1207 1400H1328L273 0H152ZM1288 774Q1340 774 1382 759T1455 720T1501 661T1517 590Q1517 557 1505 524T1471 464T1416 415T1342 382Q1396 362 1425 321T1455 226Q1455 180 1436 137T1382 62T1292 10T1166 -9Q1085 -9 1024 17T930 88L993 146Q1021 112 1067 94T1168 76Q1218 76 1254 89T1314 123T1349 171T1360 228Q1360 282 1318 314T1210 346H1111L1128 428H1225Q1272 428 1308 441T1369 475T1406 522T1419 576Q1419 626 1379 657T1275 689Q1216 689 1169 665T1089 605L1041 670Q1086 718 1146 746T1288 774ZM568 1407L404 634H311L448 1277L207 1193L227 1290Z" horiz-adv-x="1593" unicode="⅓"/>
			<glyph d="M1367 1400H1488L433 0H312ZM1449 774Q1501 774 1543 759T1616 720T1662 661T1678 590Q1678 557 1666 524T1632 464T1577 415T1503 382Q1557 362 1586 321T1616 226Q1616 180 1597 137T1543 62T1453 10T1327 -9Q1246 -9 1185 17T1091 88L1154 146Q1182 112 1228 94T1329 76Q1379 76 1415 89T1475 123T1510 171T1521 228Q1521 282 1479 314T1371 346H1272L1289 428H1386Q1433 428 1469 441T1530 475T1567 522T1580 576Q1580 626 1540 657T1436 689Q1377 689 1330 665T1250 605L1202 670Q1247 718 1307 746T1449 774ZM487 1408Q544 1408 586 1390T656 1344T697 1279T711 1204Q711 1166 700 1132T668 1067T616 1003T545 936L296 721H645L627 634H140L156 708L484 991Q549 1047 582 1093T615 1192Q615 1217 606 1240T579 1280T536 1308T475 1319Q416 1319 373 1291T300 1227L242 1284Q260 1307 284 1329T339 1368T407 1397T487 1408Z" horiz-adv-x="1753" unicode="⅔"/>
			<glyph d="M1207 1400H1328L273 0H152ZM1127 765H1534L1516 679H1192L1137 460H1223Q1297 460 1349 439T1432 383T1472 302T1472 205Q1461 151 1434 111T1369 44T1283 4T1182 -9Q1106 -9 1041 19T937 104L996 164Q1030 119 1079 98T1186 77Q1263 77 1314 113T1377 212Q1383 244 1377 274T1351 327T1292 363T1196 377H1034ZM568 1407L404 634H311L448 1277L207 1193L227 1290Z" horiz-adv-x="1613" unicode="⅕"/>
			<glyph d="M1367 1400H1488L433 0H312ZM1288 765H1695L1677 679H1353L1298 460H1384Q1458 460 1510 439T1593 383T1633 302T1633 205Q1622 151 1595 111T1530 44T1444 4T1343 -9Q1267 -9 1202 19T1098 104L1157 164Q1191 119 1240 98T1347 77Q1424 77 1475 113T1538 212Q1544 244 1538 274T1512 327T1453 363T1357 377H1195ZM487 1408Q544 1408 586 1390T656 1344T697 1279T711 1204Q711 1166 700 1132T668 1067T616 1003T545 936L296 721H645L627 634H140L156 708L484 991Q549 1047 582 1093T615 1192Q615 1217 606 1240T579 1280T536 1308T475 1319Q416 1319 373 1291T300 1227L242 1284Q260 1307 284 1329T339 1368T407 1397T487 1408Z" horiz-adv-x="1774" unicode="⅖"/>
			<glyph d="M1325 1400H1446L391 0H270ZM1246 765H1653L1635 679H1311L1256 460H1342Q1416 460 1468 439T1551 383T1591 302T1591 205Q1580 151 1553 111T1488 44T1402 4T1301 -9Q1225 -9 1160 19T1056 104L1115 164Q1149 119 1198 98T1305 77Q1382 77 1433 113T1496 212Q1502 244 1496 274T1470 327T1411 363T1315 377H1153ZM477 1408Q529 1408 571 1393T644 1354T690 1295T706 1224Q706 1191 694 1158T660 1098T605 1049T531 1016Q585 996 614 955T644 860Q644 814 625 771T571 696T481 644T355 625Q274 625 213 651T119 722L182 780Q210 746 256 728T357 710Q407 710 443 723T503 757T538 805T549 862Q549 916 507 948T399 980H300L317 1062H414Q461 1062 497 1075T558 1109T595 1156T608 1210Q608 1260 568 1291T464 1323Q405 1323 358 1299T278 1239L230 1304Q275 1352 335 1380T477 1408Z" horiz-adv-x="1732" unicode="⅗"/>
			<glyph d="M1354 1400H1475L420 0H299ZM1274 765H1681L1663 679H1339L1284 460H1370Q1444 460 1496 439T1579 383T1619 302T1619 205Q1608 151 1581 111T1516 44T1430 4T1329 -9Q1253 -9 1188 19T1084 104L1143 164Q1177 119 1226 98T1333 77Q1410 77 1461 113T1524 212Q1530 244 1524 274T1498 327T1439 363T1343 377H1181ZM488 1398H595L243 879H486L532 1094H625L579 879H708L690 792H560L527 634H434L468 792H112L127 867Z" horiz-adv-x="1760" unicode="⅘"/>
			<glyph d="M1207 1400H1328L273 0H152ZM1232 765H1350L1119 481Q1149 490 1184 490Q1238 490 1284 474T1365 428T1418 355T1438 261Q1438 206 1416 157T1357 71T1265 13T1148 -8Q1092 -8 1043 9T959 56T902 130T882 226Q882 272 900 320T959 420ZM1169 410Q1127 410 1092 395T1032 356T994 299T980 230Q980 196 992 168T1027 119T1082 87T1152 76Q1194 76 1228 90T1288 129T1327 186T1341 256Q1341 290 1328 318T1292 367T1237 398T1169 410ZM568 1407L404 634H311L448 1277L207 1193L227 1290Z" horiz-adv-x="1546" unicode="⅙"/>
			<glyph d="M1345 1400H1466L411 0H290ZM1370 765H1488L1257 481Q1287 490 1322 490Q1376 490 1422 474T1503 428T1556 355T1576 261Q1576 206 1554 157T1495 71T1403 13T1286 -8Q1230 -8 1181 9T1097 56T1040 130T1020 226Q1020 272 1038 320T1097 420ZM1307 410Q1265 410 1230 395T1170 356T1132 299T1118 230Q1118 196 1130 168T1165 119T1220 87T1290 76Q1332 76 1366 90T1426 129T1465 186T1479 256Q1479 290 1466 318T1430 367T1375 398T1307 410ZM316 1399H723L705 1313H381L326 1094H412Q486 1094 538 1073T621 1017T661 936T661 839Q650 785 623 745T558 678T472 638T371 625Q295 625 230 653T126 738L185 798Q219 753 268 732T375 711Q452 711 503 747T566 846Q572 878 566 908T540 961T481 997T385 1011H223Z" horiz-adv-x="1684" unicode="⅚"/>
			<glyph d="M1207 1400H1328L273 0H152ZM1333 774Q1381 774 1424 761T1501 725T1554 668T1574 591Q1574 520 1524 464T1386 382Q1442 361 1476 321T1510 228Q1510 179 1488 136T1425 60T1326 9T1196 -9Q1144 -9 1097 3T1016 40T962 98T942 176Q942 251 993 308T1138 390Q1090 410 1061 447T1033 535Q1033 583 1053 626T1112 702T1206 754T1333 774ZM1250 349Q1203 349 1164 337T1099 304T1057 254T1043 192Q1043 163 1056 141T1091 104T1142 81T1204 73Q1250 73 1288 84T1354 117T1397 166T1412 229Q1412 256 1399 278T1365 316T1313 340T1250 349ZM1325 690Q1280 690 1244 678T1183 645T1145 597T1132 538Q1132 487 1172 456T1277 425Q1321 425 1357 437T1420 469T1460 516T1474 575Q1474 602 1462 623T1429 659T1382 682T1325 690ZM568 1407L404 634H311L448 1277L207 1193L227 1290Z" horiz-adv-x="1647" unicode="⅛"/>
			<glyph d="M1325 1400H1446L391 0H270ZM1452 774Q1500 774 1543 761T1620 725T1673 668T1693 591Q1693 520 1643 464T1505 382Q1561 361 1595 321T1629 228Q1629 179 1607 136T1544 60T1445 9T1315 -9Q1263 -9 1216 3T1135 40T1081 98T1061 176Q1061 251 1112 308T1257 390Q1209 410 1180 447T1152 535Q1152 583 1172 626T1231 702T1325 754T1452 774ZM1369 349Q1322 349 1283 337T1218 304T1176 254T1162 192Q1162 163 1175 141T1210 104T1261 81T1323 73Q1369 73 1407 84T1473 117T1516 166T1531 229Q1531 256 1518 278T1484 316T1432 340T1369 349ZM1444 690Q1399 690 1363 678T1302 645T1264 597T1251 538Q1251 487 1291 456T1396 425Q1440 425 1476 437T1539 469T1579 516T1593 575Q1593 602 1581 623T1548 659T1501 682T1444 690ZM477 1408Q529 1408 571 1393T644 1354T690 1295T706 1224Q706 1191 694 1158T660 1098T605 1049T531 1016Q585 996 614 955T644 860Q644 814 625 771T571 696T481 644T355 625Q274 625 213 651T119 722L182 780Q210 746 256 728T357 710Q407 710 443 723T503 757T538 805T549 862Q549 916 507 948T399 980H300L317 1062H414Q461 1062 497 1075T558 1109T595 1156T608 1210Q608 1260 568 1291T464 1323Q405 1323 358 1299T278 1239L230 1304Q275 1352 335 1380T477 1408Z" horiz-adv-x="1765" unicode="⅜"/>
			<glyph d="M1345 1400H1466L411 0H290ZM1471 774Q1519 774 1562 761T1639 725T1692 668T1712 591Q1712 520 1662 464T1524 382Q1580 361 1614 321T1648 228Q1648 179 1626 136T1563 60T1464 9T1334 -9Q1282 -9 1235 3T1154 40T1100 98T1080 176Q1080 251 1131 308T1276 390Q1228 410 1199 447T1171 535Q1171 583 1191 626T1250 702T1344 754T1471 774ZM1388 349Q1341 349 1302 337T1237 304T1195 254T1181 192Q1181 163 1194 141T1229 104T1280 81T1342 73Q1388 73 1426 84T1492 117T1535 166T1550 229Q1550 256 1537 278T1503 316T1451 340T1388 349ZM1463 690Q1418 690 1382 678T1321 645T1283 597T1270 538Q1270 487 1310 456T1415 425Q1459 425 1495 437T1558 469T1598 516T1612 575Q1612 602 1600 623T1567 659T1520 682T1463 690ZM316 1399H723L705 1313H381L326 1094H412Q486 1094 538 1073T621 1017T661 936T661 839Q650 785 623 745T558 678T472 638T371 625Q295 625 230 653T126 738L185 798Q219 753 268 732T375 711Q452 711 503 747T566 846Q572 878 566 908T540 961T481 997T385 1011H223Z" horiz-adv-x="1785" unicode="⅝"/>
			<glyph d="M1233 1400H1354L299 0H178ZM1360 774Q1408 774 1451 761T1528 725T1581 668T1601 591Q1601 520 1551 464T1413 382Q1469 361 1503 321T1537 228Q1537 179 1515 136T1452 60T1353 9T1223 -9Q1171 -9 1124 3T1043 40T989 98T969 176Q969 251 1020 308T1165 390Q1117 410 1088 447T1060 535Q1060 583 1080 626T1139 702T1233 754T1360 774ZM1277 349Q1230 349 1191 337T1126 304T1084 254T1070 192Q1070 163 1083 141T1118 104T1169 81T1231 73Q1277 73 1315 84T1381 117T1424 166T1439 229Q1439 256 1426 278T1392 316T1340 340T1277 349ZM1352 690Q1307 690 1271 678T1210 645T1172 597T1159 538Q1159 487 1199 456T1304 425Q1348 425 1384 437T1447 469T1487 516T1501 575Q1501 602 1489 623T1456 659T1409 682T1352 690ZM250 1399H773L757 1321L320 634H208L645 1312H232Z" horiz-adv-x="1673" unicode="⅞"/>
			<glyph d="M1207 1400H1328L273 0H152ZM568 1407L404 634H311L448 1277L207 1193L227 1290Z" horiz-adv-x="947" unicode="⅟"/>
			<glyph d="M1520 1400H1641L586 0H465ZM1602 774Q1654 774 1696 759T1769 720T1815 661T1831 590Q1831 557 1819 524T1785 464T1730 415T1656 382Q1710 362 1739 321T1769 226Q1769 180 1750 137T1696 62T1606 10T1480 -9Q1399 -9 1338 17T1244 88L1307 146Q1335 112 1381 94T1482 76Q1532 76 1568 89T1628 123T1663 171T1674 228Q1674 282 1632 314T1524 346H1425L1442 428H1539Q1586 428 1622 441T1683 475T1720 522T1733 576Q1733 626 1693 657T1589 689Q1530 689 1483 665T1403 605L1355 670Q1400 718 1460 746T1602 774ZM597 1408Q658 1408 708 1387T795 1327T851 1232T871 1108Q871 1025 845 939T771 784T651 669T489 625Q428 625 377 646T291 706T235 800T215 925Q215 980 226 1037T260 1147T315 1248T390 1331T484 1387T597 1408ZM593 1319Q548 1319 510 1302T440 1257T385 1190T345 1109T321 1021T313 934Q313 883 326 842T362 772T419 729T493 714Q560 714 612 750T700 842T754 967T773 1099Q773 1151 760 1191T723 1260T666 1304T593 1319Z" horiz-adv-x="1906" unicode="↉"/>
			<glyph d="M895 1257L968 1184L612 828Q581 797 543 761T468 694Q494 695 514 696T551 697T584 698H1808V595H584Q569 595 551 595T514 596T468 599Q506 567 543 531T612 465L968 109L895 36L285 646Z" horiz-adv-x="2000" unicode="←"/>
			<glyph d="M1070 1465L1681 855L1607 782L1251 1138Q1220 1169 1184 1206T1118 1282Q1119 1256 1120 1236T1121 1199T1122 1166V-58H1018V1166Q1018 1182 1018 1199T1019 1236T1022 1282Q991 1244 955 1206T889 1138L533 782L459 855Z" horiz-adv-x="2000" unicode="↑"/>
			<glyph d="M1208 1256L1818 646L1208 35L1135 108L1491 465Q1521 496 1559 531T1635 598Q1609 596 1589 595T1552 594T1519 594H295V698H1519Q1535 698 1552 697T1589 696T1635 693Q1597 725 1559 760T1491 827L1135 1183Z" horiz-adv-x="2000" unicode="→"/>
			<glyph d="M968 1463H1071V239Q1071 224 1070 206T1069 169T1067 123Q1099 161 1134 198T1201 267L1557 624L1630 550L1020 -60L409 550L482 624L838 267Q869 236 905 198T972 123Q970 149 969 169T968 206T968 239Z" horiz-adv-x="2000" unicode="↓"/>
			<glyph d="M517 1192H1381V1088H877Q833 1088 781 1089T680 1096Q699 1079 714 1065T741 1039T765 1016T788 994L1631 151L1557 78L715 921Q692 945 669 967T613 1028Q618 979 619 927T620 832V328H517Z" horiz-adv-x="2000" unicode="↖"/>
			<glyph d="M718 1185L1581 1184V321H1477V825Q1477 869 1478 920T1485 1021Q1468 1002 1454 987T1429 960T1406 937T1384 914L540 71L468 144L1310 987L1333 1010Q1344 1021 1356 1033T1383 1058T1417 1089Q1368 1084 1316 1082T1221 1081H718Z" horiz-adv-x="2000" unicode="↗"/>
			<glyph d="M540 1221L1382 378Q1394 366 1404 355T1427 331T1453 304T1484 271Q1479 320 1477 372T1476 468V971H1580L1579 108L716 107V211H1220Q1264 211 1315 210T1417 203Q1378 238 1355 260T1309 305L466 1148Z" horiz-adv-x="2000" unicode="↘"/>
			<glyph d="M1571 1213L1644 1140L801 297Q778 274 755 252T694 196Q743 201 794 202T891 203H1394V99L531 100L530 963H634V459Q634 415 633 364T626 263Q661 302 683 324T728 370Z" horiz-adv-x="2000" unicode="↙"/>
			<glyph d="M436 1450Q592 1389 712 1298T914 1095T1038 854T1081 589Q1081 551 1077 512T1067 434Q1051 336 1004 253T888 111T732 18T550 -15Q449 -15 365 18T220 109T126 248T92 421Q92 526 131 620T240 786T402 898T601 940Q727 940 822 883T967 729Q950 831 902 924T779 1098T604 1245T384 1360ZM613 832Q518 832 443 796T316 702T237 572T210 426Q210 354 235 292T306 186T416 117T557 92Q651 92 726 127T853 219T933 350T961 498Q961 571 935 632T864 738T754 807T613 832Z" horiz-adv-x="1167" unicode="∂"/>
			<glyph d="M1115 1018L1188 944L1057 813Q1105 752 1132 677T1160 520Q1160 423 1123 337T1022 188T873 88T691 51Q607 51 532 78T398 154L266 22L193 96L324 227Q276 287 248 361T221 520Q221 617 258 702T358 852T507 953T691 990Q774 990 848 962T984 886ZM691 887Q615 887 548 858T431 779T353 662T324 520Q324 456 344 399T401 296L915 810Q868 846 811 866T691 887ZM981 743L467 229Q514 194 571 174T691 154Q766 154 833 183T949 261T1028 377T1057 520Q1057 583 1036 639T981 743Z" horiz-adv-x="1360" unicode="∅"/>
			<glyph d="M830 1402H979L1252 95L1232 0H-19L0 95ZM883 1277L148 116H1124Z" horiz-adv-x="1412" unicode="∆"/>
			<glyph d="M398 1400H1434V-265H1311V1284H520V-265H398Z" horiz-adv-x="1790" unicode="∏"/>
			<glyph d="M297 1400H1358V1284H476L1060 613V545L473 -149H1361V-265H294V-170L930 576L297 1305Z" horiz-adv-x="1637" unicode="∑"/>
			<glyph d="M185 578H1037L1015 475H163Z" horiz-adv-x="1200" unicode="−"/>
			<glyph d="M600 718Q639 718 673 703T734 662T776 601T791 527Q791 488 776 453T734 392T673 351T600 336Q560 336 525 351T464 392T424 453T409 527Q409 567 424 601T464 662T525 703T600 718Z" horiz-adv-x="1200" unicode="∙"/>
			<glyph d="M1111 1440H1236L649 -265H498L88 735H222L573 -121Z" horiz-adv-x="1076" unicode="√"/>
			<glyph d="M416 882Q474 882 523 861T621 802T718 711T823 596Q879 659 928 711T1025 802T1122 861T1230 882Q1299 882 1361 857T1470 785T1544 671T1572 520Q1572 436 1544 369T1470 255T1361 183T1230 158Q1172 158 1122 179T1025 237T929 327T823 443Q767 380 718 327T621 237T523 179T416 158Q347 158 285 183T176 255T101 369T74 520Q74 604 101 671T176 785T285 857T416 882ZM416 778Q368 778 325 760T251 710T201 629T183 520Q183 458 201 410T251 329T325 279T416 262Q456 262 492 278T568 327T651 408T753 520Q696 584 651 632T568 713T492 761T416 778ZM1230 778Q1190 778 1154 761T1079 712T995 632T894 520Q951 456 995 408T1079 327T1154 278T1230 262Q1278 262 1320 279T1395 329T1445 410T1464 520Q1464 581 1445 629T1395 710T1320 760T1230 778Z" horiz-adv-x="1625" unicode="∞"/>
			<glyph d="M382 1415Q441 1415 492 1403L462 1300Q425 1308 390 1308Q288 1308 244 1247T200 1078V57Q200 -17 183 -79T131 -185T39 -255T-97 -280Q-156 -280 -207 -268L-176 -165Q-139 -173 -104 -173Q-2 -173 42 -113T86 57V1078Q86 1152 102 1214T154 1320T246 1390T382 1415Z" horiz-adv-x="334" unicode="∫"/>
			<glyph d="M160 403H1012L989 299H137ZM235 754H1087L1064 651H212ZM541 1151Q607 1151 649 1137T726 1105T800 1074T895 1060Q952 1060 998 1082T1094 1149L1145 1072Q1082 1017 1019 989T879 962Q835 962 802 968T743 985T694 1007T646 1029T592 1046T525 1053Q468 1053 422 1030T327 964L275 1041Q338 1096 401 1123T541 1151Z" horiz-adv-x="1200" unicode="≅"/>
			<glyph d="M504 797Q570 797 612 783T689 751T763 720T858 706Q915 706 961 728T1057 795L1108 718Q1045 663 982 635T842 608Q798 608 765 614T706 631T657 653T609 675T555 692T488 699Q431 699 385 676T290 610L238 687Q301 742 364 769T504 797ZM430 449Q496 449 538 435T615 403T689 372T784 358Q841 358 887 380T983 447L1034 370Q971 315 908 287T768 260Q724 260 691 266T632 283T583 305T535 327T481 344T414 351Q357 351 311 328T216 262L164 339Q227 394 290 421T430 449Z" horiz-adv-x="1200" unicode="≈"/>
			<glyph d="M160 403H1012L989 299H137ZM235 754H1087L1064 651H212ZM663 1220H813L1003 938H883L729 1151L490 938H361Z" horiz-adv-x="1200" unicode="≙"/>
			<glyph d="M843 1015H952L793 754H1087L1064 651H730L579 403H1012L989 299H516L357 38H247L406 299H137L160 403H469L621 651H212L235 754H684Z" horiz-adv-x="1200" unicode="≠"/>
			<glyph d="M1101 1081L1074 954L373 677L956 399L932 284L234 627L257 739ZM138 176H909L887 72H117Z" horiz-adv-x="1200" unicode="≤"/>
			<glyph d="M358 1081L1055 739L1032 626L189 284L215 411L917 689L334 967ZM165 176H936L914 72H144Z" horiz-adv-x="1200" unicode="≥"/>
			<glyph d="M600 623Q619 623 636 615T667 594T687 563T695 527Q695 508 687 490T667 460T636 439T600 431Q581 431 563 439T533 460T512 490T504 527Q504 546 512 563T533 594T563 615T600 623Z" horiz-adv-x="1200" unicode="⋅"/>
			<glyph d="M1115 1018L1188 944L1057 813Q1105 752 1132 677T1160 520Q1160 423 1123 337T1022 188T873 88T691 51Q607 51 532 78T398 154L266 22L193 96L324 227Q276 287 248 361T221 520Q221 617 258 702T358 852T507 953T691 990Q774 990 848 962T984 886ZM691 887Q615 887 548 858T431 779T353 662T324 520Q324 456 344 399T401 296L915 810Q868 846 811 866T691 887ZM981 743L467 229Q514 194 571 174T691 154Q766 154 833 183T949 261T1028 377T1057 520Q1057 583 1036 639T981 743Z" horiz-adv-x="1360" unicode="⌀"/>
			<glyph d="M1085 1575Q1206 1575 1318 1543T1528 1455T1706 1319T1843 1142T1931 933T1963 701Q1963 580 1931 468T1843 259T1706 82T1528 -55T1318 -143T1085 -175Q964 -175 851 -143T641 -55T464 82T327 259T238 468T207 701Q207 821 238 933T327 1142T464 1319T641 1455T851 1543T1085 1575ZM1085 1469Q979 1469 880 1441T697 1364T542 1244T422 1089T344 905T317 701Q317 595 344 496T422 312T542 156T697 36T880 -41T1085 -69Q1191 -69 1289 -41T1472 36T1628 156T1749 312T1826 496T1854 701Q1854 807 1826 905T1749 1089T1628 1244T1472 1364T1289 1441T1085 1469ZM1189 1141V294H1088V1001L809 887V988Z" unicode="①"/>
			<glyph d="M1085 1575Q1206 1575 1318 1543T1528 1455T1706 1319T1843 1142T1931 933T1963 701Q1963 580 1931 468T1843 259T1706 82T1528 -55T1318 -143T1085 -175Q964 -175 851 -143T641 -55T464 82T327 259T238 468T207 701Q207 821 238 933T327 1142T464 1319T641 1455T851 1543T1085 1575ZM1085 1469Q979 1469 880 1441T697 1364T542 1244T422 1089T344 905T317 701Q317 595 344 496T422 312T542 156T697 36T880 -41T1085 -69Q1191 -69 1289 -41T1472 36T1628 156T1749 312T1826 496T1854 701Q1854 807 1826 905T1749 1089T1628 1244T1472 1364T1289 1441T1085 1469ZM1078 1142Q1143 1142 1194 1122T1280 1068T1334 987T1353 885Q1353 846 1343 812T1315 748T1275 691T1228 639L978 388H1381V294H832V373L1158 697Q1197 736 1222 780T1247 878Q1247 913 1235 943T1200 996T1145 1032T1070 1045Q1032 1045 1002 1036T948 1011T905 975T870 933L807 1001Q824 1025 848 1050T905 1096T981 1129T1078 1142Z" unicode="②"/>
			<glyph d="M1085 1575Q1206 1575 1318 1543T1528 1455T1706 1319T1843 1142T1931 933T1963 701Q1963 580 1931 468T1843 259T1706 82T1528 -55T1318 -143T1085 -175Q964 -175 851 -143T641 -55T464 82T327 259T238 468T207 701Q207 821 238 933T327 1142T464 1319T641 1455T851 1543T1085 1575ZM1085 1469Q979 1469 880 1441T697 1364T542 1244T422 1089T344 905T317 701Q317 595 344 496T422 312T542 156T697 36T880 -41T1085 -69Q1191 -69 1289 -41T1472 36T1628 156T1749 312T1826 496T1854 701Q1854 807 1826 905T1749 1089T1628 1244T1472 1364T1289 1441T1085 1469ZM1069 1142Q1135 1142 1190 1125T1284 1079T1345 1007T1367 916Q1367 838 1324 788T1210 717Q1289 695 1337 644T1385 519Q1385 459 1359 414T1290 341T1191 297T1076 283Q989 283 918 311T800 390L859 457Q900 418 954 395T1071 373Q1113 373 1150 382T1217 410T1263 457T1280 525Q1280 560 1263 587T1219 634T1153 663T1072 673H953V762H1072Q1112 762 1147 771T1207 799T1247 844T1262 908Q1262 940 1247 966T1207 1011T1144 1040T1064 1051Q998 1051 948 1023T866 958L803 1023Q845 1074 912 1108T1069 1142Z" unicode="③"/>
			<glyph d="M1085 1575Q1206 1575 1318 1543T1528 1455T1706 1319T1843 1142T1931 933T1963 701Q1963 580 1931 468T1843 259T1706 82T1528 -55T1318 -143T1085 -175Q964 -175 851 -143T641 -55T464 82T327 259T238 468T207 701Q207 821 238 933T327 1142T464 1319T641 1455T851 1543T1085 1575ZM1085 1469Q979 1469 880 1441T697 1364T542 1244T422 1089T344 905T317 701Q317 595 344 496T422 312T542 156T697 36T880 -41T1085 -69Q1191 -69 1289 -41T1472 36T1628 156T1749 312T1826 496T1854 701Q1854 807 1826 905T1749 1089T1628 1244T1472 1364T1289 1441T1085 1469ZM1046 1132H1159L864 562H1150V798H1251V562H1395V467H1251V294H1150V467H742V540Z" unicode="④"/>
			<glyph d="M1085 1575Q1206 1575 1318 1543T1528 1455T1706 1319T1843 1142T1931 933T1963 701Q1963 580 1931 468T1843 259T1706 82T1528 -55T1318 -143T1085 -175Q964 -175 851 -143T641 -55T464 82T327 259T238 468T207 701Q207 821 238 933T327 1142T464 1319T641 1455T851 1543T1085 1575ZM1085 1469Q979 1469 880 1441T697 1364T542 1244T422 1089T344 905T317 701Q317 595 344 496T422 312T542 156T697 36T880 -41T1085 -69Q1191 -69 1289 -41T1472 36T1628 156T1749 312T1826 496T1854 701Q1854 807 1826 905T1749 1089T1628 1244T1472 1364T1289 1441T1085 1469ZM879 1133H1347V1039H969L959 798H1075Q1230 798 1309 730T1388 547Q1388 487 1365 438T1303 354T1208 301T1088 283Q996 283 923 315T797 405L853 478Q894 432 955 404T1087 377Q1133 377 1169 389T1231 422T1269 474T1282 540Q1282 618 1227 663T1048 708H867Z" unicode="⑤"/>
			<glyph d="M1085 1575Q1206 1575 1318 1543T1528 1455T1706 1319T1843 1142T1931 933T1963 701Q1963 580 1931 468T1843 259T1706 82T1528 -55T1318 -143T1085 -175Q964 -175 851 -143T641 -55T464 82T327 259T238 468T207 701Q207 821 238 933T327 1142T464 1319T641 1455T851 1543T1085 1575ZM1085 1469Q979 1469 880 1441T697 1364T542 1244T422 1089T344 905T317 701Q317 595 344 496T422 312T542 156T697 36T880 -41T1085 -69Q1191 -69 1289 -41T1472 36T1628 156T1749 312T1826 496T1854 701Q1854 807 1826 905T1749 1089T1628 1244T1472 1364T1289 1441T1085 1469ZM1083 1133H1205L993 812Q1042 831 1094 831Q1159 831 1213 810T1305 752T1365 666T1387 560Q1387 500 1364 449T1300 362T1203 304T1081 283Q1015 283 958 304T860 361T795 448T772 558Q772 606 787 650T832 739ZM1081 744Q1037 744 1000 730T936 691T893 632T878 559Q878 519 893 485T936 426T1000 388T1081 374Q1124 374 1161 388T1225 426T1267 485T1282 559Q1282 599 1267 632T1225 691T1161 730T1081 744Z" unicode="⑥"/>
			<glyph d="M1085 1575Q1206 1575 1318 1543T1528 1455T1706 1319T1843 1142T1931 933T1963 701Q1963 580 1931 468T1843 259T1706 82T1528 -55T1318 -143T1085 -175Q964 -175 851 -143T641 -55T464 82T327 259T238 468T207 701Q207 821 238 933T327 1142T464 1319T641 1455T851 1543T1085 1575ZM1085 1469Q979 1469 880 1441T697 1364T542 1244T422 1089T344 905T317 701Q317 595 344 496T422 312T542 156T697 36T880 -41T1085 -69Q1191 -69 1289 -41T1472 36T1628 156T1749 312T1826 496T1854 701Q1854 807 1826 905T1749 1089T1628 1244T1472 1364T1289 1441T1085 1469ZM819 1133H1409V1053L1027 294H907L1289 1038H819Z" unicode="⑦"/>
			<glyph d="M1085 1575Q1206 1575 1318 1543T1528 1455T1706 1319T1843 1142T1931 933T1963 701Q1963 580 1931 468T1843 259T1706 82T1528 -55T1318 -143T1085 -175Q964 -175 851 -143T641 -55T464 82T327 259T238 468T207 701Q207 821 238 933T327 1142T464 1319T641 1455T851 1543T1085 1575ZM1085 1469Q979 1469 880 1441T697 1364T542 1244T422 1089T344 905T317 701Q317 595 344 496T422 312T542 156T697 36T880 -41T1085 -69Q1191 -69 1289 -41T1472 36T1628 156T1749 312T1826 496T1854 701Q1854 807 1826 905T1749 1089T1628 1244T1472 1364T1289 1441T1085 1469ZM1085 1142Q1146 1142 1200 1127T1295 1083T1359 1013T1383 917Q1383 878 1370 846T1336 789T1286 747T1224 718Q1261 707 1294 689T1351 646T1390 588T1404 516Q1404 460 1379 416T1310 343T1209 298T1085 283Q1019 283 961 298T859 343T791 416T766 516Q766 556 780 588T818 646T875 689T946 718Q912 729 883 747T832 789T799 846T787 917Q787 971 810 1013T874 1083T969 1127T1085 1142ZM1085 678Q1042 678 1004 668T937 639T892 591T876 526Q876 488 892 459T937 411T1004 382T1085 373Q1128 373 1166 382T1232 411T1277 459T1294 526Q1294 563 1277 591T1232 639T1166 668T1085 678ZM1085 1052Q1046 1052 1011 1043T950 1016T909 971T894 908Q894 872 909 844T950 797T1011 769T1085 760Q1125 760 1159 769T1220 797T1261 844T1276 908Q1276 944 1261 971T1220 1016T1159 1043T1085 1052Z" unicode="⑧"/>
			<glyph d="M1085 1575Q1206 1575 1318 1543T1528 1455T1706 1319T1843 1142T1931 933T1963 701Q1963 580 1931 468T1843 259T1706 82T1528 -55T1318 -143T1085 -175Q964 -175 851 -143T641 -55T464 82T327 259T238 468T207 701Q207 821 238 933T327 1142T464 1319T641 1455T851 1543T1085 1575ZM1085 1469Q979 1469 880 1441T697 1364T542 1244T422 1089T344 905T317 701Q317 595 344 496T422 312T542 156T697 36T880 -41T1085 -69Q1191 -69 1289 -41T1472 36T1628 156T1749 312T1826 496T1854 701Q1854 807 1826 905T1749 1089T1628 1244T1472 1364T1289 1441T1085 1469ZM1099 1142Q1165 1142 1221 1121T1318 1064T1383 978T1406 869Q1406 821 1391 776T1347 687L1096 294H974L1186 613Q1139 595 1085 595Q1020 595 966 616T873 673T812 759T791 866Q791 926 814 976T878 1063T976 1121T1099 1142ZM1099 1051Q1055 1051 1018 1037T954 998T912 940T897 867Q897 827 912 793T954 735T1018 697T1099 683Q1142 683 1179 697T1243 735T1285 793T1301 867Q1301 907 1285 940T1243 998T1179 1037T1099 1051Z" unicode="⑨"/>
			<glyph d="M1085 1575Q1206 1575 1318 1543T1528 1455T1706 1319T1843 1142T1931 933T1963 701Q1963 580 1931 468T1843 259T1706 82T1528 -55T1318 -143T1085 -175Q964 -175 851 -143T641 -55T464 82T327 259T238 468T207 701Q207 821 238 933T327 1142T464 1319T641 1455T851 1543T1085 1575ZM1085 1469Q979 1469 880 1441T697 1364T542 1244T422 1089T344 905T317 701Q317 595 344 496T422 312T542 156T697 36T880 -41T1085 -69Q1191 -69 1289 -41T1472 36T1628 156T1749 312T1826 496T1854 701Q1854 807 1826 905T1749 1089T1628 1244T1472 1364T1289 1441T1085 1469ZM1085 1142Q1161 1142 1227 1112T1343 1028T1421 893T1450 713Q1450 612 1421 532T1343 397T1227 312T1085 283Q1010 283 943 312T827 397T749 532T721 713Q721 813 749 893T827 1028T943 1112T1085 1142ZM1085 1045Q1031 1045 984 1023T902 958T846 854T826 713Q826 633 846 571T902 467T984 403T1085 381Q1139 381 1186 403T1268 467T1324 571T1345 713Q1345 792 1324 854T1268 958T1186 1023T1085 1045Z" unicode="⓪"/>
			<glyph d="M1086 1142Q1010 1142 943 1112T827 1028T749 893T721 713Q721 612 749 532T827 397T943 312T1086 283Q1161 283 1227 312T1343 397T1422 532T1451 713Q1451 813 1422 893T1343 1028T1227 1112T1086 1142ZM1086 1045Q1140 1045 1187 1023T1269 958T1324 854T1345 713Q1345 633 1324 571T1269 467T1187 403T1086 381Q1032 381 985 403T903 467T847 571T827 713Q827 792 847 854T903 958T985 1023T1086 1045ZM1085 1564Q1205 1564 1316 1533T1523 1446T1698 1311T1834 1136T1921 930T1952 701Q1952 582 1921 471T1834 265T1698 90T1523 -45T1316 -133T1085 -164Q965 -164 854 -133T647 -45T472 90T337 265T250 471T219 701Q219 820 250 930T337 1136T472 1311T647 1446T854 1533T1085 1564Z" unicode="⓿"/>
			<glyph d="M2263 1754L2330 1668L1156 700L1918 -269L1828 -344L1070 620L-112 -354L-179 -268L995 700L232 1668L322 1744L1081 780Z" horiz-adv-x="2096" unicode="╳"/>
			<glyph d="M248 1400H948V0H248Z" horiz-adv-x="1800" unicode="▌"/>
			<glyph d="M248 1400H1648V0H248Z" horiz-adv-x="1800" unicode="■"/>
			<glyph d="M248 1400H1648V0H248ZM353 1294V106H1542V1294Z" horiz-adv-x="1800" unicode="□"/>
			<glyph d="M248 1400H948V0H248Z" horiz-adv-x="1800" unicode="▮"/>
			<glyph d="M884 1420L1704 0H64Z" horiz-adv-x="1800" unicode="▲"/>
			<glyph d="M884 1420L1704 0H64ZM884 1209L247 106H1522Z" horiz-adv-x="1800" unicode="△"/>
			<glyph d="M617 914L927 379H306Z" horiz-adv-x="1200" unicode="▴"/>
			<glyph d="M422 956L958 646L422 335Z" horiz-adv-x="1200" unicode="▸"/>
			<glyph d="M210 1400H1850L1030 -20Z" horiz-adv-x="1800" unicode="▼"/>
			<glyph d="M210 1400H1850L1030 -20ZM393 1294L1030 191L1667 1294Z" horiz-adv-x="1800" unicode="▽"/>
			<glyph d="M348 914H968L658 378Z" horiz-adv-x="1199" unicode="▾"/>
			<glyph d="M853 956V335L317 646Z" horiz-adv-x="1201" unicode="◂"/>
			<glyph d="M959 1438L1697 700L959 -38L221 700Z" horiz-adv-x="1800" unicode="◆"/>
			<glyph d="M959 1438L1697 700L959 -38L221 700ZM959 1289L370 700L959 111L1548 700Z" horiz-adv-x="1800" unicode="◇"/>
			<glyph d="M753 1400H886L1490 700L885 0H753L149 700ZM817 1296L298 701L821 104L1341 700Z" horiz-adv-x="1541" unicode="◊"/>
			<glyph d="M962 1439Q1064 1439 1158 1412T1335 1338T1484 1222T1600 1073T1674 896T1701 700Q1701 598 1674 503T1600 327T1484 177T1335 62T1158 -12T962 -39Q860 -39 765 -12T589 62T439 177T324 327T249 503T223 700Q223 802 249 896T324 1073T439 1222T589 1338T765 1412T962 1439ZM962 1333Q831 1333 715 1283T514 1148T378 946T329 700Q329 569 378 453T514 252T715 116T962 67Q1049 67 1130 89T1281 153T1410 252T1509 380T1573 531T1596 700Q1596 788 1573 868T1509 1019T1410 1147T1281 1246T1130 1310T962 1333Z" horiz-adv-x="1800" unicode="○"/>
			<glyph d="M962 1439Q1064 1439 1158 1412T1335 1338T1484 1222T1600 1073T1674 896T1701 700Q1701 598 1674 503T1600 327T1484 177T1335 62T1158 -12T962 -39Q860 -39 765 -12T589 62T439 177T324 327T249 503T223 700Q223 802 249 896T324 1073T439 1222T589 1338T765 1412T962 1439Z" horiz-adv-x="1800" unicode="●"/>
			<glyph d="M962 1439Q1064 1439 1158 1412T1335 1338T1484 1222T1600 1073T1674 896T1701 700Q1701 598 1674 503T1600 327T1484 177T1335 62T1158 -12T962 -39Q860 -39 765 -12T589 62T439 177T324 327T249 503T223 700Q223 802 249 896T324 1073T439 1222T589 1338T765 1412T962 1439ZM962 1333V67Q1049 67 1130 89T1281 153T1410 252T1509 380T1573 531T1596 700Q1596 788 1573 868T1509 1019T1410 1147T1281 1246T1130 1310T962 1333Z" horiz-adv-x="1800" unicode="◐"/>
			<glyph d="M962 1439V-39Q860 -39 765 -12T589 62T439 177T324 327T249 503T223 700Q223 802 249 896T324 1073T439 1222T589 1338T765 1412T962 1439Z" horiz-adv-x="1800" unicode="◖"/>
			<glyph d="M248 1400H1648V0H248ZM948 1294V106H1542V1294Z" horiz-adv-x="1800" unicode="◧"/>
			<glyph d="M297 1547H1991V-147H297ZM385 1459V-59H1903V1459Z" horiz-adv-x="2200" unicode="☐"/>
			<glyph d="M297 1547H1991V-147H297ZM385 1459V-59H1903V1459ZM1645 1210L1716 1158L1009 160L604 676L672 732L1005 303Z" horiz-adv-x="2200" unicode="☑"/>
			<glyph d="M297 1547H1991V-147H297ZM385 1459V-59H1903V1459ZM712 1192L1144 759L1577 1192L1640 1129L1206 697L1636 267L1574 205L1144 634L715 205L652 267L1082 697L649 1129Z" horiz-adv-x="2200" unicode="☒"/>
			<glyph d="M728 1173Q781 1173 829 1156T915 1110T974 1043Q994 1009 996 970Q998 1009 1018 1043Q1040 1081 1077 1110T1162 1156T1264 1173Q1323 1173 1373 1151T1459 1092T1515 1004T1536 895Q1536 807 1492 714T1374 529T1202 351T996 188Q888 264 790 351T617 529T499 714T456 895Q456 954 476 1004T533 1092T619 1151T728 1173Z" horiz-adv-x="1800" unicode="♥"/>
			<glyph d="M1745 1269L1828 1208L1018 113L577 593L654 663L1009 275Z" horiz-adv-x="2200" unicode="✓"/>
			<glyph d="M2263 1754L2330 1668L1156 700L1918 -269L1828 -344L1070 620L-112 -354L-179 -268L995 700L232 1668L322 1744L1081 780Z" horiz-adv-x="2096" unicode="✕"/>
			<glyph d="M678 1245L1150 773L1621 1245L1694 1171L1223 700L1694 229L1621 155L1150 627L678 155L605 229L1076 700L605 1171Z" horiz-adv-x="2200" unicode="✗"/>
			<glyph d="M1189 1141L810 988V887L1088 1001V294H1189ZM1085 1564Q1205 1564 1316 1533T1523 1446T1698 1311T1834 1136T1921 930T1952 701Q1952 582 1921 471T1834 265T1698 90T1523 -45T1316 -133T1085 -164Q965 -164 854 -133T647 -45T472 90T337 265T250 471T219 701Q219 820 250 930T337 1136T472 1311T647 1446T854 1533T1085 1564Z" unicode="❶"/>
			<glyph d="M1078 1142Q1024 1142 981 1129T905 1096T848 1050T807 1001L875 938Q890 959 908 978T951 1012T1004 1036T1070 1045Q1112 1045 1145 1032T1200 996T1235 943T1247 878Q1247 824 1222 780T1158 697L832 373V294H1381V388H978L1229 639Q1254 664 1276 691T1316 748T1343 812T1353 885Q1353 940 1334 987T1280 1068T1194 1122T1078 1142ZM1085 1564Q1205 1564 1315 1533T1522 1446T1698 1311T1833 1136T1921 930T1952 701Q1952 582 1921 471T1833 265T1698 90T1522 -45T1315 -133T1085 -164Q965 -164 854 -133T647 -45T472 90T336 265T249 471T218 701Q218 820 249 930T336 1136T472 1311T647 1446T854 1533T1085 1564Z" unicode="❷"/>
			<glyph d="M1085 1564Q1205 1564 1316 1533T1523 1446T1698 1311T1834 1136T1921 930T1952 701Q1952 582 1921 471T1834 265T1698 90T1523 -45T1316 -133T1085 -164Q965 -164 854 -133T647 -45T472 90T337 265T250 471T219 701Q219 820 250 930T337 1136T472 1311T647 1446T854 1533T1085 1564ZM1070 1142Q979 1142 912 1108T804 1023L866 958Q898 996 948 1023T1065 1051Q1108 1051 1144 1040T1207 1011T1248 966T1263 908Q1263 872 1248 844T1208 799T1148 771T1073 762H954V673H1072Q1115 673 1153 663T1219 634T1264 587T1281 525Q1281 486 1264 457T1218 410T1151 382T1072 373Q1010 373 955 395T860 457L801 390Q849 340 919 311T1076 283Q1136 283 1192 297T1291 341T1360 414T1386 519Q1386 593 1337 644T1211 717Q1282 738 1324 788T1367 916Q1367 966 1345 1007T1284 1079T1190 1125T1070 1142Z" unicode="❸"/>
			<glyph d="M1085 1564Q1205 1564 1316 1533T1523 1446T1698 1311T1834 1136T1921 930T1952 701Q1952 582 1921 471T1834 265T1698 90T1523 -45T1316 -133T1085 -164Q965 -164 854 -133T647 -45T472 90T337 265T250 471T219 701Q219 820 250 930T337 1136T472 1311T647 1446T854 1533T1085 1564ZM1047 1132L742 540V467H1150V294H1252V467H1395V562H1252V798H1150V562H864L1159 1132Z" unicode="❹"/>
			<glyph d="M880 1133L867 708H1049Q1172 708 1227 663T1283 540Q1283 504 1269 474T1231 422T1170 389T1088 377Q1017 377 955 404T853 478L798 405Q850 347 923 315T1088 283Q1153 283 1208 301T1303 354T1365 438T1388 547Q1388 604 1368 650T1309 730T1211 780T1076 798H959L969 1039H1347V1133ZM1085 1564Q1205 1564 1316 1533T1523 1446T1698 1311T1834 1136T1921 930T1952 701Q1952 582 1921 471T1834 265T1698 90T1523 -45T1316 -133T1085 -164Q965 -164 854 -133T647 -45T472 90T337 265T250 471T219 701Q219 820 250 930T337 1136T472 1311T647 1446T854 1533T1085 1564Z" unicode="❺"/>
			<glyph d="M1085 1564Q1205 1564 1316 1533T1523 1446T1698 1311T1834 1136T1921 930T1952 701Q1952 582 1921 471T1834 265T1698 90T1523 -45T1316 -133T1085 -164Q965 -164 854 -133T647 -45T472 90T337 265T250 471T219 701Q219 820 250 930T337 1136T472 1311T647 1446T854 1533T1085 1564ZM1083 1133L832 739Q803 694 787 650T772 558Q772 499 795 448T860 361T958 304T1081 283Q1147 283 1203 304T1300 362T1365 449T1388 560Q1388 617 1366 666T1306 752T1213 810T1095 831Q1042 831 993 812L1205 1133ZM1081 744Q1124 744 1161 730T1225 691T1267 632T1283 559Q1283 519 1267 485T1225 426T1161 388T1081 374Q1037 374 1000 388T936 426T893 485T878 559Q878 599 893 632T936 691T1000 730T1081 744Z" unicode="❻"/>
			<glyph d="M819 1133V1038H1290L907 294H1027L1410 1053V1133ZM1085 1564Q1205 1564 1316 1533T1523 1446T1698 1311T1834 1136T1921 930T1952 701Q1952 582 1921 471T1834 265T1698 90T1523 -45T1316 -133T1085 -164Q965 -164 854 -133T647 -45T472 90T337 265T250 471T219 701Q219 820 250 930T337 1136T472 1311T647 1446T854 1533T1085 1564Z" unicode="❼"/>
			<glyph d="M1085 1564Q1205 1564 1316 1533T1523 1446T1698 1311T1834 1136T1921 930T1952 701Q1952 582 1921 471T1834 265T1698 90T1523 -45T1316 -133T1085 -164Q965 -164 854 -133T647 -45T472 90T337 265T250 471T219 701Q219 820 250 930T337 1136T472 1311T647 1446T854 1533T1085 1564ZM1085 1141Q1024 1141 970 1126T875 1082T811 1012T788 916Q788 877 800 845T834 789T885 747T947 718Q909 707 876 689T819 647T781 589T767 516Q767 460 792 417T860 344T962 299T1085 284Q1151 284 1209 299T1310 344T1379 417T1404 516Q1404 556 1390 588T1351 646T1294 689T1224 718Q1257 729 1286 747T1336 789T1370 845T1383 916Q1383 970 1359 1012T1295 1082T1200 1126T1085 1141ZM1085 678Q1128 678 1166 668T1232 639T1277 591T1294 526Q1294 488 1277 460T1232 412T1166 383T1085 374Q1043 374 1005 383T938 412T893 460T877 526Q877 563 893 591T938 639T1005 668T1085 678ZM1085 1051Q1124 1051 1159 1042T1220 1015T1261 970T1276 907Q1276 871 1261 843T1220 797T1159 769T1085 760Q1046 760 1011 769T951 797T910 843T895 907Q895 943 910 970T951 1015T1011 1042T1085 1051Z" unicode="❽"/>
			</font>
</defs>
</svg>
