<svg id="Layer_1" data-name="Layer 1" xmlns="http://www.w3.org/2000/svg" width="230" height="34.9" viewBox="0 0 230 34.9"><defs><style>.cls-1{fill:#fff;}.cls-2{fill:#0060a8;}.cls-3{fill:none;stroke:#fff;stroke-miterlimit:10;stroke-width:1.57px;}</style></defs><title>gmf-logo-alt</title><path class="cls-1" d="M131.9,16.5a12.6,12.6,0,0,1-4.3.8,6.05,6.05,0,0,1-4.7-1.7,6.59,6.59,0,0,1-1.8-4.6A6.78,6.78,0,0,1,123,6a7.1,7.1,0,0,1,5.2-1.9,10.77,10.77,0,0,1,3.4.5V7.2a9.39,9.39,0,0,0-3.6-.6,4.5,4.5,0,0,0-3.1,1.1,4.22,4.22,0,0,0-1.2,3.2,5,5,0,0,0,1,3.1,3.46,3.46,0,0,0,2.9,1,6.18,6.18,0,0,0,1.5-.1V10.6h2.7v6h0.1V16.5Z" transform="translate(-55 7.5)"/><path class="cls-1" d="M153.1,17.2h-2.8L149,8.7l-2.7,8.4h-2.4L141.1,9l-1,8.2h-2.7l1.9-12.6h3.1l2.8,8.6,2.9-8.6h3.1Z" transform="translate(-55 7.5)"/><path class="cls-1" d="M174,6.7h-4.7V9.8h4.5V12h-4.5v5.2h-2.7V4.5H174V6.7Z" transform="translate(-55 7.5)"/><path class="cls-1" d="M182.3,17.2h-2.7V4.5h2.7V17.2Z" transform="translate(-55 7.5)"/><path class="cls-1" d="M199.6,17.2h-3.3l-4.9-8.6v8.6h-2.6V4.5h3.3l4.9,8.6V4.5h2.6V17.2h0Z" transform="translate(-55 7.5)"/><path class="cls-1" d="M216.6,17.2h-2.9l-0.9-2.4h-4.7l-0.8,2.4h-2.7l4.5-12.6H212Zm-4.3-4.6-1.8-4.9-1.7,4.9h3.5Z" transform="translate(-55 7.5)"/><path class="cls-1" d="M232.4,17.2H229l-4.9-8.6v8.6h-2.6V4.5h3.3l4.9,8.6-0.1-8.6h2.6V17.2h0.2Z" transform="translate(-55 7.5)"/><path class="cls-1" d="M247.2,16.8a8.08,8.08,0,0,1-3.1.5,5.74,5.74,0,0,1-4.5-1.7,6.27,6.27,0,0,1-1.5-4.5A7,7,0,0,1,239.8,6a5.77,5.77,0,0,1,4.7-1.8,10.32,10.32,0,0,1,2.6.3V6.9a7.66,7.66,0,0,0-2.7-.4,3.47,3.47,0,0,0-2.6,1.1,5,5,0,0,0-.9,3.1,5.07,5.07,0,0,0,.9,3.2,3.7,3.7,0,0,0,2.7,1,7.6,7.6,0,0,0,2.6-.6v2.4h0.1v0.1Z" transform="translate(-55 7.5)"/><path class="cls-1" d="M255.9,17.2h-2.7V4.5h2.7V17.2Z" transform="translate(-55 7.5)"/><path class="cls-1" d="M272.9,17.2H270l-0.9-2.4h-4.7l-0.8,2.4h-2.7l4.5-12.6h2.9Zm-4.4-4.6-1.8-4.9L265,12.6h3.5Z" transform="translate(-55 7.5)"/><path class="cls-1" d="M285,17.2h-7.2V4.5h2.7V14.9H285v2.3Z" transform="translate(-55 7.5)"/><rect class="cls-2" width="34.9" height="34.9"/><rect class="cls-1" x="8.7" y="23.4" width="17.5" height="2.8"/><polygon class="cls-1" points="17.4 8.8 20.3 8.8 21.7 18.4 23.3 8.8 26.2 8.8 26.2 21.9 24.3 21.9 24.3 12 22.6 21.9 21 21.9 19.3 12 19.3 21.9 17.4 21.9 17.4 8.8"/><path class="cls-1" d="M68.3,5.4h2V4.5c0-.9,0-3.4-3.3-3.4a3.06,3.06,0,0,0-3.3,3.4v6.8c0,2,.8,3.3,2.6,3.3a2.17,2.17,0,0,0,2-.9v0.6h1.9V7.2H67.1V8.7h1.2v2c0,1-.4,1.8-1.3,1.8s-1.3-.8-1.3-1.8V4.4A1.38,1.38,0,0,1,67,2.7c1.3,0,1.3,1.1,1.3,1.7v1Z" transform="translate(-55 7.5)"/><line class="cls-3" x1="51.2" x2="51.2" y2="34.9"/></svg>