<svg id="Layer_1" data-name="Layer 1" xmlns="http://www.w3.org/2000/svg" width="24" height="24" viewBox="0 0 24 24"><defs><style>.cls-1{fill:#63696e;}</style></defs><title>icon-twitter</title><path class="cls-1" d="M3.65,1.51v24h24v-24h-24ZM22.51,10v0.43a9.94,9.94,0,0,1-10,10,10.1,10.1,0,0,1-5.41-1.55,4.06,4.06,0,0,0,.8.05,7.1,7.1,0,0,0,4.34-1.5A3.56,3.56,0,0,1,9,15a3.27,3.27,0,0,0,1.61-.05,3.5,3.5,0,0,1-2.84-3.43V11.46a3.27,3.27,0,0,0,1.61.43A3.51,3.51,0,0,1,8.26,7.18a10.19,10.19,0,0,0,7.23,3.7,3.58,3.58,0,0,1,1-3.37,3.54,3.54,0,0,1,5,.16,6.75,6.75,0,0,0,2.25-.86,3.46,3.46,0,0,1-1.55,1.93,6.73,6.73,0,0,0,2-.54A9.22,9.22,0,0,1,22.51,10Z" transform="translate(-3.65 -1.51)"/></svg>