<svg id="Layer_1" data-name="Layer 1" xmlns="http://www.w3.org/2000/svg" width="23.93" height="24" viewBox="0 0 23.93 24"><defs><style>.cls-1{fill:#63696e;}</style></defs><title>icon-linkedin</title><path class="cls-1" d="M27,4H5A1,1,0,0,0,4,5v22A1,1,0,0,0,5,28h22a1,1,0,0,0,1-1V5A0.89,0.89,0,0,0,27,4ZM11.11,24.47H7.51V13h3.6V24.47Zm-1.8-13a2.1,2.1,0,0,1-2.1-2.1,2.05,2.05,0,0,1,2.1-2.1,2.05,2.05,0,0,1,2.1,2.1A2.1,2.1,0,0,1,9.31,11.42Zm15.15,13h-3.6V18.92c0-1.35,0-3-1.87-3s-2.17,1.42-2.17,2.92v5.7H13.29V13h3.45v1.58h0.08a3.87,3.87,0,0,1,3.38-1.87c3.6,0,4.27,2.4,4.27,5.48v6.3h0Z" transform="translate(-3.99 -4)"/></svg>